<svg xmlns="http://www.w3.org/2000/svg" viewBox="0 0 1232.85 782.05"><defs><style>.cls-1{isolation:isolate;}.cls-2{fill:#97499b;}.cls-3{fill:#ed3724;}.cls-4{fill:#476bb2;}.cls-5{fill:#f9a128;}.cls-6{fill:#f6eb34;}.cls-7{fill:#3bc5f3;}.cls-8{fill:#a7cd41;}.cls-9{fill:#fff;}.cls-10{fill:#ffbe93;}.cls-11{fill:#cb653f;}.cls-12{fill:#ba6161;}.cls-13{fill:#006856;}.cls-14{fill:#2b5669;}.cls-15{fill:#91aa9d;}.cls-16{fill:#2d5e6c;}.cls-17{fill:#668a94;}.cls-18{fill:#ffd0b0;}.cls-19{fill:#ff6f4f;}.cls-20{fill:#193441;}.cls-21{fill:#ea2f2f;}.cls-22{fill:#59262c;}.cls-23{fill:#a8a8a8;opacity:0.95;mix-blend-mode:multiply;}.cls-24{fill:#d4ded9;}.cls-25{fill:#93363f;}.cls-26{fill:#f9cd4b;}.cls-27{fill:#f85d3f;}.cls-28{fill:#f45b3d;}.cls-29{fill:#3c2415;}.cls-30{fill:#f9603f;}.cls-31{fill:#7e455a;}</style></defs><title>Asset 56</title><g class="cls-1"><g id="Layer_2" data-name="Layer 2"><g id="Layer_7" data-name="Layer 7"><path class="cls-2" d="M482.18,513.28c-102.39,5.14-155.67,43.78-158.34,114.86-1.27,33.71,9.58,67.8,18,88.8l37.35-1.87c-6.66-19-13.4-44.9-12.44-70.36,2.38-63.18,49.81-97.54,141-102.11s191.95,22.35,299.55,80a1037,1037,0,0,1,106,65.67l37.37-1.88a1133,1133,0,0,0-131.7-83.1C697.88,538.44,584.58,508.15,482.18,513.28Z"/><path class="cls-3" d="M1132.4,653.28c-4.07-3.41-101.49-84.41-244.32-161.15-137.22-73.72-344.71-159.41-554-148.91S77.68,452.16,75,532.91C72.13,617,118,700.56,120,704.06l13,23.36,35.64-1.79-8.82-15.86c-1.82-3.27-44.6-81.13-41.94-160.34,2.54-75.29,46.54-167.1,241.78-176.89s388.74,70.1,516.69,138.85c134.5,72.27,225.32,147.77,229.12,151l18.39,15.39,35.64-1.79Z"/><path class="cls-4" d="M456.65,484c-113.62,5.7-172.74,48.63-175.72,127.6-1.62,43.16,14.75,86.38,24.07,107.23l36.83-1.85c-8.41-21-19.26-55.09-18-88.8,2.67-71.08,56-109.72,158.34-114.86s215.7,25.16,336.75,90a1133,1133,0,0,1,131.7,83.1l36.83-1.84A1211,1211,0,0,0,830.59,584C696.09,511.92,570.28,478.26,456.65,484Z"/><path class="cls-5" d="M876.33,511.39c-128-68.75-321.46-148.64-516.69-138.85S120.4,474.14,117.86,549.43C115.2,628.64,158,706.5,159.8,709.77l8.82,15.86,35.64-1.79-4.65-8.36c-1.69-3-41.34-75.24-38.84-149.53,2.35-69.84,43.19-155,224.4-164.09s360.72,65,479.41,128.79C990.85,598.5,1075,668.46,1078.51,671.41l9.69,8.11,35.64-1.79-18.39-15.39C1101.65,659.16,1010.83,583.66,876.33,511.39Z"/><path class="cls-6" d="M864.58,530.65C745.89,466.88,566.37,392.77,385.17,401.86s-222,94.25-224.4,164.09c-2.5,74.29,37.15,146.49,38.84,149.53l4.65,8.36,39.77-2-4.61-.66c-1.56-2.8-38.08-69.37-35.74-138.73,2.16-64.38,39.84-142.89,207-151.28s332.71,59.94,442.13,118.73c117.87,63.33,195.47,127.84,198.72,130.55l-3.12,1,39.77-2-9.69-8.11C1075,668.46,990.85,598.5,864.58,530.65Z"/><path class="cls-7" d="M431.12,454.64C306.27,460.9,241.3,508.12,238,595c-2.07,54.8,22.37,109,30.6,125.62L305,718.79c-9.32-20.85-25.69-64.07-24.07-107.23,3-79,62.1-121.9,175.72-127.6s239.44,28,373.94,100A1211,1211,0,0,1,987.46,684.57l36.37-1.83c-20.14-16-88.24-68-181.58-118C694.3,485.4,556,448.38,431.12,454.64Z"/><path class="cls-8" d="M852.83,549.91c-109.42-58.79-275-127.11-442.13-118.73s-204.86,86.9-207,151.28c-2.34,69.36,34.18,135.93,35.74,138.73l4.61.66,24.6-1.24C260.4,704,236,649.79,238,595c3.27-86.87,68.24-134.09,193.09-140.35S694.3,485.4,842.25,564.69c93.34,50,161.44,102.07,181.58,118l24.6-1.23,3.12-1C1048.3,677.75,970.7,613.24,852.83,549.91Z"/><path class="cls-9" d="M37.27,688.17a59.9,59.9,0,0,1,73.93-32.94,82.09,82.09,0,0,1-1.06-13,80.81,80.81,0,0,1,139.74-55.3,80.79,80.79,0,0,1,139.58,50.5,70.93,70.93,0,0,1,36,39.72c1.39-.13,2.8-.2,4.22-.2a46.11,46.11,0,1,1-29.37,81.65,70.77,70.77,0,0,1-65.88,9,80.75,80.75,0,0,1-94.82-1.8,80.77,80.77,0,0,1-107.46-9.1,59.94,59.94,0,0,1-57.24,12.74,46.1,46.1,0,1,1-37.66-81.22Z"/><path class="cls-9" d="M1199.19,673.28a54.09,54.09,0,0,0-66.76-29.75,73.44,73.44,0,0,0,1-11.75c0-40.31-32.88-88.59-73.18-88.59-21,0-37.14,7.44-50.45,21.61-13.32-14.17-34.84-25.37-55.82-25.37-38.85,0-70.53,49.72-72.78,88a64,64,0,0,0-32.53,35.87c-1.25-.12-2.52-.19-3.81-.19a41.64,41.64,0,1,0,26.52,73.73A63.84,63.84,0,0,0,930.83,745a72.94,72.94,0,0,0,85.63-1.63,72.93,72.93,0,0,0,97-8.22,54,54,0,0,0,51.68,11.51,41.63,41.63,0,1,0,34-73.34Z"/><path class="cls-10" d="M626.8,427.67c-12.09.74-24.24-.44-36.38-.32-1,0-2,0-3,.06-1.56,0-3.13.1-4.69.19-18.83.95-37.55,4.32-56.43,4.54-3.26,0-6.53,0-9.79-.12-4.13-.14-8.25-.36-12.37-.58l-43.3-2.32c-2.33-.12-5.19-.63-5.93-2.85a4.24,4.24,0,0,1,.07-2.49,11.9,11.9,0,0,1,.38-1.15,44.85,44.85,0,0,1,6-10.85,51,51,0,0,1,24.8-17.35,69.69,69.69,0,0,1,30.38-2.58l6.67-.2c1.16,2.31,2.58,4.84,5.06,5.58a8,8,0,0,0,2.13.26c1.81,0,3.61-.22,5.42-.28,15-.48,27.76,11,42.42,14.2.65.15,1.31.27,2,.38a12,12,0,0,0,3.74.1c.1,0,.2,0,.3-.06l.13,0a4.54,4.54,0,0,0,2.49-1.37,4.35,4.35,0,0,0,.46-.6c.33-.48.59-1,.88-1.53a8.23,8.23,0,0,1,.46-.74,5.71,5.71,0,0,1,4.63-2.36l.23-.27c5-.8,9.78,1.87,13.9,4.76a160,160,0,0,1,20,16.59A.81.81,0,0,1,626.8,427.67Z"/><path class="cls-11" d="M516.46,432c-4.13-.14-8.25-.36-12.37-.58l-43.3-2.32c-2.33-.12-5.19-.63-5.93-2.85a4.24,4.24,0,0,1,.07-2.49l5.2-4.08.84-.48a17,17,0,0,1,9.07,2.2c3.39,1.92,6.1,5,9.72,6.4,2.64,1,5.53,1.08,8.36,1.21C497.62,429.43,507.05,430.68,516.46,432Z"/><path class="cls-10" d="M428.73,419.75a4.34,4.34,0,0,1-3.54,4.66c-.48.17-1,.31-1.46.44-17.8,4.7-36.16,6.81-54.59,7.6q-7.58.33-15.17.38a143.21,143.21,0,0,1-17.7-.68c-5.14-.6-10.21-1.68-15.26-2.76-3-.64-6.14-1.33-8.62-3.16-5.19-3.84-5.93-11.27-5.37-17.7a75.24,75.24,0,0,1,2.22-12.82l.32-6.07a20.26,20.26,0,0,1,7-12.11,40.06,40.06,0,0,1,7.56-4.6,40.57,40.57,0,0,1,9.05-3.74c4-.94,8.1-.66,12.14-.17A81.65,81.65,0,0,1,365.56,374c15.64,6.24,28.15,18.43,43.12,26.13,4.41,2.27,9.06,4.16,13,7.2S428.74,414.79,428.73,419.75Z"/><path class="cls-11" d="M425.45,423.55c-.08.29-.17.58-.26.86-.48.17-1,.31-1.46.44-17.8,4.7-36.16,6.81-54.59,7.6a103.4,103.4,0,0,0,14.38-7.82c6.66-4.6,12.41-11.38,13.28-19.43l5.43-.48a49.94,49.94,0,0,1,15.22,5.92,24.26,24.26,0,0,1,6.18,4.89,8.79,8.79,0,0,1,2.14,4.06A9,9,0,0,1,425.45,423.55Z"/><path class="cls-12" d="M467.35,37.62a53.83,53.83,0,0,0,1.47,32.68c1.5,4,3.48,7.87,5.28,11.78a141,141,0,0,1,12.78,54.74c.18,6.37.27,12.55,0,18.92l-.48,10.18c-.23,5.08-.47,10.15-1,15.21-1.33,12.34-4.49,24.41-7.83,36.36a110.46,110.46,0,0,0-3.78,18.4c-.26,2.54-.36,5.1-.46,7.66-.26,7-.52,14-.45,20.94l-3.6-5.27a67.61,67.61,0,0,1-2.07,12.4c-.61-3-1.07-6-1.38-9a56.65,56.65,0,0,1-8,11.57l0-3.15a33,33,0,0,1-16.81,9.8,234,234,0,0,1,1-47c-1.89-1.54-5.19-1.31-7.62-1.5-6.28-.48-12.2-3.44-18.49-3.69-14.23-.57-27.47-6.95-41.68-7.93a9.69,9.69,0,0,1-2.94-.49,7.64,7.64,0,0,1-2.63-1.92,19.54,19.54,0,0,1-5.32-11L361,212c-.35-3.52-.71-7-1.06-10.55a49.39,49.39,0,0,1-5.15,12c-4.41-6.59-3.21-15.4-.75-22.92,4.85-14.86,13.8-28,21.26-41.7a225,225,0,0,0,20.9-54.38,22.56,22.56,0,0,1,1.52-4.78c3.06-6.18,11.32-8.35,14.48-14.48-2.38-11-.5-22.83,1.39-34a33.84,33.84,0,0,1,2.54-9.43c3.11-6.34,10-10.19,17.05-11.12s14.11.67,20.82,2.86a26.28,26.28,0,0,1,8.41,4,10.37,10.37,0,0,1,4.21,8l.72,2"/><path class="cls-13" d="M525.13,394c-1.72,3.93-7,4.33-11.24,4.81a41.48,41.48,0,0,0-21.8,9.3c-5.26,4.38-9.38,10-14.8,14.2-10.61,8.16-24.91,9.7-38.26,8.78A65.73,65.73,0,0,1,423,428.32c-14.36-4.72-25.23-16.19-36.61-26.12q-6.42-5.59-13.25-10.67c-8.25-6.12-17.19-11.76-27.24-13.88s-21.47-.18-28.66,7.15c-4.11,4.19-6.53,9.71-8.85,15.09a7.24,7.24,0,0,1-4.53-5.57c-.87-8.58,2.47-17.08,6.93-24.46s10.09-14,14.51-21.41a78.17,78.17,0,0,0,7.94-18.32c2.07-7.17,3.1-14.59,4.31-21.95a440.11,440.11,0,0,1,14.69-61.42c2.34-7.4,4.91-15,4.19-22.72-.34-3.61-1.39-7.12-1.9-10.71-2.2-15.56,5.63-30.72,13.46-44.35-19.46,1-38.85,1.9-57.71,6.81-17.92,4.67-35.81,14.32-53.51,20.46-1.31.45-2.62.89-3.93,1.3s-2.44.75-3.66,1.11l-.86.24q-3.09.89-6.16,1.63a248.42,248.42,0,0,1-30.84,5.23,112.59,112.59,0,0,1-3-49.77,14.7,14.7,0,0,1,2.17-6.37c2.41-3.3,6.87-4.18,10.92-4.73,6.36-.85,12.74-1.48,19.15-1.95,2.16-.17,4.33-.32,6.49-.45l1.06-.06c1.76-.11,3.51-.21,5.27-.29,33.43-1.7,67.13-1,99.42-9.43,7.56-2,15-4.46,22.8-5.33,5.2-.58,10.5-.44,15.58-1.7,6.15-1.53,11.6-5,17.33-7.73s12.27-4.7,18.37-3l-.56.89a11.6,11.6,0,0,1,5,.9l9.47,3.22a66,66,0,0,0,9.29,2.66c3.05.56,6.17.69,9.23,1.24a65.47,65.47,0,0,1,7.52,2c2.82.86,5.79,1.84,7.69,4.08,2.4,2.82,6,7.77,5.78,11.47-.74,15-2.5,27.54-8.84,42.51a102.46,102.46,0,0,0-5.22,17.34l0,.09q-4.27,20.35-8.57,40.7c-1.13,5.38-2.27,10.77-2.92,16.23a93.16,93.16,0,0,0,0,21.95,46.88,46.88,0,0,0,3.79,14.62c2.34,4.92,5.9,9.11,9.56,13.15h0l1.56,1.7q11.56,12.63,23.14,25.24A146.47,146.47,0,0,1,505,349.46a80.67,80.67,0,0,1,12.44,27.39c.77,3.19,3.31,5.58,5.35,8.15s3.7,6,2.39,9"/><path class="cls-11" d="M588.54,411.14a3.66,3.66,0,0,1-2.5.77,14.47,14.47,0,0,1-1.86-.08,4.62,4.62,0,0,0,2.62-1.4,4.35,4.35,0,0,0,.46-.6l.57,0c.4,0,.88.11,1,.49A.8.8,0,0,1,588.54,411.14Z"/><path class="cls-14" d="M416.85,117.55a53.91,53.91,0,0,0-22.19,36.91c-1.18,9.51.21,19.22-1.24,28.69-.63,4.16-1.81,8.25-1.84,12.45,0,1.33.49,3.07,1.83,3.07a2.52,2.52,0,0,0,1.34-.51c10.47-6.58,16.48-18.59,26.6-25.69,3.16-2.21,6.65-3.9,9.86-6,9.25-6.07,15.88-15.39,21.28-25,1.65-2.93,3.24-6,5.67-8.3,1.83-1.74,4.07-3,5.92-4.74s3.35-4.15,3-6.66c-.39-2.9-3.06-5-5.73-6.14-7.66-3.43-16.47-2.55-24.81-1.6l-8.4,1a10.16,10.16,0,0,0-3.49.67c-4.72,1.34-3.58-.19-7.66,2.52"/><path class="cls-15" d="M412.27,128.42a36.28,36.28,0,0,0-7.77,16.88,63.2,63.2,0,0,0-.71,6.87q-.19,3.32-.31,6.63a4.85,4.85,0,0,0,.34,2.37,3.25,3.25,0,0,0,1.28,1.24c2.89,1.68,6.59.23,9.31-1.7,4.79-3.39,8.42-8.12,12.65-12.17,5.89-5.64,13.13-10.19,17.13-17.3a3.31,3.31,0,0,0,.58-2.31c-.34-1.46-2.21-1.83-3.71-1.9a155.29,155.29,0,0,0-24.2.87"/><path class="cls-10" d="M450.75,102.73c-.83,4.81-2.23,9.55-2.61,14.42-.2,2.56-.13,5.19-.93,7.62-1,3.13-3.41,5.63-6,7.67a37.73,37.73,0,0,1-26.46,7.9c-1.57-.14-3.27-.46-4.26-1.67-1.13-1.37-.94-3.38-.57-5.12,1.91-8.89,7-17.24,8.46-26a26.43,26.43,0,0,0,.27-6.6,4,4,0,0,0-.69-2.2,3.31,3.31,0,0,0-1.59-1c-.27-.09-.55-.16-.83-.23-7.6-1.82-15.82-2.15-22.46-6.28a22.52,22.52,0,0,1-10.18-15.12,43.93,43.93,0,0,1-.41-7.78c.09-16.86.24-34.06,5.66-50l-.12.48L395,11.89c2.63-2.62,6-5.47,9.58-4.64,3.3.75,5.12,4.17,7.42,6.65,4.65,5,11.86,6.43,18.46,8.2s13.76,4.74,16.4,11c1.4,3.36,1.27,7.13,1.3,10.78.19,19.68,6,39.42,2.63,58.81"/><path class="cls-12" d="M401.89,21.09A22.8,22.8,0,0,1,389.26,27c-1.63.21-3.7,0-4.27-1.56a3.81,3.81,0,0,1,0-2.14,28.59,28.59,0,0,1,8.38-14.46c5.92-5.47,14-8.19,22.07-8.74S431.59,1,439.41,3a33.29,33.29,0,0,1,8.91,3.31,31.12,31.12,0,0,1,5.23,4.14q3.48,3.25,6.68,6.77A28.17,28.17,0,0,1,464.52,23c2.78,5.32,2.39,11.67,1.92,17.66-.19,2.41-.58,5.17-2.62,6.47-1.64,1-3.76.73-5.67.38a79.69,79.69,0,0,1-11.24-2.61c-5.55-1.87-10.63-4.94-16.11-7a42.39,42.39,0,0,1-4.95-2,43.52,43.52,0,0,1-6.29-4.63,47.84,47.84,0,0,0-13.6-7.5c-1.45-.52-3.12-1.13-3.63-2.58"/><path class="cls-11" d="M427.75,105.32a8.85,8.85,0,0,1-4.31,1.91,16.19,16.19,0,0,1-5.05.3,26.43,26.43,0,0,0,.27-6.6,4,4,0,0,0-.69-2.2,3.31,3.31,0,0,0-1.59-1,52.06,52.06,0,0,0,10,.4,3.23,3.23,0,0,1,2.26.42,2.41,2.41,0,0,1,.71,1.26A5.55,5.55,0,0,1,427.75,105.32Z"/><path class="cls-14" d="M258.28,169.36l-.87,19.48a55.61,55.61,0,0,1-.68,7.41c-1.31.45-2.62.89-3.93,1.3s-2.44.75-3.66,1.11l-.86.24c2.36-17,1.83-34.3-.08-51.35a14.61,14.61,0,0,0-1.21-5.06l1.06-.06c1.76-.11,3.51-.21,5.27-.29a15.82,15.82,0,0,1,1.4,2.94,60.27,60.27,0,0,1,3,9.5C258.72,159.43,258.5,164.42,258.28,169.36Z"/><path class="cls-15" d="M251.91,168.19A235.5,235.5,0,0,1,249.65,196a23.05,23.05,0,0,1-.51,2.66l-.86.24q-3.09.89-6.16,1.63a108,108,0,0,0,0-52.87,21.48,21.48,0,0,0-1.65-4.72c2.16-.17,4.33-.32,6.49-.45l1.06-.06a19.59,19.59,0,0,1,1.32,3.84c.75,2.93,1.5,5.86,2,8.85A75,75,0,0,1,251.91,168.19Z"/><path class="cls-16" d="M381.84,46.12a3.23,3.23,0,0,0,0,.44c0,5.21,2.9,9.46,6.62,9.58a5.08,5.08,0,0,0,1.41-.15,5.74,5.74,0,0,0,2-1,8.35,8.35,0,0,0,2.24-2.58,12.08,12.08,0,0,0,1.51-4.74c0-.36.08-.74.09-1.12.17-5.4-2.79-9.88-6.63-10a5.44,5.44,0,0,0-1.61.21,6.76,6.76,0,0,0-3.32,2.39,10.86,10.86,0,0,0-1.63,3.08,13,13,0,0,0-.7,3.88"/><path class="cls-17" d="M387.49,36.77h0a6.76,6.76,0,0,0-3.32,2.39c3.12,4.57,6.55,8.92,10,13.27a12.08,12.08,0,0,0,1.51-4.74l-8.15-10.92"/><path class="cls-17" d="M382.54,42.24h0a13,13,0,0,0-.7,3.88,1.77,1.77,0,0,0,0,.23,1.48,1.48,0,0,0,0,.21c1,1.1,2,2.21,2.94,3.35,1.68,2.05,3.26,4.2,5.09,6.08a5.74,5.74,0,0,0,2-1,95.92,95.92,0,0,1-9.35-12.77"/><path class="cls-16" d="M400.29,47.87a11.91,11.91,0,0,0-.49,2,12.4,12.4,0,0,0-.15,2.84A9.9,9.9,0,0,0,405,61.25a8.4,8.4,0,0,0,.92.37l.27.08a8.55,8.55,0,0,0,3.92.2,10.17,10.17,0,0,0,4.18-1.85A11.57,11.57,0,0,0,416.46,58a9.28,9.28,0,0,0,.73-1h0a13.12,13.12,0,0,0,1.47-3.06,10.9,10.9,0,0,0,.36-1.36h0a12.44,12.44,0,0,0,.27-3.41c-.24-4.16-2.59-7.75-6.29-9a6.09,6.09,0,0,0-1.1-.27,8.26,8.26,0,0,0-3.21,0,9.6,9.6,0,0,0-2.8,1c-.38.22-.75.45-1.11.7a11,11,0,0,0-1.47,1.26A12.46,12.46,0,0,0,401,46.15a11.9,11.9,0,0,0-.7,1.72"/><path class="cls-17" d="M403.32,42.87h0A12.46,12.46,0,0,0,401,46.15q4.58,7.86,9.15,15.75a10.17,10.17,0,0,0,4.18-1.85c-2.81-3.93-5.3-8.1-7.77-12.27a40.78,40.78,0,0,0-3.23-4.91"/><path class="cls-17" d="M405.9,40.91h0c-.38.22-.75.45-1.11.7,4.34,5.11,7.58,11.09,11.67,16.38a9.28,9.28,0,0,0,.73-1h0q-5.06-7.3-10.09-14.66a6,6,0,0,0-1.21-1.4"/><path class="cls-17" d="M410.36,39.74a9.24,9.24,0,0,0-1.66.16q5.35,6.16,10.33,12.64a12.35,12.35,0,0,0,.29-2.68c0-.24,0-.49,0-.73h0c-1.67-2.11-3.29-4.27-4.84-6.46a10,10,0,0,0-2.55-2.78h0a8.22,8.22,0,0,0-1.55-.15"/><polyline class="cls-18" points="405.03 61.25 405.03 61.25 405.03 61.25 405.03 61.25 405.03 61.25"/><path class="cls-17" d="M399.8,49.87h0a11.9,11.9,0,0,0-.17,2.05c0,.27,0,.53,0,.79L405,61.25h0l1.19.45c-2.3-3.85-4.45-7.81-6.42-11.83"/><path class="cls-19" d="M396.29,47c-3.08,5.54-5.94,11.54-7.38,17.74a2.16,2.16,0,0,0,.15,1.81,2.83,2.83,0,0,0,.94.78c2.37,1.38,5.2,1.13,7.81.82a1.52,1.52,0,0,0,1.62-1.75,70.14,70.14,0,0,0-.24-16.06,5.8,5.8,0,0,0-.65-2.24A2.37,2.37,0,0,0,396.26,47"/><path class="cls-20" d="M395.21,46.85h.11a12.31,12.31,0,0,1,4.74,1.21l.48-.88a13.47,13.47,0,0,0-5.31-1.34l0,1Z"/><polyline class="cls-20" points="418.44 53.92 440.75 54.81 440.79 53.81 418.48 52.92"/><path class="cls-12" d="M401.82,20.88a18.51,18.51,0,0,0,7.59,11.65c4.31,3,9.74,4,14.09,6.91a23.79,23.79,0,0,1,8.71,11.76,48.13,48.13,0,0,1,2.46,14.6c.49,12.91-1.53,25.77-2.2,38.67-.31,5.92-.33,11.84-.36,17.76l-.08,20c0,10.51-2.95,20.65-6.13,30.67a29.77,29.77,0,0,0,4.57-5c-.59,5.13-1,10.89,2.29,14.86a21.05,21.05,0,0,1,1.84-9.48,4,4,0,0,0,2.24,4.58,5.59,5.59,0,0,1,2.67-4.71c-.51,1.43,1.66,2.59,3,1.86s1.87-2.33,2.31-3.78c2.87-9.45,6-19,11.73-27.23,4.81-6.94,14.06-16.31,23-9.3,1.64,1.29-.29-2.46-1.06-4.39-1.7-4.22-5-6.8-7.27-12.12-1.89-4.36-4.26-8.57-5.24-13.21-1.38-6.54.05-13.76-3-19.69a33.89,33.89,0,0,1-3.45-19.69,32.16,32.16,0,0,0,.72-6.16c-.16-2.75-1.5-5.26-2.38-7.86a24.69,24.69,0,0,1-1.31-8.27,20.42,20.42,0,0,0-.23-5.69,14.46,14.46,0,0,0-2.05-4A25.11,25.11,0,0,0,449.67,28c-4.51-3.79-10.95-3.91-16.84-4.06A250,250,0,0,1,402,21.2"/><path class="cls-21" d="M384.36,25.14c6.25-.27,12.43,1.19,18.51,2.64,3.83.91,7.65,1.83,11.39,3,4.69,1.53,9.21,3.54,13.79,5.35a185.37,185.37,0,0,0,35.64,10.14,2.79,2.79,0,0,1,1.36.49c.89.75,0,1.92-.57,2.93-.88,1.51-2.27.45-3.41.23-1.83-.35-3.63-.85-5.42-1.36l-7-2c-10.19-2.88-20.41-5.76-30.32-9.5-3.48-1.31-6.79-3.13-10.39-4-6.81-1.71-13.91-3.79-21.05-3.69a9,9,0,0,1-3.06,0c-.88-.32-1.43-2-1.17-2.87s2-2,2.29-1.08"/><path class="cls-22" d="M382.86,143.87a13.47,13.47,0,0,1-.92,2c-.6,1.19-1.45,2.76-2.35,4.32-1.8,3.1-3.76,6.16-3.85,6.32l-4.11,6.19L369,166.87a14.79,14.79,0,0,1-1.24,1.85,13.16,13.16,0,0,1,1-2c.63-1.18,1.53-2.74,2.46-4.28,1.86-3.09,3.82-6.16,3.92-6.32s2.12-3.17,4-6.19c.95-1.52,1.87-3,2.55-4.18A14,14,0,0,1,382.86,143.87Z"/><path class="cls-22" d="M372.58,159.42a17.79,17.79,0,0,1,.8-3.62c.51-1.8,1.17-3.58,1.2-3.67s.77-1.84,1.61-3.52a17.76,17.76,0,0,1,1.88-3.22,34,34,0,0,1-1.39,3.44c-.71,1.72-1.35,3.49-1.39,3.58s-.76,1.82-1.4,3.56A31.62,31.62,0,0,1,372.58,159.42Z"/><path class="cls-22" d="M322.53,163.89a4.65,4.65,0,0,1,.88-.13c.57-.06,1.38-.15,2.36-.22,2-.15,4.58-.28,7.22-.35s5.3-.05,7.33,0,3.43.12,3.57.12,1.55.1,3.58.27,4.69.45,7.32.8,5.24.77,7.17,1.14c1,.17,1.78.35,2.34.47a5.7,5.7,0,0,1,.87.23,3.55,3.55,0,0,1-.9-.08l-2.35-.33c-1.95-.27-4.56-.61-7.19-.9s-5.28-.5-7.31-.63-3.44-.19-3.57-.21-1.53-.09-3.56-.18-4.67-.15-7.3-.17-5.24.05-7.2.11l-2.37.07A3.87,3.87,0,0,1,322.53,163.89Z"/><path class="cls-22" d="M393.11,126a9.18,9.18,0,0,1-1.51.83c-.75.4-1.45.89-1.49.91s-.78.45-1.47,1-1.31,1.09-1.4,1,.42-.79,1.05-1.42a10.5,10.5,0,0,1,1.42-1.19,9.67,9.67,0,0,1,1.67-.77A3.76,3.76,0,0,1,393.11,126Z"/><path class="cls-22" d="M427,242s-.24-.16-.68-.33a3.79,3.79,0,0,0-1.93-.17,5.47,5.47,0,0,0-2.47,1.17,28.7,28.7,0,0,0-2.38,2.23c-3.17,3.18-6.22,6.54-6.38,6.72s-3.29,3.49-6.22,6.92c-1.47,1.71-2.89,3.44-4,4.73a21.22,21.22,0,0,1-1.81,2.13,3.77,3.77,0,0,1,.4-.66c.28-.4.68-1,1.18-1.65,1-1.35,2.36-3.14,3.78-4.9,2.83-3.53,5.91-6.92,6.07-7.09s3.29-3.5,6.57-6.58a24.1,24.1,0,0,1,2.49-2.19,5.69,5.69,0,0,1,2.69-1.12,3.61,3.61,0,0,1,2,.32A1.65,1.65,0,0,1,427,242Z"/><path class="cls-22" d="M432.05,238.72a22.23,22.23,0,0,1-2.36.21,22.66,22.66,0,0,0-2.38.4,22,22,0,0,0-2.37.53,21.63,21.63,0,0,1-2.27.71,6.43,6.43,0,0,1,2.09-1.21,14.56,14.56,0,0,1,2.4-.78,15.88,15.88,0,0,1,2.51-.19A6.23,6.23,0,0,1,432.05,238.72Z"/><path class="cls-22" d="M420.42,242.24a1.71,1.71,0,0,1,.18-.37l.57-1c.48-.87,1.17-2.11,1.95-3.63a121,121,0,0,0,5.11-11.5c1.67-4.28,3.17-8.67,4.31-12l2-5.91c.14-.45,3.28-9.29,6.09-18.1,1.41-4.41,2.7-8.82,3.62-12.14l1.09-4c.14-.49.24-.86.31-1.12a1.7,1.7,0,0,1,.14-.39,2.13,2.13,0,0,1-.06.41c-.05.26-.14.64-.24,1.13-.21,1-.54,2.38-.95,4-.83,3.34-2.05,7.78-3.39,12.22-2.69,8.87-5.75,17.73-5.89,18.19-.08.22-.89,2.54-2.05,5.89s-2.73,7.72-4.48,12a107.48,107.48,0,0,1-5.35,11.44c-.82,1.5-1.55,2.73-2.08,3.57l-.63,1A1.61,1.61,0,0,1,420.42,242.24Z"/><path class="cls-22" d="M398.64,232.38s-.51-.62-1.29-1.53a27.25,27.25,0,0,0-3.09-3.13,24.93,24.93,0,0,0-3.6-2.6c-1.06-.63-1.84-1-1.91-1s-.83-.45-2-1-2.63-1.2-4.1-1.92a25.38,25.38,0,0,1-3.86-2.29,7.42,7.42,0,0,1-1.51-1.36s.66.46,1.67,1.11a30,30,0,0,0,3.93,2l4.16,1.77c1.16.5,1.94.9,2,.94s.86.43,1.93,1.11a25.7,25.7,0,0,1,3.59,2.79,24.33,24.33,0,0,1,3,3.35A8,8,0,0,1,398.64,232.38Z"/><path class="cls-22" d="M410.64,336.68a5.49,5.49,0,0,1-.33,1.08c-.25.68-.61,1.65-1.14,2.78a42,42,0,0,1-4.71,7.84,42.5,42.5,0,0,1-3.21,3.76,16.15,16.15,0,0,1-3.44,2.78,7.58,7.58,0,0,1-3.1,1,6.62,6.62,0,0,1-1.45,0,7.26,7.26,0,0,1-1.39-.37,9.67,9.67,0,0,1-2.78-1.73,25,25,0,0,1-3-3.23c-1-1.24-2-2.6-2.92-4a48.46,48.46,0,0,1-4.29-8.14c-.47-1.15-.81-2.13-1-2.82a8.15,8.15,0,0,1-.3-1.11,6.52,6.52,0,0,1,.45,1.05c.27.67.65,1.63,1.17,2.76a51.77,51.77,0,0,0,4.45,8c.94,1.37,2,2.7,3,3.91a24,24,0,0,0,3,3.09,8.81,8.81,0,0,0,2.59,1.57,5.64,5.64,0,0,0,1.24.31,5.06,5.06,0,0,0,1.27,0,6.92,6.92,0,0,0,2.83-.92,15.36,15.36,0,0,0,3.33-2.61,42.75,42.75,0,0,0,3.24-3.64,45,45,0,0,0,4.86-7.64c.57-1.1,1-2.05,1.27-2.71A7.33,7.33,0,0,1,410.64,336.68Z"/><path class="cls-22" d="M408.49,341.06c-.05,0,.43-.81,1-2a36.24,36.24,0,0,0,1.79-4.7c.55-1.76,1-3.56,1.37-4.94s.62-2.33.65-2.42,1.11-3.8,2.16-7.37c.54-1.77,1.08-3.54,1.48-4.87a15,15,0,0,1,.76-2.17,15.6,15.6,0,0,1-.47,2.25c-.34,1.34-.79,3.14-1.25,4.94-.94,3.6-1.9,7.24-1.95,7.43s-.3,1-.7,2.4-.92,3.16-1.54,4.92a29.27,29.27,0,0,1-2,4.66c-.34.6-.65,1.09-.88,1.42A2.32,2.32,0,0,1,408.49,341.06Z"/><path class="cls-22" d="M455.61,388.57a1.3,1.3,0,0,1-.33.25,9.24,9.24,0,0,1-1,.6,16.32,16.32,0,0,1-3.93,1.47,28.54,28.54,0,0,1-5.92.72c-2.19.08-4.52,0-6.85-.11a69,69,0,0,1-6.88-.6,37.19,37.19,0,0,1-6-1.35,24.55,24.55,0,0,1-4.12-1.73c-1-.51-1.56-.92-1.67-1s-.69-.44-1.58-1.12a36.37,36.37,0,0,1-3.39-2.91c-1.31-1.25-2.75-2.77-4.3-4.35a55.13,55.13,0,0,0-5-4.67,36.77,36.77,0,0,0-5.74-3.67,55.41,55.41,0,0,0-5.42-2.42c-1.63-.62-3-1.08-4-1.4l-1.11-.38c-.26-.09-.4-.14-.39-.16a2.18,2.18,0,0,1,.41.09l1.14.3c1,.27,2.36.69,4,1.28a50.41,50.41,0,0,1,5.52,2.31,36.27,36.27,0,0,1,5.87,3.63,54.12,54.12,0,0,1,5.16,4.65c1.57,1.57,3,3.05,4.34,4.27a36.87,36.87,0,0,0,3.35,2.84c.88.64,1.44,1,1.54,1.07s.66.45,1.61,1a24.55,24.55,0,0,0,4,1.73,36.83,36.83,0,0,0,5.85,1.38c2.16.34,4.49.55,6.81.69s4.64.26,6.81.23a29.16,29.16,0,0,0,5.86-.59,18,18,0,0,0,3.93-1.31C455.11,388.86,455.59,388.54,455.61,388.57Z"/><path class="cls-22" d="M427.29,377a23.35,23.35,0,0,0,2.43.71,11.56,11.56,0,0,0,2.58.17,16.32,16.32,0,0,0,2.95-.44,28.55,28.55,0,0,0,7.66-3.48c.08-.06,1-.62,2.33-1.53a42.43,42.43,0,0,0,4.45-3.6,45.25,45.25,0,0,0,3.88-4.13c1-1.19,1.59-2,1.64-2a2.59,2.59,0,0,1-.34.62c-.24.39-.61.92-1.06,1.55a38.82,38.82,0,0,1-3.74,4.32,40.44,40.44,0,0,1-4.42,3.79c-1.3,1-2.26,1.54-2.34,1.61s-1,.64-2.48,1.37a22.64,22.64,0,0,1-5.46,2,15.53,15.53,0,0,1-3.06.35,11.08,11.08,0,0,1-2.65-.31,8.45,8.45,0,0,1-1.77-.64A2.35,2.35,0,0,1,427.29,377Z"/><path class="cls-22" d="M461.93,306.56a12.31,12.31,0,0,1-2.95-2.3,23.8,23.8,0,0,1-1.76-1.95c-.46-.57-.74-1-.78-1s-.3-.47-.66-1.11a22.24,22.24,0,0,1-1.15-2.38,12.07,12.07,0,0,1-1-3.62c.11,0,.67,1.74,1.51,3.4a27.76,27.76,0,0,0,2,3.28s.29.46.7,1a22.63,22.63,0,0,0,1.59,2C460.58,305.29,462,306.47,461.93,306.56Z"/><path class="cls-22" d="M318.68,360.57a3.27,3.27,0,0,1,.58-.55c.39-.33,1-.78,1.69-1.29a33.4,33.4,0,0,1,5.63-3.18,41.24,41.24,0,0,1,6.2-2.21c1.76-.48,3-.71,3.12-.74s1.37-.25,3.19-.47a61.78,61.78,0,0,1,6.58-.41c2.38,0,4.74.07,6.49.21.88.06,1.61.13,2.12.19a4,4,0,0,1,.8.13,3.31,3.31,0,0,1-.81,0l-2.12,0c-1.76,0-4.11-.06-6.46,0a64.76,64.76,0,0,0-6.51.57c-1.79.25-3,.51-3.14.52s-1.34.24-3.09.67a44.25,44.25,0,0,0-6.16,2,37.6,37.6,0,0,0-5.68,2.94C319.64,359.91,318.72,360.62,318.68,360.57Z"/><path class="cls-22" d="M519.36,388.3a9.37,9.37,0,0,1-1.06-.27,21,21,0,0,0-2.82-.5,27.39,27.39,0,0,0-4.05-.12c-1.48,0-3.07.22-4.66.38s-3.17.44-4.65.73c-.75.13-1.45.31-2.14.46s-1.32.3-1.91.46c-1.19.3-2.19.6-2.91.83l-1.24.38-1.24.42c-.72.22-1.7.58-2.85,1-.58.21-1.19.46-1.83.74s-1.33.55-2,.88c-1.38.63-2.82,1.37-4.23,2.13-.7.4-1.4.79-2.08,1.19l-2,1.22c-1.25.82-2.42,1.59-3.37,2.32s-1.76,1.31-2.31,1.74a6.5,6.5,0,0,1-.89.63,5.81,5.81,0,0,1,.79-.75c.52-.47,1.27-1.13,2.23-1.86s2.08-1.57,3.31-2.44l1.95-1.28,2.06-1.24c1.41-.8,2.84-1.57,4.23-2.23.68-.35,1.36-.64,2-.93s1.26-.56,1.84-.78c1.16-.47,2.14-.84,2.87-1.08l1.25-.44,1.26-.37c.73-.22,1.74-.5,2.95-.79.6-.16,1.25-.31,1.94-.44s1.41-.31,2.16-.42c1.51-.27,3.11-.47,4.71-.65s3.21-.27,4.71-.27a26.76,26.76,0,0,1,4.1.26,16.39,16.39,0,0,1,2.82.65,7.88,7.88,0,0,1,.76.28A1,1,0,0,1,519.36,388.3Z"/><path class="cls-22" d="M411.39,354.56a10,10,0,0,1,1.34-.3c.86-.18,2.08-.43,3.52-.83a27.7,27.7,0,0,0,9.82-4.75,18.43,18.43,0,0,0,3.93-4.32,24.51,24.51,0,0,0,2.34-4.62,52.82,52.82,0,0,0,1.65-5.17c.05-.2.62-2.29,1.43-5.3.42-1.51.92-3.26,1.59-5.07a50.31,50.31,0,0,1,8.56-14.81,12.11,12.11,0,0,1,2.61-2.57,4,4,0,0,1,.93-.45,1.14,1.14,0,0,1,.35-.08,8.09,8.09,0,0,0-1.2.66,13,13,0,0,0-2.46,2.62,52.15,52.15,0,0,0-5.89,9.36,50,50,0,0,0-2.3,5.48c-.64,1.8-1.11,3.53-1.51,5-.78,3-1.3,5.13-1.37,5.32A51.37,51.37,0,0,1,433,340a25.25,25.25,0,0,1-2.46,4.72,19.24,19.24,0,0,1-4.13,4.39,27.29,27.29,0,0,1-10.07,4.6c-1.47.36-2.7.57-3.57.7l-1,.13Z"/><path class="cls-22" d="M439.07,311.15a8.49,8.49,0,0,1,1.53-2c.84-.92,1.76-1.79,1.81-1.83s1-.85,2-1.57a8.87,8.87,0,0,1,2.14-1.28,12.45,12.45,0,0,1-1.8,1.7c-.93.82-1.84,1.68-1.89,1.72s-1,.83-1.94,1.64A13.24,13.24,0,0,1,439.07,311.15Z"/><path class="cls-23" d="M468.05,308a58.21,58.21,0,0,1-8.28-4.72c-4.44-2.75-10.1-5-14.7-2.57-3.51,1.87-5.21,5.89-7.9,8.82A15.94,15.94,0,0,1,430,314,28,28,0,0,1,441.37,299c.94-.61,2.05-1.7,1.41-2.62a1.9,1.9,0,0,0-1.44-.63,17.44,17.44,0,0,0-12.53,3.6c-3.61,2.84-5.92,7-8.13,11-2.59,4.69-3.88,10.17-6.47,14.86a98.11,98.11,0,0,1,20.51-45.3,96.43,96.43,0,0,0,9.19-12.74,83.3,83.3,0,0,0,5.64-13c4.38-11.87,8.77-23.76,12-36,1.46-5.61,2.7-11.33,4.68-16.75q-4.27,20.35-8.57,40.7c-1.13,5.38-2.27,10.77-2.92,16.23a93.16,93.16,0,0,0,0,21.95,46.88,46.88,0,0,0,3.79,14.62C460.83,299.79,464.39,304,468.05,308Z"/><path class="cls-23" d="M217.2,157.28a199.28,199.28,0,0,1,2,26.61,48.68,48.68,0,0,1-1.32,13.63c-.55,2-1.57,4.11-3.54,4.68a.74.74,0,0,1-.51,0,.84.84,0,0,1-.36-.56c-3.4-11.68-5.34-23.87-4.7-36a10.64,10.64,0,0,1,1.45-5.67c1.33-1.88,3.63-2.75,5.8-3.52"/><path class="cls-10" d="M214.66,149c-13.75.12-27,4.86-40.38,7.89a31.51,31.51,0,0,0-5.82,1.67,28.9,28.9,0,0,0-7.09,5,38.08,38.08,0,0,0-4.28,4.14c-1,1.2-1.88,2.53-3,3.65-1.36,1.4-3,2.44-4.49,3.71a8.12,8.12,0,0,0-3,4.84q2.34,1.17,4.66,2.36a2.45,2.45,0,0,1,.81.56,3.5,3.5,0,0,1,.54,1.4,4.21,4.21,0,0,0,4.15,2.9c1.29-.08,2.69-.74,3.79-.06a8,8,0,0,1,1.05,1c1.51,1.37,3.86,1,5.86.6.87,1.67,3.1,2.06,5,1.93,5.28-.38,10.1-3.27,14-6.86s7.05-7.89,10.54-11.87a10.88,10.88,0,0,1,2.71-2.45,11.6,11.6,0,0,1,4.07-1.14l13.2-2a1.75,1.75,0,0,0,1-.37,1.77,1.77,0,0,0,.25-1.55c-.35-2.38-.71-4.77-1.06-7.15-.19-1.21-.37-2.41-.56-3.62a16.16,16.16,0,0,0-.61-3.33c-.22-.58-.62-1.25-1.33-1.2"/><path class="cls-11" d="M170.84,170.52a10.22,10.22,0,0,1-1.56,1c-1,.6-2.26,1.37-3.59,2.12-2.63,1.52-5.4,2.89-5.55,2.95a62.25,62.25,0,0,1-5.87,2.36,7.4,7.4,0,0,1-2.25.46,3.34,3.34,0,0,1-2-.51,2.38,2.38,0,0,1-.95-1.05.9.9,0,0,1-.11-.52s.08.18.25.45a2.52,2.52,0,0,0,1,.87A3.25,3.25,0,0,0,152,179a7.9,7.9,0,0,0,2.09-.55c2.83-1.1,5.59-2.47,5.73-2.54s2.92-1.34,5.62-2.74l3.69-1.89A9.22,9.22,0,0,1,170.84,170.52Z"/><path class="cls-11" d="M160.2,176.16a4.84,4.84,0,0,1-1.23,2.25,11,11,0,0,1-2,1.81,15.36,15.36,0,0,1-2.41,1.17,8.15,8.15,0,0,1-2.47.67,16.24,16.24,0,0,1,2.25-1.16,18.65,18.65,0,0,0,2.21-1.32,11.15,11.15,0,0,0,2-1.54C159.49,177.2,160.11,176.12,160.2,176.16Z"/><path class="cls-11" d="M161.29,185.47c-.08-.07.85-1.36,1.67-2.73s1.56-2.82,1.59-2.89.23-.41.52-1a5.72,5.72,0,0,0,.76-2,3.48,3.48,0,0,0-.39-2c-.27-.52-.57-.79-.53-.84s.4.17.78.68a3.55,3.55,0,0,1,.68,2.21,6,6,0,0,1-.67,2.25c-.26.58-.45,1-.47,1a28.52,28.52,0,0,1-1.82,2.83A11.8,11.8,0,0,1,161.29,185.47Z"/><path class="cls-11" d="M168.16,187.31c-.19-.07,2.29-6.68,2.36-6.85l.14-.34a3.64,3.64,0,0,0,.27-.7c.06-.21-.09-.44-.34-.83l-.71-1.1a1.39,1.39,0,0,0-.91-.63,5.21,5.21,0,0,0-1.1-.07c-.67,0-1.13-.11-1.11-.17s.44,0,1.1-.13a4.86,4.86,0,0,1,1.18-.05,1.85,1.85,0,0,1,1.27.72c.29.37.54.72.8,1.07a6.31,6.31,0,0,1,.37.54,1.27,1.27,0,0,1,.15.73,4.35,4.35,0,0,1-.27.9l-.13.34C171.16,180.92,168.36,187.39,168.16,187.31Z"/><path class="cls-11" d="M176.18,185.2c-.09,0,.42-1.26.51-2.55a8.6,8.6,0,0,0,0-1.78,1.28,1.28,0,0,0-.11-.46l-.09-.09a.67.67,0,0,0-.16-.11,3.73,3.73,0,0,0-.53-.26,10.05,10.05,0,0,0-1.7-.54c-1.27-.29-2.59-.19-2.6-.29a5.31,5.31,0,0,1,2.68-.24,8.44,8.44,0,0,1,1.88.42,5.91,5.91,0,0,1,.63.25.94.94,0,0,1,.29.19.89.89,0,0,1,.26.31,2,2,0,0,1,.15.76,7.65,7.65,0,0,1-.14,1.91A5.12,5.12,0,0,1,176.18,185.2Z"/><path class="cls-11" d="M174.26,188.1c-.09,0,.1-.6.26-1.16s.3-1.11.31-1.14.23-.56.42-1.11.35-1.11.46-1.1.13.61.07,1.21a9,9,0,0,1-.22,1.24,9.41,9.41,0,0,1-.54,1.12C174.72,187.68,174.35,188.15,174.26,188.1Z"/><path class="cls-11" d="M177.11,185.45c0,.21-.8.23-.82.23s-.72-.31-.68-.52.8-.23.82-.23S177.15,185.24,177.11,185.45Z"/><path class="cls-11" d="M188.53,167.12a22.44,22.44,0,0,1-4.39,2.17,44.54,44.54,0,0,1-4.85,1.62,47.22,47.22,0,0,1-5.06.88,22.91,22.91,0,0,1-4.93.17c0-.11,2.43-.28,4.85-.7s4.83-1.06,4.95-1.09,2.53-.59,4.85-1.38S188.49,167,188.53,167.12Z"/><path class="cls-11" d="M592.3,414.89c0,.09-.62-.11-1.2-.26s-1.17-.26-1.19-.27-.6-.19-1.19-.34-1.18-.24-1.18-.35.62-.2,1.25-.18a7.68,7.68,0,0,1,1.3.14,6.44,6.44,0,0,1,1.21.5C591.86,414.42,592.35,414.8,592.3,414.89Z"/><path class="cls-9" d="M384.28,283.71a8.72,8.72,0,0,1,.17-1.15,7,7,0,0,0-.16-2.49,9.39,9.39,0,0,0-1.63-3.36s-.31-.45-.77-1a18.51,18.51,0,0,0-1.83-1.82c-1.43-1.23-3-2.33-2.89-2.43a16.81,16.81,0,0,1,3.22,2,15.36,15.36,0,0,1,2,1.77,12.49,12.49,0,0,1,.86,1,10.61,10.61,0,0,1,.69,1.14,8.91,8.91,0,0,1,.86,2.57,6.59,6.59,0,0,1-.07,2.65,2.51,2.51,0,0,1-.47,1.1"/><path class="cls-24" d="M377.18,271.47h0c-.07.1,1.46,1.2,2.89,2.43a18.51,18.51,0,0,1,1.83,1.82c.46.54.74.95.77,1a9.39,9.39,0,0,1,1.63,3.36,7,7,0,0,1,.16,2.49,8.72,8.72,0,0,0-.17,1.15h0a2.61,2.61,0,0,0,.47-1.1,6.59,6.59,0,0,0,.07-2.65,8.91,8.91,0,0,0-.86-2.57,10.61,10.61,0,0,0-.69-1.14,12.49,12.49,0,0,0-.86-1,15.36,15.36,0,0,0-2-1.77,17.68,17.68,0,0,0-3.21-2"/><path class="cls-25" d="M372.88,251.94l-.26.5.12.05a5.05,5.05,0,0,1,1.42.92c.32.3.47.58.52.58h0c.05,0,0-.35-.3-.77A4.64,4.64,0,0,0,373,252l-.12-.07"/><path class="cls-25" d="M372.08,257.84h-.2c-.77,0-1.52.26-2.28.26a3,3,0,0,1-.42,0l.09.21a9.18,9.18,0,0,0,4.66,2.34c.15-.72.34-1.46.55-2.18a5.34,5.34,0,0,0-2.4-.61"/><path class="cls-26" d="M290.93,214.34a51.92,51.92,0,0,1,8.74-13.81c12.08-14.15,28.26-16.48,44.13-6.62,8.27,5.15,15.34,11.78,22.86,17.85,9.62,7.77,20,9.64,31.49,5.15,2.35-.92,4.79-1.64,7.1-2.66,20.51-9.08,39.49-4.47,55.24,9.45,24.88,22,35.39,50.22,27.05,83-9.05,35.57-41.51,57.9-79.07,56.56A68.52,68.52,0,0,1,368,348.79a41.09,41.09,0,0,1-14.2-19.9c-1.46-4.39-2.86-8.81-4.1-13.27-3.52-12.61-11.78-20-24.48-22.72-7.4-1.6-14.74-3.44-22.05-5.39a43.87,43.87,0,0,1-14.73-7.09c-11.94-8.81-15.52-22.06-10.51-38.07a62.22,62.22,0,0,1,4.68-11.26l1.5.54,14.5,7.21L375,276.75c.12,1.25.23,2.5.38,3.75a22.79,22.79,0,0,0,19.24,20c10.26,1.57,19.95-4,24.37-14,3.95-8.92,1.19-19.75-6.67-26.2-8.3-6.81-17.83-6.8-29.21,0-1.85-1-3.69-2-5.57-2.95ZM422.12,325l-.29-.14q-2.43,4.89-4.87,9.78c-1,2-1,3.86,1.1,5.09s3.78.51,5-1.41c.53-.82.93-1.73,1.4-2.59q6.36-11.62,12.71-23.24,12.85-23.4,25.73-46.79c1.28-2.33,1.66-4.9-.93-6.26s-4.39.45-5.67,2.79Q439.26,293.66,422.12,325Z"/><path class="cls-27" d="M284.09,231.63l-1.5-.54q-49.69-24.57-99.38-49.17c-1.63-.8-3.2-1.72-4.79-2.58l8.07-16.12c9.42,4.61,18.87,9.2,28.28,13.85q35.76,17.69,71.52,35.41c1.49.73,3.09,1.24,4.64,1.86l86.63,43.11c1.88.94,3.72,2,5.57,2.95A28,28,0,0,0,375,276.75l-76.43-37.91A29.48,29.48,0,0,0,284.09,231.63Z"/><path class="cls-28" d="M186.49,163.22l-8.07,16.12c-5.61,6.4-11.55,5.22-18.29,1.54-9.82-5.37-20-10-30.07-15-6.81-3.39-8.33-7.94-5-14.8,2.27-4.66,4.52-9.34,6.9-13.94,3-5.8,7.81-7.42,13.7-4.54,11.46,5.6,22.86,11.3,34.28,17,5.84,2.91,7.22,5.61,6.33,12.1A5.84,5.84,0,0,0,186.49,163.22Z"/><path class="cls-29" d="M375,276.75a28,28,0,0,1,8.11-16.35c11.38-6.84,20.91-6.85,29.21,0,7.86,6.45,10.62,17.28,6.67,26.2-4.42,10-14.11,15.55-24.37,14a22.79,22.79,0,0,1-19.24-20C375.25,279.25,375.14,278,375,276.75Z"/><path class="cls-30" d="M422.12,325q17.11-31.38,34.21-62.77c1.28-2.34,3.07-4.16,5.67-2.79s2.21,3.93.93,6.26q-12.85,23.4-25.73,46.79-6.37,11.61-12.71,23.24c-.47.86-.87,1.77-1.4,2.59-1.25,1.92-3,2.61-5,1.41s-2.11-3.08-1.1-5.09q2.44-4.89,4.87-9.78Z"/><path class="cls-28" d="M284.09,231.63a29.48,29.48,0,0,1,14.5,7.21Z"/><path class="cls-13" d="M386.38,340.44l27.89-24.13a15.2,15.2,0,0,0,5.12-9.46l1-7.18,2.77-1.19s35.67-65.57,38.21-74l-15.54-19.18-11.32,5s-3.83,19.77-12.84,32A285,285,0,0,1,401.77,266l-14.36,32.19Z"/><path class="cls-22" d="M452.93,244.19a3.34,3.34,0,0,1,.24-.85c.19-.53.45-1.29.77-2.2.64-1.82,1.49-4.25,2.3-6.71,1.63-4.92,3.05-10,3.13-10.23s1.6-5.31,2.88-10.36c.64-2.53,1.24-5,1.68-6.93.23-.94.41-1.73.54-2.28a3.27,3.27,0,0,1,.25-.85,3.6,3.6,0,0,1-.1.88c-.09.56-.21,1.36-.4,2.31-.35,1.91-.87,4.45-1.45,7-3,13.1-5.84,21.56-2.67,10.44-.08.26-1.59,5.3-3.35,10.19-.88,2.45-1.8,4.86-2.53,6.65-.36.9-.68,1.63-.9,2.15A4.79,4.79,0,0,1,452.93,244.19Z"/><path class="cls-10" d="M373,310.23c-3.7,1.75-7.9,2.13-12,2.17s-8.21-.22-12.26.34-8.14,2.08-10.9,5.1a.45.45,0,0,0-.15.24c0,.21.16.37.33.47,4.68,2.78,11-.52,16,1.7-4.33,3.1-8.76,6.25-13.87,7.73-3.13.91-6.42,1.16-9.53,2.15a2,2,0,0,0-.78.39,1.64,1.64,0,0,0-.42,1.21,4.55,4.55,0,0,0,2.17,3.66,7.91,7.91,0,0,0,4.22,1.11,9.72,9.72,0,0,1,2.35.15c1.78.47,3.08,2.29,4.92,2.41a23.45,23.45,0,0,0,2.35-.26c1.92-.06,3.54,1.32,5.32,2.05,2.22.92,4.71.8,7.11.66l5.51-.3a19.12,19.12,0,0,0,3-.34c3.12-.72,5.6-3,7.84-5.29,4.1-4.18,7.93-8.62,11.75-13.05a4.87,4.87,0,0,0,1.16-1.83,6.05,6.05,0,0,0-1.3-5.84c-1-1.36-2.27-2.55-3.39-3.83a8,8,0,0,0-4.11-2.23c-1.45-.45-3.91.92-5.35,1.43"/><path class="cls-11" d="M624.84,427.33c0,.11-.67.19-1.34.17a12.65,12.65,0,0,1-1.39-.14,10.42,10.42,0,0,1-1.32-.5c-.62-.28-1.18-.64-1.14-.74s.68.09,1.31.23,1.29.26,1.32.26.65.2,1.29.35S624.84,427.23,624.84,427.33Z"/><path class="cls-11" d="M619.06,427.51c0,.1-.21.13-.37.15h-.32a2.46,2.46,0,0,1-.25-.18c-.13-.1-.26-.22-.24-.32s.69-.25.71-.23S619.15,427.31,619.06,427.51Z"/><path class="cls-11" d="M342.68,417.49c-.05-.05.28-.33.5-.91a6.11,6.11,0,0,0,.26-2.25c-.05-1.72-.19-3.45-.2-3.53s-.07-1.83-.23-3.55a32.14,32.14,0,0,1-.31-3.43,14.51,14.51,0,0,1,.84,3.36c.31,1.72.46,3.48.46,3.57s.07,1.85,0,3.59a5.79,5.79,0,0,1-.53,2.37C343.12,417.31,342.7,417.53,342.68,417.49Z"/><path class="cls-11" d="M499.23,418a16.35,16.35,0,0,1-.08-2.25c0-1.13-.18-2.25-.19-2.31a23.07,23.07,0,0,0-.24-2.31,15.42,15.42,0,0,1-.34-2.24,6.27,6.27,0,0,1,.87,2.13,11.42,11.42,0,0,1,.44,4.74A6.17,6.17,0,0,1,499.23,418Z"/><path class="cls-11" d="M351.21,332.19a13.81,13.81,0,0,1-3,1.79,32.33,32.33,0,0,1-3.4,1.39,34.26,34.26,0,0,1-3.59.81,13.77,13.77,0,0,1-3.52.26c0-.11,1.71-.37,3.42-.79s3.38-1,3.46-1,1.78-.51,3.41-1.15S351.15,332.09,351.21,332.19Z"/><path class="cls-11" d="M360.72,335.25a19.9,19.9,0,0,1-3.22,1.43c-1.65.64-3.38,1.17-3.47,1.19a30.13,30.13,0,0,1-3.63.7,11.77,11.77,0,0,1-3.56.08c0-.11,1.75-.24,3.47-.61s3.43-.88,3.52-.9,1.81-.46,3.49-1A22.59,22.59,0,0,1,360.72,335.25Z"/><path class="cls-11" d="M364.92,337.79a6.92,6.92,0,0,1-1.7,1.32,21,21,0,0,1-1.92,1.16s-.47.21-1.07.43a4.08,4.08,0,0,1-2.1.35l-.62-.12.54-.25a2,2,0,0,1,1.22-.28c0,.08-.48.25-1,.63l-.08-.38a4.2,4.2,0,0,0,1.8-.56l1-.51s1-.45,2-.93A8.43,8.43,0,0,1,364.92,337.79Z"/><path class="cls-11" d="M360.26,317.49a6.34,6.34,0,0,1-1.5.6c-.75.28-1.48.62-1.51.63s-.8.27-1.54.6-1.44.69-1.51.6.55-.63,1.25-1.08A12.91,12.91,0,0,1,357,318a13.44,13.44,0,0,1,1.66-.44A3.74,3.74,0,0,1,360.26,317.49Z"/><path class="cls-13" d="M395.94,273.32c-9.14,8.94-16.59,19.51-26,28.18a8.39,8.39,0,0,0-2.06,2.43,7,7,0,0,0-.52,2.88c-.15,8,4.11,16.36,7.45,23.42,1.48,3.14,7.05,12.82,11.54,10.21,2.49-1.45,4-4.73,5.17-7.21,2.89-6.13,4.2-13.08,7.48-19a37.61,37.61,0,0,0,2.73-6.6,99.29,99.29,0,0,0,2.85-10.74c1.27-6.19,1.9-12.81-.4-18.7-1-2.47-2.81-5-5.45-5.2"/><path class="cls-11" d="M408.44,75.64a8,8,0,0,1-2.73.81,18.52,18.52,0,0,1-3,.24,18.85,18.85,0,0,1-3-.46,8.14,8.14,0,0,1-2.67-1c0-.1,1.39.29,2.78.48a22.52,22.52,0,0,0,2.88.22,24.16,24.16,0,0,0,2.87,0C407.05,75.83,408.41,75.54,408.44,75.64Z"/><path class="cls-11" d="M173.81,176.92c0,.1-.65,0-1.22-.33a6,6,0,0,1-1.11-.72,6.05,6.05,0,0,1-.8-1.06c-.33-.56-.51-1.16-.41-1.2s.44.45.85.88a10.38,10.38,0,0,0,.88.82,10.69,10.69,0,0,0,.88.83C173.33,176.51,173.85,176.82,173.81,176.92Z"/><path class="cls-14" d="M397.33,270.54l2.13-3.27a3,3,0,0,1,1-1.09,2.49,2.49,0,0,1,1.3-.21,9.44,9.44,0,0,1,6.58,3.61,22.63,22.63,0,0,1,3.61,6.79c1.52,4.08,2.71,8.3,4.7,12.17a61.15,61.15,0,0,0,4.41,7c.44.62,2.07,1.77,2.14,2.53.06.55-.8,1.34-1,1.87-.66,2.3-1.79,3.85-2.46,6.15a6.78,6.78,0,0,1-5-2.52c-4.16-4.54-4.83-11.16-6.95-16.94a33.34,33.34,0,0,0-10.47-14.53"/><path class="cls-15" d="M394.72,275.07a15.81,15.81,0,0,1,6.5,5.19c7.37,9.42,7.79,23.46,16.71,31.44.73-1.95,1.46-3.89,2.18-5.84a2,2,0,0,0,.17-1.38,2.28,2.28,0,0,0-.82-.87c-3.34-2.54-4.61-6.91-5.65-11-1.14-4.45-2.26-8.95-4.35-13.05s-5.27-7.8-9.49-9.61a2.47,2.47,0,0,0-2-.21,2.72,2.72,0,0,0-1.17,1.46c-.53,1.15-1.07,2.3-1.6,3.44"/><path class="cls-31" d="M587.37,427.41c-1.56,0-3.13.1-4.69.19a14.94,14.94,0,0,0,.59-5.48,11.22,11.22,0,0,0-3.73-7.54c-.67-.58-1.5-1.16-1.62-2a1.72,1.72,0,0,1,.25-1.13c.65.15,1.31.27,2,.38a12,12,0,0,0,3.74.1c.1,0,.2,0,.3-.06l.13,0,.31.39a15.11,15.11,0,0,1,3.17,5.58,14.74,14.74,0,0,1,.26,3.32A19.08,19.08,0,0,1,587.37,427.41Z"/></g></g></g></svg>