<svg xmlns="http://www.w3.org/2000/svg" viewBox="0 0 1140.56 182.54"><defs><style>.cls-1{fill:#caf8f9;}</style></defs><title>Asset 54</title><g id="Layer_2" data-name="Layer 2"><g id="Layer_19" data-name="Layer 19"><path class="cls-1" d="M1140.48,80.5a40.38,40.38,0,0,0-26.56-40.61C1068,23.32,980.4-6.12,956.37,1.13c-68.54,20.68-111.28,107.3-189.61,72.8s-147.1-9.54-154.26-8.52-40.39-48.75-92.32-43.6S443.33,54.53,408,81.25,354,50.68,289.63,65.41C241.88,76.34,219,110.05,219,110.05s-25.74-18.5-58.16-18.5c-41.54,0-52.7,31.34-52.7,31.34S101,99.24,47.61,115c-14.77,4.37-29.21,15.94-45.18,18.44a2.87,2.87,0,0,0,.44,5.7H474.23a54.2,54.2,0,0,1,27.3,7.37c21.82,12.73,71.62,37.33,128.74,36,76.85-1.81,80.8-35,80.8-35s20.18,16.5,55.69,11c53.22-8.23,58.76-35.24,58.76-35.24s51.9,21.49,103.85,20.09c48.18-1.31,117.75-7.93,163-12.69a53.93,53.93,0,0,0,48.15-50.1Z"/></g></g></svg>