<svg xmlns="http://www.w3.org/2000/svg" viewBox="0 0 479.5 745.64"><defs><style>.cls-1{fill:none;}.cls-2{fill:#112129;}.cls-3{fill:#43aaff;}.cls-4{fill:#3a3838;opacity:0.15;}.cls-5{fill:#07d815;}.cls-6{fill:#0098ff;}.cls-7{fill:#ffbf3e;}.cls-8{fill:#f00818;}.cls-9{fill:#fff;}.cls-10{fill:#fbff5f;}.cls-11{fill:#2181c1;}.cls-12{fill:#0a6ea5;}.cls-13{fill:#ecedee;}.cls-14{fill:#2c758f;}.cls-15{fill:#1e2227;}.cls-16{fill:#3f3e42;}.cls-17{fill:#cadee9;}.cls-18{fill:#97499b;}.cls-19{fill:#ed3724;}.cls-20{fill:#476bb2;}.cls-21{fill:#f9a128;}.cls-22{fill:#f6eb34;}.cls-23{fill:#3bc5f3;}.cls-24{fill:#a7cd41;}.cls-25{fill:#99cee1;}.cls-26{fill:#a8d8eb;}.cls-27{fill:#d6dade;}.cls-28{fill:#f5f6f9;}.cls-29{font-size:5.54px;fill:#5b5b5b;font-family:BeautyandtheBeast, Beauty and the Beast;}</style></defs><title>Asset 47</title><g id="Layer_2" data-name="Layer 2"><g id="Layer_10" data-name="Layer 10"><path class="cls-1" d="M196.32,532.84h-3.09L230,609.36a1.63,1.63,0,0,1,.14.68h5.11l-12.12-77.2Z"/><path class="cls-1" d="M264,532.84H226.29l12.08,76.95a2.18,2.18,0,0,1,0,.25h16v-.2Z"/><path class="cls-1" d="M262.93,609.41l33.65-76.57h-29.5L257.44,610h5.37A1.72,1.72,0,0,1,262.93,609.41Z"/><path class="cls-1" d="M316.6,532.84H300L266,610h1.54a1.6,1.6,0,0,1,.24-.84Z"/><path class="cls-1" d="M172.58,532.84h-7l53.45,76.31a1.54,1.54,0,0,1,.28.89h7.58l-37.12-77.2Z"/><path class="cls-2" d="M274.7,615.1V610h-3.76l-.53.82a1.53,1.53,0,0,1-1.3.71,1.48,1.48,0,0,1-.83-.24,1.53,1.53,0,0,1-.71-1.29H266l-.27.61a1.53,1.53,0,0,1-1.41.92,1.67,1.67,0,0,1-.62-.12,1.54,1.54,0,0,1-.92-1.41h-5.37l0,.18a1.54,1.54,0,0,1-1.54,1.35h-.19a1.52,1.52,0,0,1-1.34-1.52h-16a1.54,1.54,0,0,1-1.3,1.52h-.24a1.54,1.54,0,0,1-1.52-1.3l0-.23h-5.11a1.55,1.55,0,0,1-.87,1.39,1.58,1.58,0,0,1-.67.14,1.53,1.53,0,0,1-1.39-.87l-.32-.66h-7.58a1.57,1.57,0,0,1-.66,1.26,1.6,1.6,0,0,1-.89.27,1.53,1.53,0,0,1-1.26-.65l-.62-.88h-1.24v5.49h44.24l3.88-.14Z"/><path class="cls-2" d="M219.06,609.15l-53.45-76.31H162l-.14,0,54,77.16h3.43A1.54,1.54,0,0,0,219.06,609.15Z"/><path class="cls-2" d="M217.79,611.57a1.6,1.6,0,0,0,.89-.27,1.57,1.57,0,0,0,.66-1.26h-3.43l.62.88A1.53,1.53,0,0,0,217.79,611.57Z"/><path class="cls-2" d="M267.81,609.2a1.6,1.6,0,0,0-.24.84h3.37l49.32-77.2H316.6Z"/><path class="cls-2" d="M268.28,611.33a1.48,1.48,0,0,0,.83.24,1.53,1.53,0,0,0,1.3-.71l.53-.82h-3.37A1.53,1.53,0,0,0,268.28,611.33Z"/><path class="cls-2" d="M264,532.84l-9.62,77v.2h3.09l9.64-77.2Z"/><path class="cls-2" d="M255.69,611.56h.19a1.54,1.54,0,0,0,1.54-1.35l0-.18h-3.09A1.52,1.52,0,0,0,255.69,611.56Z"/><path class="cls-2" d="M226.29,532.84h-3.13L235.28,610h3.1a2.18,2.18,0,0,0,0-.25Z"/><path class="cls-2" d="M235.32,610.27a1.54,1.54,0,0,0,1.52,1.3h.24a1.54,1.54,0,0,0,1.3-1.52h-3.1Z"/><path class="cls-2" d="M230,609.36l-36.8-76.52H189.8L226.92,610h3.25A1.63,1.63,0,0,0,230,609.36Z"/><path class="cls-2" d="M227.24,610.7a1.53,1.53,0,0,0,1.39.87,1.58,1.58,0,0,0,.67-.14,1.55,1.55,0,0,0,.87-1.39h-3.25Z"/><path class="cls-2" d="M296.58,532.84l-33.65,76.57a1.72,1.72,0,0,0-.12.63H266L300,532.84Z"/><path class="cls-2" d="M263.73,611.45a1.67,1.67,0,0,0,.62.12,1.53,1.53,0,0,0,1.41-.92L266,610h-3.22A1.54,1.54,0,0,0,263.73,611.45Z"/><path class="cls-3" d="M123.86,459.62l-.07-.11Z"/><path class="cls-3" d="M129.81,468.9l-.48-.78Z"/><path class="cls-3" d="M131.49,471.67c-.23-.37-.45-.74-.67-1.11C131,470.93,131.26,471.3,131.49,471.67Z"/><path class="cls-3" d="M337.29,492.75a260.41,260.41,0,0,1,33-52.25,260.41,260.41,0,0,0-33,52.25Z"/><path class="cls-3" d="M327.28,516.94h0l.06-.17h0Z"/><path class="cls-3" d="M380.22,429.25c1.31-1.36,2-2.07,2-2.07h0S381.53,427.89,380.22,429.25Z"/><path class="cls-3" d="M325.45,522.35h0c.08-.23.15-.46.23-.7h0Z"/><path class="cls-3" d="M323.77,527.72h0c.12-.41.25-.82.37-1.23h0C324,526.91,323.89,527.31,323.77,527.72Z"/><path class="cls-3" d="M144.79,497.1l0-.06.36.8c-.05-.09-.09-.19-.13-.28S144.85,497.25,144.79,497.1Z"/><path class="cls-3" d="M152.62,516.52l.44,1.26-.15-.43C152.82,517.07,152.72,516.79,152.62,516.52Z"/><path class="cls-3" d="M154.51,522l-.28-.81.54,1.63c-.09-.27-.17-.53-.25-.8Z"/><path class="cls-3" d="M155.85,526.32c.13.4.25.79.37,1.19l-.21-.69C156,526.66,155.91,526.49,155.85,526.32Z"/><path class="cls-3" d="M148.68,506.17c.1.23.19.47.29.71l-.15-.36A3.65,3.65,0,0,0,148.68,506.17Z"/><path class="cls-3" d="M142.29,491.77l-1.11-2.28Z"/><path class="cls-3" d="M135,477.83c-.33-.6-.67-1.19-1-1.78C134.37,476.64,134.71,477.23,135,477.83Z"/><path class="cls-3" d="M147.16,502.51l-.47-1.08Z"/><path class="cls-3" d="M133.18,474.56l-.76-1.32Z"/><path class="cls-3" d="M138.89,485l-1-1.92Z"/><path class="cls-3" d="M140.56,488.24l-1-2Z"/><path class="cls-3" d="M137.24,481.83c-.42-.78-.85-1.55-1.27-2.32C136.39,480.28,136.82,481.05,137.24,481.83Z"/><path class="cls-4" d="M134,476.05l-.86-1.49Z"/><path class="cls-4" d="M141.18,489.49c-.21-.42-.42-.83-.62-1.25C140.76,488.66,141,489.07,141.18,489.49Z"/><path class="cls-4" d="M130.82,470.56l-1-1.66Z"/><path class="cls-4" d="M152.58,516.41l0,.11,0-.08Z"/><path class="cls-4" d="M156.22,527.51c.05.15.09.31.14.46a.74.74,0,0,1,0-.14C156.29,527.72,156.25,527.62,156.22,527.51Z"/><path class="cls-4" d="M139.55,486.26l-.66-1.29Z"/><path class="cls-4" d="M136,479.51l-.93-1.68Z"/><polygon class="cls-4" points="382.27 427.18 382.13 427.11 382.27 427.18 382.27 427.18"/><path class="cls-4" d="M137.88,483.05l-.64-1.22Z"/><path class="cls-4" d="M149,506.88l.12.3s0-.07,0-.11S149,506.94,149,506.88Z"/><path class="cls-4" d="M142.29,491.77c.16.33.32.65.47,1h0C142.61,492.42,142.45,492.1,142.29,491.77Z"/><path class="cls-4" d="M129.33,468.12q-2.76-4.47-5.47-8.5Q126.56,463.64,129.33,468.12Z"/><path class="cls-4" d="M114.14,446.1c3,3.91,6.27,8.39,9.65,13.41-3.38-5-6.64-9.51-9.64-13.41Z"/><path class="cls-4" d="M132.42,473.24l-.93-1.57Z"/><path class="cls-3" d="M156,526.82l.21.69c0,.11.07.21.1.32C156.22,527.49,156.11,527.16,156,526.82Z"/><path class="cls-4" d="M156,526.82l.21.69c0,.11.07.21.1.32C156.22,527.49,156.11,527.16,156,526.82Z"/><path class="cls-3" d="M188.38,492.75h35.44c-2.07-26.55-4.52-46-6-56.56q-.66-4.2-1.29-8.58c0-.28-.07-.43-.07-.43v0q-.8-5.58-1.63-11.45a289,289,0,0,1-46.55,19.09c.24.46.46.93.7,1.39A336.46,336.46,0,0,1,188.38,492.75Z"/><path class="cls-5" d="M239.75,0c-70.14,0-127,109.06-127,243.58,0,67.44,28.72,134,51.8,183.58l0,0,.23.43c1.14,2.44,2.31,4.83,3.49,7.19.24.46.46.93.7,1.39a336.46,336.46,0,0,1,19.42,56.56h35.44c-2.07-26.55-4.52-46-6-56.56q-.66-4.2-1.29-8.58c0-.28-.07-.43-.07-.43v0q-.8-5.58-1.63-11.45C208,367.57,200.38,306,200.38,243.58,200.38,109.06,218,0,239.75,0Z"/><path class="cls-3" d="M154.52,522.06v0Z"/><path class="cls-4" d="M154.52,522.06v0Z"/><path class="cls-3" d="M148.82,506.52l.15.36c0,.06.05.13.08.19C149,506.89,148.9,506.7,148.82,506.52Z"/><path class="cls-4" d="M148.82,506.52l.15.36c0,.06.05.13.08.19C149,506.89,148.9,506.7,148.82,506.52Z"/><path class="cls-3" d="M349.55,27.07q4.9,11,8.94,22.47c47.2,44.48,77.68,114.85,77.68,194,0,67.42-44.08,133.94-79.77,183.53l.11.07s-.6.71-1.68,2.07c-1.23,1.67-2.47,3.33-3.73,5a267,267,0,0,0-31.44,58.54h17.63a260.41,260.41,0,0,1,33-52.25c2-2.42,3.77-4.52,5.34-6.29s3.06-3.29,4.56-5c1.31-1.36,2-2.07,2-2.07l-.14-.07C425.69,377.52,479.5,311,479.5,243.58c0-1.31,0-2.63,0-3.94,0-.36,0-.73,0-1.09,0-1.06,0-2.12-.08-3.17,0-.28,0-.56,0-.84q-.07-1.95-.18-3.9c0-.27,0-.53,0-.8-.06-1.08-.13-2.15-.2-3.22l-.06-1q-.28-4-.69-7.87l-.09-.83c-.13-1.18-.26-2.35-.4-3.52,0-.14,0-.28-.05-.42-.17-1.35-.35-2.7-.54-4,0-.12,0-.24,0-.35-.17-1.24-.36-2.48-.55-3.72,0-.15-.05-.31-.08-.47q-.65-4.08-1.43-8.12l0-.21A243.53,243.53,0,0,0,349.55,27.07Z"/><path class="cls-6" d="M479.5,243.58c0-1.31,0-2.63,0-3.94,0-.36,0-.73,0-1.09,0-1.06,0-2.12-.08-3.17,0-.28,0-.56,0-.84q-.07-1.95-.18-3.9c0-.27,0-.53,0-.8-.06-1.08-.13-2.15-.2-3.22l-.06-1q-.28-4-.69-7.87l-.09-.83c-.13-1.18-.26-2.35-.4-3.52,0-.14,0-.28-.05-.42-.17-1.35-.35-2.7-.54-4,0-.12,0-.24,0-.35-.17-1.24-.36-2.48-.55-3.72,0-.15-.05-.31-.08-.47q-.65-4.08-1.43-8.12l0-.21c-.41-2.1-.85-4.18-1.31-6.27-.12-.55-.25-1.09-.38-1.64-.37-1.63-.76-3.24-1.16-4.85-.12-.5-.25-1-.38-1.5q-1.62-6.34-3.58-12.53c-.08-.27-.17-.53-.25-.79q-.9-2.82-1.86-5.61c-.09-.25-.18-.5-.26-.75C432.78,67.67,344.05,0,239.75,0c44.62,0,85.76,18.45,118.74,49.54,47.2,44.48,77.68,114.85,77.68,194,0,67.42-44.08,133.94-79.77,183.53l.11.07s-.6.71-1.68,2.07c-1.23,1.67-2.47,3.33-3.73,5a267,267,0,0,0-31.44,58.54h17.63a260.41,260.41,0,0,1,33-52.25c2-2.42,3.77-4.52,5.34-6.29s3.06-3.29,4.56-5c1.31-1.36,2-2.07,2-2.07l-.14-.07C425.69,377.52,479.5,311,479.5,243.58Z"/><path class="cls-3" d="M263.15,427.18s-.12.71-.34,2.07c-.24,1.67-.49,3.33-.74,5-1.45,10-4.09,30.24-6.3,58.54h35.65c7.14-28.3,15.65-48.57,20.32-58.54.81-1.63,1.62-3.29,2.41-5,.7-1.36,1.09-2.07,1.09-2.07l-.07-.07c23.07-49.59,51.57-116.11,51.57-183.53q0-9.77-.4-19.33a298.67,298.67,0,0,1-96.7,154.82c-2.13,17.22-4.4,33.37-6.51,48Z"/><path class="cls-7" d="M366.74,243.58q0-9.77-.4-19.33C361.21,98.76,306.49,0,239.75,0c21.74,0,39.37,109.06,39.37,243.58,0,47.48-4.39,94.5-9.48,135.49-2.13,17.22-4.4,33.37-6.51,48l0,.07s-.12.71-.34,2.07c-.24,1.67-.49,3.33-.74,5-1.45,10-4.09,30.24-6.3,58.54h35.65c7.14-28.3,15.65-48.57,20.32-58.54.81-1.63,1.62-3.29,2.41-5,.7-1.36,1.09-2.07,1.09-2.07l-.07-.07C338.24,377.52,366.74,311,366.74,243.58Z"/><path class="cls-3" d="M152.59,516.44l0,.08c.1.27.2.55.29.83C152.81,517,152.7,516.74,152.59,516.44Z"/><path class="cls-4" d="M152.59,516.44l0,.08c.1.27.2.55.29.83C152.81,517,152.7,516.74,152.59,516.44Z"/><path class="cls-3" d="M160.29,492.75A274.82,274.82,0,0,0,134.89,443q-10.24,1.89-20.74,3.06c3,3.9,6.26,8.39,9.64,13.41l.07.11q2.7,4,5.47,8.5l.48.78,1,1.66c.22.37.44.74.67,1.11l.93,1.57.76,1.32.86,1.49c.33.59.67,1.18,1,1.78l.93,1.68c.42.77.85,1.54,1.27,2.32l.64,1.22,1,1.92.66,1.29,1,2c.2.42.41.83.62,1.25l1.11,2.28c.16.33.32.65.47,1Z"/><path class="cls-8" d="M130.25,436.19q-3.3-4.2-6.47-8.58l-.36-.43,0,0C87.75,377.56,43.33,311,43.33,243.58,43.33,109.06,131.27,0,239.75,0,107.34,0,0,109.06,0,243.58c0,67.44,54.21,134,97.8,183.58l0,0,.44.43q3.87,4.38,7.9,8.58c2.34,2.72,5.07,6,8.05,9.91s6.26,8.39,9.64,13.41l.07.11q2.7,4,5.47,8.5l.48.78,1,1.66c.22.37.44.74.67,1.11l.93,1.57.76,1.32.86,1.49c.33.59.67,1.18,1,1.78l.93,1.68c.42.77.85,1.54,1.27,2.32l.64,1.22,1,1.92.66,1.29,1,2c.2.42.41.83.62,1.25l1.11,2.28c.16.33.32.65.47,1h17.53A274.82,274.82,0,0,0,134.89,443C133.21,440.46,131.64,438.16,130.25,436.19Z"/><path class="cls-3" d="M145,497.56c-.07-.15-.14-.31-.2-.46C144.85,497.25,144.92,497.41,145,497.56Z"/><path class="cls-4" d="M145,497.56c-.07-.15-.14-.31-.2-.46C144.85,497.25,144.92,497.41,145,497.56Z"/><path class="cls-3" d="M323.77,527.72c.12-.41.25-.81.37-1.22-.11.38-.23.75-.35,1.14A.24.24,0,0,0,323.77,527.72Z"/><path class="cls-4" d="M323.77,527.72c.12-.41.25-.81.37-1.22-.11.38-.23.75-.35,1.14A.24.24,0,0,0,323.77,527.72Z"/><path class="cls-3" d="M327.34,516.78l-.06.16Z"/><path class="cls-4" d="M327.34,516.78l-.06.16Z"/><path class="cls-3" d="M325.68,521.66l-.23.69Z"/><path class="cls-4" d="M325.68,521.66l-.23.69Z"/><path class="cls-9" d="M169,436.19c-.24-.46-.46-.93-.7-1.39A285.23,285.23,0,0,1,134.89,443a274.82,274.82,0,0,1,25.4,49.71h28.09A336.46,336.46,0,0,0,169,436.19Z"/><path class="cls-6" d="M168.26,434.8c-1.18-2.36-2.35-4.75-3.49-7.19l-.23-.43,0,0c-23.08-49.6-51.8-116.14-51.8-183.58C112.76,109.06,169.61,0,239.75,0,131.27,0,43.33,109.06,43.33,243.58c0,67.44,44.42,134,80.12,183.58l0,0,.36.43q3.16,4.38,6.47,8.58c1.39,2,3,4.27,4.64,6.85a274.82,274.82,0,0,1,25.4,49.71h28.09A336.46,336.46,0,0,0,169,436.19C168.72,435.73,168.5,435.26,168.26,434.8Z"/><path class="cls-9" d="M315.17,427.11l.07.07s-.39.71-1.09,2.07c-.79,1.67-1.6,3.33-2.41,5-4.67,10-13.18,30.24-20.32,58.54h28.24a267,267,0,0,1,31.44-58.54c1.26-1.63,2.5-3.29,3.73-5,1.08-1.36,1.68-2.07,1.68-2.07l-.11-.07c35.69-49.59,79.77-116.11,79.77-183.53,0-79.19-30.48-149.56-77.68-194a301,301,0,0,1,17.09,100.24,303,303,0,0,1-9.24,74.47q.41,9.57.4,19.33C366.74,311,338.24,377.52,315.17,427.11Z"/><path class="cls-8" d="M436.17,243.58c0-79.19-30.48-149.56-77.68-194C325.51,18.45,284.37,0,239.75,0c66.74,0,121.46,98.76,126.59,224.25q.41,9.57.4,19.33c0,67.42-28.5,133.94-51.57,183.53l.07.07s-.39.71-1.09,2.07c-.79,1.67-1.6,3.33-2.41,5-4.67,10-13.18,30.24-20.32,58.54h28.24a267,267,0,0,1,31.44-58.54c1.26-1.63,2.5-3.29,3.73-5,1.08-1.36,1.68-2.07,1.68-2.07l-.11-.07C392.09,377.52,436.17,311,436.17,243.58Z"/><path class="cls-9" d="M216.44,427.18s0,.15.07.43q.63,4.38,1.29,8.58c1.5,10.54,3.95,30,6,56.56h32c2.21-28.3,4.85-48.57,6.3-58.54.25-1.63.5-3.29.74-5,.22-1.36.34-2.07.34-2.07l0-.07c2.11-14.67,4.38-30.82,6.51-48a292.91,292.91,0,0,1-54.83,36.64q.83,5.87,1.63,11.45Z"/><path class="cls-10" d="M279.12,243.58C279.12,109.06,261.49,0,239.75,0s-39.37,109.06-39.37,243.58c0,62.38,7.62,124,14.43,172.13q.83,5.87,1.63,11.45v0s0,.15.07.43q.63,4.38,1.29,8.58c1.5,10.54,3.95,30,6,56.56h32c2.21-28.3,4.85-48.57,6.3-58.54.25-1.63.5-3.29.74-5,.22-1.36.34-2.07.34-2.07l0-.07c2.11-14.67,4.38-30.82,6.51-48C274.73,338.08,279.12,291.06,279.12,243.58Z"/><path class="cls-11" d="M153.62,519.39c-.18-.54-.37-1.08-.56-1.61q.6,1.71,1.17,3.45c0-.16-.1-.33-.16-.49Z"/><path class="cls-11" d="M156.6,528.78l-.24-.81c.36,1.23.72,2.47,1.07,3.72,0-.13-.07-.26-.11-.39C157.08,530.46,156.85,529.62,156.6,528.78Z"/><path class="cls-11" d="M157.75,532.82v0Z"/><path class="cls-11" d="M154.92,523.34l-.15-.48c.37,1.14.73,2.3,1.08,3.46-.15-.52-.31-1-.47-1.56S155.08,523.81,154.92,523.34Z"/><path class="cls-11" d="M147.43,503.15l-.27-.64c.51,1.21,1,2.43,1.52,3.66l-.72-1.75C147.79,504,147.61,503.57,147.43,503.15Z"/><path class="cls-11" d="M150.89,511.78c-.09-.23-.18-.45-.26-.68-.39-1-.78-2-1.18-3l-.36-.9q1.82,4.51,3.49,9.23l-.3-.86C151.82,514.28,151.36,513,150.89,511.78Z"/><path class="cls-11" d="M331.21,506.58l-.39,1Z"/><path class="cls-11" d="M322.93,530.6c-.21.75-.43,1.48-.64,2.24.48-1.73,1-3.43,1.48-5.12h0C323.48,528.68,323.21,529.64,322.93,530.6Z"/><path class="cls-11" d="M337.3,492.76h0Z"/><path class="cls-11" d="M145.9,499.59l-.78-1.75c.53,1.18,1,2.38,1.57,3.59-.09-.23-.19-.47-.29-.69C146.23,500.35,146.07,500,145.9,499.59Z"/><path class="cls-11" d="M144.35,496.14c-.52-1.13-1-2.25-1.57-3.36l0,0h0q1,2.12,2,4.29l-.15-.33Z"/><path class="cls-11" d="M144.35,496.14c-.52-1.13-1-2.25-1.57-3.36C143.31,493.89,143.83,495,144.35,496.14Z"/><path class="cls-11" d="M337.28,492.76Z"/><path class="cls-11" d="M156.74,529.26l0-.11c0-.12-.07-.24-.11-.37.25.84.48,1.68.72,2.52,0-.16-.09-.33-.14-.49C157,530.29,156.89,529.77,156.74,529.26Z"/><path class="cls-11" d="M145,497.56c0,.09.08.19.13.28l.78,1.75C145.6,498.91,145.29,498.23,145,497.56Z"/><path class="cls-11" d="M146.4,500.74c.1.22.2.46.29.69l.47,1.08.27.64C147.09,502.34,146.75,501.54,146.4,500.74Z"/><path class="cls-11" d="M144.61,496.71l.15.33,0,.06Z"/><path class="cls-11" d="M322.93,530.6c-.21.75-.43,1.48-.64,2.24.21-.76.43-1.49.64-2.24Z"/><path class="cls-11" d="M152.91,517.35l.15.43c.19.53.38,1.07.56,1.61C153.39,518.7,153.15,518,152.91,517.35Z"/><path class="cls-11" d="M154.07,520.74c.06.16.11.33.16.49l.28.81C154.36,521.6,154.22,521.17,154.07,520.74Z"/><path class="cls-11" d="M148,504.42l.72,1.75a3.65,3.65,0,0,1,.14.35C148.54,505.81,148.25,505.11,148,504.42Z"/><path class="cls-11" d="M154.52,522.06c.08.27.16.53.25.8l.15.48C154.79,522.92,154.65,522.49,154.52,522.06Z"/><polygon class="cls-11" points="323.76 527.73 323.76 527.73 323.76 527.72 323.76 527.72 323.76 527.73"/><path class="cls-11" d="M155.38,524.76c.16.52.32,1,.47,1.56.06.17.11.34.16.5Z"/><path class="cls-11" d="M157.75,532.82v0Z"/><path class="cls-11" d="M152.28,515.55c-.46-1.27-.92-2.53-1.39-3.77C151.36,513,151.82,514.28,152.28,515.55Z"/><path class="cls-11" d="M150.63,511.1c-.39-1-.78-2-1.18-3C149.85,509.08,150.24,510.09,150.63,511.1Z"/><path class="cls-11" d="M154.07,520.74l-.45-1.35Z"/><path class="cls-11" d="M144.61,496.71l-.26-.57Z"/><path class="cls-11" d="M152.28,515.55l.3.86v0C152.49,516.14,152.39,515.84,152.28,515.55Z"/><path class="cls-11" d="M142.76,492.75h0l0,0Z"/><path class="cls-11" d="M150.89,511.78c-.09-.23-.18-.45-.26-.68C150.71,511.33,150.8,511.55,150.89,511.78Z"/><path class="cls-11" d="M149.05,507.07s0,.08,0,.11l.36.9C149.32,507.74,149.18,507.41,149.05,507.07Z"/><path class="cls-11" d="M155.38,524.76c-.15-.47-.3-1-.46-1.42C155.08,523.81,155.23,524.29,155.38,524.76Z"/><path class="cls-11" d="M148,504.42c-.17-.43-.35-.85-.53-1.27C147.61,503.57,147.79,504,148,504.42Z"/><path class="cls-11" d="M156.53,528.54l-.05-.17c0-.18-.11-.36-.16-.54a.74.74,0,0,0,0,.14l.24.81A2.17,2.17,0,0,0,156.53,528.54Z"/><path class="cls-11" d="M146.4,500.74c-.17-.39-.33-.77-.5-1.15C146.07,500,146.23,500.35,146.4,500.74Z"/><path class="cls-11" d="M265.46,520.92l2.12-17a1.54,1.54,0,1,1,3.06.38l-2.07,16.59h14.54c.77,0,1.54,0,2.3-.1,1.78-10.06,3.83-19.44,6-28.07H255.77c-.68,8.66-1.32,18.07-1.87,28.17Z"/><path class="cls-11" d="M253.3,532.82v0H264v0Z"/><path class="cls-11" d="M267.08,532.82v0h16.39v0Z"/><path class="cls-11" d="M218.9,505.71a1.55,1.55,0,0,1,1.29-1.76,1.57,1.57,0,0,1,1.77,1.29l2.46,15.68h1.27c-.55-10.1-1.19-19.52-1.87-28.17H188.38c2.18,8.65,4.24,18.07,6,28.17h26.89Z"/><path class="cls-11" d="M196.32,532.82v0h26.84v0Z"/><path class="cls-11" d="M157.75,532.82v0H162l.07,0Z"/><path class="cls-11" d="M172.57,532.82h-7l0,0h7Z"/><path class="cls-11" d="M156.74,529.26c.15.51.3,1,.44,1.55C157,530.29,156.89,529.77,156.74,529.26Z"/><path class="cls-11" d="M322.29,532.82h-2l0,0h2c.21-.76.43-1.49.64-2.24C322.72,531.34,322.5,532.07,322.29,532.82Z"/><polygon class="cls-11" points="226.29 532.82 226.29 532.82 226.29 532.82 226.29 532.82"/><path class="cls-11" d="M337.28,492.76h0Z"/><path class="cls-11" d="M156.53,528.54a2.17,2.17,0,0,1,.07.24c0,.13.08.25.11.37Z"/><path class="cls-11" d="M169.61,520.92a281,281,0,0,0-9.32-28.17H142.76l0,0c.53,1.11,1.05,2.23,1.57,3.36l.26.57.18.39c.06.15.13.31.2.46.3.67.61,1.35.91,2,.17.38.33.76.5,1.15.35.8.69,1.6,1,2.41.18.42.36.84.53,1.27.29.69.58,1.39.86,2.1.08.18.15.37.23.55.13.34.27.67.4,1,.4,1,.79,2,1.18,3,.08.23.17.45.26.68.47,1.24.93,2.5,1.39,3.77.11.29.21.59.31.89s.22.6.32.91c.24.67.48,1.35.71,2l.45,1.35c.15.43.29.86.44,1.3v0c.13.43.27.86.4,1.28s.31.95.46,1.42l.63,2.06c.1.34.21.67.31,1,.05.18.11.36.16.54-.74-2.51-1.51-5-2.32-7.45Z"/><path class="cls-11" d="M323.76,527.73h0a.24.24,0,0,1,0-.08Z"/><path class="cls-11" d="M307.37,532.84h9.23v0h-9.23Z"/><path class="cls-11" d="M165.59,532.82h-3.52l-.07,0h3.61Z"/><polygon class="cls-11" points="316.61 532.82 316.6 532.84 320.26 532.84 320.28 532.82 316.61 532.82"/><polygon class="cls-11" points="263.97 532.82 263.97 532.84 267.08 532.84 267.08 532.82 263.97 532.82"/><path class="cls-11" d="M270.64,504.33a1.54,1.54,0,1,0-3.06-.38l-2.12,17h3.11Z"/><path class="cls-11" d="M226.29,532.82h-3.13v0h3.13v0Z"/><path class="cls-11" d="M222,505.24a1.57,1.57,0,0,0-1.77-1.29,1.55,1.55,0,0,0-1.29,1.76l2.39,15.21h3.13Z"/><path class="cls-11" d="M193.22,532.82v0h3.09v0Z"/><path class="cls-11" d="M172.57,532.82v0H189.8v0Z"/><path class="cls-11" d="M184.07,520.92l-4.79-10a1.55,1.55,0,0,1,2.79-1.34l5.43,11.3h6.9c-1.78-10.1-3.84-19.52-6-28.17H160.29a281,281,0,0,1,9.32,28.17Z"/><path class="cls-11" d="M182.07,509.62a1.55,1.55,0,0,0-2.79,1.34l4.79,10h3.43Z"/><polygon class="cls-11" points="189.79 532.82 189.8 532.84 193.23 532.84 193.22 532.82 189.79 532.82"/><path class="cls-11" d="M283.47,532.82v0h13.11v0Z"/><path class="cls-11" d="M285.41,520.82a26.6,26.6,0,0,0,22.75-17.4c1.27-3.63,2.67-7.21,4.12-10.66H291.42C289.24,501.38,287.19,510.76,285.41,520.82Z"/><path class="cls-11" d="M300,532.82v0h7.42v0Z"/><polygon class="cls-11" points="296.59 532.82 296.58 532.84 299.95 532.84 299.96 532.82 296.59 532.82"/><path class="cls-11" d="M253.9,520.92c.55-10.1,1.19-19.51,1.87-28.17h-32c.68,8.65,1.32,18.07,1.87,28.17Z"/><path class="cls-11" d="M226.29,532.82h0v0h27v0Z"/><path class="cls-11" d="M226.29,532.84h0v0Z"/><path class="cls-12" d="M327.34,516.78c1.11-3.15,2.28-6.21,3.48-9.22-1.18,2.95-2.32,5.95-3.41,9A1.34,1.34,0,0,0,327.34,516.78Z"/><path class="cls-12" d="M157.74,532.82h0c-.1-.38-.22-.75-.32-1.13C157.53,532.06,157.64,532.44,157.74,532.82Z"/><path class="cls-12" d="M337.33,492.76h0c-2.1,4.42-4.15,9-6.09,13.82Q334.14,499.38,337.33,492.76Z"/><path class="cls-12" d="M325.78,521.35c0,.1-.07.2-.1.3q.78-2.37,1.6-4.7l-.09.27C326.71,518.58,326.24,520,325.78,521.35Z"/><path class="cls-12" d="M324.18,526.39l0,.1c.43-1.39.86-2.77,1.31-4.14l-.07.22C325,523.83,324.57,525.1,324.18,526.39Z"/><path class="cls-12" d="M325.78,521.36c0,.1-.07.2-.1.3h0c0-.1.07-.2.1-.3Z"/><path class="cls-12" d="M324.18,526.39l0,.11h0l0-.1Z"/><path class="cls-12" d="M325.38,522.57h0l.07-.22h0C325.43,522.42,325.4,522.49,325.38,522.57Z"/><path class="cls-12" d="M327.4,516.6l-.06.18h0a1.34,1.34,0,0,1,.07-.18Z"/><path class="cls-12" d="M327.19,517.21h0l.09-.27h0Z"/><path class="cls-12" d="M324.14,526.5l0-.11-.39,1.25C323.91,527.25,324,526.88,324.14,526.5Z"/><path class="cls-12" d="M325.45,522.35l.23-.69c0-.1.06-.2.1-.3-.14.4-.27.8-.4,1.21C325.4,522.49,325.43,522.42,325.45,522.35Z"/><path class="cls-12" d="M327.28,516.94l.06-.16.06-.18-.21.61Z"/><path class="cls-12" d="M327.19,517.22c-.48,1.36-.95,2.74-1.41,4.13C326.24,520,326.71,518.58,327.19,517.22Z"/><path class="cls-12" d="M157.32,531.3c0,.13.07.26.11.39.1.38.22.75.32,1.13h0C157.61,532.31,157.46,531.81,157.32,531.3Z"/><path class="cls-12" d="M327.41,516.6c1.09-3.09,2.23-6.09,3.41-9l.39-1c1.94-4.79,4-9.4,6.09-13.82h0A245.42,245.42,0,0,0,327.41,516.6Z"/><path class="cls-12" d="M325.38,522.57c-.41,1.26-.81,2.53-1.2,3.82C324.57,525.1,325,523.83,325.38,522.57Z"/><path class="cls-12" d="M323.76,527.73c-.28.95-.55,1.91-.83,2.87C323.21,529.64,323.48,528.68,323.76,527.73Z"/><path class="cls-12" d="M156.71,529.15l0,.11Z"/><path class="cls-12" d="M325.78,521.35c.46-1.39.93-2.77,1.41-4.13h0c-.48,1.37-.95,2.75-1.41,4.15Z"/><path class="cls-12" d="M157.32,531.3c.14.51.29,1,.43,1.52h0c-.18-.68-.38-1.34-.57-2C157.23,531,157.27,531.14,157.32,531.3Z"/><path class="cls-12" d="M327.41,516.6a245.42,245.42,0,0,1,9.87-23.84h0a248,248,0,0,0-9.88,23.84Z"/><path class="cls-12" d="M322.93,530.6c.28-1,.55-1.92.83-2.87h0c-.28.95-.55,1.91-.83,2.87Z"/><path class="cls-12" d="M324.18,526.39c.39-1.29.79-2.56,1.2-3.82h0c-.41,1.26-.81,2.54-1.2,3.82Z"/><path class="cls-12" d="M156.53,528.54l-.05-.17Z"/><path class="cls-12" d="M169.61,520.92H154.16c.81,2.45,1.58,4.94,2.32,7.45l.05.17.18.61,0,.11c.15.51.3,1,.44,1.55.19.67.39,1.33.57,2h4.32a3.58,3.58,0,0,0,2.17-1.93l1.35,1.93h7C171.66,528.75,170.66,524.79,169.61,520.92Z"/><path class="cls-12" d="M268.57,520.92l-1.49,11.9h16.39c.6-4.11,1.25-8.1,1.94-12-.76.07-1.53.1-2.3.1Z"/><path class="cls-12" d="M253.9,520.92q-.32,5.8-.6,11.9H264l1.49-11.9Z"/><path class="cls-12" d="M307.38,532.82h9.23l2.68-4.2a3.43,3.43,0,0,0,2.71,1.5l-1.72,2.7h2c.21-.75.43-1.48.64-2.22.28-1,.55-1.92.83-2.87l0-.09.39-1.25c.39-1.28.79-2.56,1.2-3.82.13-.41.26-.81.4-1.21.46-1.4.93-2.78,1.41-4.15l.21-.61a248,248,0,0,1,9.88-23.84H319.66A276.46,276.46,0,0,0,307.38,532.82Z"/><path class="cls-12" d="M223.16,532.82l-1.87-11.9H194.4c.68,3.87,1.33,7.83,1.92,11.9Z"/><path class="cls-12" d="M224.42,520.92l1.87,11.9h0q-.28-6.11-.6-11.9Z"/><path class="cls-12" d="M162.07,532.82h3.52l-1.35-1.93A3.58,3.58,0,0,1,162.07,532.82Z"/><path class="cls-12" d="M319.29,528.62l-2.68,4.2h3.67l1.72-2.7A3.43,3.43,0,0,1,319.29,528.62Z"/><polygon class="cls-12" points="265.46 520.92 263.97 532.82 267.08 532.82 268.57 520.92 265.46 520.92"/><polygon class="cls-12" points="221.29 520.92 223.16 532.82 226.29 532.82 224.42 520.92 221.29 520.92"/><path class="cls-12" d="M184.07,520.92H169.61c1,3.87,2,7.83,3,11.9h17.22Z"/><path class="cls-12" d="M196.32,532.82c-.59-4.07-1.24-8-1.92-11.9h-6.9l5.72,11.9Z"/><polygon class="cls-12" points="193.22 532.82 187.5 520.92 184.07 520.92 189.79 532.82 193.22 532.82"/><path class="cls-12" d="M296.59,532.82l10.72-24.4a1.54,1.54,0,0,1,2.83,1.24L300,532.82h7.42a276.46,276.46,0,0,1,12.28-40.06h-7.38c-1.45,3.45-2.85,7-4.12,10.66a26.6,26.6,0,0,1-22.75,17.4c-.69,3.9-1.34,7.89-1.94,12Z"/><path class="cls-12" d="M309.34,507.63a1.53,1.53,0,0,0-2,.79l-10.72,24.4H300l10.18-23.16A1.54,1.54,0,0,0,309.34,507.63Z"/><path class="cls-12" d="M225.69,520.92q.31,5.8.6,11.9h27q.28-6.11.6-11.9Z"/><polygon class="cls-13" points="286.42 614.91 269.21 615.33 263.6 615.53 286.42 615.53 286.42 614.91"/><path class="cls-13" d="M261.4,663s19.73-.63,28.85-.28,13,2.66,20.08,6.21,14.32,16,14.32,16c2.15-6.4,7.91-13.19,17.25-19.07a38.65,38.65,0,0,1,15.44-5.75c-.94-4.16-2.82-4.1-2.82-4.1L326,657.18a3.19,3.19,0,0,1-3.05-1.88l-10-22.51a2.65,2.65,0,0,1,2.32-3.67L342,627.88l.8-1.55-186.56,7.1-.84,1.78,7.28,0a1.52,1.52,0,0,1,1.52,1.82c-.85,4.5-3.38,15.67-4.39,20.13a2.41,2.41,0,0,1-2.35,1.86l-7.41-.11a5.85,5.85,0,0,0-1.19,4.35c.51,2.94-.84,4.07-.84,4.07ZM274,630.69l32-1.49a2.92,2.92,0,0,1,2.78,1.66l11.1,23.8a2,2,0,0,1-1.77,2.82l-33.41,1.27a3.19,3.19,0,0,1-3.05-1.88l-10-22.51A2.66,2.66,0,0,1,274,630.69Zm-30.69,1.14,17.19-.68a2.62,2.62,0,0,1,2.54,1.57l7.93,18a2.86,2.86,0,0,1-2.53,4l-30.65,1.17a2.66,2.66,0,0,1-2.65-3.46l5.53-18.53A2.9,2.9,0,0,1,243.32,631.83ZM216,632.92l13.9-.52a1.82,1.82,0,0,1,1.84,2.32l-5.31,20.17a2,2,0,0,1-1.85,1.49l-13.74.52a1.83,1.83,0,0,1-1.85-2.31l5.16-20.17A2,2,0,0,1,216,632.92Zm-22.47.86,13.9-.53a1.83,1.83,0,0,1,1.84,2.33L204,655.75a2,2,0,0,1-1.85,1.48l-13.74.53a1.83,1.83,0,0,1-1.85-2.31l5.16-20.18A2,2,0,0,1,193.53,633.78Zm-29.06,22.51,5.16-20.18a2,2,0,0,1,1.84-1.49l13.91-.53a1.84,1.84,0,0,1,1.84,2.33l-5.32,20.17a2,2,0,0,1-1.84,1.48l-13.75.53A1.83,1.83,0,0,1,164.47,656.29Z"/><path class="cls-13" d="M323.33,617.17c-.89-.18-1.77-.36-2.65-.57-10-2.29-29.82-1.8-29.82-1.8l-4.44.11v.62H263.6L218,617.2s-20.9.85-28.94,1.07-15.05-.21-23.63,3.39-8.24,9.74-8.24,9.74l0,.07,183-6.88C338.75,620.65,327.56,618,323.33,617.17Zm-131.92,7.51-2.21,3.55a1.27,1.27,0,0,1-1,.6l-25.89,1a1.17,1.17,0,0,1-1-1.86l2.55-3.76a1.27,1.27,0,0,1,1-.55l25.56-.78A1.17,1.17,0,0,1,191.41,624.68ZM235,623,232,626.6a1.83,1.83,0,0,1-1.35.61l-34.22,1.3c-1.29,0-2.05-1-1.31-1.85l3.37-3.79a1.86,1.86,0,0,1,1.32-.57l33.78-1.09C234.89,621.17,235.64,622.19,235,623Z"/><path class="cls-14" d="M245.49,706.77a2.17,2.17,0,0,1,.36,0v-.09l8-.23a5.27,5.27,0,0,0-.79-1.84c-1.27-1.38-10.18-1.43-13.38.78-1.65,1.14-3.05,6.87-4,12.16-.92,5-1.45,9.54-1.45,9.54l-1.35.07,3.67.23c-.05-.74-.08-1.47-.08-2.23C236.42,715.2,240.48,707,245.49,706.77Z"/><path class="cls-15" d="M263.65,728.63c-4.87-.6-5.49-2.23-5.54-5.06a10.48,10.48,0,0,1,.08-1.53c-.22-.57-.44-1.15-.72-1.73a24.9,24.9,0,0,1-1.35-4c-.68-2.6-1.26-5.6-1.81-7.92l-2.69,2.94a27.81,27.81,0,0,1,2.94,13.17c0,9.74-3.87,17.83-8.71,18.38l-.36,0,11.73-.45C262.74,736.54,263.55,730.76,263.65,728.63Z"/><path class="cls-15" d="M245.85,706.7v.09c2.22.09,4.24,1.77,5.77,4.53l2.69-2.94c-.17-.71-.33-1.36-.49-1.91Z"/><path class="cls-16" d="M245.49,737.42c-3.49.13-6.32-5.4-6.32-12.35,0,0,0-.07,0-.11l-2.25,2.47-.43,0c.55,8.9,4.36,15.67,9,15.49l0-5.49Z"/><path class="cls-16" d="M239.18,725c0-6.9,2.84-12.58,6.31-12.71a1.51,1.51,0,0,1,.3,0l.06-5.48a2.17,2.17,0,0,0-.36,0c-5,.19-9.07,8.43-9.07,18.41,0,.76,0,1.49.08,2.23l.43,0Z"/><path class="cls-16" d="M254.56,724.49a27.81,27.81,0,0,0-2.94-13.17l-2.64,2.9c1.7,2.19,2.83,6,2.83,10.37,0,6.92-2.8,12.63-6.27,12.82l0,5.49.36,0C250.69,742.32,254.56,734.23,254.56,724.49Z"/><path class="cls-16" d="M245.85,706.79l-.06,5.48a4.42,4.42,0,0,1,3.19,2l2.64-2.9C250.09,708.56,248.07,706.88,245.85,706.79Z"/><path class="cls-17" d="M245.74,717.77,239.18,725s0,.08,0,.11c0,6.95,2.83,12.48,6.32,12.35h0Z"/><path class="cls-17" d="M245.79,712.27a1.51,1.51,0,0,0-.3,0c-3.47.13-6.28,5.81-6.31,12.71l6.56-7.19Z"/><path class="cls-17" d="M245.74,717.77l-.2,19.64c3.47-.19,6.27-5.9,6.27-12.82,0-4.38-1.13-8.18-2.83-10.37Z"/><path class="cls-17" d="M245.79,712.27l0,5.5,3.24-3.55A4.42,4.42,0,0,0,245.79,712.27Z"/><path class="cls-15" d="M332.17,727.18c-1.55,5-4.24,8.41-7.33,8.77l-.36,0,11.73-.45a24.7,24.7,0,0,0,5.36-8.65Z"/><path class="cls-16" d="M316.77,727.67c1.59,5.09,4.45,8.43,7.71,8.31l.09-8.56Z"/><path class="cls-16" d="M332.17,727.18l-7.6.24-.09,8.56.36,0C327.93,735.59,330.62,732.15,332.17,727.18Z"/><path class="cls-15" d="M186.6,725.35a40.18,40.18,0,0,0-1.43-6c-2.39-7.24-5.67-7.73-5.67-7.73a12.38,12.38,0,0,0-1.64-.11c2.81,3,4.73,8.84,4.73,15.69,0,9.74-3.87,17.83-8.72,18.38a2,2,0,0,1-.35,0l11.73-.45c6.94-7.43,6.43-14.68,6.43-14.68l-.28-1.43C186.78,728.68,186.6,725.35,186.6,725.35Z"/><path class="cls-16" d="M173.57,740.15h0c-3.49.13-6.32-5.39-6.32-12.35S170,715.12,173.52,715a1.51,1.51,0,0,1,.3,0l0-2.85a15.17,15.17,0,0,0-4.53,2.33c-4.49,3.34-3.51,15.32-3.51,15.32l-1.31,0c.49,9.06,4.34,16,9,15.8Z"/><path class="cls-16" d="M182.59,727.23c0-6.85-1.92-12.73-4.73-15.69a13.34,13.34,0,0,0-4,.62l0,2.85c3.35.18,6,5.57,6,12.32,0,6.92-2.8,12.63-6.27,12.82l0,5.49a2,2,0,0,0,.35,0C178.72,745.06,182.59,737,182.59,727.23Z"/><path class="cls-17" d="M167.2,727.81c0,7,2.83,12.48,6.32,12.35h0l.25-25.14a1.51,1.51,0,0,0-.3,0C170,715.12,167.2,720.86,167.2,727.81Z"/><path class="cls-17" d="M173.57,740.15c3.47-.19,6.27-5.9,6.27-12.82,0-6.75-2.67-12.14-6-12.32Z"/><path class="cls-18" d="M264.1,717.21l5.34-.2c-2.64-.27-5.31-.47-8-.58l.13.68A3.9,3.9,0,0,1,264.1,717.21Z"/><path class="cls-18" d="M234.05,717.77A126.42,126.42,0,0,0,196.74,729c9.68-.4,30.6-1.51,36.09-1.8l-2.37-.15Z"/><path class="cls-18" d="M235.63,717.57l-1.58.2L230.46,727l2.37.15,1.35-.07S234.71,722.53,235.63,717.57Z"/><path class="cls-18" d="M261.56,717.11l-.13-.68c-1.76-.08-3.52-.12-5.31-.13a24.9,24.9,0,0,0,1.35,4c.28.58.5,1.16.72,1.73a8.3,8.3,0,0,1,1.17-3.6A5.32,5.32,0,0,1,261.56,717.11Z"/><path class="cls-19" d="M156.46,670.62l-6.79.26a3.72,3.72,0,0,0-1.88.37h-.16c0,1-.2,4.57-.15,9.94q7.41-4.91,15.64-9.3Z"/><path class="cls-19" d="M353.33,674.64c2.66,1.6,5.24,3.26,7.75,5-.68-7.66-1.89-14.66-2.22-16.54-.64.15-1.25.26-1.89.38C356.31,666.11,355,670.13,353.33,674.64Z"/><path class="cls-19" d="M342.68,668.72q5.52,2.82,10.65,5.92c1.64-4.51,3-8.53,3.64-11.21a42.37,42.37,0,0,0-10.44,3.31A32.39,32.39,0,0,0,342.68,668.72Z"/><path class="cls-19" d="M156.46,670.62l6.66,1.27c1-.55,2.11-1.1,3.18-1.64Z"/><path class="cls-20" d="M239.72,703.16,256,702.4l.25,3.9-.09.1,3.33-.1,1.41,7.19c10.33,1.62,15.3-1.39,15.3-1.39,1.64-1.57,2.59-4.46,3.08-8a155,155,0,0,0-29.85-1.66q-33.18,1.26-60.29,14.9l2.31,11.75a10,10,0,0,0,1.12,0c.83,0,2.31-.06,4.22-.14a126.42,126.42,0,0,1,37.31-11.21Z"/><path class="cls-20" d="M269.44,717l45.81-1.74a126.65,126.65,0,0,0-36-11.18c-.49,3.55-1.44,6.44-3.08,8,0,0-5,3-15.3,1.39l.58,2.94C264.13,716.54,266.8,716.74,269.44,717Z"/><path class="cls-20" d="M256.2,706.3l-.25-3.9-16.23.76-5.67,14.61,1.58-.2c1-5.29,2.37-11,4-12.16,3.2-2.21,12.11-2.16,13.38-.78a5.27,5.27,0,0,1,.79,1.84l2.29-.07Z"/><path class="cls-20" d="M261.43,716.43l-.58-2.94-.26,0,.26,0-1.41-7.19-3.33.1-1.8,2c.55,2.32,1.13,5.32,1.81,7.92C257.91,716.31,259.67,716.35,261.43,716.43Z"/><path class="cls-20" d="M253.82,706.47c.16.55.32,1.2.49,1.91l1.8-2Z"/><path class="cls-20" d="M185.17,719.38a40.18,40.18,0,0,1,1.43,6s.18,3.33,4.8,3.73l-2.31-11.75C187.77,718,186.46,718.67,185.17,719.38Z"/><path class="cls-21" d="M350.66,681.75a7,7,0,0,1,1.56-.25c6.14-.23,7.82,8.62,7.89,9a1.25,1.25,0,0,1-1,1.43l-.21,0h0c0,.37,0,.75,0,1.13a15,15,0,0,1-.19,2.35c.73.53,1.44,1.07,2.15,1.61.9-4.66.71-11.26.17-17.45-2.51-1.69-5.09-3.35-7.75-5C352.5,676.92,351.59,679.33,350.66,681.75Z"/><path class="cls-21" d="M163.12,671.89q-8.24,4.38-15.64,9.3c0,4.4.23,10,.73,16.24a176.11,176.11,0,0,1,38.15-21.1Z"/><path class="cls-21" d="M288.68,665.59l-.73,0a169.23,169.23,0,0,1,16.54,3.58A35.85,35.85,0,0,0,288.68,665.59Z"/><path class="cls-21" d="M331.49,679.09c4.87,2.3,9.5,4.78,13.9,7.4a8.76,8.76,0,0,1,5.27-4.74c.93-2.42,1.84-4.83,2.67-7.11q-5.13-3.09-10.65-5.92A39.45,39.45,0,0,0,331.49,679.09Z"/><path class="cls-21" d="M166.3,670.25c-1.07.54-2.13,1.09-3.18,1.64l23.24,4.44a178.49,178.49,0,0,1,24.45-7.78Z"/><path class="cls-22" d="M352.17,703.42c-3.45.13-6.29-3.59-6.72-8.52-1.05,2.59-2,4.9-2.76,6.72a154,154,0,0,1,15.14,11.23l.56,0a73.11,73.11,0,0,1,2.18-14.28c.13-.47.24-1,.34-1.51-.71-.54-1.42-1.08-2.15-1.61C358.05,699.89,355.37,703.3,352.17,703.42Z"/><path class="cls-22" d="M186.36,676.33a176.11,176.11,0,0,0-38.15,21.1c.4,5,1,10.32,1.89,15.86a162.55,162.55,0,0,1,65-31.47Z"/><path class="cls-22" d="M345.64,690.87a1.05,1.05,0,0,1-.5,0,1.14,1.14,0,0,1-.9-1.4,14.33,14.33,0,0,1,1.15-3c-4.4-2.62-9-5.1-13.9-7.4-.13.18-.26.35-.38.53a33.31,33.31,0,0,0-5,12.51l0,.16a148.44,148.44,0,0,1,16.58,9.33c.76-1.82,1.71-4.13,2.76-6.72,0-.43-.06-.86-.06-1.3A15.06,15.06,0,0,1,345.64,690.87Z"/><path class="cls-22" d="M278.14,678.43c-.64-4.44-1.23-7.49-1.23-7.49s.59,3,1.23,7.49a153.45,153.45,0,0,1,44.77,12.37,24.29,24.29,0,0,0-1.94-6.5,38.43,38.43,0,0,0-16.48-15.11A169.23,169.23,0,0,0,288,665.61l-77.14,2.94a178.49,178.49,0,0,0-24.45,7.78l28.72,5.49a185.63,185.63,0,0,1,63.06-3.39Z"/><path class="cls-23" d="M315.55,715.26c.48-5.78,2.32-10.67,4.85-13.31l-18.26-3.49c-.91,4-3.44,7-6.43,7.11-3.7.14-6.71-4.16-6.78-9.64l-9.32-1.78a60,60,0,0,1-.38,9.94,126.65,126.65,0,0,1,36,11.18Z"/><path class="cls-23" d="M167.85,713.71a150.94,150.94,0,0,0-15.45,11.72c-.18,1-.33,5.32,10.31,4.46l1.79,0c0-.63-.05-1.27-.05-1.92C164.45,722.22,165.78,717.1,167.85,713.71Z"/><path class="cls-23" d="M279.61,694.15l-29.83-5.7h-.4c-27.79,1.06-52.73,8.09-74.66,20.95l12.74-.37,1.63,8.29q27.06-13.59,60.29-14.9a155,155,0,0,1,29.85,1.66A60,60,0,0,0,279.61,694.15Z"/><path class="cls-23" d="M279.39,689.88a171,171,0,0,0-29.61-1.43l29.83,5.7C279.57,692.73,279.49,691.3,279.39,689.88Z"/><path class="cls-23" d="M289.18,693.05a1.18,1.18,0,0,1-1.15-1.43,2.08,2.08,0,0,1,.07-.28c-2.87-.57-5.77-1.05-8.71-1.46.1,1.42.18,2.85.22,4.27l9.32,1.78v-.18A14.73,14.73,0,0,1,289.18,693.05Z"/><path class="cls-23" d="M302.48,695a2.17,2.17,0,0,1,0,.26,15.37,15.37,0,0,1-.35,3.23L320.4,702h0A135.84,135.84,0,0,0,302.48,695Z"/><path class="cls-23" d="M333.42,714.58l7.92-.31q-4.45-3.19-9.11-6A30.09,30.09,0,0,1,333.42,714.58Z"/><path class="cls-23" d="M324.79,704.11c-1.43-.75-2.89-1.46-4.35-2.16h0c-2.53,2.64-4.37,7.53-4.85,13.31l9.14-.35Z"/><path class="cls-23" d="M320.41,701.94h0Z"/><path class="cls-23" d="M324.79,704.11l-.1,10.8,8.73-.33a30.09,30.09,0,0,0-1.19-6.31C329.79,706.8,327.31,705.42,324.79,704.11Z"/><path class="cls-23" d="M174.72,709.41l-.26.16a6.15,6.15,0,0,1,3.4,2,12.38,12.38,0,0,1,1.64.11s3.28.49,5.67,7.73c1.29-.71,2.6-1.39,3.92-2L187.46,709Z"/><path class="cls-23" d="M169.32,714.49a15.17,15.17,0,0,1,4.53-2.33l0-2.25c-2,1.21-4,2.48-6,3.8-2.07,3.39-3.4,8.51-3.4,14.21,0,.65,0,1.29.05,1.92l1.31,0S164.83,717.83,169.32,714.49Z"/><path class="cls-23" d="M174.46,709.57c-.2.11-.4.22-.59.34l0,2.25a13.34,13.34,0,0,1,4-.62A6.15,6.15,0,0,0,174.46,709.57Z"/><path class="cls-24" d="M339.65,705.63l1.7,8.64,12.41-.47a14.39,14.39,0,0,1,4.07-.95,154,154,0,0,0-15.14-11.23c-1.08,2.63-1.77,4.25-1.77,4.25Z"/><path class="cls-24" d="M173.52,709.51a2.06,2.06,0,0,1,.35,0v-.09l.85,0c21.93-12.86,46.87-19.89,74.66-20.95h.4l-34.7-6.63a162.55,162.55,0,0,0-65,31.47c.63,3.92,1.4,7.92,2.35,11.92a1.15,1.15,0,0,0,0,.22,150.94,150.94,0,0,1,15.45-11.72C169.4,711.16,171.37,709.59,173.52,709.51Z"/><path class="cls-24" d="M325,694c-1.75.37-1.9-1.6-1.9-1.6,0-.54-.07-1.07-.14-1.6a153.45,153.45,0,0,0-44.77-12.37c.47,3.27.95,7.3,1.25,11.45,2.94.41,5.84.89,8.71,1.46.37-1.36,2.36-7.49,7.9-7.7,6.15-.23,7.83,8.62,7.9,9a1.26,1.26,0,0,1-1,1.43l-.22,0a1.26,1.26,0,0,1-.27,0,9.1,9.1,0,0,1,0,.91,135.84,135.84,0,0,1,17.93,7,6,6,0,0,1,4.07-2.1l.36,0v-.1l13.59-.39,1.22,6.25,1.27.24s.69-1.62,1.77-4.25a148.44,148.44,0,0,0-16.58-9.33C325.81,694.05,325,694,325,694Z"/><path class="cls-24" d="M279.39,689.88c-.3-4.15-.78-8.18-1.25-11.45a185.63,185.63,0,0,0-63.06,3.39l34.7,6.63A171,171,0,0,1,279.39,689.88Z"/><path class="cls-24" d="M332.23,708.27q4.65,2.81,9.11,6h0l-1.7-8.64-9.35-1.79A19.7,19.7,0,0,1,332.23,708.27Z"/><path class="cls-24" d="M330.3,703.84l9.35,1.79-1.22-6.25-13.59.39v.1C326.91,700,328.81,701.41,330.3,703.84Z"/><path class="cls-24" d="M320.44,702c1.46.7,2.92,1.41,4.35,2.16l0-1.32Z"/><path class="cls-24" d="M324.81,702.79l0-2.92-.36,0a6,6,0,0,0-4.07,2.1h0Z"/><path class="cls-24" d="M330.3,703.84l-5.49-1.05,0,1.32c2.52,1.31,5,2.69,7.44,4.16A19.7,19.7,0,0,0,330.3,703.84Z"/><path class="cls-24" d="M330.3,703.84c-1.49-2.43-3.39-3.89-5.46-4l0,2.92Z"/><path class="cls-24" d="M174.72,709.41l-.85,0v.09a5.65,5.65,0,0,1,.59,0Z"/><path class="cls-24" d="M173.52,709.51c-2.15.08-4.12,1.65-5.67,4.2,2-1.32,4-2.59,6-3.8v-.38A2.06,2.06,0,0,0,173.52,709.51Z"/><path class="cls-24" d="M173.87,709.53v.38c.19-.12.39-.23.59-.34A5.65,5.65,0,0,0,173.87,709.53Z"/><path class="cls-25" d="M281.68,656.87a3.19,3.19,0,0,0,3.05,1.88l33.41-1.27a2,2,0,0,0,1.77-2.82l-11.1-23.8A2.92,2.92,0,0,0,306,629.2l-32,1.49a2.66,2.66,0,0,0-2.33,3.67Z"/><polygon class="cls-25" points="354.52 656.09 341.98 627.88 349.91 652.37 354.52 656.09"/><path class="cls-25" d="M312.93,632.79l10,22.51a3.19,3.19,0,0,0,3.05,1.88l28.54-1.09-4.61-3.73L342,627.88l-26.73,1.24A2.65,2.65,0,0,0,312.93,632.79Z"/><path class="cls-25" d="M181.9,656.59l5.32-20.17a1.84,1.84,0,0,0-1.84-2.33l-13.91.53a2,2,0,0,0-1.84,1.49l-5.16,20.18a1.83,1.83,0,0,0,1.84,2.31l13.75-.53A2,2,0,0,0,181.9,656.59Z"/><path class="cls-25" d="M186.52,655.45a1.83,1.83,0,0,0,1.85,2.31l13.74-.53a2,2,0,0,0,1.85-1.48l5.31-20.17a1.83,1.83,0,0,0-1.84-2.33l-13.9.53a2,2,0,0,0-1.85,1.49Z"/><path class="cls-25" d="M209,654.59a1.83,1.83,0,0,0,1.85,2.31l13.74-.52a2,2,0,0,0,1.85-1.49l5.31-20.17a1.82,1.82,0,0,0-1.84-2.32l-13.9.52a2,2,0,0,0-1.85,1.5Z"/><path class="cls-25" d="M235.15,652.42a2.66,2.66,0,0,0,2.65,3.46l30.65-1.17a2.86,2.86,0,0,0,2.53-4l-7.93-18a2.62,2.62,0,0,0-2.54-1.57l-17.19.68a2.9,2.9,0,0,0-2.64,2.06Z"/><path class="cls-25" d="M150.83,658l4.55-22.74s-4.46,12.53-5.56,23.68H150A7.45,7.45,0,0,1,150.83,658Z"/><path class="cls-25" d="M159.79,657.14c1-4.46,3.54-15.63,4.39-20.13a1.52,1.52,0,0,0-1.52-1.82l-7.28,0L150.83,658a7.45,7.45,0,0,0-.8.94l7.41.11A2.41,2.41,0,0,0,159.79,657.14Z"/><path class="cls-26" d="M190.4,622.86l-25.56.78a1.27,1.27,0,0,0-1,.55L161.29,628a1.17,1.17,0,0,0,1,1.86l25.89-1a1.27,1.27,0,0,0,1-.6l2.21-3.55A1.17,1.17,0,0,0,190.4,622.86Z"/><path class="cls-26" d="M233.63,621.21l-33.78,1.09a1.86,1.86,0,0,0-1.32.57l-3.37,3.79c-.74.83,0,1.9,1.31,1.85l34.22-1.3a1.83,1.83,0,0,0,1.35-.61L235,623C235.64,622.19,234.89,621.17,233.63,621.21Z"/><path class="cls-27" d="M342.78,626.33s1.4-.51,1.32-1.19-1.09-.66-1.09-.66l-2.88.11a2,2,0,0,1,.09.33Z"/><path class="cls-27" d="M156,631.52s-1.36-.38-1.36.88a1,1,0,0,0,1.25,1.05l.31,0,.93-2Z"/><path class="cls-27" d="M340.22,624.92a2,2,0,0,0-.09-.33l-183,6.88-.93,2,186.56-7.1Z"/><path class="cls-14" d="M155.79,670.49,148,669v-1.69l-1.87,1.05s-1.32,1.42-.37,2.19a3.15,3.15,0,0,0,1.87.7c0-.17,0-.27,0-.27Z"/><path class="cls-14" d="M357.15,662.66c1-.1,1.61-.11,1.61-.11l.1.5.25,0a2.27,2.27,0,0,0,1.25-1.84,1,1,0,0,0-1.09-1.13s-.71,0-1.93.16c0,.06,0,.11,0,.18A6.66,6.66,0,0,1,357.15,662.66Z"/><path class="cls-14" d="M155.79,670.49l11.35-.67c13.39-.79,32.12-1.86,51.1-2.89,21.62-1.18,43.56-2.28,58.29-2.82,5.64-.2,10.22-.32,13.33-.33a34.78,34.78,0,0,1,21.74,7.5,48.5,48.5,0,0,1,13.62,17,48.81,48.81,0,0,1,5.36-9.61,39.71,39.71,0,0,1,11.06-10.47,37.24,37.24,0,0,1,15.51-5.53,6.66,6.66,0,0,0,.23-2.29c0-.07,0-.12,0-.18a38.65,38.65,0,0,0-15.44,5.75c-9.34,5.88-15.1,12.67-17.25,19.07,0,0-7.21-12.5-14.32-16s-10.95-5.86-20.08-6.21-28.85.28-28.85.28L148,667.31V669Z"/><path class="cls-14" d="M357.15,662.66c0,.25-.11.5-.18.77.64-.12,1.25-.23,1.89-.38l-.1-.5S358.18,662.56,357.15,662.66Z"/><path class="cls-14" d="M147.79,671.25a3.72,3.72,0,0,1,1.88-.37l6.79-.26-.67-.13-8.15.49s0,.1,0,.27Z"/><path class="cls-14" d="M167.14,669.82l-11.35.67.67.13,9.84-.37Z"/><path class="cls-14" d="M346.53,666.74A42.37,42.37,0,0,1,357,663.43c.07-.27.13-.52.18-.77a37.24,37.24,0,0,0-15.51,5.53l1,.53A32.39,32.39,0,0,1,346.53,666.74Z"/><path class="cls-14" d="M288.68,665.59a35.85,35.85,0,0,1,15.81,3.6c2.42.65,4.78,1.35,7.11,2.09a34.78,34.78,0,0,0-21.74-7.5c-3.11,0-7.69.13-13.33.33q5.85.58,11.42,1.5Z"/><path class="cls-14" d="M210.81,668.55c2.44-.59,4.91-1.13,7.43-1.62-19,1-37.71,2.1-51.1,2.89l-.84.43Z"/><path class="cls-14" d="M342.68,668.72l-1-.53a39.71,39.71,0,0,0-11.06,10.47l.91.43A39.45,39.45,0,0,1,342.68,668.72Z"/><path class="cls-14" d="M288,665.61q-5.56-.92-11.42-1.5c-14.73.54-36.67,1.64-58.29,2.82-2.52.49-5,1-7.43,1.62Z"/><path class="cls-14" d="M321,684.3a24.29,24.29,0,0,1,1.94,6.5c1.08.49,2.15,1,3.2,1.49l0-.16a33.31,33.31,0,0,1,5-12.51c.12-.18.25-.35.38-.53l-.91-.43a48.81,48.81,0,0,0-5.36,9.61,48.5,48.5,0,0,0-13.62-17c-2.33-.74-4.69-1.44-7.11-2.09A38.43,38.43,0,0,1,321,684.3Z"/><path class="cls-14" d="M325,694s.86,0,1.16-1.71c-1.05-.51-2.12-1-3.2-1.49.07.53.12,1.06.14,1.6C323.05,692.4,323.2,694.37,325,694Z"/><path class="cls-26" d="M288.92,693a1.15,1.15,0,0,0,.26,0,13,13,0,0,1,.34-1.43l-1.42-.28a2.08,2.08,0,0,0-.07.28A1.14,1.14,0,0,0,288.92,693Z"/><path class="cls-26" d="M295.71,685.41c3.48-.14,6.34,3.65,6.73,8.65a1.26,1.26,0,0,0,.27,0l.22,0a1.26,1.26,0,0,0,1-1.43c-.07-.38-1.75-9.23-7.9-9-5.54.21-7.53,6.34-7.9,7.7l1.42.28C290.57,688.06,293,685.51,295.71,685.41Z"/><path class="cls-26" d="M352.17,683.26c3.49-.14,6.36,3.67,6.74,8.69h0l.21,0a1.25,1.25,0,0,0,1-1.43c-.07-.38-1.75-9.23-7.89-9a7,7,0,0,0-1.56.25l-.87,2.25A5,5,0,0,1,352.17,683.26Z"/><path class="cls-26" d="M345.39,686.49l1.43.88a8.17,8.17,0,0,1,3-3.37l.87-2.25A8.76,8.76,0,0,0,345.39,686.49Z"/><path class="cls-26" d="M345.14,690.88a1.05,1.05,0,0,0,.5,0,12.55,12.55,0,0,1,1.18-3.5l-1.43-.88a14.33,14.33,0,0,0-1.15,3A1.14,1.14,0,0,0,345.14,690.88Z"/><path class="cls-27" d="M295.71,702.29c1.88-.08,3.49-1.82,4.2-4.26l-8.75-1.67C291.39,699.78,293.34,702.38,295.71,702.29Z"/><path class="cls-27" d="M291.16,696.36l8.75,1.67a9.93,9.93,0,0,0,.38-2.72c0-.34,0-.68-.06-1-2.77-.8-5.58-1.53-8.43-2.17a9.48,9.48,0,0,0-.67,3.53C291.13,695.9,291.14,696.13,291.16,696.36Z"/><path class="cls-27" d="M295.71,688.69c-1.66.06-3.11,1.44-3.91,3.44,2.85.64,5.66,1.37,8.43,2.17C299.9,691,298,688.6,295.71,688.69Z"/><path class="cls-14" d="M295.94,703.93c-2.84.11-5.14-3.3-5.23-7.66l-1.78-.34c.07,5.48,3.08,9.78,6.78,9.64,3-.12,5.52-3.09,6.43-7.11l-1.24-.24C300.2,701.46,298.25,703.84,295.94,703.93Z"/><path class="cls-14" d="M290.7,696a12,12,0,0,1,.67-4l-.94-.21c0,.15-.06.25-.07.26a1.27,1.27,0,0,1-1.18,1,14.73,14.73,0,0,0-.25,2.7v.18l1.78.34C290.71,696.19,290.7,696.11,290.7,696Z"/><path class="cls-14" d="M302.48,695l-1.35-.41c0,.35.05.7.05,1.06a12.12,12.12,0,0,1-.28,2.6l1.24.24a15.37,15.37,0,0,0,.35-3.23A2.17,2.17,0,0,0,302.48,695Z"/><path class="cls-14" d="M301.53,693.15c0-.07-1.38-7.26-5.53-7.11-3.7.14-5.24,4.65-5.57,5.78l.94.21c.9-2.5,2.61-4.24,4.57-4.32,2.66-.1,4.85,2.89,5.19,6.85l1.35.41a9.1,9.1,0,0,0,0-.91A1.13,1.13,0,0,1,301.53,693.15Z"/><path class="cls-14" d="M289.18,693.05a1.27,1.27,0,0,0,1.18-1s0-.11.07-.26l-.91-.2A13,13,0,0,0,289.18,693.05Z"/><path class="cls-14" d="M295.71,685.41c-2.76.1-5.14,2.65-6.19,6.21l.91.2c.33-1.13,1.87-5.64,5.57-5.78,4.15-.15,5.52,7,5.53,7.11a1.13,1.13,0,0,0,.91.91C302.05,689.06,299.19,685.27,295.71,685.41Z"/><path class="cls-14" d="M295.71,702.29c-2.37.09-4.32-2.51-4.55-5.93l-.45-.09c.09,4.36,2.39,7.77,5.23,7.66,2.31-.09,4.26-2.47,5-5.71l-1-.19C299.2,700.47,297.59,702.21,295.71,702.29Z"/><path class="cls-14" d="M291.13,695.66a9.48,9.48,0,0,1,.67-3.53l-.43-.1a12,12,0,0,0-.67,4c0,.09,0,.17,0,.25l.45.09C291.14,696.13,291.13,695.9,291.13,695.66Z"/><path class="cls-14" d="M300.29,695.31a9.93,9.93,0,0,1-.38,2.72l1,.19a12.12,12.12,0,0,0,.28-2.6c0-.36,0-.71-.05-1.06l-.9-.26C300.26,694.63,300.29,695,300.29,695.31Z"/><path class="cls-14" d="M295.94,687.71c-2,.08-3.67,1.82-4.57,4.32l.43.1c.8-2,2.25-3.38,3.91-3.44,2.29-.09,4.19,2.35,4.52,5.61l.9.26C300.79,690.6,298.6,687.61,295.94,687.71Z"/><path class="cls-27" d="M352.17,686.54a4.2,4.2,0,0,0-3.25,2.14c2.69,1.7,5.29,3.46,7.8,5.25,0-.25,0-.51,0-.77C356.75,689.41,354.7,686.44,352.17,686.54Z"/><path class="cls-27" d="M347.59,693.51c0,3.76,2.05,6.72,4.58,6.63,2.35-.09,4.29-2.8,4.55-6.21-2.51-1.79-5.11-3.55-7.8-5.25A8.94,8.94,0,0,0,347.59,693.51Z"/><path class="cls-14" d="M357.75,691c0-.07-1.39-7.26-5.53-7.11a4.63,4.63,0,0,0-2.85,1.17l-1.23,3.12.37.22a4.93,4.93,0,0,1,3.89-2.85c2.89-.11,5.24,3.43,5.24,7.91,0,.37,0,.73-.05,1.09l1.17.87a15,15,0,0,0,.19-2.35c0-.38,0-.76,0-1.13A1.14,1.14,0,0,1,357.75,691Z"/><path class="cls-14" d="M347.41,687.73l.73.46,1.23-3.12A8.29,8.29,0,0,0,347.41,687.73Z"/><path class="cls-14" d="M352.4,701.78c-2.89.11-5.24-3.43-5.24-7.91a11.11,11.11,0,0,1,1.35-5.46l-.37-.22c-.93,2.35-1.84,4.62-2.69,6.71.43,4.93,3.27,8.65,6.72,8.52,3.2-.12,5.88-3.53,6.59-8l-1.17-.87C357.24,698.54,355.06,701.68,352.4,701.78Z"/><path class="cls-14" d="M347.41,687.73a12,12,0,0,0-.83,2.21,1.25,1.25,0,0,1-.94.93,15.06,15.06,0,0,0-.25,2.73c0,.44,0,.87.06,1.3.85-2.09,1.76-4.36,2.69-6.71Z"/><path class="cls-14" d="M352.17,683.26a5,5,0,0,0-2.38.74l-.42,1.07a4.63,4.63,0,0,1,2.85-1.17c4.14-.15,5.52,7,5.53,7.11a1.14,1.14,0,0,0,1.16.94C358.53,686.93,355.66,683.12,352.17,683.26Z"/><path class="cls-14" d="M349.37,685.07l.42-1.07a8.17,8.17,0,0,0-3,3.37l.59.36A8.29,8.29,0,0,1,349.37,685.07Z"/><path class="cls-14" d="M346.58,689.94a12,12,0,0,1,.83-2.21l-.59-.36a12.55,12.55,0,0,0-1.18,3.5A1.25,1.25,0,0,0,346.58,689.94Z"/><path class="cls-14" d="M352.17,686.54c2.53-.1,4.58,2.87,4.58,6.62,0,.26,0,.52,0,.77l.87.63c0-.36.05-.72.05-1.09,0-4.48-2.35-8-5.24-7.91a4.93,4.93,0,0,0-3.89,2.85l.41.27A4.2,4.2,0,0,1,352.17,686.54Z"/><path class="cls-14" d="M352.4,701.78c2.66-.1,4.84-3.24,5.19-7.22l-.87-.63c-.26,3.41-2.2,6.12-4.55,6.21-2.53.09-4.58-2.87-4.58-6.63a8.94,8.94,0,0,1,1.33-4.83l-.41-.27a11.11,11.11,0,0,0-1.35,5.46C347.16,698.35,349.51,701.89,352.4,701.78Z"/><path class="cls-28" d="M305.66,726.52c-14.38,1-27.45,1.81-32.71,2a28.82,28.82,0,0,1-9.3-.77h0s0,.31,0,.86c.84.1,1.79.18,2.9.22,4.24.17,29.17-.54,50.22-1.18-.19-.61-.36-1.23-.51-1.88Z"/><path class="cls-28" d="M358.22,722.81l-5.65.41-10.21.73a20.4,20.4,0,0,1-.79,2.93l5.75-.19s8.74,1.74,15.66-2.3c5.87-3.42,3.2-11.74-4.59-11.56l0,.47C358,718.74,358.22,722.81,358.22,722.81Z"/><path class="cls-28" d="M263.65,727.77h0c-3.77-1.15-4.57-3.38-5.46-5.72a10.48,10.48,0,0,0-.08,1.53c.05,2.83.67,4.46,5.54,5.06C263.67,728.08,263.65,727.77,263.65,727.77Z"/><path class="cls-28" d="M332.83,724.63q-.29,1.33-.66,2.55l9.4-.3a20.4,20.4,0,0,0,.79-2.93Z"/><path class="cls-28" d="M324.59,725.21l-8.33.58c.15.65.32,1.27.51,1.88l7.8-.25Z"/><path class="cls-28" d="M324.59,725.21l0,2.21,7.6-.24q.38-1.21.66-2.55l-1.42.1Z"/><path class="cls-28" d="M264.1,717.21a3.9,3.9,0,0,0-2.54-.1l2.09,10.65a28.82,28.82,0,0,0,9.3.77c5.26-.2,18.33-1,32.71-2A116.9,116.9,0,0,0,269.44,717Z"/><path class="cls-28" d="M263.65,727.76l-2.09-10.65a5.32,5.32,0,0,0-2.2,1.33,8.3,8.3,0,0,0-1.17,3.6C259.08,724.38,259.88,726.61,263.65,727.76Z"/><path class="cls-28" d="M315.54,715.41l-.29-.14L269.44,717a116.9,116.9,0,0,1,36.22,9.51l10.6-.73a32.86,32.86,0,0,1-.85-7.53C315.41,717.29,315.46,716.34,315.54,715.41Z"/><path class="cls-28" d="M315.54,715.41c-.08.93-.13,1.88-.13,2.85a32.86,32.86,0,0,0,.85,7.53l8.33-.58.05-4.85Q320.19,717.69,315.54,715.41Z"/><path class="cls-28" d="M324.64,720.36l-.05,4.85,6.82-.48Q328.08,722.44,324.64,720.36Z"/><path class="cls-28" d="M358.36,713.3l0-.47-.56,0Z"/><path class="cls-28" d="M342.64,720.84a13.66,13.66,0,0,1-.28,3.11l10.21-.73a140.55,140.55,0,0,0-11.21-8.93Z"/><path class="cls-28" d="M315.55,715.26h-.3l.29.14A.76.76,0,0,1,315.55,715.26Z"/><path class="cls-28" d="M342.64,720.84l-1.28-6.55,0,0-7.92.31c.08,1,.13,2,.13,3a34.42,34.42,0,0,1-.72,7.07l9.53-.68A13.66,13.66,0,0,0,342.64,720.84Z"/><path class="cls-28" d="M324.64,720.36l.05-5.45-9.14.35a.76.76,0,0,0,0,.15Q320.19,717.69,324.64,720.36Z"/><path class="cls-28" d="M333.42,714.58l-8.73.33-.05,5.45q3.44,2.07,6.77,4.37l1.42-.1a34.42,34.42,0,0,0,.72-7.07C333.55,716.54,333.5,715.55,333.42,714.58Z"/><path class="cls-28" d="M341.35,714.27v0a140.55,140.55,0,0,1,11.21,8.93l5.65-.41s-.18-4.07.14-9.51l-.53-.45a14.39,14.39,0,0,0-4.07.95Z"/><path class="cls-28" d="M341.36,714.29v0h0Z"/><text class="cls-29" transform="translate(315.68 723.89) rotate(-2.96)">0</text><text class="cls-29" transform="matrix(1, -0.05, 0.05, 1, 319.38, 723.7)">2</text><text class="cls-29" transform="matrix(1, -0.05, 0.05, 1, 322.96, 723.52)">0</text><text class="cls-29" transform="translate(326.68 723.32) rotate(-2.96)">4</text><text class="cls-29" transform="translate(329.71 723.16) rotate(-2.96)"> </text><text class="cls-29" transform="translate(331.98 723.05) rotate(-2.96)">L</text><text class="cls-29" transform="matrix(1, -0.05, 0.05, 1, 335.09, 722.89)">-</text><text class="cls-29" transform="translate(338.92 722.69) rotate(-2.96)">0</text><text class="cls-29" transform="matrix(1, -0.05, 0.05, 1, 342.62, 722.5)">V</text><text class="cls-29" transform="matrix(1, -0.05, 0.05, 1, 346.14, 722.31)">E</text><text class="cls-29" transform="matrix(1, -0.05, 0.05, 1, 349.14, 722.16)"> </text><text class="cls-29" transform="translate(351.42 722.04) rotate(-2.96)">7</text><text class="cls-29" transform="translate(354.36 721.89) rotate(-2.96)">7</text></g></g></svg>