<svg xmlns="http://www.w3.org/2000/svg" viewBox="0 0 2782 1051.77"><defs><style>.cls-1{isolation:isolate;}.cls-2{fill:#97499b;}.cls-3{fill:#ed3724;}.cls-4{fill:#476bb2;}.cls-5{fill:#f9a128;}.cls-6{fill:#f6eb34;}.cls-7{fill:#3bc5f3;}.cls-8{fill:#a7cd41;}.cls-9{fill:#01f60d;}.cls-10{fill:#25b367;}.cls-11{fill:#f26f52;}.cls-12{fill:#f7995b;}.cls-13{fill:#2f5e6c;}.cls-14{fill:#fff;}.cls-15{fill:#183441;}.cls-16{fill:#fabc92;}.cls-17{fill:#f69553;}.cls-18{fill:#933640;}.cls-19{fill:#2b5669;}.cls-20{fill:#8fa89b;}.cls-21{fill:#812064;}.cls-22{fill:#a45425;}.cls-23{fill:#7e455a;}.cls-24{fill:#1c8448;}.cls-25{fill:#fdde84;}.cls-26{fill:#ff9b55;}.cls-27{fill:#ff2f55;}.cls-28{fill:#f05;}.cls-29{fill:#f6ae4f;}.cls-30{fill:#706c63;}.cls-31{fill:#99958c;}.cls-32{fill:#7c7972;}.cls-33{fill:#8e8b85;}.cls-34{fill:#5e5b54;}.cls-35{fill:#666258;}.cls-36{fill:#6b6860;}.cls-37{fill:#514e47;}.cls-38{fill:#68655c;}.cls-39{fill:#a8a59e;}.cls-40{fill:#605d58;}.cls-41{fill:#f67c01;}.cls-42{fill:#ffc929;}.cls-43{fill:#ffe3b8;mix-blend-mode:multiply;}.cls-44{fill:#928e84;}.cls-45{fill:#c57132;}.cls-46{fill:#e7b24a;}.cls-47{fill:#7f421f;}.cls-48{fill:#f4b168;}.cls-49{fill:#e95245;}.cls-50{fill:#eee4d2;}</style></defs><title>Asset 53</title><g class="cls-1"><g id="Layer_2" data-name="Layer 2"><g id="Layer_18" data-name="Layer 18"><path class="cls-2" d="M1366,189.55c-97,0-175.93,38.42-234.54,114.18-27.8,35.94-44.9,72.92-53.87,95.81H1113c9-20.63,23.33-48.68,44.33-75.81,52.1-67.35,122.32-101.5,208.69-101.5s156.59,34.15,208.69,101.5c21,27.09,35.34,55.16,44.31,75.81h35.4c-9-22.88-26.05-59.86-53.86-95.81C1541.93,228,1463,189.55,1366,189.55Z"/><path class="cls-3" d="M1845.61,373.89c-1-3.86-25.41-95.59-94.41-185.19C1684.91,102.62,1564.27,0,1366,0S1047.09,102.62,980.8,188.7c-69.08,89.7-93.41,181.35-94.41,185.2l-6.67,25.64h33.77L918,382.13c.93-3.59,23.63-89,88.67-173.49,61.82-80.27,174.33-176,359.31-176s297.49,95.69,359.31,176c65,84.38,87.74,169.88,88.68,173.48l4.53,17.42h33.76Z"/><path class="cls-4" d="M1366,156.87c-107.66,0-195.26,42.68-260.39,126.86-35.59,46-54.89,93-62.91,115.81h34.89c9-22.89,26.07-59.87,53.87-95.81C1190.07,228,1269,189.55,1366,189.55S1541.93,228,1600.54,303.73c27.81,35.95,44.9,72.93,53.86,95.81h34.9c-8-22.76-27.31-69.79-62.91-115.81C1561.26,199.55,1473.66,156.87,1366,156.87Z"/><path class="cls-5" d="M1725.31,208.64c-61.82-80.27-174.33-176-359.31-176s-297.49,95.69-359.31,176C941.65,293.1,919,378.54,918,382.13l-4.53,17.41h33.77l2.38-9.18c.87-3.34,22-82.57,82.94-161.78C1089.92,154.12,1194.32,65.36,1366,65.36s276.08,88.76,333.42,163.22c61,79.22,82.07,158.44,82.94,161.78l2.39,9.18h33.77L1814,382.12C1813.05,378.52,1790.29,293,1725.31,208.64Z"/><path class="cls-6" d="M1699.42,228.58C1642.08,154.12,1537.69,65.36,1366,65.36s-276.08,88.76-333.42,163.22c-61,79.21-82.07,158.44-82.94,161.78l-2.38,9.18h37.67l-3.66-1c.8-3.07,20.26-76.11,77.21-150.06C1111.34,179.87,1207.61,98,1366,98s254.66,81.83,307.53,150.48c56.94,74,76.4,147,77.2,150.06l-3.66,1h37.68l-2.39-9.18C1781.49,387,1760.42,307.8,1699.42,228.58Z"/><path class="cls-7" d="M1366,124.19c-118.3,0-214.6,46.95-286.24,139.55-45.19,58.42-65.88,117.64-71.52,135.8h34.46c8-22.77,27.32-69.8,62.91-115.81,65.13-84.18,152.73-126.86,260.39-126.86s195.26,42.68,260.39,126.86c35.6,46,54.89,93,62.91,115.81h34.47c-5.65-18.16-26.33-77.38-71.53-135.8C1580.6,171.14,1484.3,124.19,1366,124.19Z"/><path class="cls-8" d="M1673.53,248.52C1620.66,179.87,1524.4,98,1366,98s-254.66,81.83-307.52,150.48c-57,74-76.41,147-77.21,150.06l3.66,1h23.31c5.64-18.16,26.33-77.38,71.52-135.8,71.64-92.6,167.94-139.55,286.24-139.55s214.6,46.95,286.24,139.55c45.2,58.42,65.88,117.64,71.53,135.8h23.3l3.66-1C1749.93,395.51,1730.47,322.47,1673.53,248.52Z"/><path class="cls-9" d="M2223,206.35c1.07.75,2.09,1.5,3.14,2.25l4.44,4.25a4.76,4.76,0,0,0,.28.49,41.42,41.42,0,0,1,3,4.6q3.52,7.5-.85,14.19t-16.65,12.55a122.13,122.13,0,0,1-22.8,7.86,245.07,245.07,0,0,1-29.85,5.25c-3.77.45-7.68.82-11.52,1.22l-14.46.93c-3.41.06-6.77.2-10.17.25a438.42,438.42,0,0,1-47.27-1.75,366.25,366.25,0,0,1-44.43-6.82,223.39,223.39,0,0,1-33.42-9.72q-14.06-5.47-22.9-12.19l-2.32-1.75-2.91-2.78c-.11-.18-.2-.35-.32-.53a43.38,43.38,0,0,1-3.54-5.09q-3.63-7.47.6-14.16a26.08,26.08,0,0,1,6.34-6.57c-712.78,38.25-913,526.59-913,526.59L2782,781.05V406.59c-138.07-97.89-323.29-181.79-564.52-203.72C2219.43,204,2221.26,205.15,2223,206.35Z"/><path class="cls-9" d="M2135.39,256.2l-34.89-33.31L2071.93,236l-14.26,6.54-14.28,6.55a362.06,362.06,0,0,0,45,6.32A394.07,394.07,0,0,0,2135.39,256.2Z"/><path class="cls-9" d="M1982,208.22c-7.2,14.67,15.84,29.59,51.38,38.45l.77-.33,30.44-14,15.23-7,15.23-7c.47-.22.49-.42.21-.68l-9.29-8.86-9.28-8.86-3.75-3.58q-41.42-.14-80.75,1.64C1987.37,201.07,1983.81,204.44,1982,208.22Z"/><path class="cls-9" d="M2108,217.64l25.53,4.08,25.54,4.08,25.53,4.08,25.53,4.08,7.32,1.16c11.19-9.47,7.73-22.3-15.3-33.56q-14.34-1.14-28.93-2-45.28-2.59-88.3-3,10.74,10.24,21.46,20.49A2.81,2.81,0,0,0,2108,217.64Z"/><path class="cls-9" d="M2186.41,249.24c11.09-2.85,20.06-6.46,27-10.84L2188,234.34l-25.36-4.05-50.76-8.11,34.89,33.31A245.79,245.79,0,0,0,2186.41,249.24Z"/><path class="cls-10" d="M1971.06,205.4q-4.23,6.69-.6,14.16a43.38,43.38,0,0,0,3.54,5.09c.12.18.21.35.32.53l2.91,2.78,2.32,1.75q8.85,6.71,22.9,12.19a223.39,223.39,0,0,0,33.42,9.72,366.25,366.25,0,0,0,44.43,6.82,438.42,438.42,0,0,0,47.27,1.75c3.4-.05,6.76-.19,10.17-.25l14.46-.93c3.84-.4,7.75-.77,11.52-1.22a245.07,245.07,0,0,0,29.85-5.25,122.13,122.13,0,0,0,22.8-7.86q12.28-5.87,16.65-12.55t.85-14.19a41.42,41.42,0,0,0-3-4.6,4.76,4.76,0,0,1-.28-.49l-4.44-4.25c-1.05-.75-2.07-1.5-3.14-2.25-1.71-1.2-3.54-2.35-5.49-3.48q-7.64-.7-15.34-1.31c23,11.26,26.49,24.09,15.3,33.56l-7.32-1.16-25.53-4.08-25.53-4.08-25.54-4.08L2108,217.64a2.81,2.81,0,0,1-1.62-.6q-10.71-10.24-21.46-20.49-6-.06-12-.08l3.75,3.58,9.28,8.86,9.29,8.86c.28.26.26.46-.21.68l-15.23,7-15.23,7-30.44,14-.77.33c-35.54-8.86-58.58-23.78-51.38-38.45,1.85-3.78,5.41-7.15,10.19-10.11q-7.41.33-14.75.72A26.08,26.08,0,0,0,1971.06,205.4Zm191.56,24.89,25.36,4.05,25.41,4.06c-6.92,4.38-15.89,8-27,10.84a245.79,245.79,0,0,1-39.66,6.25l-34.89-33.31Zm-104.95,12.23,14.26-6.54,28.57-13.09,34.89,33.31a394.07,394.07,0,0,1-47-.81,362.06,362.06,0,0,1-45-6.32Z"/><path class="cls-11" d="M1801.57,192.28a7.19,7.19,0,0,0,.49,1.7,1.79,1.79,0,0,1,.13.39.48.48,0,0,1-.09.38.7.7,0,0,1-.57.17h-.48a.28.28,0,0,1-.15-.2.82.82,0,0,1,0-.27c.09-.59.19-1.18.29-1.78a.54.54,0,0,1,.09-.25.18.18,0,0,1,.24-.05l0-.07"/><path class="cls-12" d="M1801.69,188c.48,3.44-.57,6.9-1.61,10.22a2.43,2.43,0,0,1-.35.81,2.09,2.09,0,0,1-1.31.72c-.5.1-1,.11-1.51.22a3.68,3.68,0,0,0-1.92,1.18,1.8,1.8,0,0,1-.37.36,1,1,0,0,1-.91-.06,2.7,2.7,0,0,1-1-1.11c-1.13-2.07-1.09-4.57-.8-6.91a5.9,5.9,0,0,1,.64-2.31,5.28,5.28,0,0,1,1.25-1.33c.76-.62,1.57-1.17,2.37-1.72a4.65,4.65,0,0,1,1.33-.72,4.58,4.58,0,0,1,1.61-.09l1.16.1c.47,0,1,.17,1.21.6l.19,0"/><path class="cls-13" d="M1801.86,191.92a1.91,1.91,0,0,1-.06.33,1.76,1.76,0,0,1-.15.44,1.42,1.42,0,0,1-1.16.92h-.18a1,1,0,0,1-.5-.22,1.5,1.5,0,0,1-.4-.54,2.16,2.16,0,0,1-.15-.45l0-.2h0a2.53,2.53,0,0,1,0-.55,1.85,1.85,0,0,1,0-.23h0a2.33,2.33,0,0,1,.16-.53,1.38,1.38,0,0,1,1.31-.93l.15,0a1,1,0,0,1,.4.21,1.56,1.56,0,0,1,.29.33l.09.18a2.33,2.33,0,0,1,.11.28,2.2,2.2,0,0,1,.09.64,1.51,1.51,0,0,1,0,.3"/><path class="cls-14" d="M1801.79,192.31a2.46,2.46,0,0,1-.14.38h0a2.46,2.46,0,0,0,.14-.38"/><polyline class="cls-15" points="1799.27 191.31 1795.39 191.31 1795.39 191.51 1799.27 191.51"/><path class="cls-12" d="M1800.77,266.54a32.79,32.79,0,0,1-1,6.9,4.84,4.84,0,0,1-1,2.14,5.3,5.3,0,0,1-3.32,1.27l-5.64.78-4.8.66-3.35.46-1.52.21a47.1,47.1,0,0,0-7.55,1.48c-.54.17-1.08.36-1.6.57a15.34,15.34,0,0,0-3.56,2,8,8,0,0,0-2,2.05,11.6,11.6,0,0,0-1,2.25c-.49,1.37-1,2.74-1.48,4.1a13.15,13.15,0,0,1-2.3,4.5c-.56.64-1.47,1.19-2.23.8s-.84-1.47-.78-2.35c.33-4.7,1.11-9.36,1.89-14a5,5,0,0,1,.85-2.43,3.56,3.56,0,0,1,1.84-1.1,15.7,15.7,0,0,1,3.94-.29,29.61,29.61,0,0,0,4.69-.49c.47-.08.93-.18,1.4-.28,1.9-.41,3.78-.94,5.64-1.51l1-.31q3.57-1.1,7.12-2.23l1.86-.6a4.26,4.26,0,0,0,1.35-.62c1.32-1,1.06-3.11,1.92-4.53a1.31,1.31,0,0,1,.62-.59,1.75,1.75,0,0,1,.79,0l1.3.18q3.15.47,6.27,1.12Z"/><path class="cls-16" d="M1800.16,266.62l.61-.08a32.79,32.79,0,0,1-1,6.9,4.84,4.84,0,0,1-1,2.14,5.3,5.3,0,0,1-3.32,1.27l-5.64.78c.27-1.39.56-2.77.87-4.15a20,20,0,0,1,3.06-7.76,1.92,1.92,0,0,1,.18-.22Q1797,266,1800.16,266.62Z"/><path class="cls-12" d="M1786.45,274.21a13,13,0,0,1-.73,2.74,3.31,3.31,0,0,1-.73,1.34h0l-3.35.46a3.88,3.88,0,0,0-.78-1.36,18.68,18.68,0,0,0-2.6-2.87l-.36-.29,1-.31q3.57-1.1,7.12-2.23A4.37,4.37,0,0,1,1786.45,274.21Z"/><path class="cls-12" d="M1797.39,266.5c-.3,1.11-.62,2.23-.94,3.35-.71,2.47-1.48,4.92-2.35,7.35-1.95,5.49-4.63,10.75-7.07,16.05-1.42,3.09-3.62,5.78-5.52,8.59q-3,4.47-5.92,9.05c-.84,1.35-1.71,2.69-2.55,4-.5.8-1,1.6-1.44,2.41-.26.44-.5.88-.74,1.32l0,0c-.1.18-.18.37-.26.55h0c-.93,2.18-.74,4.57-1.22,6.89-.95,4.52-1.35,8.23-4.29,11.21-.21.21-.36.5-.65.56a.89.89,0,0,1-.87-.53,3.09,3.09,0,0,1-.22-1.32q-.12-6.58-.25-13.17c0-1.13-.36-2.73.57-3.61a23.21,23.21,0,0,0,3.52-4.34l.21-.35c.19-.31.38-.62.55-.93.33-.57.63-1.15.91-1.72a.54.54,0,0,0,.05-.11c1.37-2.83,2.93-6.77,4.3-9.57,2.13-4.36,4.12-7.14,6.59-11.31,1.13-1.91,1-4.1,1.64-6.23,1.69-5.77,2.34-11.59,4-17.23h0c.38-1.26.82-2.5,1.33-3.74,0-.13.1-.26.16-.38l2.42-1c1.93-.76,3.25.23,4.86,1.17a9.55,9.55,0,0,0,2.06,1,2.86,2.86,0,0,1,.41.15,1.78,1.78,0,0,1,.48.28.85.85,0,0,1,.22.28A1.72,1.72,0,0,1,1797.39,266.5Z"/><path class="cls-12" d="M1797.39,266.5c-.3,1.11-.62,2.23-.94,3.35l-.07-.07a9.4,9.4,0,0,0-5-2.27,17.53,17.53,0,0,0-5.87,0c.38-1.26.82-2.5,1.33-3.74l.42-.19a9.8,9.8,0,0,1,5.39-.43,13,13,0,0,1,1.63.43,14.41,14.41,0,0,1,2.47,1.12l.48.28a.85.85,0,0,1,.22.28A1.72,1.72,0,0,1,1797.39,266.5Z"/><path class="cls-16" d="M1801,265.82h-.08l0,0Z"/><path class="cls-12" d="M1759.53,223a3.91,3.91,0,0,1-2-.31c-.35-.15-.69-.36-1-.54a14.86,14.86,0,0,0-2-.82.8.8,0,0,0-.15,0,.26.26,0,0,0-.2.23.57.57,0,0,0,.06.31,3.32,3.32,0,0,0,1.12,1.47c-.9.32-1.9,0-2.84.25a5.68,5.68,0,0,0-2.4,1.52c-.1.1-.22.23-.17.37s.31.15.48.08a8.17,8.17,0,0,1,2.81-.76c-.53.26-1.31.46-1.62.67a2.69,2.69,0,0,0-.72.94c-.27.51-.51,1-.76,1.55a.63.63,0,0,0,.6-.09,2.67,2.67,0,0,0,.46-.43,3.16,3.16,0,0,1,1.41-.91,4.76,4.76,0,0,0-1.28,2.58.24.24,0,0,0,.41.19,1.44,1.44,0,0,1,.38-.32,2.47,2.47,0,0,1,.6-.13c.81-.14,1-.78,1.74-1.23s1.9-.39,2.51-.75a8.21,8.21,0,0,0,1.6-.87c.17-.29,1.22-.27,1.54-.36s-.81-.16-.45-.27a.54.54,0,0,0,.27-.14.62.62,0,0,0,.07-.23c0-.3.07-.59.1-.89s0-.46-.19-.48"/><path class="cls-12" d="M1818.48,205.92a13.16,13.16,0,0,1,1.46-2.58,7.69,7.69,0,0,1,1.82-2,24.09,24.09,0,0,0,2.67-1.54c.55.42-.23,1.32-.74,1.73a10.81,10.81,0,0,1,4-.51c.26,0,.57.09.61.34,0,.49-1.69,0-2.68.95a6,6,0,0,1,2.87.35,1.14,1.14,0,0,1,.5.32l.06.08a.27.27,0,0,1-.31.38,3.88,3.88,0,0,0-2.43,0,6.89,6.89,0,0,1,1.54.26c.48.12,1.36.41,1.22.79-.54.33-1.73-.09-2.36-.08a6.68,6.68,0,0,1,1.49.8c.07.05.16.14.13.23s-.16.11-.26.11c-1.27,0-2.55.05-3.82.15a7.54,7.54,0,0,0-1.57.24,7.67,7.67,0,0,0-2.59,1.65,9.23,9.23,0,0,1-1.42-1.22.63.63,0,0,0-.28-.21.2.2,0,0,0-.26.17"/><path class="cls-17" d="M1801.21,187.36c-.8.91-2.1,1.2-3.07,1.94a5,5,0,0,0-1.65,2.41,10.94,10.94,0,0,0-.49,2.9,25.27,25.27,0,0,0,0,3.37c.1,1.31.32,2.62.3,3.94a1.2,1.2,0,0,1-.14.67,1.17,1.17,0,0,1-.48.37,9.43,9.43,0,0,1-4.49.77,20.86,20.86,0,0,1,0-8.33,27.88,27.88,0,0,1,1.1-4.1,8.21,8.21,0,0,1,2-3.46,7.72,7.72,0,0,1,1.69-1.14,4.37,4.37,0,0,1,2.12-.64,3.85,3.85,0,0,1,1.15.27,9.48,9.48,0,0,1,1.74.81l-.36.38"/><path class="cls-18" d="M1822,211.12c-.27-2.13-1.17-4.38-3.07-5.39a1.48,1.48,0,0,0-.93-.22c-.51.09-.83.59-1.08,1l-1.11,2-.13.24c-.09.17-.19.33-.27.49l-1,1.71-2,3.66a4.13,4.13,0,0,1-2.65-1.21c-3.28-2.94-4-7.88-7.12-11a3.86,3.86,0,0,0-1.76-1.15,4.68,4.68,0,0,0-1.71,0l-1.64.19a37.74,37.74,0,0,0-5.42,1,19.57,19.57,0,0,0-3,1.09l-.67.39c-1.53,0-2.77,1.17-3.82,2.28l-1.65,1.74-1.17,1.25a47.86,47.86,0,0,1-7,6.49l-.68.46a40.27,40.27,0,0,1-8,3.81l-1.37.51-.22.08-1.09.39c-.95.34-1.9.68-2.83,1a3.6,3.6,0,0,0-2,1.33,3.3,3.3,0,0,0-.3,1.89,12.38,12.38,0,0,0,.45,2.56,3.29,3.29,0,0,0,1.36,2.1c1,.55,2.23.1,3.24-.42.65-.33,1.28-.7,1.9-1.08.41-.25.82-.52,1.22-.78l.11-.08c.4-.27.78-.54,1.17-.82,2.49-1.79,4.85-3.78,7.42-5.46.9-.59,1.83-1.13,2.74-1.71.42-.27.83-.54,1.23-.82,1.4-1,2.82-1.95,4.11-3,2,2.22,2.78,5.43,3.39,8.28a7.68,7.68,0,0,1,.13,4.17c-.79,2.32-2.81,4-4.75,5.46-2.24,1.71-4.5,3.37-6.8,5s-4.74,3.27-7.16,4.82a131.75,131.75,0,0,0-14.82,11c-1.91,1.66-3.71,4.08-3.71,5,0,.15,0,.33.19.37h0a2.28,2.28,0,0,0,.49,1.24,4,4,0,0,0,1.86,1.2c2.49.88,5.29.57,7.79,1.3a12.86,12.86,0,0,0,4.53,3.19,29.89,29.89,0,0,0,6.38,1.77,35,35,0,0,0,8.21.79c1.28.25,2.53-.26,3.81-.52a2.51,2.51,0,0,0,2.26-.4c.55-.43.9-1.1,1.47-1.51a4.11,4.11,0,0,1,2.54-.54c4.28.09,8.46,1.22,12.62,2.23a1.57,1.57,0,0,0,1,0,1.41,1.41,0,0,0,.65-.93,7.05,7.05,0,0,0,.36-3.34c2.2-5.61,2.54-11.76,2.47-17.78,0-1,0-2.07,0-3.11v-.18c0-5.29.07-10.61-2.24-15.31-.89-1.83-.59-4-.36-6a68.06,68.06,0,0,0,.52-7.55l.06,0c1.58,1.76,3.15,3.53,4.73,5.3a5.11,5.11,0,0,0,1.32,1.18,3.57,3.57,0,0,0,3.14,0,10.36,10.36,0,0,0,2.62-1.91l2.32-2.16.68-.65.37-.35.3-.29,1.35-1.31a4.07,4.07,0,0,0,.88-1.11A3.47,3.47,0,0,0,1822,211.12Z"/><path class="cls-19" d="M1767.69,226.63c-.39.28-.77.55-1.17.82l-.11.08a5,5,0,0,1-2.28-2.86,5.92,5.92,0,0,1,.31-4.14l0,0,.22-.08,1.37-.51a4.66,4.66,0,0,0,0,4.68,9.94,9.94,0,0,0,1,1.28A8.62,8.62,0,0,0,1767.69,226.63Z"/><path class="cls-19" d="M1819.28,215.67l-.37.35-.68.65-1-2.63a7.36,7.36,0,0,0-1.09-2.1,2.61,2.61,0,0,0-1.72-1l1-1.71c.08-.16.18-.32.27-.49a3.76,3.76,0,0,1,2,1.48,6.65,6.65,0,0,1,.76,1.67A13.45,13.45,0,0,1,1819.28,215.67Z"/><path class="cls-20" d="M1766.52,227.45l-.11.08c-.4.26-.81.53-1.22.78a6,6,0,0,1-2.29-4.6,6.22,6.22,0,0,1,.47-2.82l1.09-.39.22-.08c-.08.23-.21.44-.29.67a4.4,4.4,0,0,0-.21,1,7.49,7.49,0,0,0,.16,2.06,4.43,4.43,0,0,0,1.61,2.92S1766.31,227.33,1766.52,227.45Z"/><path class="cls-20" d="M1819.58,215.38l-.3.29-.37.35a.13.13,0,0,1,0-.06,14.06,14.06,0,0,0-.75-3.34,5.32,5.32,0,0,0-1.48-2.53,6.83,6.83,0,0,0-1-.68l-.33-.14c.08-.16.18-.32.27-.49l.13-.24a4.16,4.16,0,0,1,2.43,1.72,7.25,7.25,0,0,1,1.11,3c0,.33.09.66.13,1Z"/><path class="cls-19" d="M1797.48,201.42l-.39.14c-.31.12-.62.27-.94.39a16.05,16.05,0,0,1-3.76.8.29.29,0,0,1-.16,0,.32.32,0,0,1-.1-.13,1.72,1.72,0,0,1-.07-.21A37.74,37.74,0,0,1,1797.48,201.42Z"/><path class="cls-17" d="M1792.65,211.67a8.38,8.38,0,0,0,.59,2,8.53,8.53,0,0,0,2.47,2.68,28.72,28.72,0,0,1-2-15.29c.26-2.11.68-4.19.74-6.31a11.35,11.35,0,0,1,1-4.24,6.71,6.71,0,0,1,1.48-2.26,3.3,3.3,0,0,1,2.46-.95"/><path class="cls-21" d="M1799.6,187.47h0a1.39,1.39,0,0,0,1.82-1.78,7.31,7.31,0,0,0-3-3.59,9.3,9.3,0,0,0-11,1.24,4.64,4.64,0,0,0-1.64,3c0,.42.05.83,0,1.24a4.8,4.8,0,0,1-.66,1.89,16.72,16.72,0,0,1-5.09,5.65,22.33,22.33,0,0,1-3.16,1.79c-7.76,3.68-7.08,15.07,1.14,17.6l.4.12a45.29,45.29,0,0,0,17.2,1.68"/><path class="cls-22" d="M1801.78,188.83a11.64,11.64,0,0,0-4.81-1.76,25.94,25.94,0,0,0-5.34-.54,14,14,0,0,0-5.24,1c-.23.1-.57.17-.69-.05a.34.34,0,0,1,.09-.4,1,1,0,0,1,.37-.2,19.71,19.71,0,0,1,12-.43,30.84,30.84,0,0,1,3.1,1.1,1.36,1.36,0,0,1,.61.4.69.69,0,0,1-.13.9"/><path class="cls-16" d="M1798.69,195.66a1.93,1.93,0,0,1,.44.08c.22,0,.44,0,.45,0a4.17,4.17,0,0,0,.46,0,2.81,2.81,0,0,1,.45,0,1.15,1.15,0,0,1-.44.15,3.16,3.16,0,0,1-.48,0s-.25,0-.47-.09A1.38,1.38,0,0,1,1798.69,195.66Z"/><path class="cls-16" d="M1756.85,223.1a1.23,1.23,0,0,1-.35.08l-.35.06-.36,0a1.07,1.07,0,0,1-.36,0,1,1,0,0,1,.34-.14,2.85,2.85,0,0,1,.36-.08s.18,0,.36,0A.85.85,0,0,1,1756.85,223.1Z"/><path class="cls-16" d="M1754.61,226.48l-.06,0-.15.09a4.36,4.36,0,0,0-.46.32,4.41,4.41,0,0,0-.62.57s-.31.31-.58.62a5.47,5.47,0,0,1-.55.61,4.35,4.35,0,0,1,.46-.68,5.77,5.77,0,0,1,.56-.66,3.86,3.86,0,0,1,.66-.55,2.9,2.9,0,0,1,.5-.28l.17-.07Z"/><path class="cls-16" d="M1753.91,225.83a2,2,0,0,1-.33.1c-.17.06-.32.14-.33.14s-.17.07-.32.16a2.48,2.48,0,0,1-.3.19.82.82,0,0,1,.24-.28,2,2,0,0,1,.31-.21,1.52,1.52,0,0,1,.37-.11C1753.73,225.79,1753.91,225.8,1753.91,225.83Z"/><path class="cls-16" d="M1758.88,296.36a.39.39,0,0,1-.07-.16,1.32,1.32,0,0,1,0-.37,1.48,1.48,0,0,1,0-.21,1.13,1.13,0,0,1,0-.18c0-.1,0-.17,0-.18a1.2,1.2,0,0,1,.08-.18,1.6,1.6,0,0,1,.47-.6.56.56,0,0,1,.15-.09l-.11.14a1.46,1.46,0,0,0-.22.29,1.59,1.59,0,0,0-.16.32,1.16,1.16,0,0,0-.06.17,1.43,1.43,0,0,0,0,.17.62.62,0,0,0,0,.16l0,.19a2.16,2.16,0,0,0,0,.36A.55.55,0,0,1,1758.88,296.36Z"/><path class="cls-16" d="M1758.3,295.62s0-.16,0-.32a1.06,1.06,0,0,1,.1-.34,1.09,1.09,0,0,1,.22-.28c.12-.11.27-.18.28-.16s-.11.11-.2.24a1,1,0,0,0-.16.27,1.44,1.44,0,0,0-.13.29C1758.33,295.47,1758.33,295.62,1758.3,295.62Z"/><path class="cls-16" d="M1757.71,294.84s-.07-.1-.06-.23a.88.88,0,0,1,.07-.24.67.67,0,0,1,.19-.17c.11-.06.23-.06.23,0s-.09.06-.16.13a.42.42,0,0,0-.12.17.41.41,0,0,0-.1.17C1757.73,294.73,1757.73,294.84,1757.71,294.84Z"/><path class="cls-16" d="M1767.4,278.88s.07,0,.17,0a2,2,0,0,1,.35.11,2.16,2.16,0,0,0,.52.13,2.55,2.55,0,0,0,.54,0c.26,0,.52-.09.52-.06a1.3,1.3,0,0,1-.51.17,1.74,1.74,0,0,1-.57,0l-.18,0a2,2,0,0,1-.36-.14,2.92,2.92,0,0,0-.33-.15Z"/><path class="cls-16" d="M1767.21,317.47a1.32,1.32,0,0,1,.07-.58,2.31,2.31,0,0,1,.15-.38l.09-.18.12-.17a2.5,2.5,0,0,1,.28-.3,1.37,1.37,0,0,1,.49-.33s-.22.19-.41.41a2.68,2.68,0,0,0-.34.47,1,1,0,0,0-.1.17,1.9,1.9,0,0,0-.17.35C1767.28,317.19,1767.23,317.48,1767.21,317.47Z"/><path class="cls-16" d="M1763.86,337.66s-.06-.11-.08-.23,0-.25,0-.26a1.75,1.75,0,0,1,.06-.25c0-.11.1-.22.12-.21s0,.12,0,.24,0,.23,0,.24,0,.12,0,.23A.64.64,0,0,1,1763.86,337.66Z"/><path class="cls-16" d="M1764.52,337.45s-.09-.06-.12-.16a.65.65,0,0,1,0-.22.67.67,0,0,1,.06-.21c0-.09.13-.16.15-.14s0,.1,0,.18a.94.94,0,0,0,0,.18,1,1,0,0,0,0,.18C1764.51,337.35,1764.54,337.44,1764.52,337.45Z"/><path class="cls-16" d="M1766.17,332.6a.28.28,0,0,1,0-.08v-.23c0-.19,0-.47,0-.8,0-.67,0-1.56.06-2.45s.13-1.8.21-2.48.15-1.16.15-1.2.08-.52.21-1.21c.06-.34.14-.73.22-1.15a4.67,4.67,0,0,0,.08-1.3,2.14,2.14,0,0,0-.5-1.16,3.88,3.88,0,0,0-.85-.75c-.27-.19-.51-.32-.68-.42l-.2-.12-.06,0,.07,0,.2.1c.18.09.42.22.71.4a3.84,3.84,0,0,1,.88.74,2.24,2.24,0,0,1,.54,1.21,4.58,4.58,0,0,1-.06,1.34l-.21,1.15c-.12.68-.18,1.15-.19,1.2s-.08.51-.17,1.2-.18,1.57-.24,2.46-.09,1.78-.11,2.45c0,.33,0,.61,0,.8v.23A.45.45,0,0,0,1766.17,332.6Z"/><path class="cls-16" d="M1765.28,336.92s0-.09.12-.21.17-.28.25-.45a3.71,3.71,0,0,0,.21-.48,1.92,1.92,0,0,0,.08-.24s0-.1.08-.24.08-.32.12-.51,0-.37.06-.52,0-.23,0-.23a.8.8,0,0,1,0,.23,3.33,3.33,0,0,1,0,.54,3.64,3.64,0,0,1-.09.53l-.07.25s0,.11-.1.25a3.06,3.06,0,0,1-.24.48,4.47,4.47,0,0,1-.3.43C1765.35,336.86,1765.29,336.93,1765.28,336.92Z"/><path class="cls-16" d="M1764.42,337.52a1,1,0,0,1,0-.38c0-.19.08-.37.08-.38a2.64,2.64,0,0,1,.16-.36,1.06,1.06,0,0,1,.21-.32,1.53,1.53,0,0,1-.11.36c-.06.18-.11.36-.11.37s-.07.18-.12.35A1.82,1.82,0,0,1,1764.42,337.52Z"/><path class="cls-16" d="M1765,328.91s-.08-.22-.19-.43a2.25,2.25,0,0,0-.26-.41,3.43,3.43,0,0,0-.31-.37c-.17-.17-.37-.29-.36-.31a1,1,0,0,1,.43.23,2.45,2.45,0,0,1,.37.36,2,2,0,0,1,.23.45A1.07,1.07,0,0,1,1765,328.91Z"/><path class="cls-23" d="M1773,314.93c-.5.8-1,1.6-1.44,2.41a5.91,5.91,0,0,0-.93-2,3.93,3.93,0,0,0-2.74-1.66c.33-.57.63-1.15.91-1.72a.54.54,0,0,0,.05-.11,2.75,2.75,0,0,1,1.53.13,5,5,0,0,1,2.24,2.26A8,8,0,0,1,1773,314.93Z"/><path class="cls-23" d="M1770.84,318.7a7,7,0,0,0-.07-.82,4.62,4.62,0,0,0-.46-1.51,3.25,3.25,0,0,0-.73-.84,4.19,4.19,0,0,0-2-.91l-.18,0-.21.35a3.75,3.75,0,0,1,1.49.31,3.38,3.38,0,0,1,1.59,2,8,8,0,0,1,.33,2h0Z"/><path class="cls-11" d="M1772.56,280.44c-.54.17-1.08.36-1.6.57a14.18,14.18,0,0,0-.11-5c.47-.08.93-.18,1.4-.28l.06.17A10.06,10.06,0,0,1,1772.56,280.44Z"/><path class="cls-24" d="M2368.11,639.48c1.51-1.47,3.32-2.73,4.48-4.42,33.57-49,82.37-44.72,121.17-17.8,30.15,20.92,49.36,51.91,71.14,80.46,3.85,5.06,6.44,11.21,12.19,14.71,11.24,20.07,27.53,36.59,39.52,56.13-102.45,74.69-214.54,108.09-341.8,84-77.48-14.68-151.38-40.95-226.22-64.24-86.33-26.88-174-43.32-264.73-41.46a30.61,30.61,0,0,1-5.06-.75C1813.52,686.86,1856,635,1921.12,607.66c64.88-27.24,127.74-27.34,184.57,21,1.91,1.62,4.4,2.56,6.63,3.82,17.85,20.38,39.17,37.18,58.16,56.38,15.29,15.47,33.1,27.12,52.89,35.91,40.39,18,77.19,12.29,103.3-17.61C2344.2,687.11,2356.34,663.3,2368.11,639.48Z"/><path class="cls-25" d="M488.46,53.57C323.36,53.57,158.34,93.67,0,157.8v894H2383S1312.17,53.57,488.46,53.57Z"/><path class="cls-26" d="M1080,491.55c-3.09-1.34-6-3-7.79-6-.45-.73-1.08-1.47-.22-2.08.66-.47,1.24.32,1.7.83.6.67.91,1.66,2,1.76a4,4,0,0,0,2.13,1.92l2.1.8c7.53,3.63,15.24,2.32,22.78.37,21.35-5.51,32.38-20.61,37.39-41.07a56.51,56.51,0,0,0-1.29-32.77,36.84,36.84,0,0,0-5.09-9.06l1.51,0c5.09,3.66,6.42,9.46,7.36,14.91,3.05,17.82-.07,34.6-10.27,49.8-8.33,12.43-20.37,18.7-34.78,21.37C1091.55,493.44,1085.81,492.54,1080,491.55Z"/><path class="cls-27" d="M1214.78,473.31c-1.43-4.18-5-5.57-8.64-3.47a2.89,2.89,0,0,1-2.59.08c-2.53-.68-4.57-2.21-6.65-3.7-1.66-3.44-.58-7.11-.88-10.66-1.18-13.87-6.32-26-16.73-35.35-9.76-8.81-21.82-12.48-34.64-13.89-3.11-.35-6.27-1.92-9.42-.07,5.09,3.66,6.42,9.46,7.36,14.91,3.05,17.82-.07,34.6-10.27,49.8-8.33,12.43-20.37,18.7-34.78,21.37-6,1.11-11.73.21-17.54-.78-3.09-1.34-6-3-7.79-6-.45-.73-1.08-1.47-.22-2.08.66-.47,1.24.32,1.7.83.6.67.91,1.66,2,1.76h0a4,4,0,0,0,2.13,1.92c.09-.56.19-1.24,1-1s1.09,1,1.15,1.85c7.53,3.63,15.24,2.32,22.78.37,21.35-5.51,32.38-20.61,37.39-41.07a56.51,56.51,0,0,0-1.29-32.77,36.84,36.84,0,0,0-5.09-9.06,31.93,31.93,0,0,0-21.19-8.45c-1,0-2-.07-2.51-.93-1.62-2.82-4.58-3.54-7.22-4.52-14.33-5.29-29.17-5.46-44-3.3-6,.87-12,2.78-16.62,7.31A56.52,56.52,0,0,0,1045,407a56.52,56.52,0,0,1-2.79-10.57c-2.6.69-4.21,2.76-6,4.48-15.64,14.91-22.28,32.73-17.21,54.22,1.74,7.37,4.84,14.3,7.13,21.5,5,15.64-1.26,29-16.39,35.12a38.44,38.44,0,0,1-17,3c-4.16-.28-4.39,2.76-4.9,5.39-.68,3.47.69,5.76,3.48,6.44,7.32,1.77,14.77,2.32,22.09.59,13.77-3.25,26.18-8.93,34.41-21.25.93-1.4,1.73-2.9,2.67-4.47a5.23,5.23,0,0,1,1.46,3.3c.9,4.69,2.42,9.2,3.74,13.78a4,4,0,0,0,3.58,3.22,86.41,86.41,0,0,0,26.33.37c3.5-.51,4.66-2.07,4.18-5.31-.19-.1-.45-.19-.66-.29.21.09.47.19.66.29,0-.45.08-.9.11-1.35.79-.55.62-1.38.64-2.16,0-1.63.16-3.28,0-4.89-.27-3,.93-3.51,3.68-2.81a112,112,0,0,0,21.6,3.45,87.36,87.36,0,0,0,29.66-3.08c2.54-.75,3.1.15,3.06,2.43a40.13,40.13,0,0,0,1.41,11c.29,1.11.65,2.24,2.19,2.33,2.2.13,4.38.43,6.58.59,6.06.43,12.06-.67,18.11-.67,8.64,0,8.8-.08,10.09-8.64,2.16-14.22,5.84-28.12,8.48-42.24a61.8,61.8,0,0,0,6.15,3.19c1.34.53,2.2,1.09,2.42,2.55.4,2.7,2.38,4,4.72,4.49,2.9.67,5.86,1,9.41,1.61C1216.08,479.35,1215.78,476.22,1214.78,473.31Zm-136.71-57.57c7-9.58,15.35-17.25,27.6-19.34.81-.13,1.83-1,2.21.58a1.81,1.81,0,0,1-1.71,1.48c-11.94,1.76-19.76,9.33-26.52,18.53-.74,1-1.09,3.72-2.82,2.57C1075.34,418.56,1077.27,416.84,1078.07,415.74Zm-31.84,54.61c-3.11.11-4.37-1.23-4.41-3.53a3.43,3.43,0,0,1,3.56-3.83,3.57,3.57,0,0,1,3.87,3.64A3.33,3.33,0,0,1,1046.23,470.35Z"/><path class="cls-26" d="M1107.88,397a1.81,1.81,0,0,1-1.71,1.48c-11.94,1.76-19.76,9.33-26.52,18.53-.74,1-1.09,3.72-2.82,2.57-1.49-1,.44-2.72,1.24-3.82,7-9.58,15.35-17.25,27.6-19.34C1106.48,396.27,1107.5,395.44,1107.88,397Z"/><path class="cls-28" d="M1079.93,488.82l-2.1-.8c.09-.57.19-1.24,1-1S1079.87,488,1079.93,488.82Z"/><path class="cls-14" d="M1046.23,470.35c-3.11.11-4.37-1.23-4.41-3.53a3.43,3.43,0,0,1,3.56-3.83,3.57,3.57,0,0,1,3.87,3.64A3.33,3.33,0,0,1,1046.23,470.35Z"/><path class="cls-29" d="M1227.76,571.51c-2.75-24.73-10.64-47.88-21.66-70.07-7.78-20.39-22.11-37.84-26.21-59.95-3.31-17.86,3.77-36.93,17.27-43.49,13.66-6.65,30.47-2.44,42.71,12,14.67,17.25,20.27,38.35,23.61,60.26,1.41,9.29,2.78,18.73,8,26.95,2.36,3.74,5.12,7.23,10.17,6.53s4.93-5.22,6.05-8.82c2-6.33,1.47-12.82,1.19-19.22-1-24.2,2.59-48,6.29-71.74,3.29-21.06,15.8-33.24,29.64-30.89,16.88,2.87,29.07,23.91,25.31,43.33-3.32,17.13-12.32,31.95-19.07,47.69-5.58,13-12,25.81-10.61,40.64,0,6.78,1.24,13.68,8.92,14.84,8.49,1.28,11-6.35,14.06-12.44,10.86-23.83,26.09-44.12,47.72-59.28,16.76-11.73,34.58-20.73,55.65-20.62,17.62.1,35.38,12.22,40.28,27,5,15.24-2,31.3-17.94,43.19-10.49,7.84-23.43,10.37-34.2,17.34-17.18,4.28-30.92,13.83-42,27.44C1336.81,546.11,1281.85,556.37,1227.76,571.51Z"/><polygon class="cls-30" points="2050.86 493.04 2053.64 489.5 2050.96 480.74 2045.35 483.18 2041.03 481.94 2035.28 484.06 2034.25 490.63 2031.79 495.74 2044.62 496.35 2050.86 493.04"/><polygon class="cls-31" points="2050.96 480.74 2047 478.12 2039.39 478.25 2033.36 477.9 2029.7 480.31 2035.28 484.06 2041.03 481.94 2045.71 483.61 2050.96 480.74"/><polygon class="cls-32" points="2029.7 480.31 2029.27 484.34 2034.25 490.63 2035.28 484.06 2029.7 480.31"/><polygon class="cls-31" points="2029.27 484.34 2026.02 485.42 2022.89 487.44 2023.98 490.17 2028.88 491.16 2034.25 490.63 2029.27 484.34"/><polygon class="cls-33" points="2022.89 487.44 2022.42 492.79 2023.98 490.17 2022.89 487.44"/><polygon class="cls-32" points="2022.42 492.79 2026.15 494.84 2031.79 495.74 2034.25 490.63 2028.88 491.16 2023.98 490.17 2022.42 492.79"/><polygon class="cls-34" points="2045.71 483.61 2050.86 493.04 2053.64 489.5 2050.96 480.74 2045.71 483.61"/><polygon class="cls-30" points="2041.03 481.94 2034.81 487.11 2035.28 484.06 2041.03 481.94"/><polygon class="cls-34" points="2041.03 481.94 2044.62 496.35 2031.79 495.74 2039.41 492.42 2041.03 481.94"/><polygon class="cls-35" points="2041.03 481.94 2034.81 487.11 2039.41 492.42 2041.03 481.94"/><polygon class="cls-36" points="2034.25 490.63 2035.07 494.31 2031.79 495.74 2034.25 490.63"/><polygon class="cls-37" points="2039.41 492.42 2044.62 496.35 2037.56 496.02 2035.07 494.31 2039.41 492.42"/><polygon class="cls-33" points="2028.88 491.16 2026.15 494.84 2023.98 490.17 2028.88 491.16"/><polygon class="cls-38" points="2045.71 483.61 2042.73 489.03 2041.03 481.94 2045.71 483.61"/><polygon class="cls-39" points="2032.15 487.98 2029.37 490.16 2023.98 490.17 2028.88 491.16 2034.25 490.63 2032.15 487.98"/><polygon class="cls-39" points="2050.96 480.74 2045.71 483.61 2042.74 482.55 2049.43 479.73 2050.96 480.74"/><path class="cls-39" d="M2039.39,478.25l-5.3.36a2.11,2.11,0,0,0-1.13.42l-2.43,1.84-.83-.56,3.66-2.41Z"/><polygon class="cls-37" points="2044.62 496.35 2048.9 489.44 2050.86 493.04 2044.62 496.35"/><path class="cls-32" d="M1958.16,488.81l-5.8,2.27-2.5,3.06c.11.08,3.21,1.95,4.46,2.7a1,1,0,0,0,1,0l3-1.76,2.93-1.7"/><path class="cls-40" d="M1961.23,493.37l3.27-4.5.45-2.11,1.45-2-.26-3.18-1.87-3.9a1.11,1.11,0,0,0-.53-.52l-6.3-3-1.59.64a1.25,1.25,0,0,1-.95,0l-.25-.11a1.31,1.31,0,0,0-1.06,0l-2.73,1.37,4.84.69,1,3.57-.82,2,1.6.88-1.32,2.43,2,3.21"/><path class="cls-31" d="M1958.16,488.81l-3.56,1.39a9.2,9.2,0,0,0-3.77,2.75l-1,1.19c-.15-.1-2.39-2.73-2.39-2.73l-.67-3-.89-1.69a.57.57,0,0,1,0-.55l1.24-2,0-3.36.34-2.27a1.14,1.14,0,0,1,.53-.81l2.77-1.7,4.84.69,1,3.57-.42,1.63,1.2,1.2-.78,2.65,1.44,3"/><path class="cls-39" d="M1950.86,476.08l.28,4.64-1.43,2.5-.22,1.9a.86.86,0,0,1-.67.73l-1.83.36a.53.53,0,0,1-.55-.81l.74-1.18,0-3.36.34-2.27a1.14,1.14,0,0,1,.53-.81Z"/><path class="cls-39" d="M1956.3,482l-1.4,2.67a.5.5,0,0,0,.29.72l1.53.46.78-2.65Z"/><path class="cls-30" d="M1955.7,476.77l1.74-2.62,4.34,2.07a1.14,1.14,0,0,1-.08,2.08l-5,2Z"/><polygon class="cls-30" points="1957.5 483.18 1961.6 482.27 1962.05 485.71 1960.6 487.31 1956.72 485.82 1957.5 483.18"/><polygon class="cls-37" points="1962.05 485.71 1964.94 486.76 1964.5 488.87 1960.6 487.31 1962.05 485.71"/><polygon class="cls-32" points="1961.6 482.27 1966.14 481.58 1966.39 484.76 1962.05 485.71 1961.6 482.27"/><path class="cls-41" d="M2044.52,450.56c-.27-6.6-3.6-24.35-4.61-29.2a1,1,0,0,0-2-.09v0c-.26.62-1.4,4.46-1.72,5-.44.8-.76,1.72-1.81,2.13a3.27,3.27,0,0,1-.5-.59c-1.47-2.89-2.94-5.78-4.37-8.69a65.15,65.15,0,0,1-4.73-14c-1.09-4.6-1.86-9.21-1.22-14.08a20.93,20.93,0,0,1,2.55-8.14l1.8-3.15a.82.82,0,0,0-.16-1,2.12,2.12,0,0,0-1.62-.2c-2.7.27-4.49,2.12-6.12,4s-3.06,4.15-4.59,6.23c-.71.95-1.46,1.88-2.38,3.06-.52-1.08-.91-1.86-1.27-2.65-.45-1-.81-2-1.34-2.95-1.23-2.15-2.55-4.24-3.83-6.35a34.07,34.07,0,0,1-5-12.79,22.31,22.31,0,0,0-.47-2.3,26.27,26.27,0,0,1-.14-10.64,5.38,5.38,0,0,0,0-2.79.67.67,0,0,0-.92-.35,5.3,5.3,0,0,0-2.32,2.34c-.94,1.49-1.87,3-2.75,4.52a29.41,29.41,0,0,0-2.08,3.81c-3,7.72-4.12,15.7-4.83,23.72a3.24,3.24,0,0,1-.58,2.32c-1.78-5.27-5.84-8.23-9.74-11.49a.92.92,0,0,0-1.35.29,4.59,4.59,0,0,0-.3,3.15c.25,2.05.52,4.11.71,6.18.41,4.51-.41,9-1.1,13.54a9.26,9.26,0,0,1-.76,2.67c-.92,1.88-2,3.7-3,5.54-.08.13-.33.17-.68.34-.77-2.23-3.44-4.91-5.1-6.34a.65.65,0,0,0-1,.65c.33,1.52.65,2.9.85,4.31a27.94,27.94,0,0,1,.13,4.3,34.71,34.71,0,0,1-.3,4.32,67.12,67.12,0,0,1-5.11,16.21c-1.62,3.77-3.6,7.41-4.75,11.35-.2.67-.54,1.32-.88,2.15a10.71,10.71,0,0,1-1.74-.75c-1.81-1.28-3.58-2.61-5.35-3.92-.55-.4-.94-1.09-1.81-.79a6.69,6.69,0,0,0-.83,4.73,65.35,65.35,0,0,0,3,13.19,40.5,40.5,0,0,0,5.07,10.88c1,1.49,2.15,2.9,3.32,4.27v0a51.7,51.7,0,0,0,41.13,20.18,55.71,55.71,0,0,0,32.77-10.7.71.71,0,0,1,.14-.1c.73-.54,1.44-1.1,2.12-1.69s.91-.81.91-.81a25.92,25.92,0,0,0,5.71-7.55,58.67,58.67,0,0,0,4-11.56A33.05,33.05,0,0,0,2044.52,450.56Z"/><path class="cls-41" d="M2012.53,376.55a4,4,0,0,1,.89,2.63,3.58,3.58,0,0,0,.25,1c1,0,1.18-.45,1.28-.88a10.49,10.49,0,0,1,2.84-4.68c.15-.16.27-.33.41-.5a8.08,8.08,0,0,0,1.65-3.33,16.3,16.3,0,0,0-.16-7.19c-.65-3.17-2.35-6.17-2.11-9.49,0,0-.07-.06-.24-.2a2.73,2.73,0,0,0-1.91,1.77c-1,2.16-1.94,4.34-3,6.48a15.58,15.58,0,0,0-.85,12.52A6.79,6.79,0,0,0,2012.53,376.55Z"/><path class="cls-41" d="M1954.18,434.78c.08.16.24.52.38.52h0a1.12,1.12,0,0,0,1-1.37c-.29-1-.55-2.07-.86-3a5.37,5.37,0,0,1,.26-4.41c.77-1.43,1.5-2.89,2.27-4.32a12.65,12.65,0,0,0,1.32-4.79c.51-4.77-1.3-8.77-3.18-12.8a.56.56,0,0,0-.8-.24c-.67.37-.79,1-.62,1.81a7.22,7.22,0,0,1-.73,4.62c-.87,1.72-1.76,3.43-2.74,5.09-2.63,4.44-3.23,8.9-.4,13C1951.39,430.85,1953.13,432.58,1954.18,434.78Z"/><path class="cls-41" d="M2032.77,413.24c.29.84.69,1.64,1,2.45.24.56.27,1.3,1.37,1.37a15.39,15.39,0,0,0,.77-1.42c.76-1.72,1.49-3.44,2.23-5.17a8.26,8.26,0,0,0,.81-2c.3-2.76.5-5.52-.41-8.14-.85-2.46-1.72-4.91-2.58-7.37,0,0-.11-.06-.16-.09-1.38.61-2.53,4.61-2.81,6.1-.34,1.76-.64,3.53-.81,5.29a46.44,46.44,0,0,0-.26,5.88A11.53,11.53,0,0,0,2032.77,413.24Z"/><path class="cls-41" d="M2005.42,343.37v0a1,1,0,0,0,1.91.08c2.41-5.17,1.45-10.09-.29-15.08a.71.71,0,0,0-1.2-.21,1.87,1.87,0,0,0-.47,1.19,20.07,20.07,0,0,1-.51,3.07,13.68,13.68,0,0,0-.18,7.76A27.9,27.9,0,0,1,2005.42,343.37Z"/><path class="cls-42" d="M2030.78,469.88a4.1,4.1,0,0,0-.51-2.89c-.53-.18-.77.24-1.1.48-1.09.8-2.17,1.62-3.27,2.4a6.52,6.52,0,0,1-1.06.46,12.35,12.35,0,0,1-.54-1.32,63.42,63.42,0,0,0-2.9-6.93,41,41,0,0,1-3.13-9.9,21.42,21.42,0,0,1-.18-2.64,16.41,16.41,0,0,1,.08-2.63c.12-.86.31-1.71.52-2.63a.4.4,0,0,0-.63-.41,11.46,11.46,0,0,0-3.12,3.88c-.21-.1-.37-.13-.41-.21-.62-1.12-1.26-2.23-1.82-3.38a6.17,6.17,0,0,1-.47-1.64,34.44,34.44,0,0,1-.66-8.27c.11-1.26.28-2.52.43-3.78a2.84,2.84,0,0,0-.18-1.92.56.56,0,0,0-.83-.18c-2.38,2-4.87,3.8-6,7a1.92,1.92,0,0,1-.35-1.41,51.91,51.91,0,0,0-3-14.49,17.13,17.13,0,0,0-1.27-2.34c-.54-.93-1.1-1.84-1.68-2.76a3.27,3.27,0,0,0-1.42-1.43.41.41,0,0,0-.56.22,3.37,3.37,0,0,0,0,1.7,16,16,0,0,1-.08,6.5,13.56,13.56,0,0,0-.29,1.41,20.66,20.66,0,0,1-3.06,7.81c-.78,1.3-1.59,2.57-2.34,3.88-.33.57-.54,1.21-.82,1.81s-.46,1-.77,1.62c-.57-.72-1-1.29-1.46-1.88-.93-1.26-1.78-2.61-2.8-3.8s-2.09-2.29-3.74-2.45a1.28,1.28,0,0,0-1,.12.5.5,0,0,0-.1.64c.36.63.72,1.28,1.1,1.92a13,13,0,0,1,1.56,5,23.45,23.45,0,0,1-.75,8.61,39.88,39.88,0,0,1-2.89,8.53c-.87,1.78-1.77,3.55-2.67,5.32a2.28,2.28,0,0,1-.3.36c-.65-.25-.84-.82-1.11-1.31s-.89-2.7-1-3.08h0a.63.63,0,0,0-1.2,0c-.61,3-2.65,13.81-2.82,17.84a20.4,20.4,0,0,0,.59,6c.35,1.35.73,2.69,1.19,4a42.6,42.6,0,0,0,26.37,9,46,46,0,0,0,27-8.82l.11-.09c.54-.39,1-.8,1.55-1.22a30.24,30.24,0,0,0,1.93-4.71A39.91,39.91,0,0,0,2030.78,469.88Z"/><path class="cls-42" d="M1988,415.74a1.68,1.68,0,0,0-1.17-1.08c-.1.09-.15.11-.15.13.15,2-.89,3.86-1.28,5.8a9.85,9.85,0,0,0-.1,4.39,4.85,4.85,0,0,0,1,2,3.4,3.4,0,0,0,.25.31,6.3,6.3,0,0,1,1.73,2.86c.06.26.15.52.78.53a1.9,1.9,0,0,0,.15-.59,2.49,2.49,0,0,1,.55-1.6,4.19,4.19,0,0,0,.6-1.17,9.53,9.53,0,0,0-.52-7.64C1989.17,418.39,1988.6,417.06,1988,415.74Z"/><path class="cls-42" d="M2026,449.43a4.33,4.33,0,0,1-.44-2.81c.1-.51,0-.89-.38-1.11a.34.34,0,0,0-.49.14c-1.15,2.46-2.25,4.91-2,7.82a7.69,7.69,0,0,0,.82,2.92c.47.88.91,1.76,1.38,2.64a3.23,3.23,0,0,1,.16,2.68c-.19.58-.35,1.07-.52,1.7a.54.54,0,0,0,.57.67h0a.26.26,0,0,0,.23-.15,27.43,27.43,0,0,1,2.53-3.51c1.73-2.52,1.36-5.19-.24-7.9C2027.09,451.5,2026.54,450.48,2026,449.43Z"/><path class="cls-42" d="M1977.23,442.2c-.18-.92-.88-3.36-1.72-3.73,0,0-.09,0-.1,0q-.79,2.25-1.58,4.51a11.38,11.38,0,0,0-.25,5,5,5,0,0,0,.5,1.25c.45,1.05.89,2.11,1.36,3.16.14.31.33.61.47.87.67,0,.69-.5.84-.84.21-.5.46-1,.63-1.5a6.89,6.89,0,0,0,.5-1.92,27,27,0,0,0-.16-3.59C1977.62,444.35,1977.43,443.27,1977.23,442.2Z"/><path class="cls-42" d="M2007.63,417.44a1.11,1.11,0,0,0-.28-.72.44.44,0,0,0-.74.12c-1.06,3.05-1.65,6.06-.18,9.22a.62.62,0,0,0,1.17-.05v0a17.47,17.47,0,0,1,.45-1.93,8.33,8.33,0,0,0-.11-4.74A12.08,12.08,0,0,1,2007.63,417.44Z"/><path class="cls-43" d="M1979.57,496.45a43.18,43.18,0,0,1,8.36-.14c1.59.11,3.19.25,4.78.35a2,2,0,0,0,.2-.28.22.22,0,0,0,.06-.07l.08-.18h0l4.27-8.94,5.51,7,2.9-1,1.1,1.22.28.32c1.56-.41,3.12-.79,4.7-1,4.26-.69,8.59-.85,12.87-1.39a56.21,56.21,0,0,0,6.3-1.14l1-.27,1-5.86-1.33-2a2.19,2.19,0,0,1-.31-1.38l.05-.4a2,2,0,0,0-.4-1.5l-2.63-3.39-3.07-3.31a1.39,1.39,0,0,0-1.2-.45l-3,.4-4.26,1.25-1.74-.61h0l-1.17-.4a.64.64,0,0,0-.69.17l-.33.34-3-2.71-11-1.34-6-.79a3.17,3.17,0,0,0-3.06,1.51l-3.77,5.82.09.32-6.53-1.34-6-1.27a3.12,3.12,0,0,0-3.15,1.25l-4.13,5.5,1.34,6.1,7.61,3.53Z"/><polygon class="cls-43" points="2013.47 489.84 2013.47 489.84 2014.69 491.73 2013.47 489.84"/><path class="cls-32" d="M1979.94,498.36l-8,2.86a2.57,2.57,0,0,1-1.55.06l-3.5-.94-10.2-2-2.21-1a3.62,3.62,0,0,1-1.9-2.5l-1.45-6.18,11.39-.74Z"/><path class="cls-44" d="M1980.5,482.91l-1.84-2.58a1.75,1.75,0,0,0-1.6-.77l-6.51.76-3.78-.18a4.16,4.16,0,0,0-2.83,1l-4.56,3.67-8.26,3.87,5,3.72,8.47-.59,6.65,2.55,4.11-6.42,4.59-.66Z"/><polygon class="cls-34" points="1980.5 482.91 1982.92 491.19 1979.94 487.24 1980.5 482.91"/><polygon class="cls-32" points="1982.92 491.19 1979.94 498.36 1975.36 487.9 1979.94 487.24 1982.92 491.19"/><polygon class="cls-37" points="1979.94 498.36 1971.24 494.32 1975.36 487.9 1979.94 498.36"/><path class="cls-30" d="M1956.12,492.36l.56,6-2.21-1a3.62,3.62,0,0,1-1.9-2.5l-1.45-6.18Z"/><polygon class="cls-34" points="1964.59 491.77 1961.04 499.21 1966.88 500.34 1964.59 491.77"/><polygon class="cls-30" points="1966.88 492.65 1966.88 500.34 1964.59 491.77 1966.88 492.65"/><polygon class="cls-39" points="1975.36 487.9 1966.88 492.65 1971.24 494.32 1975.36 487.9"/><path class="cls-39" d="M1970.55,480.32l-3.25.9a3.51,3.51,0,0,0-2.36,3.1l-.29,2.61c-.11.95-1,1.43-1.7.87l-3.57-3,4.56-3.67a4.16,4.16,0,0,1,2.83-1Z"/><polygon class="cls-39" points="1956.12 492.36 1954.05 487.26 1951.12 488.64 1956.12 492.36"/><polygon class="cls-39" points="1980.5 482.91 1979.38 486.19 1975.36 487.9 1979.94 487.24 1980.5 482.91"/><path class="cls-32" d="M2033,494.42l-6-1.5L2023.1,494c0,.13,1.5,3.44,2.08,4.77a1,1,0,0,0,.84.6l3.44.27,3.37.3"/><path class="cls-40" d="M2032.83,499.92l5.26-1.78,1.59-1.47,2.34-.79,1.62-2.74.73-4.27a1.16,1.16,0,0,0-.12-.73l-3.41-6.09-1.66-.4a1.3,1.3,0,0,1-.78-.56l-.14-.23a1.28,1.28,0,0,0-.88-.58l-3-.47,3.55,3.37-1.23,3.5-1.8,1.12.79,1.64-2.47,1.22-.25,3.76"/><path class="cls-31" d="M2033,494.42l-3.71-.92a9.09,9.09,0,0,0-4.66.07l-1.48.41c-.06-.17-.37-3.61-.37-3.61l1.18-2.82.25-1.9a.54.54,0,0,1,.34-.42l2.15-.9,2-2.72,1.59-1.66a1.19,1.19,0,0,1,.91-.35l3.24.21,3.55,3.37-1.23,3.5-1.29,1.09.28,1.67-2.16,1.72-.56,3.26"/><path class="cls-39" d="M2034.36,479.81l-2.45,4-2.62,1.21L2028,486.4a.83.83,0,0,1-1,.21l-1.71-.76a.53.53,0,0,1,0-1l1.29-.54,2-2.72,1.59-1.66a1.19,1.19,0,0,1,.91-.35Z"/><path class="cls-39" d="M2035.39,487.77l-2.69,1.37a.5.5,0,0,0-.17.75l1,1.27,2.16-1.72Z"/><path class="cls-30" d="M2037.91,483.18l2.93-1.13,2.35,4.2a1.14,1.14,0,0,1-1.27,1.65l-5.24-1.22Z"/><polygon class="cls-30" points="2035.67 489.44 2039.54 491.08 2037.92 494.14 2035.81 494.61 2033.51 491.16 2035.67 489.44"/><polygon class="cls-37" points="2037.92 494.14 2039.68 496.67 2038.09 498.14 2035.81 494.61 2037.92 494.14"/><polygon class="cls-32" points="2039.54 491.08 2043.64 493.14 2042.02 495.88 2037.92 494.14 2039.54 491.08"/><path class="cls-31" d="M2032.45,490.65l-3.72-5.08h-9.27l-10.54-6.15-9.09,6.53a2.53,2.53,0,0,0-1,1.78l-1.25,12.12,11,4.16,12.16-2.6,6.7-1.38a3.72,3.72,0,0,0,2.8-2.51Z"/><polygon class="cls-32" points="2028.73 485.57 2022.28 492.32 2032.45 490.65 2028.73 485.57"/><path class="cls-37" d="M2022.28,492.32l-1.56,9.09,6.7-1.38a3.72,3.72,0,0,0,2.8-2.51l2.23-6.87Z"/><polygon class="cls-30" points="2022.28 492.32 2016.43 496.03 2009.16 494.92 2008.56 504.01 2020.72 501.41 2022.28 492.32"/><polygon class="cls-33" points="2016.43 496.03 2020.72 501.41 2022.28 492.32 2016.43 496.03"/><polygon class="cls-33" points="2009.16 494.92 1997.86 496.87 1997.55 499.86 2008.56 504.01 2009.16 494.92"/><path class="cls-32" d="M1999.26,487.46l3.44,8.57-4.84.84,1-9.35A.23.23,0,0,1,1999.26,487.46Z"/><polygon class="cls-30" points="1999.41 496.6 1999.92 500.75 1997.55 499.86 1997.86 496.87 1999.41 496.6"/><path class="cls-39" d="M2019.46,485.57l-9.58,1.53a2.12,2.12,0,0,1-2.37-2.67l1.41-5Z"/><path class="cls-39" d="M2022.28,492.32l-4.51,1.88a9.44,9.44,0,0,1-3.6.72h-5l7.27,1.11Z"/><polygon class="cls-34" points="2032.45 490.65 2020.72 501.41 2022.28 492.32 2032.45 490.65"/><path class="cls-32" d="M1983.35,497.26l-9-5.84-6.75-.38c0,.24.54,6.5.75,9a1.77,1.77,0,0,0,1.05,1.45l5.41,2.34,5.3,2.38"/><path class="cls-40" d="M1980.13,506.23h9.51l3.38-1.53h4.22l4.14-3.61,3.52-6.61a1.94,1.94,0,0,0,.2-1.27l-2.18-11.92-2.47-1.59a2.17,2.17,0,0,1-1-1.35l-.1-.45a2.25,2.25,0,0,0-1.12-1.45l-4.64-2.45,3.92,7.52-3.92,5.07-3.53.84.39,3.15-4.68.61-2.46,6.07"/><path class="cls-31" d="M1983.35,497.26l-5.51-3.58a15.48,15.48,0,0,0-7.59-2.49l-2.63-.15c0-.31,1.38-6.14,1.38-6.14l3.45-4,1.45-3a.94.94,0,0,1,.78-.52l4-.27,4.68-3.38,3.49-1.84a1.91,1.91,0,0,1,1.65-.07l5.14,2.14,3.92,7.52-3.92,5.07-2.68,1.07-.46,2.92-4.45,1.61-2.69,5.07"/><path class="cls-39" d="M1993.63,474l-6.14,5.14-4.91.54-2.85,1.63a1.4,1.4,0,0,1-1.67-.2l-2.35-2.19a.93.93,0,0,1,.57-1.61l2.39-.16,4.68-3.38,3.49-1.84a1.91,1.91,0,0,1,1.65-.07Z"/><path class="cls-39" d="M1991,487.66l-5.11.77a.87.87,0,0,0-.7,1.14l.9,2.62,4.45-1.61Z"/><path class="cls-30" d="M1997.55,481.52l5.37-.23,1.5,8.21a2,2,0,0,1-3,2l-7.83-4.92Z"/><polygon class="cls-30" points="1990.49 490.58 1995.86 495.41 1991.56 499.56 1987.88 499.15 1986.04 492.19 1990.49 490.58"/><polygon class="cls-37" points="1991.56 499.56 1993.02 504.7 1989.64 506.23 1987.88 499.15 1991.56 499.56"/><polygon class="cls-32" points="1995.86 495.41 2001.38 501.09 1997.24 504.7 1991.56 499.56 1995.86 495.41"/><path class="cls-45" d="M2459.08,219.26s10.71,138.37,66.37,202.53l-189.16,81.54h-62.84L2260,278.75S2384.74,294.12,2459.08,219.26Z"/><path class="cls-46" d="M2260,278.75s20.24,160.42,75.9,224.58H2165.4S2227.92,447.19,2260,278.75Z"/><polygon class="cls-47" points="2259.96 278.75 2254.06 503.33 2243.09 503.33 2259.96 278.75"/><g id="O"><path class="cls-48" d="M459.36,190.18l0-33.6-18.63,10.23c-.77-.47-1.57-.95-2.39-1.42q-20.37-11.76-40.8-12.12-20-.33-38.89,10.34l-19.38-7.75V187q.56,11.92,20.65,23.53,20.32,11.73,41,12a75.82,75.82,0,0,0,39.67-10.63q18.21-10.52,18.61-21.71Zm-65.8-19.52q9.79,1,21.85,8c.65.37,1.23.74,1.83,1.1l-7.69,4.23-29.33-11.71A29.71,29.71,0,0,1,393.56,170.66Z"/><path class="cls-49" d="M402.06,223.58H401c-13.93-.21-27.91-4.3-41.55-12.17s-20.77-16.08-21.15-24.36l0-32.68,20.33,8.12c12.57-7,25.67-10.45,39-10.23,13.72.24,27.62,4.36,41.29,12.25.65.38,1.29.75,1.91,1.13l17.79-9.77a1.23,1.23,0,0,1,1.82,1.08l0,31.48-.16,2.5c-.62,7.57-7,14.93-19.07,21.88A77.4,77.4,0,0,1,402.06,223.58Zm-61.8-66.22V187c.35,7.5,7.13,15.14,20.15,22.65,13.33,7.7,27,11.7,40.55,11.9a75.4,75.4,0,0,0,39.16-10.5c11.75-6.78,17.84-13.8,18.1-20.87l.11-.7V158.29L440.69,168l-.5-.31c-.77-.47-1.56-.94-2.38-1.41-13.36-7.72-26.93-11.75-40.31-12-13.09-.22-26,3.2-38.37,10.2l-.42.24Zm69.35,27.69-32.23-12.87,2.49-.91a30.88,30.88,0,0,1,13.79-1.61h0c6.64.66,14.13,3.38,22.26,8.07l1.47.89,1.87,1.14Zm-26.35-12.7,26.22,10.47,5.73-3.15-.3-.18c-7.88-4.55-15.1-7.18-21.46-7.82h0A29.69,29.69,0,0,0,383.26,172.35Z"/><rect class="cls-48" x="362.21" y="134.12" width="75.79" height="44.1"/><path class="cls-48" d="M438.41,133q20.32,11.73,20.93,23.59t-18.61,23a76,76,0,0,1-39.68,10.63q-20.73-.3-41.05-12-20.1-11.59-20.64-23.52t18.6-23q19.23-11.09,39.65-10.74T438.41,133ZM383,165q23.36,13.49,39.59,4.11,8.26-4.77,6.58-10.35t-13.68-12.51q-12.06-7-21.86-7.95a29,29,0,0,0-17.84,3.65Q359.44,151.37,383,165Z"/><path class="cls-50" d="M458.33,159.12q-3.65-9.47-19.88-18.85-20.37-11.76-40.8-12.11T358,138.91q-14.56,8.4-17.73,17.3v9.9c2.21,6.5,8.75,12.94,19.77,19.31q20.31,11.73,41,12a75.94,75.94,0,0,0,39.67-10.63Q455,178.62,458.33,170Zm-35.68,17.24q-16.25,9.38-39.6-4.1-23.57-13.6-7.21-23a28.94,28.94,0,0,1,17.84-3.66q9.81,1,21.86,7.95T429.23,166Q430.91,171.59,422.65,176.36Z"/><path class="cls-49" d="M402.16,191.19H401c-13.93-.2-27.91-4.3-41.54-12.17s-20.77-16.08-21.16-24.35,6.05-16.37,19.12-23.91c12.91-7.46,26.41-11.09,40.17-10.88s27.62,4.35,41.29,12.25,21,16.18,21.43,24.41-6,16.31-19.12,23.88A77.4,77.4,0,0,1,402.16,191.19Zm-5.77-69.31c-13,0-25.71,3.57-37.92,10.62-12.36,7.14-18.45,14.56-18.1,22.06s7.12,15.18,20.14,22.7c13.33,7.7,27,11.7,40.56,11.9a75.39,75.39,0,0,0,39.15-10.5c12.4-7.16,18.49-14.57,18.11-22s-7.26-15.16-20.42-22.76h0c-13.37-7.72-26.93-11.75-40.31-12Zm11.72,52c-7.73,0-16.29-2.69-25.6-8.06h0c-9.7-5.6-14.42-10.67-14.42-15.49,0-3.42,2.43-6.55,7.21-9.31a30.15,30.15,0,0,1,18.45-3.79c6.64.67,14.13,3.39,22.26,8.08,8.32,4.8,12.95,9.08,14.15,13.1,1.27,4.21-1.1,8.08-7,11.51A29.55,29.55,0,0,1,408.11,173.91Zm-24.59-9.81c15.16,8.75,28.14,10.13,38.59,4.1,5.09-2.94,7.09-5.94,6.11-9.18-1-3.45-5.48-7.46-13.22-11.93s-15.1-7.18-21.45-7.81a28.11,28.11,0,0,0-17.24,3.52c-4.11,2.37-6.19,4.92-6.19,7.56,0,4,4.51,8.6,13.4,13.74Z"/><polygon class="cls-49" points="394.7 189.5 394.7 222.24 417.24 221.56 440.63 211.93 455.84 201.04 460.21 190.93 458.26 162.8 453.92 169.49 442.92 178.23 424.89 185.79 412.58 189.16 394.7 189.5"/><polygon class="cls-49" points="386.12 187.92 386.19 220.22 369.14 214.97 369.14 182.82 386.12 187.92"/><polygon class="cls-49" points="396.71 139.11 396.67 171.1 379.46 162.79 370.29 154.28 369.14 148.34 376.54 141.52 387.61 138.1 396.71 139.11"/></g><g id="O-2" data-name="O"><path class="cls-48" d="M930.52,294l0-33.6-18.62,10.24c-.78-.48-1.58-1-2.4-1.43q-20.37-11.76-40.8-12.11-20-.34-38.88,10.33l-19.39-7.74v31.14q.55,11.92,20.65,23.52,20.32,11.73,41,12a76,76,0,0,0,39.68-10.64q18.19-10.52,18.6-21.71Zm-65.8-19.51q9.79,1,21.85,7.94c.65.38,1.23.74,1.83,1.1l-7.69,4.23-29.33-11.71A29.71,29.71,0,0,1,864.72,274.53Z"/><path class="cls-49" d="M873.22,327.45h-1.11c-13.93-.2-27.91-4.3-41.55-12.17s-20.77-16.08-21.15-24.36l0-32.68,20.33,8.12c12.57-7,25.67-10.45,39-10.22,13.72.23,27.62,4.35,41.29,12.24l1.91,1.14,17.79-9.78a1.23,1.23,0,0,1,1.82,1.08l0,31.48-.15,2.5c-.63,7.57-7,14.93-19.08,21.88A77.41,77.41,0,0,1,873.22,327.45Zm-61.8-66.23v29.65c.35,7.5,7.13,15.13,20.15,22.65,13.33,7.69,27,11.7,40.55,11.89a75.48,75.48,0,0,0,39.16-10.49c11.75-6.79,17.84-13.81,18.1-20.87l.12-.71,0-31.19-17.64,9.7-.5-.31c-.77-.47-1.56-.94-2.38-1.41-13.36-7.72-26.93-11.75-40.31-12-13.09-.22-26,3.21-38.37,10.2l-.42.24Zm69.35,27.7-32.23-12.87,2.49-.91a30.88,30.88,0,0,1,13.79-1.62h0c6.64.67,14.13,3.38,22.26,8.08.52.3,1,.59,1.47.88l1.87,1.14Zm-26.35-12.71,26.22,10.47,5.74-3.15-.31-.18c-7.88-4.55-15.1-7.18-21.46-7.81h0A29.69,29.69,0,0,0,854.42,276.21Z"/><rect class="cls-48" x="833.37" y="237.99" width="75.79" height="44.1"/><path class="cls-48" d="M909.57,236.85q20.32,11.73,20.93,23.59t-18.61,23A76,76,0,0,1,872.21,294q-20.73-.3-41.05-12-20.08-11.61-20.64-23.53t18.6-23q19.23-11.1,39.65-10.75T909.57,236.85Zm-55.39,32q23.36,13.47,39.59,4.1,8.26-4.77,6.58-10.35t-13.68-12.51q-12.06-7-21.86-8A29,29,0,0,0,847,245.79Q830.6,255.23,854.18,268.84Z"/><path class="cls-50" d="M929.49,263q-3.65-9.47-19.88-18.84-20.37-11.76-40.8-12.12t-39.65,10.75q-14.56,8.4-17.73,17.31V270c2.21,6.51,8.75,12.95,19.77,19.31q20.32,11.73,41,12a75.82,75.82,0,0,0,39.67-10.63q14.21-8.21,17.57-16.82Zm-35.68,17.24q-16.24,9.38-39.59-4.1-23.57-13.61-7.22-23.05a29,29,0,0,1,17.85-3.65q9.79,1,21.85,7.94t13.69,12.51Q902.07,275.45,893.81,280.22Z"/><path class="cls-49" d="M873.32,295.05H872.2c-13.93-.2-27.9-4.29-41.54-12.17s-20.77-16.07-21.15-24.35,6-16.36,19.11-23.91c12.91-7.45,26.41-11.09,40.17-10.88s27.62,4.36,41.29,12.25,21,16.18,21.43,24.41-6,16.32-19.12,23.89A77.39,77.39,0,0,1,873.32,295.05Zm-5.77-69.31c-13,0-25.71,3.57-37.92,10.62s-18.45,14.56-18.1,22.07,7.12,15.18,20.14,22.69c13.33,7.7,27,11.7,40.56,11.9a75.18,75.18,0,0,0,39.15-10.5c12.4-7.15,18.49-14.57,18.11-22s-7.25-15.17-20.42-22.77h0c-13.37-7.72-26.93-11.75-40.31-12Zm11.72,52c-7.73,0-16.29-2.69-25.6-8.07h0c-9.7-5.6-14.41-10.66-14.41-15.49,0-3.42,2.42-6.55,7.2-9.31a30.07,30.07,0,0,1,18.45-3.78c6.65.66,14.13,3.38,22.26,8.07,8.32,4.8,13,9.09,14.15,13.1,1.27,4.21-1.1,8.09-7,11.52A29.55,29.55,0,0,1,879.27,277.78ZM854.69,268c15.15,8.75,28.13,10.13,38.58,4.1,5.09-2.94,7.09-5.94,6.12-9.18-1-3.44-5.49-7.46-13.23-11.92s-15.1-7.18-21.45-7.82a28.11,28.11,0,0,0-17.24,3.52c-4.11,2.38-6.19,4.92-6.19,7.56,0,4,4.51,8.6,13.41,13.74Z"/><polygon class="cls-49" points="865.86 293.36 865.86 326.11 888.4 325.42 911.79 315.79 927 304.9 931.38 294.8 929.42 266.67 925.08 273.35 914.08 282.09 896.05 289.65 883.74 293.03 865.86 293.36"/><polygon class="cls-49" points="857.28 291.78 857.35 324.08 840.3 318.83 840.3 286.68 857.28 291.78"/><polygon class="cls-49" points="867.87 242.97 867.83 274.96 850.63 266.65 841.45 258.14 840.3 252.21 847.7 245.38 858.77 241.96 867.87 242.97"/></g><g id="O-3" data-name="O"><path class="cls-48" d="M611,182.41l0-33.59-18.62,10.23c-.78-.48-1.57-1-2.4-1.43q-20.37-11.76-40.8-12.11-20-.34-38.88,10.33l-19.39-7.74v31.14q.56,11.92,20.65,23.52,20.33,11.75,41.05,12a76,76,0,0,0,39.68-10.63q18.21-10.51,18.61-21.72Zm-65.8-19.51q9.8,1,21.86,7.95c.64.37,1.22.73,1.82,1.1l-7.69,4.22-29.33-11.71A29.71,29.71,0,0,1,545.18,162.9Z"/><path class="cls-49" d="M553.69,215.82h-1.12c-13.93-.2-27.91-4.3-41.54-12.17s-20.78-16.08-21.16-24.35V146.61l20.32,8.11c12.58-7,25.68-10.44,39-10.22,13.73.23,27.62,4.35,41.29,12.25.65.37,1.29.75,1.91,1.13l17.79-9.77a1.23,1.23,0,0,1,1.82,1.07l0,31.48-.15,2.51c-.63,7.56-7,14.92-19.08,21.87A77.4,77.4,0,0,1,553.69,215.82Zm-61.81-66.23,0,29.65c.34,7.5,7.12,15.13,20.14,22.65,13.33,7.7,27,11.7,40.56,11.9a75.48,75.48,0,0,0,39.15-10.5c11.75-6.79,17.84-13.81,18.11-20.87l.11-.7,0-31.19-17.64,9.69-.5-.31q-1.15-.71-2.37-1.41c-13.37-7.72-26.94-11.75-40.31-12-13.1-.21-26,3.21-38.37,10.2l-.43.24Zm69.36,27.7L529,164.42l2.48-.91a31,31,0,0,1,13.79-1.62h0c6.64.67,14.13,3.39,22.26,8.08.52.3,1,.59,1.47.88l1.87,1.14Zm-26.36-12.71,26.22,10.47,5.74-3.15-.31-.18c-7.88-4.55-15.1-7.18-21.45-7.81h0A29.73,29.73,0,0,0,534.88,164.58Z"/><rect class="cls-48" x="513.83" y="126.36" width="75.79" height="44.1"/><path class="cls-48" d="M590,125.23Q610.35,137,611,148.82t-18.61,23a75.85,75.85,0,0,1-39.67,10.63q-20.73-.3-41-12-20.1-11.61-20.65-23.53t18.61-23q19.21-11.1,39.65-10.75T590,125.23Zm-55.4,32q23.36,13.48,39.59,4.1,8.26-4.77,6.59-10.35t-13.69-12.51q-12.06-7-21.86-7.94a29,29,0,0,0-17.84,3.65Q511.08,143.59,534.64,157.21Z"/><path class="cls-50" d="M610,151.35q-3.65-9.47-19.88-18.84-20.37-11.76-40.8-12.11t-39.65,10.74q-14.55,8.42-17.72,17.31v9.89c2.2,6.51,8.74,12.95,19.76,19.31q20.32,11.73,41.05,12a76,76,0,0,0,39.68-10.64q14.19-8.19,17.56-16.81Zm-35.68,17.24Q558,178,534.68,164.49q-23.56-13.61-7.22-23.05a29,29,0,0,1,17.85-3.65q9.8,1,21.85,7.94t13.69,12.51Q582.53,163.82,574.27,168.59Z"/><path class="cls-49" d="M553.78,183.42h-1.12c-13.93-.21-27.9-4.3-41.54-12.17S490.35,155.17,490,146.89s6-16.36,19.11-23.91c12.91-7.45,26.42-11.09,40.17-10.88s27.62,4.36,41.29,12.25,21,16.18,21.43,24.41-6,16.32-19.11,23.89A77.43,77.43,0,0,1,553.78,183.42ZM548,114.12c-13,0-25.72,3.57-37.93,10.62S491.64,139.29,492,146.8s7.12,15.18,20.14,22.69c13.34,7.7,27,11.71,40.56,11.9a75.18,75.18,0,0,0,39.15-10.5c12.4-7.15,18.49-14.56,18.11-22s-7.25-15.17-20.42-22.77h0c-13.37-7.71-26.93-11.74-40.31-12Zm11.72,52q-11.61,0-25.6-8.06h0c-9.71-5.61-14.42-10.67-14.42-15.5,0-3.41,2.42-6.55,7.2-9.31a30.14,30.14,0,0,1,18.45-3.78c6.65.66,14.14,3.38,22.26,8.07,8.32,4.81,13,9.09,14.15,13.1,1.27,4.21-1.1,8.09-7,11.52A29.54,29.54,0,0,1,559.74,166.15Zm-24.59-9.82c15.15,8.75,28.13,10.13,38.58,4.1,5.09-2.94,7.09-5.94,6.12-9.18-1-3.44-5.49-7.45-13.23-11.92s-15.09-7.18-21.45-7.82A28.13,28.13,0,0,0,527.93,135c-4.11,2.37-6.19,4.91-6.19,7.55,0,4,4.51,8.61,13.41,13.74Z"/><polygon class="cls-49" points="546.32 181.73 546.32 214.48 568.86 213.79 592.26 204.17 607.46 193.27 611.84 183.17 609.88 155.04 605.54 161.72 594.54 170.46 576.51 178.02 564.2 181.4 546.32 181.73"/><polygon class="cls-49" points="537.75 180.15 537.81 212.45 520.76 207.2 520.76 175.06 537.75 180.15"/><polygon class="cls-49" points="548.33 131.34 548.29 163.33 531.09 155.03 521.91 146.51 520.76 140.58 528.16 133.75 539.24 130.33 548.33 131.34"/></g><g id="N"><polygon class="cls-48" points="467.12 444.61 438.68 428.98 438.68 336.11 467.12 351.74 467.12 444.61"/><polygon class="cls-48" points="515.21 416.85 476.96 395.3 481.53 366.73 485.83 368.38 515.21 416.85"/><path class="cls-49" d="M515.21,418l-39.36-22.19,4.87-30.49,5.79,2.22,30.1,49.65Zm-37.14-23.26,34.27,19.31-27.2-44.86-2.81-1.08Z"/><path class="cls-48" d="M495.89,303.08s28.45,14.38,28.45,15.63.06,47.34.08,48,.69,16.07.69,16.07v16.09l-29-49.25-.57-14.29Z"/><path class="cls-49" d="M526.12,402.6l-31.05-52.92-.57-14.29.38-32.9,1-.56.49.25c29,14.66,29,15.78,29,16.53,0,.44.06,47.19.08,48s.69,16.05.69,16.05Zm-29-53.25,27,45.83V382.8s-.67-15.36-.68-16-.08-43.37-.08-47.7c-2-1.68-16.53-9.31-26.45-14.34l-.36,30.64Z"/><polygon class="cls-48" points="467.06 319.72 495.51 335.35 467.12 351.74 438.68 336.11 467.06 319.72"/><polygon class="cls-48" points="515.25 291.9 543.7 307.53 524.34 318.71 495.89 303.08 515.25 291.9"/><polygon class="cls-50" points="467.06 327.93 495.51 343.56 467.12 359.95 438.68 344.32 467.06 327.93"/><polygon class="cls-50" points="515.25 300.11 543.7 315.74 524.34 326.92 496.8 311.79 496.81 310.76 515.25 300.11"/><path class="cls-49" d="M515.24,290.74l-20.36,11.75v1.36l28.46,15.46V360.7c0,5,.2,11.37.59,19l-27.69-45.08-29.18-16-29.39,17v94.05l29.48,16.19,20.25-11.69V391.63c0-4.89-.28-11.64-.85-20.11l27.94,46.08.73.42,29.5-17V306.93ZM498,303.06l17.31-10,26.38,14.49-17.31,10ZM466.11,442.9l-26.42-14.52V337.82l26.42,14.52ZM440.74,336.09l26.34-15.21,26.37,14.49-26.34,15.21Z"/></g><g id="M"><polygon class="cls-49" points="275.31 107.74 258.36 167.66 259.44 168.28 296.3 147.85 275.31 107.74"/><polygon class="cls-49" points="221.14 78.7 222.31 146.84 223.22 147.37 250.89 131.15 245.82 63.28 221.14 78.7"/><polygon class="cls-48" points="259.55 43.96 273.47 106.54 249.94 134.98 232.83 59.62 259.55 43.96"/><path class="cls-49" d="M249.45,137,231.79,59.17,259.32,43l1,.33,14.1,63.42Zm-15.57-77L250.42,133l22.05-26.65L258.92,45.39Z"/><path class="cls-48" d="M238.9,155.36,222.56,79.49l-.49-.28q1.16,17.64,1.15,27v40.06l-19.13-11V43l28.74,16.59,16.67,75.11.44.25,16.33-56,28.8,16.62v92.24l-19.84-11.45V135.9q0-3.15.09-7t.74-18.44l-.5-.28-16.12,57Z"/><polygon class="cls-48" points="204.09 43.03 230.81 27.37 259.55 43.96 232.83 59.62 204.09 43.03"/><polygon class="cls-48" points="266.27 78.93 292.99 63.27 321.78 79.89 295.07 95.55 266.27 78.93"/><polygon class="cls-50" points="204.09 50.77 230.81 35.11 259.55 51.7 232.83 67.36 204.09 50.77"/><polygon class="cls-50" points="266.27 86.67 292.99 71.01 321.78 87.63 295.07 103.29 266.27 86.67"/><path class="cls-49" d="M293,62.2,265.49,78.32,249.84,132l-16-72,26.36-15.45.12-1.26L230.8,26.3,203.17,42.5v93.3l20.05,11.57.92-.54V106.24c0-4.49-.2-10.46-.6-17.81L238.09,156l21.35,12.32.79-.44L274.89,116c-.28,6.55-.45,10.89-.49,12.94q-.09,3.81-.09,7v41l20.76,12,27.63-16.2V79.36ZM230.81,28.43,257.72,44,232.83,58.55,205.93,43ZM294.15,186.2l-18-10.39V135.9c0-2.1,0-4.41.08-6.94s.3-8.76.74-18.41l0-.56-2-1.16-16.12,57-19.17-11.06L223.38,78.9,221,77.55h0c.76,11.68,1.26,22.48,1.26,28.69v38.47l-17.28-10V44.62l27,15.59,16.67,75.11,1.8,1.05,16.34-56.06,27.32,15.77Zm-26-107.28L293,64.33,320,79.9,295.07,94.48Z"/></g><g id="I"><path class="cls-48" d="M352.48,387.74V293.21l22.23,12.84v94.52Z"/><polygon class="cls-48" points="352.48 293.21 372.79 281.55 395.02 294.38 374.71 306.05 352.48 293.21"/><polygon class="cls-50" points="352.8 298.66 372.79 287.18 395.02 300.02 374.52 311.15 352.8 298.66"/><path class="cls-49" d="M372.79,280.46l-21.25,12.21v95.61l23.17,13.38L396,389.44v-95.6Zm1,118.48L353.42,387.2V294.84l20.35,11.75Zm-19.4-105.72,18.42-10.59,20.35,11.75L374.71,305Z"/></g><g id="I-2" data-name="I"><path class="cls-48" d="M657.28,421.66V327.13L679.51,340v94.52Z"/><polygon class="cls-48" points="657.28 327.13 677.59 315.46 699.82 328.3 679.51 339.97 657.28 327.13"/><polygon class="cls-50" points="657.6 332.58 677.59 321.1 699.82 333.94 679.32 345.07 657.6 332.58"/><path class="cls-49" d="M677.59,314.38l-21.25,12.21V422.2l23.17,13.38,21.25-12.22v-95.6Zm1,118.48-20.35-11.75V328.76l20.35,11.75ZM659.16,327.14l18.43-10.59,20.34,11.75-18.42,10.58Z"/></g><g id="G"><path class="cls-48" d="M792.3,336.31l-.21-.12c-.25-.17-.71-.47-32-4.24l-.48-.06-10.93,10.78L756,362.56l13.74,6.6,21.62-7.67.19-.28c.3-.44,7.4-10.88,7.93-15.64C799.69,343.38,798.65,340,792.3,336.31Z"/><path class="cls-50" d="M757.79,346.27l29.53,16s-13,7.9-13.6,7.6-17.88-8.72-17.88-8.72Z"/><polygon class="cls-48" points="744.57 313.76 773.02 329.39 807.73 309.35 779.28 293.72 744.57 313.76"/><polygon class="cls-48" points="744.57 313.76 744.57 333.14 773.02 348.77 773.02 329.39 744.57 313.76"/><polygon class="cls-50" points="744.05 319.57 772.5 335.2 807.21 315.16 778.76 299.53 744.05 319.57"/><path class="cls-49" d="M808.74,308.75l-29.47-16.19-34.71,20-1-.55v1.13l-1,.61,1,.57v19.38L773,349.93l1.05-.61L774,330l34.71-20Zm-62.11,5,32.67-18.86,26.37,14.49L773,328.23l-19.15-10.52ZM772,347.06l-26.43-14.52V315.47l4,2.21L772,330Z"/><path class="cls-48" d="M745.31,347.76c1.26-3.55,4-11.17,6.79-19l15.47-27.4s10.58-5.75,11.71-6.4c9.52-5.44,19.19-10.92,19.19-10.92l7.61-7.75-28.45-15.63a49,49,0,0,0-11.74,2.59,78.1,78.1,0,0,0-14.33,6.62,84,84,0,0,0-31.14,30.49,80.34,80.34,0,0,0-11.11,41.42q0,23.06,10.15,29.65a14.52,14.52,0,0,0,1.52.78v.09l29.56,16.12-3.2-20.68Z"/><path class="cls-49" d="M748.69,388.7,720,372.9a10.52,10.52,0,0,1-1.1-.59c-7-4.57-10.61-14.83-10.61-30.5a81.66,81.66,0,0,1,11.25-41.93A85.31,85.31,0,0,1,751.05,269a79.8,79.8,0,0,1,14.52-6.7,50.52,50.52,0,0,1,12-2.64l.3,0,29.42,16.16-.3,1L799,285s-9.66,5.48-19.17,10.92c-1,.59-9.86,5.39-11.48,6.27L753,329.29c-2.69,7.49-5.35,15-6.64,18.59l2,19.79Zm-26.73-17,27.28,14.87-2.89-18.66-2.07-20.29.08-.21c1.26-3.55,4-11.17,6.79-19l15.69-27.8.25-.14s10.56-5.74,11.69-6.39c8.89-5.08,17.91-10.2,19.06-10.85l6.58-6.7-27-14.84a49,49,0,0,0-11.2,2.52,77.49,77.49,0,0,0-14.15,6.54,83.4,83.4,0,0,0-30.77,30.12,79.75,79.75,0,0,0-11,40.91c0,14.94,3.26,24.63,9.69,28.8a9,9,0,0,0,1,.51Z"/><path class="cls-48" d="M773,348.77l16.86,8.4s3.12-7.67,3.29-9.44-.17-11.64-1.18-13-2.61-4.51-6.24-2.85-12.14,10.68-12.14,10.68Z"/><path class="cls-49" d="M790.41,358.57,772,349.36l.68-7.23.24-.26c.35-.37,8.7-9.17,12.46-10.9,4-1.84,6.11,1.22,7.13,2.69l.34.47c1.35,1.81,1.49,12.47,1.38,13.69-.18,1.87-3,8.93-3.36,9.73Zm-16.32-10.4,15.26,7.61a59.14,59.14,0,0,0,2.81-8.15c.21-2.13-.27-11.18-1-12.29l-.38-.53c-1.23-1.77-2.35-3-4.63-2-2.73,1.26-9.07,7.56-11.59,10.2Z"/><path class="cls-50" d="M777.31,267.73a49.5,49.5,0,0,0-11.75,2.59,79,79,0,0,0-14.32,6.62,84,84,0,0,0-31.14,30.49,80.61,80.61,0,0,0-6.25,13.33l36.34,19.49c.75-2.11.79-2.2,1.59-4.42l15.47-27.39s10.58-5.76,11.71-6.4c9.52-5.45,19.18-10.93,19.18-10.93l4.46-9.48Z"/><polygon class="cls-50" points="712.66 328.23 746.55 347.29 739.09 356.39 711.42 340.98 712.66 328.23"/><path class="cls-49" d="M807.74,308.18,772,328.81v20.55l1,.57,13.34-7.7v12.32a61.15,61.15,0,0,1-8.41,5.82c-5.53,3.2-9.59,3.56-12.39,1.12s-4.36-8-4.36-16.38a50,50,0,0,1,5.09-23,36.4,36.4,0,0,1,14.32-15.23c6.75-3.89,13-5.89,18.59-5.92H800l7.31-25.17-1-.53-.3,0A50.52,50.52,0,0,0,794,278a79.8,79.8,0,0,0-14.52,6.7A85.31,85.31,0,0,0,748,315.51a81.66,81.66,0,0,0-11.25,41.93c0,15.67,3.57,25.93,10.61,30.5a17,17,0,0,0,9.46,2.65c5.73,0,12.53-2.26,20.34-6.77a159.32,159.32,0,0,0,31.28-23.69l.3-.3V308.75Z"/></g><g id="D"><path class="cls-48" d="M720.11,69,700.3,57.06a1.71,1.71,0,0,0-.23-.13l-.44-.27h0c-.21-.12-.41-.25-.63-.36Q688.55,51,669.37,62.08L641.8,78v92l25.77-14.88a83.07,83.07,0,0,0,30.88-30.28,81.45,81.45,0,0,0,11-41.84,68.88,68.88,0,0,0-.41-7.75Zm-33,27.8q0,13.53-4.57,22.74a35.2,35.2,0,0,1-14.39,14.89l-4.8,2.77V90.78l.63.38L670,97.28l16.33-9.23A46.43,46.43,0,0,1,687.08,96.79Z"/><path class="cls-49" d="M641.8,171.1l-.94-.56V77.46l28-16.19c13-7.52,23.29-9.47,30.52-5.8l.09.05h0l1,.61.26.16L722,69l-12,6.75a71.78,71.78,0,0,1,.35,7.23,82.71,82.71,0,0,1-11.11,42.31A84.29,84.29,0,0,1,668,155.93Zm.94-92.56v89.84l24.36-14.07a82.54,82.54,0,0,0,30.54-29.95A80.86,80.86,0,0,0,708.49,83a70.17,70.17,0,0,0-.4-7.64l-.07-.62L718.24,69,699.81,57.87l.08-.2-.16.13,0,0h0l-.76-.44-.37-.21c-6.62-3.36-16.28-1.43-28.72,5.75Zm19.64,60.27V89.13l2.23,1.36,5.58,5.61L687,86.59l.25,1.28a47.47,47.47,0,0,1,.74,8.92c0,9.12-1.57,16.92-4.67,23.16a36.19,36.19,0,0,1-14.76,15.28Zm1.88-46v42.76l3.39-2a34.32,34.32,0,0,0,14-14.48c3-6,4.48-13.5,4.48-22.33a49.06,49.06,0,0,0-.48-7.26l-15.79,8.92Z"/><polygon class="cls-48" points="641.79 78 663.95 91.16 663.95 183.16 641.79 170 641.79 78"/><polygon class="cls-48" points="680.95 90.07 716.61 83.7 719.43 121.27 704.7 145.42 684.65 154.92 679.01 142.39 680.95 90.07"/><path d="M684.19,156.18l-6.12-13.61,2-53.29,37.43-6.69,2.92,38.91-.16.26-14.87,24.39Zm-4.23-14,5.16,11.46,18.93-9L718.47,121l-2.72-36.23-33.89,6Z"/><path class="cls-50" d="M699.84,61.41l-.23-.14-.45-.27h0c-.21-.12-.42-.25-.63-.36q-10.44-5.3-29.62,5.78L641.33,82.35V83.7L663,96.53,664,96h0l3.28,3.3,1.76,1.1,49.4-27.79Z"/><polygon class="cls-49" points="682.36 114.4 712.22 132.05 717.04 89.53 686.36 88.05 679.96 101.24 682.36 114.4"/><polygon class="cls-49" points="685.7 123.28 705.96 135.4 701.46 137.88 685.07 128.09 685.7 123.28"/><polygon class="cls-50" points="685.75 133.15 702.51 143.64 686.69 151.97 683.71 146.78 685.75 133.15"/><path class="cls-49" d="M721.57,68.62c-7.23-3.67-17.49-1.72-30.51,5.8L664,90.07,641.8,76.91l-.94.55v93.08l23.08,13.71,26.26-15.16a84.28,84.28,0,0,0,31.21-30.63,82.7,82.7,0,0,0,11.11-42.3C732.52,81.58,728.84,72.32,721.57,68.62ZM663,181.51l-20.27-12V79.65l20.27,12Zm46.23-71.57q0,13.53-4.58,22.75a35.07,35.07,0,0,1-14.39,14.88l-4.79,2.77V98.8l6.26-3.62q8.84-5.09,13.16-1.49T709.24,109.94Z"/><path class="cls-48" d="M705.5,93c-3.21-2.67-8-2.2-14.23,1.4l-6.73,3.89V152l6.2-3.58a36.3,36.3,0,0,0,14.76-15.28c3.1-6.25,4.68-14,4.68-23.17C710.18,101.13,708.65,95.58,705.5,93Zm-1.68,39.3a34.43,34.43,0,0,1-14,14.49l-3.38,2V99.34L692.21,96c5.48-3.16,9.55-3.7,12.09-1.59s4,7.43,4,15.53C708.3,118.77,706.79,126.29,703.82,132.27Z"/></g><g id="D-2" data-name="D"><path class="cls-48" d="M636.82,263.27,617,251.34l-.23-.14-.44-.27h0c-.21-.12-.41-.25-.63-.36q-10.44-5.29-29.62,5.78l-27.57,15.92v92l25.77-14.88a83,83,0,0,0,30.88-30.29,81.39,81.39,0,0,0,11-41.83,68.88,68.88,0,0,0-.41-7.75Zm-33,27.79q0,13.53-4.57,22.75a35.12,35.12,0,0,1-14.39,14.88l-4.8,2.77v-46.4l.63.37,6.08,6.12,16.33-9.22A46.32,46.32,0,0,1,603.79,291.06Z"/><path class="cls-49" d="M558.51,365.37l-.94-.55V271.74l28-16.2c13-7.52,23.29-9.47,30.52-5.8l.09,0h0l1,.61.26.16,21.15,12.73L626.73,270a71.84,71.84,0,0,1,.35,7.24A82.74,82.74,0,0,1,616,319.59a84.21,84.21,0,0,1-31.22,30.62Zm.94-92.55v89.83l24.36-14.07a82.44,82.44,0,0,0,30.54-29.94,80.88,80.88,0,0,0,10.85-41.36,70.5,70.5,0,0,0-.4-7.65l-.07-.61L635,263.24l-18.43-11.09.08-.21-.16.14,0,0h0l-.76-.45c-.12-.07-.24-.14-.37-.2-6.62-3.37-16.28-1.43-28.72,5.75Zm19.64,60.27V283.41l2.24,1.36,5.57,5.61,16.84-9.51.25,1.28a47.28,47.28,0,0,1,.74,8.91c0,9.13-1.57,16.92-4.67,23.17a36.19,36.19,0,0,1-14.76,15.28Zm1.88-46v42.75l3.39-1.95a34.34,34.34,0,0,0,14-14.49c3-6,4.48-13.5,4.48-22.33a49.16,49.16,0,0,0-.48-7.26l-15.79,8.92Z"/><polygon class="cls-48" points="558.5 272.28 580.66 285.43 580.66 377.44 558.5 364.28 558.5 272.28"/><polygon class="cls-48" points="597.66 284.35 633.32 277.98 636.14 315.55 621.41 339.69 601.36 349.2 595.72 336.67 597.66 284.35"/><path d="M600.9,350.46l-6.12-13.61,2-53.3,37.43-6.68,2.92,38.91-.16.26-14.87,24.38Zm-4.23-14,5.16,11.46,18.93-9,14.42-23.65-2.72-36.23-33.89,6.05Z"/><path class="cls-50" d="M616.55,255.68a1.71,1.71,0,0,1-.23-.13l-.45-.27h0c-.21-.12-.41-.25-.63-.36q-10.44-5.31-29.62,5.77L558,276.62V278l21.68,12.82.94-.56h0l3.28,3.3,1.76,1.1,49.4-27.78Z"/><polygon class="cls-49" points="599.07 308.68 628.93 326.33 633.76 283.8 603.07 282.33 596.67 295.52 599.07 308.68"/><polygon class="cls-49" points="602.41 317.56 622.67 329.67 618.17 332.15 601.78 322.36 602.41 317.56"/><polygon class="cls-50" points="602.46 327.42 619.22 337.92 603.4 346.25 600.42 341.05 602.46 327.42"/><path class="cls-49" d="M638.28,262.9c-7.23-3.67-17.49-1.72-30.51,5.8l-27.1,15.64-22.16-13.16-.94.56v93.08l23.08,13.71,26.26-15.16a84.36,84.36,0,0,0,31.21-30.63,82.7,82.7,0,0,0,11.11-42.3C649.23,275.86,645.55,266.59,638.28,262.9ZM579.72,375.79l-20.27-12V273.93l20.27,12ZM626,304.22q0,13.53-4.58,22.75A35.18,35.18,0,0,1,607,341.85l-4.79,2.77V293.08l6.26-3.62q8.84-5.1,13.16-1.49T626,304.22Z"/><path class="cls-48" d="M622.22,287.24c-3.22-2.66-8-2.19-14.24,1.41l-6.73,3.89v53.71l6.2-3.59a36.22,36.22,0,0,0,14.76-15.27c3.1-6.25,4.68-14.05,4.68-23.17C626.89,295.41,625.36,289.86,622.22,287.24Zm-1.69,39.31a34.43,34.43,0,0,1-14,14.49L603.13,343V293.62l5.79-3.35c5.48-3.16,9.56-3.69,12.09-1.58s4,7.43,4,15.53C625,313.05,623.5,320.56,620.53,326.55Z"/></g></g></g></g></svg>