<svg xmlns="http://www.w3.org/2000/svg" viewBox="0 0 2784.74 5472.76"><defs><style>.cls-1{fill:#a6ecf1;}.cls-2{fill:#00d2e0;}.cls-3{fill:#00bfc4;}</style></defs><title>Asset 76</title><g id="Layer_2" data-name="Layer 2"><g id="Layer_14" data-name="Layer 14"><path class="cls-1" d="M216.39,883.14c-125-309-97-533-73-576s574-234,757-172,783,227,995,166,665-200,699-77-43,272-43,389-102,187,52,451S216.39,883.14,216.39,883.14Z"/><path class="cls-2" d="M.39,1104.14C181.11,912,126.83,814.27,147.13,743.86c33.49-116.15,31.32-239.46-4.22-355C115.09,298.44,54.39,78.14,204.39,22.14c146-54.51,122-2,428,88s487,274,916,170,508-164,680-76,438-90,346,226-60,392,19,469c49.7,48.44,83.71,146.19,102.1,212.05,8.49,30.4,12.23,61.86,12.14,93.42-.08,26.51,75.16,82,75.16,82l1.95,267.5H0Z"/><rect class="cls-2" x="0.17" y="1446.59" width="2782.39" height="4026.17"/><path class="cls-3" d="M2530.27,2965.58c-189.83-89.52-383.28-124.52-575.07-104a1024.45,1024.45,0,0,0-258.57,62.77V1566.54c471,91.91,867.18,392.81,1088.11,802.24V1427.47C2406.16,1115.33,1921,927.85,1392,927.85c-528.63,0-1013.53,187.24-1392,499v940.56c221.06-408.74,616.91-709.08,1087.37-800.89V2924.36a1024.45,1024.45,0,0,0-258.57-62.77c-191.77-20.5-385.25,14.48-575.07,104Q109.73,3033.47,0,3120.42V4810.29c378.47,311.78,863.37,499,1392,499,529,0,1014.16-187.48,1392.74-499.62V3121Q2674.82,3033.82,2530.27,2965.58ZM1093.85,4648.93c-66.58-17.31-138.19-43.56-206.25-83.26-173.72-101.34-337.15-248.92-419.1-327.87-81.37-78.38-143.44-172.74-179.48-272.88-79-219.45-17.59-348.43,219-460,74.79-35.27,145.6-52.93,214.66-52.93,76,0,149.92,21.4,224.65,64.26,61.87,35.49,111.82,79.08,146.49,114.07Zm1401.14-684c-36.06,100.13-98.12,194.5-179.48,272.87-82,79-245.39,226.55-419.11,327.88-68.18,39.77-139.81,65.44-206.25,81.92V3630.2c31.95-32.16,77.21-72,133-106,147-89.54,290.86-95.69,452.81-19.32C2512.58,3616.49,2574,3745.47,2495,3964.92Z"/></g></g></svg>