<svg xmlns="http://www.w3.org/2000/svg" viewBox="0 0 2781.79 1460.6"><defs><style>.cls-1{fill:#a6ecf1;}.cls-2{fill:#00d2e0;}</style></defs><title>Asset 69</title><g id="Layer_2" data-name="Layer 2"><g id="Layer_14" data-name="Layer 14"><path class="cls-1" d="M229.94,969.84c-48.4-119.64-70.21-233-78.78-326.88C138.06,499.5,225.31,365.8,361.75,319.61c183.2-62,439.55-134.06,550.88-96.34,182.65,61.88,781.51,226.56,993.11,165.68s663.73-199.62,697.66-76.85-42.91,271.48-42.91,388.26S2458.68,887,2612.39,1150.5,229.94,969.84,229.94,969.84Z"/><path class="cls-2" d="M0,1037.69c174.65-180.62,213-272.43,232.66-338.6,32.37-109.16,30.27-225-4.08-333.64-26.89-85-85.54-292,59.42-344.64,141.12-51.23,117.91-1.88,413.65,82.71s444.39,132.8,871.8,93.68c424.2-38.82,504.43-88,670.66-5.34s423.31-84.59,334.39,212.39-58,368.41,18.37,440.78c48,45.51,80.89,137.38,98.67,199.27,8.2,28.58,13.11,71.87,21.05,100.45,7.25,26.08,65.2,63.75,65.2,63.75v252.1H0Z"/></g></g></svg>