<?xml version="1.0" encoding="utf-8"?>
<!-- Generator: Adobe Illustrator 23.0.1, SVG Export Plug-In . SVG Version: 6.00 Build 0)  -->
<svg version="1.1" id="Layer_1" xmlns="http://www.w3.org/2000/svg" xmlns:xlink="http://www.w3.org/1999/xlink" x="0px" y="0px"
	 viewBox="0 0 2782 1051.8" style="enable-background:new 0 0 2782 1051.8;" xml:space="preserve">
<style type="text/css">
	.st0{fill:#97499B;}
	.st1{fill:#ED3724;}
	.st2{fill:#476BB2;}
	.st3{fill:#F9A128;}
	.st4{fill:#F6EB34;}
	.st5{fill:#3BC5F3;}
	.st6{fill:#A7CD41;}
	.st7{fill:#7AF47D;}
	.st8{fill:#25B367;stroke:#25B367;stroke-width:5;stroke-miterlimit:10;}
	.st9{fill:#F26F52;}
	.st10{fill:#F7995B;}
	.st11{fill:#2F5E6C;}
	.st12{fill:#FFFFFF;}
	.st13{fill:#183441;}
	.st14{fill:#FABC92;}
	.st15{fill:#F69553;}
	.st16{fill:#933640;}
	.st17{fill:#2B5669;}
	.st18{fill:#8FA89B;}
	.st19{fill:#812064;}
	.st20{fill:#A45425;}
	.st21{fill:#7E455A;}
	.st22{fill:#1C8448;}
	.st23{fill:#FDDE84;}
	.st24{fill:#F6AE4F;}
	
		.st25{fill-rule:evenodd;clip-rule:evenodd;fill:none;stroke:#999999;stroke-width:1.5924;stroke-linecap:round;stroke-linejoin:round;stroke-miterlimit:22.9256;}
	.st26{fill-rule:evenodd;clip-rule:evenodd;fill:none;stroke:#293B39;stroke-width:1.5924;stroke-miterlimit:22.9256;}
	.st27{fill-rule:evenodd;clip-rule:evenodd;fill:#3B4F4D;}
	.st28{fill-rule:evenodd;clip-rule:evenodd;fill:#A1600B;}
	.st29{fill-rule:evenodd;clip-rule:evenodd;fill:#F8981D;}
	.st30{fill-rule:evenodd;clip-rule:evenodd;fill:#293B39;}
	.st31{fill-rule:evenodd;clip-rule:evenodd;fill:#FFC273;}
	.st32{fill-rule:evenodd;clip-rule:evenodd;fill:#152120;}
	.st33{fill-rule:evenodd;clip-rule:evenodd;fill:none;stroke:#3B4F4D;stroke-width:0.7523;stroke-miterlimit:22.9256;}
	
		.st34{fill-rule:evenodd;clip-rule:evenodd;fill:none;stroke:#3B4F4D;stroke-width:1.5924;stroke-linecap:round;stroke-linejoin:round;stroke-miterlimit:22.9256;}
	.st35{fill-rule:evenodd;clip-rule:evenodd;fill:#566967;}
	
		.st36{fill-rule:evenodd;clip-rule:evenodd;fill:none;stroke:#435452;stroke-width:1.5924;stroke-linecap:round;stroke-linejoin:round;stroke-miterlimit:22.9256;}
	.st37{fill-rule:evenodd;clip-rule:evenodd;fill:none;stroke:#435452;stroke-width:1.5924;stroke-miterlimit:22.9256;}
	
		.st38{fill-rule:evenodd;clip-rule:evenodd;fill:none;stroke:#293B39;stroke-width:1.5924;stroke-linecap:round;stroke-linejoin:round;stroke-miterlimit:22.9256;}
</style>
<g>
	<title>Asset 59</title>
</g>
<g>
	<path class="st0" d="M1366,190.6c-97,0-175.9,38.4-234.5,114.2c-27.8,35.9-44.9,72.9-53.9,95.8h35.4c9-20.6,23.3-48.7,44.3-75.8
		c52.1-67.4,122.3-101.5,208.7-101.5s156.6,34.1,208.7,101.5c21,27.1,35.3,55.2,44.3,75.8h35.4c-9-22.9-26.1-59.9-53.9-95.8
		C1541.9,229,1463,190.6,1366,190.6z"/>
	<path class="st1" d="M1845.6,374.9c-1-3.9-25.4-95.6-94.4-185.2C1684.9,103.6,1564.3,1,1366,1s-318.9,102.6-385.2,188.7
		c-69.1,89.7-93.4,181.3-94.4,185.2l-6.7,25.6h33.8l4.5-17.4c0.9-3.6,23.6-89,88.7-173.5c61.8-80.3,174.3-176,359.3-176
		s297.5,95.7,359.3,176c65,84.4,87.7,169.9,88.7,173.5l4.5,17.4h33.8L1845.6,374.9z"/>
	<path class="st2" d="M1366,157.9c-107.7,0-195.3,42.7-260.4,126.9c-35.6,46-54.9,93-62.9,115.8h34.9c9-22.9,26.1-59.9,53.9-95.8
		C1190.1,229,1269,190.6,1366,190.6s175.9,38.4,234.5,114.2c27.8,36,44.9,72.9,53.9,95.8h34.9c-8-22.8-27.3-69.8-62.9-115.8
		C1561.3,200.6,1473.7,157.9,1366,157.9z"/>
	<path class="st3" d="M1725.3,209.6c-61.8-80.3-174.3-176-359.3-176s-297.5,95.7-359.3,176c-65,84.5-87.7,169.9-88.7,173.5
		l-4.5,17.4h33.8l2.4-9.2c0.9-3.3,22-82.6,82.9-161.8C1090,155,1194.4,66.3,1366,66.3s276.1,88.8,333.4,163.2
		c61,79.2,82.1,158.4,82.9,161.8l2.4,9.2h33.8l-4.5-17.4C1813.1,379.5,1790.3,294,1725.3,209.6z"/>
	<path class="st4" d="M1699.4,229.6c-57.3-74.5-161.7-163.2-333.4-163.2s-276.1,88.8-333.4,163.2c-61,79.2-82.1,158.4-82.9,161.8
		l-2.4,9.2H985l-3.7-1c0.8-3.1,20.3-76.1,77.2-150.1C1111.3,180.9,1207.6,99,1366,99s254.7,81.8,307.5,150.5
		c56.9,74,76.4,147,77.2,150.1l-3.7,1h37.7l-2.4-9.2C1781.5,388,1760.4,308.8,1699.4,229.6z"/>
	<path class="st5" d="M1366,125.2c-118.3,0-214.6,46.9-286.2,139.5c-45.2,58.4-65.9,117.6-71.5,135.8h34.5
		c8-22.8,27.3-69.8,62.9-115.8c65.1-84.2,152.7-126.9,260.4-126.9s195.3,42.7,260.4,126.9c35.6,46,54.9,93,62.9,115.8h34.5
		c-5.7-18.2-26.3-77.4-71.5-135.8C1580.6,172.1,1484.3,125.2,1366,125.2z"/>
	<path class="st6" d="M1673.5,249.5C1620.7,180.9,1524.4,99,1366,99s-254.7,81.8-307.5,150.5c-57,74-76.4,147-77.2,150.1l3.7,1h23.3
		c5.6-18.2,26.3-77.4,71.5-135.8c71.6-92.6,167.9-139.6,286.2-139.6s214.6,46.9,286.2,139.6c45.2,58.4,65.9,117.6,71.5,135.8h23.3
		l3.7-1C1749.9,396.5,1730.5,323.5,1673.5,249.5z"/>
	<path class="st7" d="M2223,207.4c1.1,0.8,2.1,1.5,3.1,2.3l4.4,4.3c0.1,0.2,0.2,0.3,0.3,0.5c1.1,1.5,2.1,3,3,4.6
		c2.3,5,2.1,9.7-0.9,14.2c-2.9,4.5-8.5,8.6-16.6,12.6c-7.3,3.4-15,6-22.8,7.9c-9.8,2.4-19.8,4.1-29.9,5.3c-3.8,0.5-7.7,0.8-11.5,1.2
		l-14.5,0.9c-3.4,0.1-6.8,0.2-10.2,0.3c-15.8,0.3-31.6-0.3-47.3-1.8c-14.9-1.4-29.8-3.6-44.4-6.8c-11.4-2.4-22.5-5.6-33.4-9.7
		c-9.4-3.6-17-7.7-22.9-12.2l-2.3-1.8l-2.9-2.8c-0.1-0.2-0.2-0.4-0.3-0.5c-1.3-1.6-2.5-3.3-3.5-5.1c-2.4-5-2.2-9.7,0.6-14.2
		c1.7-2.5,3.9-4.8,6.3-6.6c-712.8,38.3-913,526.6-913,526.6L2782,782V407.6c-138.1-97.9-323.3-181.8-564.5-203.7
		C2219.4,205,2221.3,206.1,2223,207.4z"/>
	<path class="st7" d="M2135.4,257.2l-34.9-33.3l-28.6,13.1l-14.3,6.5l-14.3,6.6c14.9,3,29.9,5.2,45,6.3
		C2104,257.6,2119.7,257.9,2135.4,257.2z"/>
	<path class="st7" d="M1982,209.2c-7.2,14.7,15.8,29.6,51.4,38.4l0.8-0.3l30.4-14l15.2-7l15.2-7c0.5-0.2,0.5-0.4,0.2-0.7l-9.3-8.9
		l-9.3-8.9l-3.8-3.6c-27.6-0.1-54.5,0.5-80.8,1.6C1987.4,202.1,1983.8,205.4,1982,209.2z"/>
	<path class="st7" d="M2108,218.6l25.5,4.1l25.5,4.1l25.5,4.1l25.5,4.1l7.3,1.2c11.2-9.5,7.7-22.3-15.3-33.6
		c-9.6-0.8-19.2-1.4-28.9-2c-30.2-1.7-59.6-2.7-88.3-3c7.2,6.8,14.3,13.7,21.5,20.5C2106.8,218.4,2107.4,218.6,2108,218.6z"/>
	<path class="st7" d="M2186.4,250.2c11.1-2.9,20.1-6.5,27-10.8l-25.4-4.1l-25.4-4.1l-50.8-8.1l34.9,33.3
		C2160.1,255.5,2173.4,253.4,2186.4,250.2z"/>
	<path class="st8" d="M1970.1,208.4c-2.8,4.5-3,9.2-0.6,14.2c1.1,1.8,2.2,3.5,3.5,5.1c0.1,0.2,0.2,0.4,0.3,0.5l2.9,2.8l2.3,1.8
		c5.9,4.5,13.5,8.5,22.9,12.2c10.9,4.1,22,7.4,33.4,9.7c14.7,3.2,29.5,5.5,44.4,6.8c15.7,1.4,31.5,2,47.3,1.8
		c3.4,0,6.8-0.2,10.2-0.3l14.5-0.9c3.8-0.4,7.8-0.8,11.5-1.2c10-1.1,20-2.9,29.9-5.3c7.8-1.9,15.5-4.5,22.8-7.9
		c8.2-3.9,13.7-8.1,16.6-12.6s3.2-9.2,0.9-14.2c-0.9-1.6-1.9-3.1-3-4.6c-0.1-0.2-0.2-0.3-0.3-0.5l-4.4-4.3c-1.1-0.8-2.1-1.5-3.1-2.3
		c-1.7-1.2-3.5-2.4-5.5-3.5c-5.1-0.5-10.2-0.9-15.3-1.3c23,11.3,26.5,24.1,15.3,33.6l-7.3-1.2l-25.5-4.1l-25.5-4.1l-25.5-4.1
		l-25.6-4.1c-0.6,0-1.2-0.2-1.6-0.6c-7.1-6.8-14.3-13.7-21.5-20.5c-4,0-8-0.1-12-0.1l3.8,3.6l9.3,8.9l9.3,8.9
		c0.3,0.3,0.3,0.5-0.2,0.7l-15.2,7l-15.2,7l-30.4,14l-0.8,0.3c-35.5-8.9-58.6-23.8-51.4-38.4c1.8-3.8,5.4-7.1,10.2-10.1
		c-4.9,0.2-9.9,0.5-14.8,0.7C1973.9,203.7,1971.8,205.9,1970.1,208.4z M2161.6,233.3l25.4,4.1l25.4,4.1c-6.9,4.4-15.9,8-27,10.8
		c-13,3.2-26.3,5.3-39.7,6.3l-34.9-33.3L2161.6,233.3z M2056.7,245.5l14.3-6.5l28.6-13.1l34.9,33.3c-15.7,0.7-31.4,0.4-47-0.8
		c-15.1-1.2-30.1-3.3-45-6.3L2056.7,245.5z"/>
	<path class="st9" d="M1801.6,193.3c0.1,0.6,0.3,1.2,0.5,1.7c0.1,0.1,0.1,0.3,0.1,0.4c0,0.1,0,0.3-0.1,0.4c-0.2,0.1-0.4,0.2-0.6,0.2
		h-0.5c-0.1,0-0.1-0.1-0.2-0.2c0-0.1,0-0.2,0-0.3c0.1-0.6,0.2-1.2,0.3-1.8c0-0.1,0-0.2,0.1-0.3
		C1801.3,193.3,1801.4,193.3,1801.6,193.3L1801.6,193.3"/>
	<path class="st10" d="M1801.7,189c0.5,3.4-0.6,6.9-1.6,10.2c-0.1,0.3-0.2,0.6-0.3,0.8c-0.3,0.4-0.8,0.6-1.3,0.7
		c-0.5,0.1-1,0.1-1.5,0.2c-0.7,0.2-1.4,0.6-1.9,1.2c-0.1,0.1-0.2,0.3-0.4,0.4c-0.3,0.1-0.6,0.1-0.9-0.1c-0.4-0.3-0.8-0.7-1-1.1
		c-1.1-2.1-1.1-4.6-0.8-6.9c0.1-0.8,0.3-1.6,0.6-2.3c0.3-0.5,0.8-1,1.3-1.3c0.8-0.6,1.6-1.2,2.4-1.7c0.4-0.3,0.9-0.6,1.3-0.7
		c0.5-0.1,1.1-0.2,1.6-0.1l1.2,0.1c0.5,0,1,0.2,1.2,0.6L1801.7,189"/>
	<path class="st11" d="M1801.9,192.9c0,0.1,0,0.2-0.1,0.3c0,0.2-0.1,0.3-0.2,0.4c-0.2,0.5-0.6,0.9-1.2,0.9h-0.2
		c-0.2,0-0.4-0.1-0.5-0.2c-0.2-0.1-0.3-0.3-0.4-0.5c-0.1-0.1-0.1-0.3-0.2-0.4v-0.2l0,0c0-0.2,0-0.4,0-0.6c0-0.1,0-0.2,0-0.2l0,0
		c0-0.2,0.1-0.4,0.2-0.5c0.2-0.6,0.7-0.9,1.3-0.9h0.2c0.1,0,0.3,0.1,0.4,0.2c0.1,0.1,0.2,0.2,0.3,0.3l0.1,0.2c0,0.1,0.1,0.2,0.1,0.3
		c0.1,0.2,0.1,0.4,0.1,0.6C1801.9,192.7,1801.9,192.8,1801.9,192.9"/>
	<path class="st12" d="M1801.8,193.3c0,0.1-0.1,0.3-0.1,0.4l0,0C1801.7,193.6,1801.8,193.4,1801.8,193.3"/>
	<polyline class="st13" points="1799.3,192.3 1795.4,192.3 1795.4,192.5 1799.3,192.5 	"/>
	<path class="st10" d="M1800.8,267.5c-0.1,2.3-0.4,4.6-1,6.9c-0.2,0.8-0.5,1.5-1,2.1c-0.9,0.8-2.1,1.2-3.3,1.3l-5.6,0.8l-4.8,0.7
		l-3.3,0.5l-1.5,0.2c-2.6,0.3-5.1,0.8-7.6,1.5c-0.5,0.2-1.1,0.4-1.6,0.6c-1.3,0.5-2.5,1.2-3.6,2c-0.8,0.6-1.5,1.3-2,2
		c-0.4,0.7-0.7,1.5-1,2.3c-0.5,1.4-1,2.7-1.5,4.1c-0.5,1.6-1.2,3.2-2.3,4.5c-0.6,0.6-1.5,1.2-2.2,0.8s-0.8-1.5-0.8-2.4
		c0.3-4.7,1.1-9.4,1.9-14c0.1-0.9,0.4-1.7,0.8-2.4c0.5-0.5,1.1-0.9,1.8-1.1c1.3-0.3,2.6-0.4,3.9-0.3c1.6,0,3.1-0.2,4.7-0.5
		c0.5-0.1,0.9-0.2,1.4-0.3c1.9-0.4,3.8-0.9,5.6-1.5l1-0.3c2.4-0.7,4.8-1.5,7.1-2.2l1.9-0.6c0.5-0.1,0.9-0.3,1.3-0.6
		c1.3-1,1.1-3.1,1.9-4.5c0.1-0.3,0.4-0.5,0.6-0.6c0.3-0.1,0.5-0.1,0.8,0l1.3,0.2c2.1,0.3,4.2,0.7,6.3,1.1L1800.8,267.5z"/>
	<path class="st14" d="M1800.2,267.6l0.6-0.1c-0.1,2.3-0.4,4.6-1,6.9c-0.2,0.8-0.5,1.5-1,2.1c-0.9,0.8-2.1,1.2-3.3,1.3l-5.6,0.8
		c0.3-1.4,0.6-2.8,0.9-4.1c0.5-2.8,1.5-5.4,3.1-7.8c0.1-0.1,0.1-0.2,0.2-0.2C1796,266.8,1798.1,267.2,1800.2,267.6z"/>
	<path class="st10" d="M1786.4,275.2c-0.1,0.9-0.4,1.9-0.7,2.7c-0.1,0.5-0.4,1-0.7,1.3l0,0l-3.3,0.5c-0.2-0.5-0.4-1-0.8-1.4
		c-0.8-1-1.6-2-2.6-2.9l-0.4-0.3l1-0.3c2.4-0.7,4.8-1.5,7.1-2.2C1786.4,273.5,1786.6,274.3,1786.4,275.2z"/>
	<path class="st10" d="M1797.4,267.5c-0.3,1.1-0.6,2.2-0.9,3.4c-0.7,2.5-1.5,4.9-2.3,7.4c-1.9,5.5-4.6,10.8-7.1,16
		c-1.4,3.1-3.6,5.8-5.5,8.6c-2,3-4,6-5.9,9c-0.8,1.4-1.7,2.7-2.6,4c-0.5,0.8-1,1.6-1.4,2.4c-0.3,0.4-0.5,0.9-0.7,1.3l0,0
		c-0.1,0.2-0.2,0.4-0.3,0.5l0,0c-0.9,2.2-0.7,4.6-1.2,6.9c-0.9,4.5-1.3,8.2-4.3,11.2c-0.2,0.2-0.4,0.5-0.7,0.6
		c-0.4,0-0.7-0.2-0.9-0.5c-0.2-0.4-0.2-0.9-0.2-1.3c-0.1-4.4-0.2-8.8-0.3-13.2c0-1.1-0.4-2.7,0.6-3.6c1.3-1.3,2.5-2.8,3.5-4.3
		l0.2-0.4c0.2-0.3,0.4-0.6,0.6-0.9c0.3-0.6,0.6-1.1,0.9-1.7c0,0,0-0.1,0.1-0.1c1.4-2.8,2.9-6.8,4.3-9.6c2.1-4.4,4.1-7.1,6.6-11.3
		c1.1-1.9,1-4.1,1.6-6.2c1.7-5.8,2.3-11.6,4-17.2l0,0c0.4-1.3,0.8-2.5,1.3-3.7c0-0.1,0.1-0.3,0.2-0.4l2.4-1c1.9-0.8,3.3,0.2,4.9,1.2
		c0.6,0.4,1.3,0.8,2.1,1c0.1,0,0.3,0.1,0.4,0.1c0.2,0.1,0.3,0.2,0.5,0.3c0.1,0.1,0.2,0.2,0.2,0.3
		C1797.6,266.6,1797.6,267.1,1797.4,267.5z"/>
	<path class="st10" d="M1797.4,267.5c-0.3,1.1-0.6,2.2-0.9,3.4l-0.1-0.1c-1.4-1.2-3.1-2-5-2.3s-3.9-0.3-5.9,0
		c0.4-1.3,0.8-2.5,1.3-3.7l0.4-0.2c1.7-0.6,3.6-0.8,5.4-0.4c0.6,0.1,1.1,0.3,1.6,0.4c0.9,0.3,1.7,0.7,2.5,1.1l0.5,0.3
		c0.1,0.1,0.2,0.2,0.2,0.3C1797.6,266.7,1797.6,267.1,1797.4,267.5z"/>
	<path class="st14" d="M1801,266.8L1801,266.8L1801,266.8L1801,266.8z"/>
	<path class="st10" d="M1759.5,224c-0.7,0.1-1.4,0-2-0.3c-0.3-0.1-0.7-0.4-1-0.5c-0.6-0.3-1.3-0.6-2-0.8c0,0-0.1,0-0.2,0
		s-0.2,0.1-0.2,0.2c0,0.1,0,0.2,0.1,0.3c0.2,0.6,0.6,1.1,1.1,1.5c-0.9,0.3-1.9,0-2.8,0.3s-1.7,0.8-2.4,1.5c-0.1,0.1-0.2,0.2-0.2,0.4
		s0.3,0.1,0.5,0.1c0.9-0.4,1.8-0.7,2.8-0.8c-0.5,0.3-1.3,0.5-1.6,0.7c-0.3,0.3-0.6,0.6-0.7,0.9c-0.3,0.5-0.5,1-0.8,1.6
		c0.2,0.1,0.4,0,0.6-0.1s0.3-0.3,0.5-0.4c0.4-0.4,0.9-0.7,1.4-0.9c-0.7,0.7-1.1,1.6-1.3,2.6c0,0.1,0.1,0.2,0.2,0.3
		c0.1,0,0.1,0,0.2-0.1s0.2-0.2,0.4-0.3c0.2-0.1,0.4-0.1,0.6-0.1c0.8-0.1,1-0.8,1.7-1.2s1.9-0.4,2.5-0.8c0.6-0.2,1.1-0.5,1.6-0.9
		c0.2-0.3,1.2-0.3,1.5-0.4s-0.8-0.2-0.4-0.3c0.1,0,0.2-0.1,0.3-0.1c0-0.1,0.1-0.1,0.1-0.2c0-0.3,0.1-0.6,0.1-0.9s0-0.5-0.2-0.5"/>
	<path class="st10" d="M1818.5,206.9c0.4-0.9,0.9-1.8,1.5-2.6c0.5-0.8,1.1-1.4,1.8-2c0.9-0.5,1.8-1,2.7-1.5c0.6,0.4-0.2,1.3-0.7,1.7
		c1.3-0.4,2.6-0.6,4-0.5c0.3,0,0.6,0.1,0.6,0.3c0,0.5-1.7,0-2.7,0.9c1-0.1,2,0,2.9,0.4c0.2,0.1,0.4,0.2,0.5,0.3l0.1,0.1
		c0.1,0.1,0,0.3-0.1,0.4c-0.1,0-0.1,0-0.2,0c-0.8-0.3-1.6-0.3-2.4,0c0.5,0,1,0.1,1.5,0.3c0.5,0.1,1.4,0.4,1.2,0.8
		c-0.5,0.3-1.7-0.1-2.4-0.1c0.5,0.2,1,0.5,1.5,0.8c0.1,0.1,0.2,0.1,0.1,0.2s-0.2,0.1-0.3,0.1c-1.3,0-2.6,0.1-3.8,0.1
		c-0.5,0-1.1,0.1-1.6,0.2c-1,0.4-1.8,0.9-2.6,1.6c-0.5-0.4-1-0.8-1.4-1.2c-0.1-0.1-0.2-0.2-0.3-0.2c-0.1,0-0.2,0-0.3,0.1l0,0"/>
	<path class="st15" d="M1801.2,188.4c-0.8,0.9-2.1,1.2-3.1,1.9c-0.8,0.6-1.4,1.5-1.7,2.4c-0.3,0.9-0.5,1.9-0.5,2.9
		c-0.1,1.1-0.1,2.2,0,3.4c0.1,1.3,0.3,2.6,0.3,3.9c0,0.2,0,0.5-0.1,0.7s-0.3,0.3-0.5,0.4c-1.4,0.6-3,0.9-4.5,0.8
		c-0.6-2.7-0.6-5.6,0-8.3c0.3-1.4,0.6-2.8,1.1-4.1c0.4-1.3,1.1-2.5,2-3.5c0.5-0.5,1.1-0.8,1.7-1.1c0.6-0.4,1.4-0.6,2.1-0.6
		c0.4,0,0.8,0.1,1.2,0.3c0.6,0.2,1.2,0.5,1.7,0.8l-0.4,0.4"/>
	<path class="st16" d="M1822,212.1c-0.3-2.1-1.2-4.4-3.1-5.4c-0.3-0.2-0.6-0.3-0.9-0.2c-0.5,0.1-0.8,0.6-1.1,1l-1.1,2l-0.1,0.2
		c-0.1,0.2-0.2,0.3-0.3,0.5l-1,1.7l-2,3.7c-1-0.1-1.9-0.5-2.7-1.2c-3.3-2.9-4-7.9-7.1-11c-0.5-0.5-1.1-0.9-1.8-1.1
		c-0.6-0.1-1.1-0.1-1.7,0l-1.6,0.2c-1.8,0.2-3.6,0.5-5.4,1c-1,0.3-2,0.6-3,1.1l-0.7,0.4c-1.5,0-2.8,1.2-3.8,2.3l-1.7,1.7l-1.2,1.3
		c-2.1,2.4-4.5,4.6-7,6.5l-0.7,0.5c-2.5,1.6-5.2,2.8-8,3.8l-1.4,0.5l-0.2,0.1l-1.1,0.4c-0.9,0.3-1.9,0.7-2.8,1
		c-0.8,0.2-1.5,0.7-2,1.3c-0.3,0.6-0.4,1.2-0.3,1.9c0.1,0.9,0.2,1.7,0.4,2.6c0.2,0.9,0.6,1.6,1.4,2.1c1,0.6,2.2,0.1,3.2-0.4
		c0.7-0.3,1.3-0.7,1.9-1.1c0.4-0.3,0.8-0.5,1.2-0.8l0.1-0.1c0.4-0.3,0.8-0.5,1.2-0.8c2.5-1.8,4.8-3.8,7.4-5.5
		c0.9-0.6,1.8-1.1,2.7-1.7c0.4-0.3,0.8-0.5,1.2-0.8c1.4-1,2.8-1.9,4.1-3c2,2.2,2.8,5.4,3.4,8.3c0.4,1.4,0.5,2.8,0.1,4.2
		c-0.8,2.3-2.8,4-4.8,5.5c-2.2,1.7-4.5,3.4-6.8,5s-4.7,3.3-7.2,4.8c-5.2,3.3-10.1,7-14.8,11c-1.9,1.7-3.7,4.1-3.7,5
		c0,0.1,0,0.3,0.2,0.4l0,0c0,0.5,0.2,0.9,0.5,1.2c0.5,0.6,1.1,1,1.9,1.2c2.5,0.9,5.3,0.6,7.8,1.3c1.3,1.4,2.8,2.5,4.5,3.2
		c2.1,0.8,4.2,1.4,6.4,1.8c2.7,0.6,5.5,0.9,8.2,0.8c1.3,0.3,2.5-0.3,3.8-0.5c0.8,0.2,1.6,0.1,2.3-0.4c0.6-0.4,0.9-1.1,1.5-1.5
		c0.8-0.4,1.7-0.6,2.5-0.5c4.3,0.1,8.5,1.2,12.6,2.2c0.3,0.1,0.7,0.1,1,0c0.3-0.2,0.6-0.5,0.7-0.9c0.4-1.1,0.5-2.2,0.4-3.3
		c2.2-5.6,2.5-11.8,2.5-17.8c0-1,0-2.1,0-3.1v-0.2c0-5.3,0.1-10.6-2.2-15.3c-0.9-1.8-0.6-4-0.4-6c0.3-2.5,0.5-5,0.5-7.6h0.1
		c1.6,1.8,3.2,3.5,4.7,5.3c0.4,0.5,0.8,0.9,1.3,1.2c1,0.5,2.1,0.5,3.1,0s1.9-1.1,2.6-1.9l2.3-2.2l0.7-0.6l0.4-0.4l0.3-0.3l1.3-1.3
		c0.4-0.3,0.7-0.7,0.9-1.1C1822.1,213.4,1822.1,212.7,1822,212.1z"/>
	<path class="st17" d="M1767.7,227.6c-0.4,0.3-0.8,0.6-1.2,0.8l-0.1,0.1c-1.1-0.6-1.9-1.7-2.3-2.9c-0.4-1.4-0.3-2.8,0.3-4.1l0,0
		l0.2-0.1l1.4-0.5c-0.8,1.4-0.8,3.2,0,4.7c0.3,0.5,0.6,0.9,1,1.3C1767.2,227.2,1767.5,227.4,1767.7,227.6z"/>
	<path class="st17" d="M1819.3,216.7l-0.4,0.4l-0.7,0.6l-1-2.6c-0.2-0.8-0.6-1.5-1.1-2.1c-0.4-0.5-1-0.9-1.7-1l1-1.7
		c0.1-0.2,0.2-0.3,0.3-0.5c0.8,0.3,1.5,0.8,2,1.5c0.3,0.5,0.6,1.1,0.8,1.7C1818.9,214.1,1819.2,215.4,1819.3,216.7z"/>
	<path class="st18" d="M1766.5,228.4l-0.1,0.1c-0.4,0.3-0.8,0.5-1.2,0.8c-1.4-1.1-2.3-2.8-2.3-4.6c-0.1-1,0.1-1.9,0.5-2.8l1.1-0.4
		l0.2-0.1c-0.1,0.2-0.2,0.4-0.3,0.7c-0.1,0.3-0.2,0.7-0.2,1c0,0.7,0,1.4,0.2,2.1c0.1,1.1,0.7,2.2,1.6,2.9
		C1765.9,228.1,1766.3,228.3,1766.5,228.4z"/>
	<path class="st18" d="M1819.6,216.4l-0.3,0.3l-0.4,0.4c0,0,0,0,0-0.1c-0.1-1.1-0.4-2.3-0.8-3.3c-0.2-1-0.8-1.8-1.5-2.5
		c-0.3-0.3-0.6-0.5-1-0.7l-0.3-0.1c0.1-0.2,0.2-0.3,0.3-0.5l0.1-0.2c1,0.3,1.9,0.9,2.4,1.7c0.6,0.9,1,1.9,1.1,3c0,0.3,0.1,0.7,0.1,1
		L1819.6,216.4z"/>
	<path class="st17" d="M1797.5,202.4l-0.4,0.1c-0.3,0.1-0.6,0.3-0.9,0.4c-1.2,0.4-2.5,0.7-3.8,0.8c-0.1,0-0.1,0-0.2,0l-0.1-0.1
		c0-0.1-0.1-0.1-0.1-0.2C1793.8,202.9,1795.7,202.6,1797.5,202.4z"/>
	<path class="st15" d="M1792.7,212.7c0.1,0.7,0.3,1.4,0.6,2c0.6,1.1,1.5,2,2.5,2.7c-2-4.8-2.7-10.1-2-15.3c0.3-2.1,0.7-4.2,0.7-6.3
		c0.1-1.5,0.4-2.9,1-4.2c0.3-0.8,0.8-1.6,1.5-2.3c0.7-0.6,1.5-1,2.5-0.9"/>
	<path class="st19" d="M1799.6,188.5L1799.6,188.5c0.7,0.3,1.5-0.1,1.8-0.8c0.1-0.3,0.1-0.7,0-1c-0.6-1.5-1.6-2.8-3-3.6
		c-3.5-2.1-8-1.5-11,1.2c-0.9,0.8-1.5,1.8-1.6,3c0,0.4,0.1,0.8,0,1.2c-0.1,0.7-0.3,1.3-0.7,1.9c-1.2,2.2-3,4.2-5.1,5.6
		c-1,0.7-2.1,1.3-3.2,1.8c-7.8,3.7-7.1,15.1,1.1,17.6l0.4,0.1c5.6,1.7,11.4,2.2,17.2,1.7"/>
	<path class="st20" d="M1801.8,189.8c-1.5-0.9-3.1-1.5-4.8-1.8c-1.8-0.4-3.5-0.5-5.3-0.5s-3.6,0.3-5.2,1c-0.2,0.1-0.6,0.2-0.7-0.1
		c-0.1-0.1,0-0.3,0.1-0.4c0.1-0.1,0.2-0.2,0.4-0.2c3.9-1.4,8.1-1.5,12-0.4c1.1,0.3,2.1,0.7,3.1,1.1c0.2,0.1,0.4,0.2,0.6,0.4
		C1802.1,189.2,1802,189.6,1801.8,189.8"/>
	<path class="st14" d="M1798.7,196.7c0.1,0,0.3,0,0.4,0.1c0.2,0,0.4,0,0.4,0c0.2,0,0.3,0,0.5,0c0.1,0,0.3,0,0.4,0
		c-0.1,0.1-0.3,0.1-0.4,0.1c-0.2,0-0.3,0-0.5,0c0,0-0.3,0-0.5-0.1C1799,196.8,1798.8,196.7,1798.7,196.7z"/>
	<path class="st14" d="M1756.8,224.1c-0.1,0-0.2,0.1-0.3,0.1l-0.3,0.1h-0.4c-0.1,0-0.2,0-0.4,0c0.1-0.1,0.2-0.1,0.3-0.1
		c0.1,0,0.2-0.1,0.4-0.1c0,0,0.2,0,0.4,0C1756.6,224,1756.7,224,1756.8,224.1z"/>
	<path class="st14" d="M1754.6,227.5L1754.6,227.5l-0.2,0.1c-0.2,0.1-0.3,0.2-0.5,0.3c-0.2,0.2-0.4,0.4-0.6,0.6c0,0-0.3,0.3-0.6,0.6
		c-0.2,0.2-0.4,0.4-0.6,0.6c0.1-0.2,0.3-0.5,0.5-0.7s0.4-0.5,0.6-0.7s0.4-0.4,0.7-0.6c0.2-0.1,0.3-0.2,0.5-0.3L1754.6,227.5
		L1754.6,227.5z"/>
	<path class="st14" d="M1753.9,226.8c-0.1,0-0.2,0.1-0.3,0.1c-0.2,0.1-0.3,0.1-0.3,0.1s-0.2,0.1-0.3,0.2c-0.1,0.1-0.2,0.1-0.3,0.2
		c0.1-0.1,0.1-0.2,0.2-0.3s0.2-0.1,0.3-0.2c0.1-0.1,0.2-0.1,0.4-0.1C1753.7,226.8,1753.9,226.8,1753.9,226.8z"/>
	<path class="st14" d="M1758.9,297.4c0,0-0.1-0.1-0.1-0.2s0-0.2,0-0.4c0-0.1,0-0.1,0-0.2s0-0.1,0-0.2s0-0.2,0-0.2
		c0-0.1,0-0.1,0.1-0.2c0.1-0.2,0.3-0.4,0.5-0.6c0,0,0.1-0.1,0.2-0.1l-0.1,0.1c-0.1,0.1-0.2,0.2-0.2,0.3c-0.1,0.1-0.1,0.2-0.2,0.3
		c0,0.1,0,0.1-0.1,0.2c0,0.1,0,0.1,0,0.2s0,0.1,0,0.2v0.2c0,0.1,0,0.2,0,0.4C1758.9,297.3,1758.9,297.3,1758.9,297.4z"/>
	<path class="st14" d="M1758.3,296.6c0,0,0-0.2,0-0.3c0-0.1,0-0.2,0.1-0.3c0.1-0.1,0.1-0.2,0.2-0.3c0.1-0.1,0.3-0.2,0.3-0.2
		s-0.1,0.1-0.2,0.2s-0.1,0.2-0.2,0.3c-0.1,0.1-0.1,0.2-0.1,0.3C1758.3,296.5,1758.3,296.6,1758.3,296.6z"/>
	<path class="st14" d="M1757.7,295.8c0,0-0.1-0.1-0.1-0.2s0-0.2,0.1-0.2c0.1-0.1,0.1-0.1,0.2-0.2s0.2-0.1,0.2,0s-0.1,0.1-0.2,0.1
		s-0.1,0.1-0.1,0.2c0,0-0.1,0.1-0.1,0.2C1757.7,295.7,1757.7,295.8,1757.7,295.8z"/>
	<path class="st14" d="M1767.4,279.9c0,0,0.1,0,0.2,0s0.2,0.1,0.3,0.1c0.2,0.1,0.3,0.1,0.5,0.1s0.4,0,0.5,0c0.3,0,0.5-0.1,0.5-0.1
		c-0.2,0.1-0.3,0.1-0.5,0.2c-0.2,0-0.4,0-0.6,0h-0.2c-0.1,0-0.2-0.1-0.4-0.1c-0.1-0.1-0.2-0.1-0.3-0.1V279.9z"/>
	<path class="st14" d="M1767.2,318.5c0-0.2,0-0.4,0.1-0.6c0-0.1,0.1-0.3,0.2-0.4l0.1-0.2l0.1-0.2c0.1-0.1,0.2-0.2,0.3-0.3
		c0.1-0.1,0.3-0.3,0.5-0.3c0,0-0.2,0.2-0.4,0.4c-0.1,0.1-0.2,0.3-0.3,0.5c0,0.1-0.1,0.1-0.1,0.2c-0.1,0.1-0.1,0.2-0.2,0.4
		C1767.3,318.2,1767.2,318.5,1767.2,318.5z"/>
	<path class="st14" d="M1763.9,338.7c0,0-0.1-0.1-0.1-0.2s0-0.3,0-0.3c0-0.1,0-0.2,0.1-0.3c0-0.1,0.1-0.2,0.1-0.2s0,0.1,0,0.2
		s0,0.2,0,0.2s0,0.1,0,0.2C1763.9,338.5,1763.9,338.6,1763.9,338.7z"/>
	<path class="st14" d="M1764.5,338.5c0,0-0.1-0.1-0.1-0.2s0-0.1,0-0.2s0-0.1,0.1-0.2c0-0.1,0.1-0.2,0.2-0.1s0,0.1,0,0.2s0,0.1,0,0.2
		s0,0.1,0,0.2C1764.5,338.4,1764.5,338.4,1764.5,338.5z"/>
	<path class="st14" d="M1766.2,333.6C1766.2,333.6,1766.2,333.5,1766.2,333.6v-0.3c0-0.2,0-0.5,0-0.8c0-0.7,0-1.6,0.1-2.5
		s0.1-1.8,0.2-2.5s0.2-1.2,0.2-1.2s0.1-0.5,0.2-1.2c0.1-0.3,0.1-0.7,0.2-1.1s0.1-0.9,0.1-1.3s-0.2-0.8-0.5-1.2
		c-0.2-0.3-0.5-0.5-0.8-0.8c-0.3-0.2-0.5-0.3-0.7-0.4l-0.2-0.1h-0.1h0.1l0.2,0.1c0.2,0.1,0.4,0.2,0.7,0.4c0.3,0.2,0.6,0.5,0.9,0.7
		c0.3,0.3,0.5,0.8,0.5,1.2c0,0.4,0,0.9-0.1,1.3l-0.2,1.1c-0.1,0.7-0.2,1.1-0.2,1.2s-0.1,0.5-0.2,1.2s-0.2,1.6-0.2,2.5
		s-0.1,1.8-0.1,2.5c0,0.3,0,0.6,0,0.8L1766.2,333.6L1766.2,333.6z"/>
	<path class="st14" d="M1765.3,337.9c0,0,0-0.1,0.1-0.2s0.2-0.3,0.3-0.5c0.1-0.2,0.2-0.3,0.2-0.5c0-0.1,0.1-0.2,0.1-0.2
		s0-0.1,0.1-0.2s0.1-0.3,0.1-0.5s0-0.4,0.1-0.5s0-0.2,0-0.2c0,0.1,0,0.2,0,0.2c0,0.2,0,0.4,0,0.5c0,0.2,0,0.4-0.1,0.5l-0.1,0.3
		c0,0,0,0.1-0.1,0.3c-0.1,0.2-0.1,0.3-0.2,0.5c-0.1,0.1-0.2,0.3-0.3,0.4C1765.3,337.9,1765.3,337.9,1765.3,337.9z"/>
	<path class="st14" d="M1764.4,338.5c0-0.1,0-0.3,0-0.4c0-0.2,0.1-0.4,0.1-0.4c0-0.1,0.1-0.2,0.2-0.4c0.1-0.1,0.1-0.2,0.2-0.3
		c0,0.1-0.1,0.2-0.1,0.4c-0.1,0.2-0.1,0.4-0.1,0.4s-0.1,0.2-0.1,0.4C1764.5,338.3,1764.5,338.4,1764.4,338.5z"/>
	<path class="st14" d="M1765,329.9c0,0-0.1-0.2-0.2-0.4c-0.1-0.1-0.2-0.3-0.3-0.4c-0.1-0.1-0.2-0.3-0.3-0.4
		c-0.2-0.2-0.4-0.3-0.4-0.3c0.2,0,0.3,0.1,0.4,0.2s0.3,0.2,0.4,0.4c0.1,0.1,0.2,0.3,0.2,0.5C1765,329.6,1765,329.7,1765,329.9z"/>
	<path class="st21" d="M1773,315.9c-0.5,0.8-1,1.6-1.4,2.4c-0.2-0.7-0.5-1.4-0.9-2c-0.6-0.9-1.6-1.5-2.7-1.7
		c0.3-0.6,0.6-1.1,0.9-1.7c0,0,0-0.1,0.1-0.1c0.5-0.1,1-0.1,1.5,0.1c1,0.5,1.8,1.3,2.2,2.3C1772.8,315.5,1772.9,315.7,1773,315.9z"
		/>
	<path class="st21" d="M1770.8,319.7c0-0.3,0-0.5-0.1-0.8c-0.1-0.5-0.2-1-0.5-1.5c-0.2-0.3-0.4-0.6-0.7-0.8c-0.6-0.5-1.3-0.8-2-0.9
		h-0.2l-0.2,0.4c0.5,0,1,0.1,1.5,0.3c0.8,0.4,1.3,1.2,1.6,2c0.2,0.6,0.3,1.3,0.3,2l0,0L1770.8,319.7z"/>
	<path class="st9" d="M1772.6,281.4c-0.5,0.2-1.1,0.4-1.6,0.6c0.3-1.7,0.2-3.4-0.1-5c0.5-0.1,0.9-0.2,1.4-0.3l0.1,0.2
		C1772.7,278.4,1772.8,279.9,1772.6,281.4z"/>
	<path class="st22" d="M2368.1,640.5c1.5-1.5,3.3-2.7,4.5-4.4c33.6-49,82.4-44.7,121.2-17.8c30.1,20.9,49.4,51.9,71.1,80.5
		c3.9,5.1,6.4,11.2,12.2,14.7c11.2,20.1,27.5,36.6,39.5,56.1c-102.4,74.7-214.5,108.1-341.8,84c-77.5-14.7-151.4-41-226.2-64.2
		c-86.3-26.9-174-43.3-264.7-41.5c-1.7-0.1-3.4-0.4-5.1-0.8c34.7-59.3,77.2-111.1,142.3-138.5c64.9-27.2,127.7-27.3,184.6,21
		c1.9,1.6,4.4,2.6,6.6,3.8c17.9,20.4,39.2,37.2,58.2,56.4c15.3,15.5,33.1,27.1,52.9,35.9c40.4,18,77.2,12.3,103.3-17.6
		C2344.2,688.1,2356.3,664.3,2368.1,640.5z"/>
	<path class="st23" d="M488.5,54.6C323.4,54.6,158.3,94.7,0,158.8v894h2383C2383,1052.8,1312.2,54.6,488.5,54.6z"/>
	<path class="st24" d="M1227.8,572.5c-2.8-24.7-10.6-47.9-21.7-70.1c-7.8-20.4-22.1-37.8-26.2-60c-3.3-17.9,3.8-36.9,17.3-43.5
		c13.7-6.6,30.5-2.4,42.7,12c14.7,17.3,20.3,38.4,23.6,60.3c1.4,9.3,2.8,18.7,8,27c2.4,3.7,5.1,7.2,10.2,6.5s4.9-5.2,6.1-8.8
		c2-6.3,1.5-12.8,1.2-19.2c-1-24.2,2.6-48,6.3-71.7c3.3-21.1,15.8-33.2,29.6-30.9c16.9,2.9,29.1,23.9,25.3,43.3
		c-3.3,17.1-12.3,32-19.1,47.7c-5.6,13-12,25.8-10.6,40.6c0,6.8,1.2,13.7,8.9,14.8c8.5,1.3,11-6.3,14.1-12.4
		c10.9-23.8,26.1-44.1,47.7-59.3c16.8-11.7,34.6-20.7,55.7-20.6c17.6,0.1,35.4,12.2,40.3,27c5,15.2-2,31.3-17.9,43.2
		c-10.5,7.8-23.4,10.4-34.2,17.3c-17.2,4.3-30.9,13.8-42,27.4C1336.8,547.1,1281.8,557.4,1227.8,572.5z"/>
	<g>
		<line class="st25" x1="2174.2" y1="478.8" x2="2174.5" y2="466.4"/>
		<line class="st26" x1="2313" y1="363.8" x2="2172.4" y2="471.8"/>
		<path class="st27" d="M2322.3,508.4c-6.4-63.7-26.1-105.6-52.7-134.4c-32.5,25.4-58.1,65.1-68.5,117.3
			C2238,486.5,2305.5,502.7,2322.3,508.4z"/>
		<path class="st28" d="M2274.5,380.4c-31.4,23.8-56.3,61.8-66.3,111.9c30.2-0.7,98.5,10.8,114.2,16.1
			C2320.3,464.9,2300.4,403.2,2274.5,380.4z"/>
		<path class="st29" d="M2274.5,380.4c-29,22-52.4,56-63.7,100.5c31.9-1.4,90.9,8.9,110.5,14.7
			C2316.5,453.5,2297.9,401,2274.5,380.4z"/>
		<path class="st30" d="M2279.5,392.9c-23.6,17.9-45.3,45.8-54.5,82c26.3-1.3,76.6,7,92.6,11.7
			C2313.6,452.4,2298.6,409.7,2279.5,392.9z"/>
		<path class="st31" d="M2279.5,392.9c-0.2-0.7-1-1.5-1.9-1.7c-6.7,2.9-14.7,8.5-17.3,15c-14.2,9-29.7,38-29.6,43
			c-3.9,4.6-7.4,16.2-8.9,24.8c1.1,1.3,2,1.2,3.3,0.9c2.4-4.2,8.5-20,8.4-24.1c6.8-7.6,22-30.5,29-42.8
			C2265.8,406.6,2276.6,398.3,2279.5,392.9z"/>
		<path class="st32" d="M2246.1,475.4c26.4,1.8,59.2,7.6,71.6,11.2c-1.2-10.7-3.6-22.2-6.7-33.4
			C2288.9,459.3,2265.5,467.6,2246.1,475.4z"/>
		<line class="st33" x1="2263" y1="408.7" x2="2259.5" y2="405.4"/>
		<line class="st33" x1="2234.4" y1="451.1" x2="2230.2" y2="448.9"/>
		<path class="st34" d="M2201,498c0.5-4,1.8-9.5,2.8-13.6"/>
		<path class="st35" d="M2512.1,487.5c-35.4-146.8-161.3-177.1-242.5-113.5c38.1,43.7,47.6,85.3,53.2,141.8
			c11.3-4.7,69.7-18.3,105.7-20.1C2451,490,2488.8,486,2512.1,487.5z"/>
		<path class="st36" d="M2352.3,343.5c18.9-0.4,69.6,58.6,76.4,166.3"/>
		<path class="st36" d="M2271.3,373.7c12.8-11,60.5-47.2,131.9-23.3c59.1,19.8,105.1,95,110,148.1"/>
		<path class="st37" d="M2270.6,374.6c13.2,11.7,49.4,58,52.5,147.7"/>
		<line class="st25" x1="2503.2" y1="524.5" x2="2505.2" y2="512.3"/>
		<line class="st38" x1="2401.3" y1="391.4" x2="2506.2" y2="518"/>
		<path class="st29" d="M2389.8,377.1c5.5,8.9,10.8,18.5,14.7,28.2l7.2-4.5L2389.8,377.1z"/>
	</g>
</g>
</svg>
