<svg xmlns="http://www.w3.org/2000/svg" viewBox="0 0 2789.67 1133.08"><defs><style>.cls-1{fill:#a4bbc9;}</style></defs><title>Asset 701</title><g id="Layer_2" data-name="Layer 2"><g id="Layer_15" data-name="Layer 15"><path class="cls-1" d="M0,1133.08H2785.91V588.79s0-91.53,0-136c.06-156.27,8.43-305.89,0-452.83-1.45.4-3.51.9-5,1.18-53.94,10.18-99.53,38.18-138.5,85.95q-5.24,6.42-10.33,13.11c-19.86,26-38,53.14-57.56,79.23-24.2,32.37-51.76,60.76-87.34,80.08-24.61,13.36-50.15,20.83-77.55,17.11-26.13-3.55-47.08-16.07-67.37-30.31-13.18-9.25-25.82-19.34-39-29.06-8.48-6.26-17.18-12.3-26.38-17.8-39-23.31-82-23.49-122.29-.74-20.18,11.39-36.85,26-52.74,41.57-4.47,5.49-8.91,11-13.41,16.45-23.73,28.77-44.2,59.41-70.63,86-15.42,15.52-32.11,29.71-52.42,40-1.53,1.05-3,2.21-4.6,3.12-49.29,27.72-103.7,37.67-160.54,38.73-33.48.62-66.75-3.05-99.65-9-23-4.16-45.86-9-68-16.54-11.89-2.3-23.21-6.51-34.55-10.49-41.16-14.45-80.71-32.23-120-50.08-25.9-11.78-51.6-23.78-77.19-35.71-2.48-1-5-2-7.43-3.08-39.28-17.44-78.6-33.95-118.92-47C1228.4,237.76,1182,227.94,1135,226.35c-45.15-1.53-87.64,4.5-128,15.68C946,259,892.1,285.88,840.76,314.4c-48,26.66-93.45,55.21-140.12,79.63-34.08,17.84-68.54,33.26-104.4,43.89-12.1,3.23-24,6.9-36.16,9.65-29.52,6.7-59.07,11.45-89,11.56-21.76,2-43.4.57-65-1.32A458,458,0,0,1,281.67,429C218.14,404.64,161,367.14,109.34,316.75,62.3,270.82,3.12,157.55,3.12,157.55s-3.22-.44-3.12.52c10.6,104.05,5.46,313,5.46,313"/></g></g></svg>