<?xml version="1.0" encoding="utf-8"?>
<!-- Generator: Adobe Illustrator 23.0.1, SVG Export Plug-In . SVG Version: 6.00 Build 0)  -->
<svg version="1.1" id="Layer_1" xmlns="http://www.w3.org/2000/svg" xmlns:xlink="http://www.w3.org/1999/xlink" x="0px" y="0px"
	 viewBox="0 0 313.5 283.2" style="enable-background:new 0 0 313.5 283.2;" xml:space="preserve">
<style type="text/css">
	.st0{fill:#BCFF64;}
</style>
<title>Asset 29accobglogo</title>
<g>
	<g id="Layer_3">
		<path class="st0" d="M123.2,2c-2.8,0.7-5.5,1.3-8.3,1.8C92.7,7.9-12.5,35.5,1.2,194.7c15.3,177.7,307.2,42.9,312.1-18.4
			C318.3,116.1,206.6-18.1,123.2,2z"/>
	</g>
</g>
<g>
	<path d="M81.8,82.7l-13.9,28.5l-14-28.5h-15v53h12.9v-30.3L68,137.8l16-32.3v30.3h12.9v-53L81.8,82.7z"/>
	<rect x="38.8" y="140.6" width="13.3" height="54.7"/>
	<path d="M157.6,152.9c2.1,0,4-0.9,5.2-2.4l-5-4l6.4,0.3c0-0.2,0-0.3,0-0.5c0-3.9-2.7-6.7-6.6-6.7c-3.9,0-6.7,2.8-6.7,6.6
		S153.7,152.9,157.6,152.9z"/>
	<rect x="151.3" y="157.3" width="12.5" height="37.9"/>
	<path d="M199.4,157.3v3.8c-3-3.7-6.6-5.3-11.7-5.3c-11.7,0-19.6,8.4-19.6,20.8c0,5.4,1.6,10.3,4.3,13.6c3.4,4.1,8.5,6.5,13.9,6.5
		s9.8-1.9,13.1-5.7v1.9c0,6.6-3.8,10.6-10.2,10.6c-4.4,0-8.3-1.7-11.4-5.2l-7.5,7.7c5.7,5.3,12,7.8,19.6,7.8
		c6.7,0,12.7-2.2,16.5-6.1c3.7-3.7,5.1-8.4,5.1-16.7v-33.8L199.4,157.3L199.4,157.3z M197.5,182.8c-1.6,1.8-4.3,2.9-7,2.9
		c-5.4,0-9.2-4-9.2-9.7c0-5.5,3.7-9.3,9-9.3c5.6,0,8.8,3.9,8.8,10.5C199.2,179.7,198.6,181.6,197.5,182.8z"/>
	<path d="M39.6,78.2h-0.8V72h0.8V78.2z"/>
	<path d="M42.4,78.2h-0.8V72h0.8V78.2z"/>
	<path d="M46.1,78.2h-0.8v-5.5h-1.6V72h3.9v0.7H46L46.1,78.2L46.1,78.2z"/>
	<path d="M54,72.1c1.3,0,2,0.6,2,1.6c0,0.4-0.1,0.7-0.4,1c-0.2,0.2-0.4,0.3-0.6,0.4c0.7,0.1,1.3,0.7,1.2,1.5c0,0.5-0.2,1-0.7,1.4
		c-0.4,0.2-0.8,0.3-1.5,0.3h-1.7v-6.2C52.3,72.1,54,72.1,54,72.1z M53,74.8h0.8c0.5,0,0.8-0.1,1-0.3c0.3-0.2,0.4-0.5,0.4-0.8
		c0-0.4-0.2-0.7-0.5-0.9c-0.2-0.1-0.5-0.1-1-0.1H53V74.8z M53,77.6h0.8c0.7,0,0.9,0,1.2-0.2s0.4-0.5,0.4-0.9c0-0.7-0.4-1.1-1.4-1.1
		h-1V77.6z"/>
	<path d="M62.8,73c0.5,0.6,0.7,1.3,0.7,2.2c0,0.9-0.4,1.8-1,2.4c-0.5,0.5-1.2,0.7-2,0.7c-0.9,0-1.8-0.4-2.4-1.2
		c-0.4-0.6-0.7-1.3-0.6-2c0-1.8,1.3-3.2,3.1-3.2C61.4,72,62.2,72.4,62.8,73z M58.2,75.2c0,1.4,0.9,2.5,2.2,2.5
		c0.6,0,1.2-0.3,1.6-0.7c0.4-0.5,0.6-1.1,0.6-1.7c0-0.8-0.2-1.4-0.7-1.9c-0.4-0.4-0.9-0.6-1.5-0.6C59.2,72.7,58.2,73.7,58.2,75.2z"
		/>
	<path d="M65.9,78.2h-0.8V72h0.8l2.3,4.6l2.3-4.6h0.8v6.2h-0.8v-4.5l-2.3,4.6l-2.3-4.6V78.2z"/>
	<path d="M75,72.1c1.3,0,2,0.6,2,1.6c0,0.4-0.1,0.7-0.4,1c-0.2,0.2-0.4,0.3-0.6,0.4c0.7,0.1,1.3,0.7,1.2,1.5c0,0.5-0.2,1-0.7,1.4
		c-0.4,0.2-0.8,0.3-1.5,0.3h-1.7v-6.2C73.3,72.1,75,72.1,75,72.1z M74,74.8h0.8c0.5,0,0.8-0.1,1-0.3c0.3-0.2,0.4-0.5,0.4-0.8
		c0-0.4-0.2-0.7-0.5-0.9c-0.2-0.1-0.5-0.1-1-0.1H74V74.8z M74,77.6h0.8c0.7,0,0.9,0,1.2-0.2c0.3-0.2,0.4-0.5,0.4-0.9
		c0-0.7-0.4-1.1-1.4-1.1h-1V77.6z"/>
	<path d="M79.4,76.8l-0.6,1.4H78l2.3-6.2h0.9l2.3,6.2h-0.9l-0.5-1.4H79.4z M80.8,73.1l-1.2,3.1H82L80.8,73.1z"/>
	<path d="M86.5,78.2h-0.8v-2.7L83.6,72h0.9l1.6,2.7l1.6-2.6h0.9l-2.1,3.5V78.2z"/>
	<path d="M90,74.1l-0.5-0.2l0.8-1.9l0.6,0.2L90,74.1z"/>
	<path d="M92.8,76.6c0,0.7,0.4,1.1,1.1,1.1s1.2-0.4,1.2-1c0-0.5-0.3-0.8-1.2-1.1c-0.7-0.3-1-0.4-1.2-0.6c-0.3-0.3-0.5-0.7-0.5-1.2
		c0-1,0.8-1.8,1.8-1.8c1.1,0,1.8,0.7,1.8,1.8H95c0-0.2,0-0.4-0.1-0.6c-0.2-0.3-0.6-0.4-0.9-0.4c-0.5,0-1,0.4-1,0.9v0.1
		c0,0.3,0.1,0.5,0.4,0.7c0.2,0.1,0.4,0.2,1,0.4c0.7,0.2,1,0.4,1.2,0.7c0.3,0.3,0.4,0.7,0.4,1.1c0,1.1-0.8,1.8-1.9,1.8
		c-0.8,0-1.3-0.3-1.6-0.8c-0.1-0.2-0.2-0.5-0.2-0.8v-0.2L92.8,76.6L92.8,76.6z"/>
	<path d="M251.4,134.4V133c0-1.7,1-2.7,2.7-2.7c0.9,0,1.7,0.3,2.2,0.9c0.4,0.5,0.6,1.1,0.6,1.9v1.3H251.4z M256.3,133.8v-0.2
		c0-0.9-0.1-1.3-0.4-1.7c-0.4-0.5-1-0.7-1.8-0.7c-1.3,0-2.1,0.7-2.1,2v0.7h4.3V133.8z"/>
	<path d="M253.8,128.2V126h0.6v2.2h1.9V126h0.6v2.9h-5.5V126h0.6v2.2H253.8z"/>
	<path d="M256.1,120.2c0.6,0.5,1,1.2,0.9,2c0,0.7-0.3,1.4-0.8,1.9c-0.6,0.5-1.3,0.7-2.1,0.7c-1.6,0-2.9-1.1-2.9-2.6
		c0-0.5,0.1-1,0.4-1.4c0.2-0.2,0.4-0.5,0.6-0.6l0.4,0.5c-0.6,0.5-0.8,0.9-0.8,1.5c0,1.1,0.9,1.9,2.2,1.9s2.2-0.8,2.2-2
		c0-0.6-0.2-1.1-0.8-1.5L256.1,120.2z"/>
	<path d="M253.8,118.2V116h0.6v2.2h1.9V116h0.6v2.9h-5.5V116h0.6v2.2H253.8z"/>
	<path d="M256.9,113.8v0.7h-5.5v-0.7l4.1-2l-4.1-2.1V109h5.5v0.7h-4l4.1,2.1l-4.1,2H256.9z"/>
	<path d="M251.4,105.7c0-1.1,0.5-1.8,1.5-1.8c0.3,0,0.6,0.1,0.9,0.3c0.2,0.1,0.3,0.4,0.4,0.6c0-0.2,0.1-0.4,0.3-0.6
		c0.3-0.3,0.6-0.5,1.1-0.4c0.5,0,0.9,0.2,1.2,0.6c0.2,0.3,0.3,0.7,0.3,1.4v1.6h-5.5L251.4,105.7z M253.9,106.6v-0.7
		c0-0.4-0.1-0.7-0.2-0.9c-0.2-0.2-0.5-0.4-0.8-0.3c-0.3,0-0.6,0.1-0.8,0.4c-0.1,0.2-0.1,0.4-0.1,0.9v0.6H253.9z M256.4,106.6v-0.7
		c0-0.6,0-0.8-0.2-1c-0.1-0.3-0.4-0.4-0.8-0.4c-0.7,0-0.9,0.4-0.9,1.3v0.9L256.4,106.6L256.4,106.6z"/>
	<path d="M253.8,101.7v-2.2h0.6v2.2h1.9v-2.2h0.6v2.9h-5.5v-2.9h0.6v2.2H253.8z"/>
	<path d="M256.9,97.3V98h-5.5v-1.5c0-1.2,0.6-1.9,1.6-1.9c0.6,0,1.1,0.3,1.4,0.8c0.1,0.3,0.2,0.5,0.2,1l2.3-2.1v0.9l-2.3,2.1H256.9z
		 M254.1,96.6c0-0.8-0.4-1.3-1.1-1.3c-0.7,0-1.1,0.4-1.1,1.2v0.8h2.1L254.1,96.6L254.1,96.6z"/>
	<path d="M241.2,117.1v0.4h-2.8v0.8H238v-2h0.3v0.8C238.3,117.1,241.2,117.1,241.2,117.1z"/>
	<path d="M241.2,115.3v0.4H238v-0.4h1.4v-1.5H238v-0.4h3.2v0.4h-1.4v1.5H241.2z"/>
	<path d="M241.2,86.6V87h-2.8v0.8h-0.3v-2h0.3v0.8C238.4,86.6,241.2,86.6,241.2,86.6z"/>
	<path d="M241.2,84.7v0.4H238v-0.4h1.4v-1.5H238v-0.4h3.2v0.4h-1.4v1.5H241.2z"/>
	<path d="M251.4,91.7l0.1-0.4l1.7,0.6l-0.2,0.5L251.4,91.7z"/>
	<path d="M246.9,128.9h1.1v5.7l-5-3.6c-1.5-1-1.9-1.2-2.5-1.2c-0.9,0-1.5,0.7-1.5,1.7c0,0.7,0.3,1.2,0.8,1.5
		c0.3,0.1,0.5,0.2,1.1,0.2v1.1c-1.9-0.1-3-1.1-3-2.9c0-1.7,1-2.8,2.5-2.8c0.8,0,1.6,0.3,2.8,1.2l3.8,2.7v-3.6H246.9z"/>
	<path d="M242.1,123.7c-0.1-0.3-0.2-0.7-0.2-1c0-1.6,1.3-3,2.9-3h0.1c1.8,0,3.3,1.5,3.3,3.3s-1.4,3.2-3.3,3.2
		c-0.8,0-1.3-0.2-2.2-0.8l-4.7-2.9v-1.4L242.1,123.7z M244.9,125c1.2,0,2.1-0.9,2.1-2s-0.9-2.1-2.1-2.1l0,0c-1.1,0-2,0.9-2,2.1
		C243,124,243.9,124.9,244.9,125L244.9,125z"/>
	<path d="M244.9,107.9v3.2h-1.1v-3.2H244.9z"/>
	<path d="M246.9,98.5h1.1v5.7l-5.1-3.5c-1.5-1-1.9-1.2-2.5-1.2c-0.9,0-1.5,0.7-1.5,1.7c0,0.7,0.3,1.2,0.8,1.5
		c0.3,0.1,0.5,0.2,1.1,0.2v1.1c-1.9-0.1-3-1.1-3-2.9c0-1.7,1-2.8,2.5-2.8c0.8,0,1.6,0.3,2.8,1.2l3.8,2.7L246.9,98.5L246.9,98.5z"/>
	<path d="M244,91.9c0.1,0.3,0.2,0.6,0.2,1c0,1.7-1.3,3-3,3h-0.1c-1.8,0-3.2-1.4-3.3-3.2c0,0,0,0,0-0.1c0-1.7,1.3-3.2,3.1-3.2h0.1
		c0.8,0,1.4,0.2,2.2,0.7L248,93v1.4L244,91.9z M241,94.7c1.1,0,2.1-0.9,2.1-2s-0.9-2.1-2-2.1c-1.2,0-2.1,0.9-2.1,2
		C239,93.8,239.9,94.7,241,94.7L241,94.7z"/>
	<path d="M253.3,89.7h-0.6l-1.2-1.8h5.4v0.6h-4.4L253.3,89.7z"/>
	<path d="M254.7,83.8c0.1,0.2,0.1,0.3,0.1,0.5c0,0.9-0.7,1.6-1.6,1.6l0,0c-0.9,0-1.7-0.8-1.7-1.7l0,0c0-0.9,0.7-1.7,1.6-1.7
		c0,0,0,0,0.1,0c0.4,0,0.8,0.1,1.2,0.4l2.5,1.5v0.7L254.7,83.8z M253.2,85.3c0.6,0,1.1-0.5,1.1-1.1s-0.5-1.1-1.1-1.1s-1,0.5-1.1,1
		C252.1,84.8,252.6,85.3,253.2,85.3L253.2,85.3z"/>
	<path d="M167,97.5c-12.2,0-20.7,8.2-20.7,19.9c0,11.5,8.6,19.8,20.6,19.8c11.6,0,20.7-8.5,20.7-19.4C187.6,106,178.9,97.5,167,97.5
		z M176.4,114.9c0,0.7-0.1,1.5-0.3,2.2c-0.3,1-0.8,2-1.6,2.8c-0.7,0.7-1.3,1.4-2.1,2.1c-1.2,1.1-2.5,2.2-3.7,3.3
		c-0.6,0.5-1.2,1.1-1.7,1.6h-0.1c-1.4-1.3-2.9-2.6-4.3-3.9c-0.9-0.8-1.8-1.6-2.6-2.4c-0.6-0.6-1.2-1.3-1.6-2.1
		c-0.4-0.8-0.6-1.6-0.8-2.4c-0.1-0.6-0.1-1.2-0.1-1.7c0-2.2,1.6-4.1,3.7-4.6c1.8-0.4,3.3,0.1,4.6,1.3c0.4,0.4,0.7,0.8,1,1.3
		c0,0,0,0,0,0.1c0.2-0.3,0.4-0.6,0.6-0.8c0.7-0.8,1.6-1.5,2.7-1.8c2.6-0.7,5.5,0.8,6.1,3.7C176.4,113.9,176.4,114.4,176.4,114.9
		L176.4,114.9z"/>
	<path d="M123,97.5c-12.2,0-20.7,8.2-20.7,19.9c0,11.5,8.6,19.8,20.6,19.8c11.6,0,20.7-8.5,20.7-19.4C143.6,106,135,97.5,123,97.5z
		 M133.5,117.7c0,1.3-0.2,2.6-0.5,3.7c-2.6-2.5-5.1-5.1-7.7-7.7c-0.2-0.2-0.3-0.5-0.4-0.8c0-2.3,0-4.5,0-6.8
		C130.4,107,133.5,111.1,133.5,117.7z M120.8,106.2c0,2.2,0,4.4,0,6.6c0,0.3-0.1,0.7-0.3,0.9c-2.5,2.6-5.1,5.1-7.6,7.7
		c-0.4-1.2-0.6-2.5-0.6-4C112.3,111.4,115.6,107.1,120.8,106.2z M115,125.3l5.8-5.7v8.2l0,0v0.8C118.4,128.1,116.4,127,115,125.3z
		 M125.1,128.6v-0.8v-0.3v-7.9l5.8,5.8C129.4,127,127.4,128.1,125.1,128.6z"/>
	<path d="M220.8,82.8v19.5c-3.5-3.3-6.9-4.8-11.7-4.8c-4.6,0-9.2,1.9-12.9,5.2c-4.1,3.7-6,8.7-6,15.1c0,7.7,3.3,13.7,8.7,16.9
		c1.5,0.2,2.9,0.8,4,1.7c0.1,0,0.2,0.1,0.3,0.1c0-1.1,0.3-2.1,1.2-2.7c1-0.6,2.2-0.8,3.3-0.3c0.1-2.4,1.7-4.6,3.8-5.8
		c-4.8-0.3-8.4-4.5-8.4-9.8c0-5.9,3.8-10.3,9-10.3c5,0,8.7,4.4,8.7,10.3c0,4.2-2.2,7.7-5.4,9.1c2.8,0.4,5.2,2.5,5.9,5.3
		c1.5-1,3.4-0.2,4.3,1.3c0.4,0.7,0.6,1.4,0.6,2.2h6.7v-53L220.8,82.8z"/>
	<path d="M214.5,126.9c3.1,0,6.1,2.3,6.8,5.4c0.4-0.3,0.9-0.4,1.4-0.4c1.1,0,2.2,0.7,2.9,1.8c0.9,1.5,0.7,3.5-0.1,5.1
		s-2.1,2.9-3.3,4.1c1.1-0.2,2.2-0.6,3.3-0.6c0.3,0,0.7,0,1,0.1c1.5,0.3,2.9,1.4,3.1,2.9c0.2,1.3-0.2,2.6-1,3.7l0,0
		c-0.4,0.7-1.1,1.1-1.9,1.4c-0.3,0.1-0.7,0.1-1.1,0.1c-1.1,0-2.3-0.4-3.4-0.4c-0.2,0-0.3,0-0.5,0l-2.8,0.3c-0.1,0-0.3,0-0.5,0
		c-0.8,0-1.6-0.2-2.3-0.5c-1.7,1-3.7,1.5-5.7,1.5c-2.1,0-4.2-0.6-5.8-1.8c-1.5,0.7-3.2,0.9-4.9,0.9c-1.4,0-2.8-0.1-4.1-0.3
		c-1.3-0.1-2.6-0.3-3.9-0.6c-0.3,0.4-0.8,0.5-1.4,0.5c-0.5,0-1-0.1-1.4-0.4c-0.6,0.6-1.5,0.7-2.3,0.7c-0.5,0-1,0-1.5-0.1l-11.9-1.5
		c-1.4,0.1-2.9,0.1-4.3,0.1c-3.8,0-7.5-0.4-11.2-2.5l0,0c2.4,0.8,4.4,1.5,6.4,1.7c0.6,0,1.1,0.1,1.7,0.1c3.5,0,6.9-1,11-2.7
		c1.1-0.5,2.3-1,3.5-1.2c0.2,0,0.4,0,0.6,0c1,0,2.1,0.3,2.7,1.1c0.2-0.4,0.6-0.6,1-0.6c0.3,0,0.6,0.1,0.9,0.3
		c0.4-0.8,1.2-1.4,2.1-1.4h0.1c0.9,0,1.7,0.5,2.1,1.2c-1-3.3,0.5-7.3,3.5-9.1c1.2-0.8,2.7-1.2,4.2-1.1c2,0,4,0.7,5.5,2.1
		c0-1.1,0.3-2.3,1.2-2.9c0.6-0.4,1.2-0.6,1.9-0.6c0.5,0,0.9,0.1,1.3,0.3c0.2-3.3,3-6.2,6.3-6.5C214.1,126.9,214.2,126.9,214.5,126.9
		 M214.5,124.1L214.5,124.1c-0.3,0-0.5,0-0.8,0c-2.3,0.2-4.5,1.3-6.1,3c-0.9,0.9-1.6,2.1-2.1,3.3c-1,0.1-1.9,0.5-2.7,1
		c-0.4,0.3-0.8,0.7-1.2,1.1c-1.3-0.5-2.6-0.7-4-0.7c-4.5-0.1-8.5,2.7-10,6.9c-0.3,0.7-0.5,1.4-0.6,2.2c-0.9,0.1-1.8,0.5-2.5,1.1
		c-0.3,0-0.6,0-0.8,0.1c-0.9-0.4-1.8-0.6-2.8-0.6c-0.3,0-0.7,0-1,0.1c-1.5,0.2-2.7,0.7-3.8,1.2l-0.4,0.2c-4.2,1.7-7.1,2.5-10,2.5
		c-0.5,0-1,0-1.4-0.1c-1.6-0.1-3.2-0.7-5.2-1.4l-0.6-0.2l-1,2.9l-1.2,2.2c4.5,2.5,9.1,2.9,12.6,2.9c1.4,0,2.8-0.1,4.2-0.1l11.6,1.5
		c0.6,0.1,1.2,0.1,1.8,0.1c0.9,0,1.8-0.1,2.6-0.4c0.4,0.1,0.7,0.1,1.1,0.1c0.6,0,1.3-0.1,1.9-0.3c1.1,0.2,2.1,0.3,3.1,0.4
		c1.5,0.2,3,0.3,4.5,0.3s3.1-0.2,4.5-0.6c1.9,1,4,1.5,6.2,1.5c2.1,0,4.1-0.4,6-1.3c0.7,0.2,1.4,0.3,2.1,0.3c0.3,0,0.5,0,0.8,0h0.5
		l2.3-0.2c0,0,0.1,0,0.2,0c0.4,0,0.9,0.1,1.3,0.1c0.7,0.1,1.4,0.2,2.1,0.2c0.6,0,1.2-0.1,1.8-0.2c0.8-0.3,1.6-0.7,2.3-1.3h0.2
		l0.8-1.1c1.2-1.6,1.8-3.7,1.5-5.8c-0.3-2.2-2.1-4.1-4.4-4.9c1.3-2.6,1.3-5.5,0-7.7c-1.1-1.9-3-3-5-3.1
		C221.2,126.1,217.9,124.1,214.5,124.1L214.5,124.1z"/>
	<circle cx="237.7" cy="177.6" r="2.4"/>
	<path d="M237.9,155.9c-12.9,0-21.8,8.6-21.8,20.9c0,12.1,9.1,20.8,21.7,20.8c12.2,0,21.8-8.9,21.8-20.4
		C259.5,164.8,250.4,155.9,237.9,155.9z M246.6,179.2c-0.8,0.2-1.6,0.3-2.3,0.4c0.6,0.5,1.2,1.1,1.7,1.7c2.1,2.9,1.3,5.2-0.6,6.6
		c-1.9,1.4-4.3,1.4-6.4-1.5c-0.4-0.7-0.8-1.4-1.1-2.1c-0.3,0.8-0.7,1.5-1.1,2.1c-2.1,2.9-4.5,2.9-6.4,1.4c-1.9-1.4-2.7-3.7-0.6-6.6
		c0.5-0.6,1.1-1.2,1.7-1.7c-0.8,0-1.6-0.2-2.4-0.4c-3.3-1.1-4.1-3.4-3.4-5.7c0.7-2.3,2.7-3.7,6.1-2.6c0.7,0.3,1.5,0.6,2.1,1.1
		c-0.2-0.8-0.3-1.6-0.4-2.4c0-3.5,2-4.9,4.3-4.9s4.3,1.4,4.3,5c0,0.8-0.2,1.6-0.4,2.3c0.7-0.4,1.4-0.8,2.1-1.1
		c3.4-1.1,5.3,0.3,6.1,2.6C250.7,175.9,249.9,178.1,246.6,179.2z"/>
	<path d="M38.8,200.1v13.3H164v-13.3H38.8z M51.6,209.9l-0.5-1.4h-2.8l-0.6,1.4h-0.8l2.4-6.2h0.9l2.3,6.2H51.6z M61.4,209.5
		c-0.4,0.2-0.8,0.3-1.6,0.3H58v-6.2h1.8c1.3,0,2,0.6,2,1.6c0,0.4-0.1,0.7-0.4,1c-0.2,0.2-0.4,0.3-0.6,0.4c0.3,0,0.5,0.1,0.7,0.3
		c0.4,0.3,0.5,0.7,0.5,1.2C62.1,208.7,61.9,209.2,61.4,209.5L61.4,209.5z M68.2,209.9l-0.5-1.4h-2.8l-0.6,1.4h-0.8l2.3-6.2h0.9
		l2.3,6.2H68.2z M73.9,209.9h-3v-6.2h0.8v5.5h2.2V209.9z M78.9,209.9h-3v-6.2h0.8v5.5h2.2V209.9z M85.1,209.9l-0.5-1.4h-2.8
		l-0.6,1.4h-0.8l2.3-6.2h0.9l2.3,6.2H85.1z M91.5,209.1c-0.5,0.5-1.3,0.7-2.2,0.7h-1.5v-6.2h1.6c1.9,0,3,1.1,3,3
		C92.5,207.7,92.1,208.6,91.5,209.1L91.5,209.1z M103.2,209.2c-0.5,0.5-1.3,0.8-2,0.8c-0.9,0-1.8-0.4-2.4-1.2
		c-0.4-0.6-0.7-1.3-0.7-2c0-1.9,1.3-3.3,3.1-3.3c0.9,0,1.7,0.4,2.3,1.1c0.5,0.6,0.7,1.3,0.7,2.2
		C104.3,207.7,103.9,208.6,103.2,209.2L103.2,209.2z M109.6,204.3h-2.4v2.1h2.4v0.7h-2.4v2.8h-0.8v-6.2h3.2L109.6,204.3z
		 M118.7,204.3h-2.5v2.1h2.5v0.7h-2.5v2.1h2.5v0.7h-3.2v-6.2h3.2V204.3z M123.6,209.2c0.7,0,1.2-0.3,1.7-0.9l0.5,0.5
		c-1.1,1.2-2.9,1.4-4.2,0.4c-0.1-0.1-0.2-0.1-0.2-0.2c-0.5-0.6-0.8-1.5-0.8-2.3c0-1.9,1.3-3.2,3-3.2c0.5,0,1.1,0.1,1.6,0.4
		c0.3,0.2,0.5,0.4,0.7,0.6l-0.5,0.5c-0.6-0.6-1.1-0.8-1.7-0.8c-1.3,0-2.2,1.1-2.2,2.5C121.3,208.2,122.3,209.2,123.6,209.2
		L123.6,209.2z M129.3,210c-0.8,0-1.3-0.3-1.7-0.8c-0.1-0.2-0.2-0.5-0.2-0.8v-0.1h0.8c0,0.7,0.4,1.1,1.1,1.1s1.2-0.4,1.2-1.1
		c0-0.5-0.3-0.8-1.3-1.1c-0.7-0.3-1-0.4-1.3-0.6c-0.3-0.3-0.5-0.7-0.5-1.2c0-1.1,0.8-1.8,1.9-1.8c1.1,0,1.8,0.7,1.8,1.8h-0.8
		c0-0.2,0-0.4-0.1-0.6c-0.2-0.3-0.6-0.5-0.9-0.4c-0.5,0-1,0.4-1.1,0.9c0,0,0,0,0,0.1c0,0.3,0.1,0.5,0.4,0.7c0.2,0.1,0.4,0.2,1,0.4
		c0.7,0.2,1,0.4,1.2,0.7c0.3,0.3,0.4,0.7,0.4,1.1C131.3,209.2,130.5,210,129.3,210L129.3,210z M136.7,204.3h-1.6v5.6h-0.8v-5.6h-1.6
		v-0.7h4L136.7,204.3L136.7,204.3z M142.1,209.9l-0.5-1.4h-2.8l-0.6,1.4h-0.8l2.3-6.2h0.9l2.3,6.2H142.1z M147.5,209.2
		c0.7,0,1.2-0.3,1.7-0.9l0.5,0.5c-1.1,1.2-2.9,1.4-4.2,0.4c-0.1-0.1-0.2-0.1-0.2-0.2c-0.5-0.6-0.8-1.5-0.8-2.3c0-1.9,1.3-3.2,3-3.2
		c0.5,0,1.1,0.1,1.6,0.4c0.3,0.2,0.5,0.4,0.7,0.6l-0.5,0.5c-0.6-0.6-1.1-0.8-1.7-0.8c-1.3,0-2.2,1.1-2.2,2.5
		C145.3,208.2,146.3,209.2,147.5,209.2L147.5,209.2z M153.8,207.1v2.8H153v-2.7l-2.1-3.5h0.9l1.6,2.7l1.6-2.7h0.9L153.8,207.1z"/>
	<path d="M59.9,207.1h-1v2.2h0.8c0.7,0,0.9,0,1.2-0.2s0.4-0.5,0.4-0.9C61.3,207.4,60.9,207.1,59.9,207.1z"/>
	<polygon points="65.1,207.7 67.4,207.7 66.3,204.6 	"/>
	<polygon points="82.1,207.7 84.4,207.7 83.2,204.6 	"/>
	<path d="M89.5,204.3h-0.8v4.9H89c1.1,0,1.5-0.1,2-0.5c0.6-0.4,0.8-1.1,0.8-2.1C91.7,205.1,90.9,204.3,89.5,204.3z"/>
	<path d="M101.2,204.2c-1.3,0-2.3,1.1-2.3,2.5s1,2.5,2.2,2.5c0.6,0,1.2-0.3,1.7-0.8c0.4-0.5,0.6-1.1,0.6-1.7c0-0.8-0.2-1.4-0.7-1.9
		C102.3,204.5,101.8,204.3,101.2,204.2z"/>
	<polygon points="48.5,207.7 50.8,207.7 49.7,204.6 	"/>
	<path d="M60.7,206.2c0.3-0.2,0.4-0.5,0.4-0.8c0-0.4-0.2-0.7-0.5-0.9c-0.2-0.1-0.5-0.1-1.1-0.1h-0.6v2.1h0.8
		C60.2,206.4,60.5,206.3,60.7,206.2z"/>
	<polygon points="139,207.7 141.3,207.7 140.2,204.6 	"/>
	<path d="M110,153.6c2.4-3.1,3.3-7.4,3.3-12c-3.4-0.1-11.6,1-13.7,4.6c-1.4-2.8-3.7-5.2-7.1-5.4c-4.5-0.3-5.9,4.1-9.3,5.9
		c-0.1,0.2-0.3,0.4-0.4,0.6c2.9,2.3,2.9,6.4,5.4,9.4c4.9,6.1,14.2,4.9,19.2,2c4.9-2.9,6.7-5.2,6.7-5.2S110.9,154.1,110,153.6z
		 M89.1,148.1L89.1,148.1z M89.2,148.1L89.2,148.1c-1.5,0-1.5-2.4,0-2.4C90.7,145.8,90.7,148.2,89.2,148.1L89.2,148.1z"/>
	<path d="M92.1,159.8c-0.1-0.1-0.2-0.2-0.3-0.3c-0.9-0.9-2-1.6-3.1-2.2C89.7,158.4,90.8,159.2,92.1,159.8z"/>
	<path d="M85.8,158.7c-0.7-0.8-1.2-1.8-1.7-2.7c-0.7-0.1-1.3-0.1-2-0.1c-4.6,0-7.2,1.6-9.7,5.7v-4.3H59.9v37.9h12.5v-23
		c0-3.7,2.1-6.1,5.3-6.1c3.2,0,5.2,2.2,5.2,5.9v23.2h12.5V172c0-3.6-0.3-6.2-0.9-8.2C90.9,163.1,87.9,161.3,85.8,158.7z"/>
	<path d="M131.6,140.6v20.2c-3.6-3.4-7.1-4.9-12-4.9c-1.3,0-2.5,0.1-3.7,0.4c-1,1.1-3.2,3-6.9,5.2c-1.5,0.9-3.1,1.5-4.8,2
		c-2.8,3.5-4.1,8-4.1,13.3c0,12,7.7,20,19.3,20c3,0,5.7-0.6,7.9-1.6c1.7-0.8,2.7-1.7,4.4-4.1v4.3H144v-54.7L131.6,140.6z
		 M122.6,186.9c-5.2,0-9.3-4.4-9.3-10.2c0-6.1,3.9-10.6,9.3-10.6c5.2,0,9,4.5,9,10.6C131.6,182.5,127.6,186.9,122.6,186.9z"/>
	<path d="M82.5,141.4c-0.7-0.7-1.7-0.8-1.7-0.8s0.1,1,0.8,1.7c0.4,0.3,0.8,0.6,1.2,0.7c0.4,0.4,0.7,1,0.7,1.6c0,0.7-0.3,1.3-0.6,1.8
		c-0.6,1-1.6,2-2.6,2.6c-0.2,0.2,0,0.6,0.2,0.4c0.9-0.6,1.6-1.3,2.3-2.1c0.2-0.2,0.3-0.4,0.4-0.6c0.8-1.3,1-2.7-0.1-3.9
		C83.1,142.3,82.8,141.8,82.5,141.4z"/>
	<path d="M85.2,142.2c0.4-0.9,0.1-1.9,0.1-1.9s-0.9,0.5-1.3,1.4s-0.1,1.9-0.1,1.9S84.9,143.1,85.2,142.2z"/>
	<path d="M81.6,144.9c1,0,1.7-0.7,1.7-0.7s-0.8-0.6-1.8-0.5s-1.7,0.7-1.7,0.7S80.6,144.9,81.6,144.9z"/>
	<path d="M249.5,204.3h-0.8v4.9h0.3c1.1,0,1.5-0.1,2-0.5c0.6-0.4,0.8-1.1,0.8-2.1C251.8,205.1,251,204.3,249.5,204.3z"/>
	<path d="M230,204.3c-0.7,0-1.3,0.6-1.3,1.3l0,0c0,0.7,0.6,1.2,1.3,1.2s1.2-0.6,1.2-1.3S230.6,204.3,230,204.3z"/>
	<polygon points="224.8,207.8 224.8,205.4 223.1,207.8 	"/>
	<path d="M215.9,200.1v13.3h43.8v-13.3H215.9z M226.3,208.4h-0.7v1.4h-0.7v-1.4h-2.5v-0.6l3.2-4.3v4.3h0.7V208.4z M231.5,206.9
		l-1.8,2.9h-0.9l1.6-2.5c-0.2,0.1-0.4,0.1-0.6,0.1c-1,0-1.9-0.8-1.9-1.8l0,0c0-1.1,0.9-2,2-2l0,0c1.1,0,1.9,0.8,2,1.9v0.1
		C231.9,206,231.8,206.4,231.5,206.9L231.5,206.9z M234.8,202.8h-0.7v2.5h-0.4v-2.5H233v-0.3h1.8V202.8z M237.5,205.3h-0.4v-1.2
		h-1.4v1.2h-0.4v-2.8h0.4v1.3h1.4v-1.3h0.4V205.3z M245.4,204.3h-2.5v2.1h2.5v0.7h-2.5v2.1h2.5v0.7h-3.3v-6.2h3.3V204.3z
		 M251.6,209.1c-0.5,0.5-1.3,0.7-2.2,0.7h-1.5v-6.2h1.6c1.9,0,3,1.1,3,3C252.6,207.7,252.2,208.6,251.6,209.1L251.6,209.1z
		 M255.3,209.9c-0.3,0-0.5-0.2-0.5-0.5s0.2-0.5,0.5-0.5s0.5,0.2,0.5,0.5C255.7,209.7,255.5,209.9,255.3,209.9L255.3,209.9
		L255.3,209.9z"/>
</g>
</svg>
