<?xml version="1.0" encoding="utf-8"?>
<!-- Generator: Adobe Illustrator 23.0.1, SVG Export Plug-In . SVG Version: 6.00 Build 0)  -->
<svg version="1.1" id="Layer_1" xmlns="http://www.w3.org/2000/svg" xmlns:xlink="http://www.w3.org/1999/xlink" x="0px" y="0px"
	 viewBox="0 0 1378.6 886" style="enable-background:new 0 0 1378.6 886;" xml:space="preserve">
<path d="M268.5,67.3l-86.9,178.1L93.9,67.2l-93.7,0L0.1,398.1h80.4l0.1-189l101.1,202.5l100.7-202.4l0,189h80.4l0.1-330.8
	L268.5,67.3z"/>
<rect x="0.1" y="428.4" width="82.9" height="341.3"/>
<path d="M741.4,505.3c13.3,0,24.8-5.6,32.3-14.7l-31.1-25.2l40.2,1.9c0.1-1,0.1-2,0.1-2.9c0-24.6-16.9-42-40.9-42
	c-24.5,0-42,17.4-42,41.4S717.3,505.3,741.4,505.3z"/>
<rect x="702.5" y="532.9" width="77.8" height="236.9"/>
<path d="M1002.3,533v24c-18.9-23-41.4-33.3-73.2-33.3c-73.2,0-122.3,52.2-122.3,129.9c0,33.8,9.7,64,27.1,84.9
	c21.5,25.5,53.1,40.3,86.5,40.4c33.8,0,60.9-11.8,81.9-35.3v11.8c0,41.4-23.5,66-63.5,66c-27.6,0-51.7-10.8-71.1-32.3l-47.1,48.1
	c35.3,32.8,75.2,48.6,122.3,48.6c42,0,79.3-13.8,103.3-37.8c23-23,31.7-52.2,31.8-104.4l0-210.8H1002.3z M991,692.1
	c-10.2,11.3-26.6,18.4-44,18.4c-33.8,0-57.3-25.1-57.3-60.4c0-34.3,23-57.8,56.3-57.8c34.8,0,55.2,24.6,55.2,65.5
	C1001.2,672.7,997.6,684.5,991,692.1z"/>
<path d="M5.2,39.3H0.3V0.7h4.9L5.2,39.3z"/>
<path d="M22.6,39.3h-4.9V0.7h4.9L22.6,39.3z"/>
<path d="M45.4,39.3h-4.9V4.8h-9.8V0.7h24.5v4.2h-9.8L45.4,39.3z"/>
<path d="M94.6,0.7c7.9,0,12.3,3.7,12.3,10.3c0.1,2.3-0.7,4.5-2.2,6.2c-1.1,1.2-2.4,2-3.9,2.5c4.6,0.5,7.9,4.6,7.6,9.2
	c0.1,3.3-1.4,6.5-4.2,8.5c-2.3,1.4-4.8,2-9.6,2H83.7V0.7H94.6z M88.6,18h4.9c3,0,4.9-0.5,6.3-1.6c1.6-1.3,2.4-3.2,2.4-5.3
	c0.1-2.3-1.1-4.5-3.1-5.6c-1.4-0.7-3-0.9-6.5-0.9h-4L88.6,18z M88.6,35.3h4.9c4.1,0,5.6-0.3,7.3-1.3c1.8-1,2.8-2.9,2.8-5.5
	c0-4.6-2.7-6.7-8.9-6.7h-6.1L88.6,35.3z"/>
<path d="M149.6,6.7c3.1,3.6,4.5,7.9,4.5,13.7c0.1,5.7-2.2,11.2-6.5,15c-3.4,3-7.8,4.6-12.3,4.6c-5.8,0-11.3-2.7-14.9-7.2
	c-2.7-3.6-4.1-8-4-12.6c0-11.5,8.1-20.2,19.1-20.2C140.8,0.1,146,2.5,149.6,6.7z M121.2,20c0,9,5.9,15.5,13.9,15.5
	c3.9,0,7.7-1.7,10.3-4.6c2.4-3,3.7-6.7,3.7-10.6c0-5.1-1.4-8.9-4.4-11.8c-2.5-2.5-5.9-3.9-9.5-4C127.2,4.5,121.2,11.1,121.2,20z"/>
<path d="M169.2,39.3h-4.9V0.7h4.8l14.3,28.9l14.5-28.9h4.8v38.6h-4.9V11.1l-14.4,28.6L169.2,11V39.3z"/>
<path d="M226,0.7c7.9,0,12.3,3.7,12.3,10.2c0.1,2.3-0.7,4.5-2.2,6.3c-1.1,1.2-2.4,2-3.9,2.5c4.6,0.5,7.9,4.6,7.6,9.2
	c0.1,3.3-1.4,6.5-4.2,8.5c-2.3,1.5-4.8,2-9.6,2h-10.9V0.7L226,0.7z M220,18h4.9c3,0,4.9-0.5,6.3-1.6c1.6-1.3,2.4-3.2,2.4-5.3
	c0.1-2.3-1.1-4.5-3.1-5.6c-1.4-0.7-3-0.9-6.5-0.9h-4L220,18z M220,35.4h4.9c4.1,0,5.6-0.3,7.3-1.3c1.9-1,2.8-2.9,2.8-5.5
	c0-4.6-2.7-6.6-8.9-6.6H220V35.4z"/>
<path d="M253.7,30.4l-3.5,8.9h-5l14.5-38.6h5.8l14.2,38.6h-5.4l-3.2-8.9L253.7,30.4z M262.5,6.9l-7.3,19.4h14.3L262.5,6.9z"/>
<path d="M297.5,39.3h-4.9v-17L279.4,0.7h5.7l10,16.6l9.8-16.5h5.8l-13.1,21.6L297.5,39.3z"/>
<path d="M319.8,13.2l-3.2-1.1L321.3,0l3.8,1.4L319.8,13.2z"/>
<path d="M337.1,29c0.2,4.4,2.6,6.7,6.8,6.7s7.4-2.7,7.4-6.5c0-3.4-1.7-4.9-7.8-6.9c-4.6-1.6-6.1-2.3-7.8-3.9c-2-1.9-3.1-4.5-3-7.3
	c0-6.5,4.7-11,11.5-11s11.3,4.3,11.5,11.1h-4.9c0.1-1.4-0.2-2.8-0.9-4c-1.3-1.8-3.5-2.8-5.7-2.7c-3.4-0.2-6.3,2.4-6.5,5.8
	c0,0.2,0,0.4,0,0.5c0,1.8,0.8,3.4,2.2,4.5c1.2,0.9,2.3,1.3,6.2,2.7c4.1,1.5,6.1,2.5,7.6,4.2c1.7,1.9,2.6,4.3,2.6,6.8
	c0,6.6-4.9,11.2-12.1,11.2c-4.9,0-8.3-1.7-10.3-5.2c-0.9-1.5-1.4-3.2-1.3-5V29H337.1z"/>
<path d="M1327.2,390.1V381c0-10.4,6.3-16.6,16.7-16.6c5.8,0,10.7,1.9,13.8,5.4c2.7,3,4,7,4,12v8.4L1327.2,390.1z M1357.9,385.8v-1.5
	c0-5.8-0.6-8.3-2.6-10.8c-2.5-3.1-6.3-4.6-11.4-4.6c-8.3,0-13.1,4.4-13.1,12.3v4.6L1357.9,385.8z"/>
<path d="M1342.4,350.9v-13.6h3.7v13.6h11.8v-13.6h3.7v17.9h-34.4v-17.9h3.7v13.6L1342.4,350.9z"/>
<path d="M1356.5,301c3.9,3,6,7.7,5.8,12.6c0.1,4.5-1.7,8.8-5.1,11.8c-3.6,3-8.1,4.6-12.8,4.6c-10.3,0-17.9-7-17.9-16.5
	c0-3,0.8-6,2.3-8.6c1-1.5,2.2-2.9,3.6-4l2.8,3c-3.5,3.4-4.7,5.9-4.7,9.5c0,7,5.8,12.1,13.9,12.1s13.8-5.2,13.8-12.3
	c0-3.8-1.5-6.7-4.8-9.3L1356.5,301z"/>
<path d="M1342.5,289v-13.6h3.7V289h11.8v-13.6h3.7v17.9h-34.4v-17.9h3.7V289H1342.5z"/>
<path d="M1361.7,261.5v4.3h-34.4v-4.3l25.8-12.7l-25.8-12.9v-4.2h34.4v4.3h-25.2l25.6,12.8l-25.6,12.7L1361.7,261.5z"/>
<path d="M1327.3,210.8c0-7,3.3-11,9.1-11c2-0.1,4,0.7,5.6,2c1,0.9,1.8,2.2,2.2,3.5c0.2-1.4,0.7-2.8,1.7-3.9c1.6-1.9,4-3,6.6-2.8
	c3-0.1,5.8,1.3,7.5,3.7c1.3,2,1.8,4.2,1.8,8.6v9.7h-34.4L1327.3,210.8z M1342.7,216.2v-4.4c0-2.7-0.4-4.4-1.4-5.6
	c-1.2-1.4-2.9-2.2-4.7-2.1c-2.1-0.1-4,0.9-5,2.7c-0.6,1.2-0.8,2.7-0.8,5.8v3.6L1342.7,216.2z M1358.2,216.2v-4.3
	c0-3.6-0.3-5-1.1-6.5c-0.9-1.6-2.6-2.5-4.9-2.5c-4.1,0-5.9,2.4-5.9,7.9v5.4H1358.2z"/>
<path d="M1342.5,185.6V172h3.7v13.6h11.8V172h3.7v18h-34.4v-18h3.7v13.6H1342.5z"/>
<path d="M1361.7,158.2v4.3h-34.4v-9.4c0-7.3,3.8-11.8,10-11.8c3.6-0.2,7,1.8,8.7,5c0.9,1.6,1.2,3.2,1.4,6.4l14.3-13.4v5.5
	l-14.5,13.4L1361.7,158.2z M1344.3,153.8c0-5.2-2.4-8-6.7-8s-6.6,2.6-6.6,7.3v5.1h13.3V153.8z"/>
<path d="M1263.5,282.1v2.5h-17.6v5h-2.1v-12.5h2.1v5L1263.5,282.1z"/>
<path d="M1263.5,270.5v2.5h-19.7v-2.5h8.9v-9.6h-8.9v-2.5h19.7v2.5h-8.7v9.6L1263.5,270.5z"/>
<path d="M1263.6,91.4v2.5H1246v5h-2.1V86.4h2.1v5H1263.6z"/>
<path d="M1263.6,79.7v2.5h-19.7v-2.5h8.9v-9.6h-8.9v-2.5h19.7v2.5h-8.7v9.6L1263.6,79.7z"/>
<path d="M1327.2,123.4l0.9-2.8l10.4,4l-1.2,3.3L1327.2,123.4z"/>
<path d="M1299.2,355.4h6.9V391l-31.6-22.1c-9.2-6.4-12.1-7.8-15.9-7.8c-5.5,0-9.4,4.4-9.4,10.5c0,4.3,2,7.8,5.3,9.2
	c1.8,0.8,3.2,1,6.6,1.1v7.1c-12.1-0.4-18.7-6.7-18.7-18.1c0-10.4,6.5-17.6,15.7-17.6c5.3,0,10,1.9,17.4,7.2l23.7,17L1299.2,355.4z"
	/>
<path d="M1269.1,322.9c-0.8-2-1.2-4.1-1.2-6.2c-0.1-10.3,8.2-18.7,18.4-18.7c0.2,0,0.4,0,0.6,0c11.3,0.1,20.4,9.2,20.4,20.4
	c0,11.3-8.9,20.1-20.4,20.1c-4.7,0-8.2-1.2-14-4.9l-29.2-18.2v-8.8L1269.1,322.9z M1286.9,331c7.4,0,13.3-5.6,13.3-12.7
	c0-7.1-5.8-12.9-12.9-12.8c0,0,0,0-0.1,0c-7.1,0.1-12.7,5.9-12.6,13C1274.7,325.2,1280.1,330.7,1286.9,331L1286.9,331z"/>
<path d="M1286.4,224.3v19.7h-6.6v-19.7H1286.4z"/>
<path d="M1299.2,165.5h6.9V201l-31.6-22c-9.2-6.4-12.1-7.8-15.9-7.8c-5.5,0-9.4,4.4-9.4,10.6c0,4.3,2,7.8,5.3,9.2
	c1.8,0.8,3.2,1,6.6,1.1v7.1c-12.1-0.4-18.7-6.8-18.7-18.1c0-10.4,6.5-17.6,15.7-17.6c5.3,0,10,1.9,17.4,7.2l23.7,17L1299.2,165.5z"
	/>
<path d="M1280.8,124.6c0.8,1.9,1.2,4,1.2,6.1c0.1,10.4-8.3,18.8-18.7,18.9c-0.2,0-0.4,0-0.5,0c-11.2,0-20.2-9-20.3-20.2
	c0-0.1,0-0.2,0-0.4c-0.2-10.8,8.3-19.8,19.1-20c0.3,0,0.6,0,0.9,0c4.8,0,8.6,1.2,13.8,4.4l29.8,18.2v8.8L1280.8,124.6z
	 M1262.5,142.1c7,0,12.8-5.7,12.8-12.7c0-7-5.7-12.8-12.7-12.8c-7.3,0-13,5.5-13,12.5c-0.1,7.1,5.7,13,12.8,13
	C1262.4,142.1,1262.5,142.1,1262.5,142.1z"/>
<path d="M1338.8,110.8h-3.8l-7.4-11.3h33.5v3.9h-27.2L1338.8,110.8z"/>
<path d="M1347.8,74.1c0.4,1,0.7,2.1,0.7,3.2c0,5.4-4.3,9.9-9.8,9.9c-0.1,0-0.2,0-0.3,0c-5.9,0-10.6-4.7-10.6-10.6c0-0.1,0-0.1,0-0.2
	c-0.1-5.7,4.4-10.4,10-10.5c0.1,0,0.3,0,0.4,0c2.6,0,5.1,0.8,7.2,2.3l15.7,9.6v4.6L1347.8,74.1z M1338.3,83.3
	c3.7-0.1,6.6-3.1,6.6-6.8c-0.1-3.7-3.1-6.6-6.8-6.6c-3.6,0.1-6.5,2.9-6.6,6.5C1331.5,80.2,1334.4,83.3,1338.3,83.3
	C1338.2,83.3,1338.2,83.3,1338.3,83.3z"/>
<path d="M800.2,159.6c-76.4,0-129.5,51-129.5,124c0,71.9,54,123.5,128.4,123.5c72.4,0,129.5-53,129.5-121
	C928.7,212.7,874.6,159.6,800.2,159.6z M858.8,268.2c-0.1,4.6-0.7,9.3-2,13.7c-1.9,6.5-5.2,12.5-9.7,17.6
	c-4.1,4.6-8.4,8.9-13.1,12.9c-7.7,6.8-15.6,13.5-23.2,20.4c-3.6,3.3-7.2,6.6-10.8,9.9c-0.3,0.3-0.4,0.3-0.7,0
	c-8.8-8.4-17.9-16.3-27-24.2c-5.6-4.9-11.3-9.7-16.5-15c-4-3.9-7.4-8.4-10-13.3c-2.4-4.7-4-9.8-4.7-15.1c-0.5-3.6-0.6-7.2-0.5-10.7
	c0.3-13.8,9.9-25.6,23.4-28.5c11.1-2.4,20.8,0.5,29,8.1c2.5,2.3,4.6,5,6.4,7.9c0.1,0.1,0.2,0.3,0.3,0.5c1.1-1.8,2.3-3.6,3.7-5.2
	c4.3-5.3,10.2-9.2,16.8-11c16.4-4.4,34.2,4.8,38,23.1C858.7,262.1,858.9,265.2,858.8,268.2L858.8,268.2z"/>
<path d="M525.9,159.6c-76.4,0-129.5,51-129.5,124c0,71.9,54,123.5,128.4,123.5c72.4,0,129.5-53,129.5-121
	C654.4,212.7,600.3,159.6,525.9,159.6z M591.4,285.5c0,8.3-1.1,16.1-3.3,23.2c-16-15.9-31.9-31.9-47.8-47.9c-1.3-1.3-2-3-2.2-4.8
	c-0.1-14.1-0.1-28.3-0.1-42.4C571.6,218.5,591.4,244.6,591.4,285.5z M512.1,213.9c0,13.6,0,27.3-0.1,40.9c0,2.1-0.7,4.1-2,5.7
	c-15.8,16-31.7,31.9-47.7,47.8c-2.3-7.6-3.5-15.8-3.5-24.7C458.9,246.2,479.4,219.7,512.1,213.9z M475.6,332.8l36.3-35.8v51.4
	c0,0,0,0,0,0v4.9C497.1,350.6,484.7,343.4,475.6,332.8z M538.5,353.4v-5v-2.1v-49.2l36.1,36.5C565.4,343.9,553.1,350.8,538.5,353.4z
	"/>
<path d="M1136,67.5v122c-21.8-20.8-43.1-29.8-72.9-29.8c-28.8,0-57.5,11.9-80.4,32.2c-25.3,23.3-37.7,54.6-37.7,94.3
	c0,48.1,20.3,85.4,54.1,105.2c9.2,1.2,17.8,4.9,25.1,10.7c0.7,0.2,1.3,0.4,2,0.6c0-6.7,2-13.3,7.6-17.1c6.1-4,13.7-4.7,20.4-1.9
	c0.7-15.1,10.5-29,23.8-36.1c-30-1.9-52.6-27.9-52.6-61.4c0-36.7,23.8-64,56.1-64c31.3,0,54.6,27.3,54.5,64c0,26.3-13.7,48-33.7,57
	c17.2,2.5,32.7,15.9,36.6,32.9c9.1-6.3,21.1-1.3,26.7,8.2c2.4,4.2,3.7,9,3.7,13.9h42.1l0.1-330.9L1136,67.5z"/>
<path d="M1096.6,342.9c19.3,0,37.9,14.4,42.2,33.4c2.6-1.8,5.7-2.8,8.9-2.8c6.9,0,13.9,4.4,17.8,11c5.6,9.5,4.3,21.9-0.6,31.8
	s-12.8,17.9-20.6,25.7c7.1-1.3,13.9-3.5,20.9-3.5c2.1,0,4.2,0.2,6.2,0.6c9.2,2,17.9,8.7,19.3,18c1,8.2-1.1,16.5-6.1,23.1h-0.1
	c-2.8,4.1-7,7.1-11.8,8.6c-2.1,0.6-4.4,0.9-6.6,0.9c-6.9,0-14.3-2.2-21.3-2.2c-1,0-1.9,0-2.9,0.1l-17.5,1.8
	c-0.9,0.1-1.9,0.1-2.9,0.1c-5,0-10-1-14.6-2.9c-10.9,6.3-23.2,9.6-35.8,9.5c-13.2,0-26.3-3.6-36.5-11.2c-9.5,4.3-19.8,5.6-30.3,5.6
	c-8.6-0.1-17.3-0.8-25.9-1.9c-8.2-0.9-16.4-1.8-24.4-4c-1.8,2.3-5.2,3.3-8.7,3.3c-3,0.1-6-0.8-8.5-2.4c-3.9,3.5-9.1,4.5-14.5,4.5
	c-3.1,0-6.2-0.3-9.2-0.7l-74-9.3c-9,0.4-18,0.8-26.9,0.8c-23.7,0-47.1-2.7-69.9-15.5h-0.1c15,5,27.2,9.2,40,10.4
	c3.5,0.3,7,0.5,10.5,0.5c21.7,0,43.3-6.2,68.9-17c7.1-3,14.2-6.3,21.8-7.3c1.3-0.2,2.7-0.3,4-0.3c6.4,0,12.9,2,17.1,6.7
	c1.2-2.5,3.7-4,6.5-4c2,0,3.9,0.7,5.6,1.8c2.4-5.2,7.5-8.6,13.2-8.9h0.7c5.5,0.1,10.5,3,13.3,7.7c-6-20.9,3.1-45.6,21.6-57
	c7.8-4.7,16.8-7.2,26-7.1c12.6,0,25.2,4.4,34.5,13c-0.2-7.1,1.7-14.3,7.6-18.3c3.6-2.4,7.7-3.6,12-3.6c2.9,0,5.7,0.6,8.4,1.7
	c1-20.5,18.6-38.9,39.1-40.7c1.1-0.1,2.2-0.1,3.4-0.1 M1096.6,325.7L1096.6,325.7c-1.6,0-3.3,0.1-4.9,0.2
	c-14.4,1.4-27.9,8-37.8,18.6c-5.7,5.9-10.2,12.9-13.2,20.5c-6,0.7-11.7,2.9-16.7,6.3c-2.8,1.9-5.3,4.2-7.4,6.9
	c-8-3-16.4-4.6-24.9-4.6c-27.9-0.4-52.9,17-62.2,43.3c-1.6,4.4-2.9,8.9-3.6,13.6c-5.6,0.9-11,3.2-15.4,6.8c-1.8,0.1-3.6,0.3-5.3,0.8
	c-5.5-2.3-11.5-3.5-17.5-3.5c-2.1,0-4.2,0.1-6.3,0.4c-9.1,1.2-17,4.5-23.9,7.5l-2.3,1C829.2,454.4,810.6,459,793,459
	c-3,0-6-0.1-8.9-0.4c-9.8-0.9-19.9-4.3-32.6-8.5l-3.6-1.1l-6.2,18.1l-7.6,13.5c28,15.8,56.6,17.8,78.4,17.8c8.8,0,17.7-0.4,26.2-0.7
	l72.6,9.1c3.8,0.5,7.6,0.8,11.4,0.8c5.5,0.1,11-0.9,16.1-2.8c2.3,0.5,4.6,0.7,6.9,0.7c4,0,8-0.7,11.7-2.1c6.7,1.3,13.2,2,19.5,2.8
	c9.2,1.2,18.5,1.8,27.8,2c9.6,0.1,19.1-1.1,28.3-3.8c11.9,6.2,25.1,9.4,38.5,9.3c12.9,0,25.7-2.8,37.5-8.2c4.2,1,8.6,1.6,12.9,1.6
	c1.6,0,3.1-0.1,4.7-0.2l3.3-0.3l14.3-1.5c0.3,0,0.7,0,1.1,0c2.7,0.1,5.4,0.4,8,0.9c4.4,0.8,8.8,1.2,13.3,1.3c3.8,0,7.7-0.5,11.4-1.5
	c5.3-1.6,10.3-4.3,14.5-7.9h1.3l5.2-7c7.7-10.3,11-23.3,9.3-36.1c-2.1-13.9-12.8-25.7-27.4-30.8c8-16.4,7.9-34.3-0.2-48
	c-6.8-11.6-18.7-19-31.2-19.5C1138.6,338,1118.3,325.7,1096.6,325.7L1096.6,325.7z"/>
<circle cx="1241.9" cy="659.6" r="15"/>
<path d="M1242.8,523.9c-80.4,0-136.3,53.8-136.3,130.5c0,75.7,56.9,130,135.2,130.1c76.3,0,136.3-55.8,136.3-127.4
	C1378,579.8,1321.1,523.9,1242.8,523.9z M1297,669.6c-4.8,1.4-9.7,2.1-14.6,2.3c3.9,3.1,7.4,6.7,10.5,10.7
	c12.9,17.8,8.3,32.2-3.8,40.9s-27.1,8.7-40.1-9.2c-2.8-4.1-5-8.5-6.7-13.2c-1.8,4.7-4.1,9.1-6.9,13.3c-13,17.8-28,17.8-40.1,9
	s-16.6-23.1-3.6-40.9c3-3.9,6.6-7.4,10.4-10.4c-5-0.2-9.9-1.1-14.7-2.5c-20.9-6.8-25.6-21.1-21-35.3s16.9-23,37.8-16.1
	c4.6,1.7,9.1,3.9,13.2,6.7c-1.3-4.8-2.1-9.8-2.2-14.8c0-22,12.2-30.9,27.1-30.9s27,9,27,31c-0.2,4.9-1,9.8-2.3,14.6
	c4.2-2.7,8.7-5,13.4-6.6c21-6.8,33.2,2,37.8,16.3S1317.9,662.8,1297,669.6z"/>
<path d="M0,799.9V883h781.7v-83.1H0z M79.8,860.9l-3.2-9H59.2l-3.6,9h-5.1L65.3,822h5.8l14.3,38.9L79.8,860.9z M141.2,858.9
	c-2.3,1.5-4.8,2-9.7,2h-11V822h11c7.9,0,12.4,3.7,12.4,10.3c0.1,2.3-0.7,4.6-2.2,6.3c-1.1,1.2-2.5,2.1-4,2.5
	c1.6,0.2,3.2,0.8,4.4,1.9c2.2,1.8,3.4,4.6,3.2,7.4C145.5,853.7,143.9,856.9,141.2,858.9L141.2,858.9z M183.4,860.9l-3.2-9h-17.4
	l-3.6,9h-5.1l14.6-38.9h5.8l14.3,38.9L183.4,860.9z M219,860.9h-18.6V822h4.9v34.5H219L219,860.9z M250.1,860.9h-18.6V822h4.9v34.5
	h13.7L250.1,860.9z M289.1,860.9l-3.2-9h-17.4l-3.6,9h-5.1l14.6-38.9h5.8l14.3,38.9L289.1,860.9z M329,856.4
	c-3.4,3-7.9,4.5-13.5,4.5H306V822h10.3c11.7,0,18.8,7.1,18.8,18.8C335.1,847.4,333,852.9,329,856.4L329,856.4z M401.9,856.9
	c-3.4,3-7.9,4.7-12.4,4.7c-5.9,0-11.4-2.7-15-7.3c-2.8-3.6-4.2-8.1-4.1-12.7c0-11.6,8.2-20.3,19.3-20.3c5.5,0.1,10.8,2.5,14.3,6.7
	c3.1,3.7,4.5,8,4.5,13.8C408.6,847.6,406.2,853.1,401.9,856.9L401.9,856.9z M442.2,826.2h-15.1v13h15.2v4.2h-15.2v17.5h-4.9V822
	h20.1L442.2,826.2z M498.6,826.2h-15.3v13h15.3v4.2h-15.3v13.3h15.3v4.2h-20.2V822h20.2L498.6,826.2z M529.1,857.1
	c4.3,0,7.5-1.7,10.6-5.4l3.3,3.3c-6.6,7.8-18.3,8.8-26.1,2.2c-0.5-0.4-1-0.9-1.5-1.4c-3.4-4-5.2-9.1-5.2-14.4
	c0-11.7,7.9-20.2,18.6-20.2c3.4,0,6.8,0.9,9.7,2.6c1.7,1.1,3.2,2.4,4.5,4l-3.4,3.2c-3.8-3.9-6.7-5.3-10.8-5.3
	c-7.9,0-13.7,6.6-13.7,15.7S521.1,857.1,529.1,857.1L529.1,857.1z M565.1,861.6c-5,0-8.3-1.8-10.4-5.3c-0.9-1.5-1.4-3.3-1.3-5.1
	v-0.8h4.7c0.2,4.4,2.6,6.8,6.9,6.8s7.5-2.7,7.5-6.6c0-3.4-1.8-5-7.9-7c-4.6-1.6-6.1-2.3-7.9-3.9c-2-1.9-3.1-4.6-3-7.3
	c0-6.6,4.7-11.1,11.6-11.1s11.4,4.4,11.5,11.1h-4.9c0.1-1.4-0.3-2.8-0.9-4c-1.3-1.8-3.5-2.9-5.8-2.7c-3.4-0.2-6.4,2.4-6.6,5.8
	c0,0.2,0,0.3,0,0.5c0,1.8,0.8,3.4,2.2,4.5c1.2,0.9,2.3,1.3,6.2,2.7c4.1,1.5,6.1,2.5,7.7,4.2c1.7,1.9,2.7,4.3,2.6,6.9
	C577.4,857,572.4,861.6,565.1,861.6L565.1,861.6z M611.2,826.2h-9.9v34.7h-4.9v-34.7h-9.9V822h24.7V826.2z M644.9,860.9l-3.2-9
	h-17.4l-3.5,9h-5.1l14.6-38.9h5.8l14.3,38.9L644.9,860.9z M678.8,857.1c4.3,0,7.5-1.7,10.5-5.4l3.3,3.3c-6.6,7.8-18.3,8.8-26.1,2.2
	c-0.5-0.4-1-0.9-1.4-1.4c-3.4-4-5.2-9.1-5.2-14.4c0-11.7,7.9-20.2,18.6-20.2c3.4,0,6.8,0.9,9.7,2.6c1.7,1.1,3.2,2.4,4.5,4l-3.4,3.2
	c-3.8-3.9-6.6-5.3-10.8-5.3c-7.9,0-13.7,6.6-13.7,15.7S670.8,857.1,678.8,857.1L678.8,857.1z M717.9,843.7v17.2H713v-17.1L699.6,822
	h5.8l10,16.7l9.9-16.7h5.8L717.9,843.7z"/>
<path d="M131.6,843.4h-6.1v13.5h4.9c4.1,0,5.7-0.3,7.4-1.3c1.9-1,2.8-2.9,2.8-5.5C140.5,845.4,137.8,843.4,131.6,843.4z"/>
<polygon points="164.3,847.7 178.8,847.7 171.6,828.2 "/>
<polygon points="270,847.7 284.4,847.7 277.3,828.2 "/>
<path d="M316.2,826.1h-5.3v30.6h1.8c6.6,0,9.4-0.7,12.2-2.9c3.5-2.8,5.3-7.1,5.3-12.9C330.1,831.5,325.1,826.1,316.2,826.1z"/>
<path d="M389.5,825.8c-8.1,0-14.1,6.7-14.1,15.6s6,15.6,14,15.6c4,0,7.7-1.7,10.4-4.7c2.5-3,3.8-6.8,3.7-10.7c0-5.2-1.4-9-4.4-11.9
	C396.5,827.3,393.1,825.9,389.5,825.8z"/>
<polygon points="60.7,847.7 75.2,847.7 68.1,828.2 "/>
<path d="M136.8,837.8c1.6-1.3,2.5-3.3,2.4-5.3c0.1-2.3-1.1-4.5-3.1-5.6c-1.4-0.7-3-0.9-6.6-0.9h-4v13.4h5
	C133.5,839.4,135.4,839,136.8,837.8z"/>
<polygon points="625.7,847.7 640.1,847.7 633,828.2 "/>
<path d="M444.5,509.6c15.1-19.6,20.3-45.9,20.6-75c-21-0.4-72.4,6.1-85.6,28.9c-9-17.6-23-32.6-44.2-33.8
	c-27.9-1.6-37.1,25.5-57.8,37c-0.8,1.4-1.7,2.7-2.7,4c17.8,14.2,18.4,40.1,33.5,58.6c30.7,37.8,88.9,30.7,119.8,12.6
	s41.8-32.7,41.8-32.7S449.8,512.6,444.5,509.6z M313.7,475.6L313.7,475.6z M314.5,475.6L314.5,475.6c-9.6-0.1-9.6-14.9,0-14.9
	S324.2,475.7,314.5,475.6L314.5,475.6z"/>
<path d="M332.9,548.6c-0.6-0.7-1.2-1.3-1.8-2c-5.8-5.5-12.4-10.1-19.6-13.6C317.5,539.5,324.8,544.8,332.9,548.6z"/>
<path d="M293.2,541.5c-4.2-5.3-7.8-11-10.7-17.1c-4.1-0.5-8.2-0.8-12.3-0.8c-28.6,0-45,9.7-60.4,35.8v-26.6h-77.8L132,769.7h77.8
	V625.9c0-23,12.8-37.8,32.8-37.8s32.2,13.8,32.2,36.8v144.8h77.8V624.4c0-22.4-1.6-38.4-5.5-50.9
	C325.2,568.9,306.6,557.9,293.2,541.5z"/>
<path d="M579.2,428.5v125.9c-22.5-21.5-44.5-30.7-75.2-30.7c-7.9,0-15.7,0.9-23.4,2.5c-6.4,6.7-19.7,18.8-42.9,32.4
	c-9.3,5.4-19.3,9.5-29.7,12.3c-17.4,22.1-25.9,49.8-25.9,83.2c0,75.2,48.1,124.8,120.2,124.9c18.9,0,35.3-3.6,49.1-10.2
	c10.8-5.1,16.9-10.7,27.6-25.6v26.6h77.8l0.1-341.2L579.2,428.5z M522.9,717.6c-32.7,0-57.8-27.6-57.8-63.5c0-37.8,24.6-66,57.8-66
	c32.2,0,56.3,28.2,56.3,66C579.2,690,554.6,717.6,522.9,717.6z"/>
<path d="M272.6,433.7c-4.3-4.3-10.5-5-10.5-5s0.7,6.3,5,10.5c2.2,2.1,4.8,3.6,7.7,4.4c2.6,2.7,4.1,6.2,4.2,10
	c0.1,4.1-1.6,8-3.6,11.5c-3.9,6.5-9.8,12.2-16,16.5c-1.5,1-0.1,3.5,1.4,2.5c5.4-3.7,10.1-8.2,14.1-13.3c1-1.3,1.9-2.6,2.7-4
	c4.8-8,6.3-16.9-0.4-24.6C276.3,438.9,274.8,436.1,272.6,433.7z"/>
<path d="M289.8,438.6c2.3-5.6,0.6-11.6,0.6-11.6s-5.5,3-7.9,8.6s-0.6,11.6-0.6,11.6S287.5,444.2,289.8,438.6z"/>
<path d="M266.9,455.1c6-0.3,10.7-4.5,10.7-4.5s-5.1-3.7-11.1-3.3s-10.7,4.5-10.7,4.5S260.9,455.4,266.9,455.1z"/>
<path d="M1315.5,826h-5.3v30.6h1.7c6.6,0,9.4-0.7,12.2-2.9c3.5-2.8,5.3-7.1,5.3-12.9C1329.5,831.4,1324.5,826,1315.5,826z"/>
<path d="M1193.4,826.1c-4.4,0-8,3.5-8,7.9c0,0,0,0.1,0,0.1c0.1,4.3,3.6,7.8,8,7.7c4.3-0.1,7.8-3.6,7.7-8
	C1201,829.6,1197.6,826.2,1193.4,826.1z"/>
<polygon points="1161.4,847.9 1161.4,833 1150.5,847.9 "/>
<path d="M1105.3,799.9V883h273.3v-83.1H1105.3z M1170.5,852.1h-4.6v8.8h-4.5v-8.8h-15.6v-3.6l20.1-27.1v26.6h4.6V852.1z M1203,842.5
	l-11.2,18.4h-5.4l9.8-15.6c-1.2,0.5-2.5,0.8-3.7,0.8c-6.4,0-11.6-5.1-11.6-11.5c0-0.1,0-0.2,0-0.3c0-6.9,5.5-12.4,12.4-12.5
	c0.1,0,0.2,0,0.2,0c6.6-0.2,12.1,5.1,12.3,11.7c0,0.2,0,0.4,0,0.5C1205.7,837,1204.9,839.3,1203,842.5L1203,842.5z M1223.8,816.7
	h-4.5v15.7h-2.2v-15.7h-4.5v-1.9h11.2L1223.8,816.7z M1240.6,832.5h-2.2v-7.8h-8.6v7.8h-2.2v-17.6h2.2v7.9h8.6v-7.9h2.2V832.5z
	 M1289.5,826.1h-15.4v13h15.4v4.2h-15.4v13.3h15.4v4.2h-20.3v-39h20.3V826.1z M1328.4,856.4c-3.4,3-7.9,4.5-13.6,4.5h-9.5v-39h10.3
	c11.8,0,18.8,7.1,18.8,18.9C1334.5,847.4,1332.4,852.9,1328.4,856.4L1328.4,856.4z M1351.3,861.4c-1.7,0-3-1.3-3-3s1.3-3,3-3
	s3,1.3,3,3C1354.3,860,1353,861.3,1351.3,861.4C1351.4,861.4,1351.4,861.4,1351.3,861.4L1351.3,861.4z"/>
</svg>
