<svg xmlns="http://www.w3.org/2000/svg" xmlns:xlink="http://www.w3.org/1999/xlink" viewBox="0 0 2493.93 1568.23"><defs><style>.cls-1,.cls-9{fill:none;}.cls-2{fill:#caf8f9;}.cls-3{clip-path:url(#clip-path);}.cls-4{fill:#013;}.cls-5{fill:#005ca5;}.cls-6{fill:#ff9e89;}.cls-7{fill:#00cdeb;}.cls-8{fill:#ffaf68;}.cls-9{stroke:#013;stroke-linecap:round;stroke-linejoin:round;stroke-width:0.35px;}.cls-10{fill:#ff4d69;}.cls-11{fill:#fff;}</style><clipPath id="clip-path"><path class="cls-1" d="M208.56,102.09h0C124.83,85.32,50.43,158,65.21,242.08l.05.29a752.53,752.53,0,0,1-53,434.88l-2.46,5.56c-34.41,77.75,26.73,164,111.48,157.37l203.71-16a933.47,933.47,0,0,1,277.44,19.71l21.89,4.9a865.65,865.65,0,0,0,287.11,15.4l59.05-6.72a902.62,902.62,0,0,1,349.73,28.88h0A788.25,788.25,0,0,0,1655,907.63l119.55-18.17A881.57,881.57,0,0,1,2099.3,900.7l68.43,15.3c109.06,24.39,216.64-46.44,237.33-156.27h0a289.23,289.23,0,0,0,.56-104.09l-31.2-176A491.12,491.12,0,0,1,2400,185.13h0a103.44,103.44,0,0,0-65.14-138.4l-61.17-18.84A629.76,629.76,0,0,0,1989,7.87L1855.72,29.15a1376,1376,0,0,1-441.93-1.33h0A1069.67,1069.67,0,0,0,995.18,41.53L837.91,78.32A267.59,267.59,0,0,1,690.47,71L648.54,56.65A235.55,235.55,0,0,0,485,60.81L433.12,81.53A395.7,395.7,0,0,1,208.56,102.09Z"/></clipPath></defs><title>Asset 20withbg</title><g id="Layer_2" data-name="Layer 2"><g id="Layer_15" data-name="Layer 15"><path class="cls-2" d="M208.56,102.09h0C124.83,85.32,50.43,158,65.21,242.08l.05.29a752.53,752.53,0,0,1-53,434.88l-2.46,5.56c-34.41,77.75,26.73,164,111.48,157.37l203.71-16a933.47,933.47,0,0,1,277.44,19.71l21.89,4.9a865.65,865.65,0,0,0,287.11,15.4l59.05-6.72a902.62,902.62,0,0,1,349.73,28.88h0A788.25,788.25,0,0,0,1655,907.63l119.55-18.17A881.57,881.57,0,0,1,2099.3,900.7l68.43,15.3c109.06,24.39,216.64-46.44,237.33-156.27h0a289.23,289.23,0,0,0,.56-104.09l-31.2-176A491.12,491.12,0,0,1,2400,185.13h0a103.44,103.44,0,0,0-65.14-138.4l-61.17-18.84A629.76,629.76,0,0,0,1989,7.87L1855.72,29.15a1376,1376,0,0,1-441.93-1.33h0A1069.67,1069.67,0,0,0,995.18,41.53L837.91,78.32A267.59,267.59,0,0,1,690.47,71L648.54,56.65A235.55,235.55,0,0,0,485,60.81L433.12,81.53A395.7,395.7,0,0,1,208.56,102.09Z"/><g class="cls-3"><path class="cls-4" d="M1049.07,206.15s32.94,23.11,7.31,64.71C1024.86,247.75,1049.07,206.15,1049.07,206.15Z"/><path class="cls-5" d="M1003.65,268s-58.15-16.83-70.39,9.18S921,418,921,473.07s-35.2,215.76-35.2,309.1,44.66,474.21,44.66,474.21l39.25-5,33.92-541.18,76.5,535.56h37.59S1123,870.92,1123,716.37c0-110.17-49-192.8-49-192.8s76.51-238.71,12.25-247.89S1003.65,268,1003.65,268Z"/><path class="cls-6" d="M945.84,266.06S920.65,270.5,892.6,344l-22.91,60L793,311,764.4,329.26S822.49,467.49,868.57,473.5,983.06,365.79,945.84,266.06Z"/><path class="cls-6" d="M1092.85,277.67s19.83,1.55,47.88,75l22.91,60L1249.25,311,1268.93,338s-58.09,138.23-104.17,144.24S1055.63,377.4,1092.85,277.67Z"/><path class="cls-6" d="M1013.24,84.27s-52.09,2.67-52.09,76.12,30.26,82.81,43.26,82.81c20,0,48.89-13.36,63.58-68.11S1057.31,84.27,1013.24,84.27Z"/><path class="cls-6" d="M984.26,281.93l13.36-60.1,51.45-9v69.09S1011.64,309.3,984.26,281.93Z"/><path class="cls-7" d="M930.48,1242.14s-28.18,28.87-61.17,48.67c-28.88,18.15,5.77,43.72,46.19,24.75s56.1-16.5,60.23-29.7-4.9-50-4.9-50S951.23,1250.39,930.48,1242.14Z"/><path class="cls-7" d="M1118.3,1242.14s28.18,28.87,61.17,48.67c28.88,18.15-5.77,43.72-46.19,24.75s-56.1-16.5-60.22-29.7,4.89-50,4.89-50S1097.56,1250.39,1118.3,1242.14Z"/><path class="cls-6" d="M1249.25,311a283.51,283.51,0,0,0,23-22c10.12-11.13,22.92-24.24,25.91-18.6s-11.3,11.59-11.67,25.72c17.47.08,20.89.85,41.18-2.28s22.41-1.17,20.27,2.69-40.31,8.4-39.45,11.4,45.71-1.58,47.26,3.78-9.46,5.13-20.2,5.84-27.61,1.48-26.7,4.64,38.55,3.22,40.1,8.59-38.61,1-39.9,3.32,26,4.12,24.6,10-77.33-8.43-77.33-8.43"/><path class="cls-6" d="M793,311a284.25,284.25,0,0,1-23-22C759.81,277.87,747,264.76,744,270.4s11.31,11.59,11.67,25.72c-17.46.08-20.88.85-41.18-2.28s-22.4-1.17-20.27,2.69,40.32,8.4,39.45,11.4-45.71-1.58-47.26,3.78,9.46,5.13,20.2,5.84,27.61,1.48,26.7,4.64-38.55,3.22-40.1,8.59,38.62,1,39.91,3.32-26,4.12-24.6,10,77.32-8.43,77.32-8.43"/><path class="cls-8" d="M990.59,253.47s-73.66-17.3-104.77,92c12.46,21,30.52,34.56,30.52,34.56L880.22,659.89s76.49,49.94,256,0c-25.5-173.18-37.19-263.49-37.19-263.49s47.28-17.53,53.13-38.25c-27.63-71.18-46.15-98-103.14-104.68C1012,287,990.59,264.59,990.59,253.47Z"/><path class="cls-4" d="M1020.66,80.91s-51.79-5.88-64.14,58c-11.51,55.89,10.84,69.71,10.84,69.71s-9.74-38.62,13.37-55.43a150.36,150.36,0,0,0,35.93-37.4s12,37,28.37,53.37,16.23,27.26,16.23,27.26,15.71-13,17.81-49.53S1059.32,80.91,1020.66,80.91Z"/><path class="cls-6" d="M1052.1,180.2s9.31-7.41,17.69.37c7.79,7.23-3.86,32.22-21.88,29.72"/><path class="cls-9" d="M968.4,169.86s11.43-9.63,24.17,3.1"/><path class="cls-9" d="M1043.08,170s-11.43-9.63-24.16,3.1"/><path class="cls-9" d="M1003.12,173s-15.47,26.56-5.42,29.47a21.92,21.92,0,0,0,5.42.89"/><path class="cls-9" d="M964.23,161.33s17.5,1.24,29-8.92"/><path class="cls-9" d="M1047.91,161.33s-17.5,1.24-29-8.92"/><path class="cls-9" d="M1023,211.31s-17.07-4.08-30.06,4.07"/><path class="cls-4" d="M978.73,173a3.77,3.77,0,1,1-3.77-3.77A3.76,3.76,0,0,1,978.73,173Z"/><path class="cls-4" d="M1031,173.52a3.76,3.76,0,1,1-3.76-3.76A3.76,3.76,0,0,1,1031,173.52Z"/><line class="cls-9" x1="926.54" y1="320.69" x2="917.86" y2="374.92"/><line class="cls-9" x1="1091.42" y1="340.94" x2="1099.37" y2="387.22"/><path class="cls-9" d="M997.11,241.45s29.61,10,48.38-18.93"/><path class="cls-9" d="M1064.7,182.91s-12.24-.19-9.55,13.21c3.71-1.27,7.51,2.79,3.71,6.6"/><path class="cls-9" d="M889.26,648.81s103.41,43.25,238.34,0"/><path class="cls-6" d="M689.9,394s-40.53-20.27-67.56,30.4-27,248.28-27,248.28-8.44,98,11.82,271.92S636,1257,636,1257h36.25L689.9,844.93,747.33,1257h33.93s20.11-135.12,8.29-275.3S813.2,741.91,754.08,635.5C777.73,463.23,835.15,375.4,689.9,394Z"/><path class="cls-6" d="M671.58,403.29l12.15-54.68,46.81-8.18v62.86S696.49,428.2,671.58,403.29Z"/><path class="cls-8" d="M636,1249.53s-25.63,26.27-55.65,44.29c-26.27,16.51,5.25,39.78,42,22.52s51-15,54.79-27-4.45-45.52-4.45-45.52S654.92,1257,636,1249.53Z"/><path class="cls-8" d="M781.26,1249.53s25.64,26.27,55.66,44.29c26.27,16.51-5.25,39.78-42,22.52s-51-15-54.8-27,4.45-45.52,4.45-45.52S762.38,1257,781.26,1249.53Z"/><path class="cls-5" d="M578.84,876.55l4.9,153.33s51.47,29,108.08,9.29c0-48.79,1.4-116.16,1.4-116.16l7.84,115s49.81,22.07,110.74-11.62c-7.61-124.29-7.61-163.78-7.61-163.78Z"/><path class="cls-10" d="M675.86,384l-39.65,10s-35.89,46-52.47,253.28c-16.59,182.08-11,244.65-11,244.65s92.44,43.88,239,0c-14-189.56-47.38-497.13-47.38-497.13L730.54,384S702.4,419.59,675.86,384Z"/><path class="cls-6" d="M759.32,393.15s51.91-4.91,46.92,59.63S795.45,598,776.75,603.59s-193-52.25-193-52.25l9.84-25.52,137,18.23Z"/><path class="cls-6" d="M638.63,393.36s-35.57-6.18-54.89,41.33S540,588.55,574,604s156.52-59.92,156.52-59.92L740.21,517,599.53,548.91Z"/><path class="cls-4" d="M701.06,214.36s-48.86,0-56.89,40.53,3.06,56.59-11.09,95.21c60.42,10.7,102.86,2.29,130.39-17.21C763.47,239.59,749.54,214.36,701.06,214.36Z"/><path class="cls-6" d="M697.94,223.45s-47.39,2.43-47.39,69.26,29.44,75.34,41.27,75.34c18.23,0,48.39-8.39,55.94-62C755,255,738,223.45,697.94,223.45Z"/><path class="cls-4" d="M645.7,280.51s27.41-3.83,49.46-47.42c22.81,53.53,54.93,36.71,28.16,115.1,34.8,0,48.56-10.33,48.56-10.33s8.68-142.24-76.72-118.53C652.82,235.58,645.7,280.51,645.7,280.51Z"/><path class="cls-9" d="M655.7,301.25s10.4-8.76,22,2.82"/><path class="cls-9" d="M723.65,301.34s-10.4-8.77-22,2.81"/><path class="cls-9" d="M687.29,303.08s-14.07,24.17-4.93,26.81a20,20,0,0,0,4.93.81"/><path class="cls-9" d="M655.69,291.92s6.56-10.18,22-6.74"/><path class="cls-9" d="M723.65,292.92s-6.26-10-22-8.27"/><path class="cls-9" d="M679.65,343s11.67-4.42,24.34-1.68"/><path class="cls-4" d="M674,303.08a3.43,3.43,0,1,1-3.42-3.43A3.42,3.42,0,0,1,674,303.08Z"/><path class="cls-4" d="M721.78,303.08a3.43,3.43,0,1,1-3.42-3.43A3.42,3.42,0,0,1,721.78,303.08Z"/><path class="cls-9" d="M683.28,366.72s21.58,9.65,43.17-11.93"/><polyline class="cls-9" points="677.69 573.49 730.54 544.05 734.56 521.33"/><path class="cls-9" d="M601.24,527.68s-21.5.88-17.5,23.66c38.13-7.5,70-14.73,70-14.73"/><path class="cls-9" d="M576.15,874.72s113.06,36.53,227.29-3.1"/><path class="cls-9" d="M670.61,390s2,20.84,29.36,20.84,38.2-19,38.2-19"/><path class="cls-6" d="M1228.6,309.3s19.89,157.6,19.89,188.21-33.66,182.09-26,278.49,70.7,450.58,70.7,450.58l41-3.77-15.3-492.72s-16.83,189.75,15.3,269.32,46.4,227.17,46.4,227.17l35.75-7.42s6.6-175.38-11.76-268.72,37.11-189.74,15.49-347.35-21.61-293.79-21.61-293.79S1348,269.51,1228.6,309.3Z"/><path class="cls-6" d="M1228.6,309.3s-16.81,8.15-39.51,89.62-5.9,141.56,19.76,145.57,87.82-133.55,87.82-133.55l-15-18.7-39.17,34.7Z"/><path class="cls-6" d="M1398.45,309.3s32.37,16.17,51.06,129.68-30,140.9-76.12,94.82S1308,432.2,1308,432.2L1334.66,415l63.43,63.43S1358.3,349.45,1398.45,309.3Z"/><path class="cls-4" d="M1293.18,1217.41s-28.18,28.87-61.18,48.67c-28.87,18.15,5.78,43.72,46.2,24.75s56.1-16.5,60.22-29.7-4.89-50-4.89-50S1313.92,1225.66,1293.18,1217.41Z"/><path class="cls-4" d="M1378.73,1215.75s2.32,35.48-3.45,56.11-.83,25.66,27.22,25.66,28-7.2,28-38.7-6.42-47-12.91-53.45C1400.34,1222.67,1378.73,1215.75,1378.73,1215.75Z"/><path class="cls-10" d="M1424.84,659.2c35.82,51.94-5.62,198.08.31,299.53s.41,260.83.41,260.83-25.2,18.77-46.48,4.6c-21.74-47.81-44.9-224.75-44.9-224.75s5.32,105.46,5.32,227.17c-39.64,13.25-55.89,0-55.89,0S1255,1124.2,1232,949.07s-6-289.87-6-289.87,79.71,21.74,193.24,0"/><path class="cls-6" d="M1281.63,295,1295,234.9l51.45-9V295S1309,322.37,1281.63,295Z"/><path class="cls-5" d="M1270.13,297.88s-73.41-12.55-87.41,101c36.79,30.42,58.44,23.47,58.44,23.47l-3.61,17.5,44.08-47.65,15,18.7-57,105.63-18.35,154.32s71.62,49,216,6.13c-11.37-96.26-16.67-122.56-16.67-122.56S1361.4,525.64,1323.25,446l19.07-19.07,55.77,51.44L1386,426.94s32.21,2.45,67.58-23.8c-26.76-91-45.84-109-107.17-116.38C1325.35,355.89,1277.92,337,1270.13,297.88Z"/><path class="cls-6" d="M1293.25,146.44s-52.09,2.67-52.09,76.13,35.15,86.73,48.16,86.73c20,0,44-17.29,58.68-72S1337.32,146.44,1293.25,146.44Z"/><path class="cls-4" d="M1296.67,143s-70.73,3.29-61.66,78.6c21.87,0,39.32-24,39.32-24s-5.14,10.79-18.22,21.37c13.15,3,46.19,8.92,63.13-20.56,38.15,32.72-1.07,40.87,27.2,65.68C1370.78,243.91,1373.63,143,1296.67,143Z"/><path class="cls-6" d="M1332.48,241.32s8.89-13.12,19.51-8.88c9.87,3.94,6.73,29.94-11,34.09"/><path class="cls-9" d="M1244,233s11.43,9.64,24.16-3.1"/><path class="cls-9" d="M1318.7,232.86s-14.33,9.73-27.06-3"/><path class="cls-9" d="M1278.74,245.54s-15.47,26.57-5.41,29.47a21.82,21.82,0,0,0,5.41.89"/><path class="cls-9" d="M1244,243.2s9.55,9.26,25.23,1.73"/><path class="cls-9" d="M1319.24,243.2s-9.56,9.26-25.24,1.73"/><path class="cls-9" d="M1274.33,285s12.28-6.14,23.53,0"/><path class="cls-6" d="M1269.9,408.78a259.07,259.07,0,0,0,8.16-28c2.92-13.44,7.06-29.66,12-26.57s-3.64,14.35,2.53,25.7c13.86-7.92,16.92-8.88,31.56-20.64s17.2-11.18,17.28-7.14-28.08,25.09-26,27.07,35.46-22.16,39.14-18.62-5.14,8.38-13.32,13.86-21.18,13.8-19,15.88,32-15.08,35.67-11.54-30.12,18.44-30.07,20.88,22.45-8.62,24-3.34S1286.79,425,1286.79,425"/><path class="cls-6" d="M1346.44,433.71a259.07,259.07,0,0,1-8.16-28c-2.92-13.44-7.06-29.66-12-26.58s3.65,14.36-2.52,25.71c-13.87-7.92-16.93-8.88-31.57-20.64S1275,373,1274.91,377.07s28.07,25.09,26,27.06-35.46-22.15-39.14-18.61,5.15,8.38,13.32,13.85,21.18,13.81,19,15.89-32-15.08-35.67-11.54,30.12,18.44,30.07,20.88-22.46-8.62-24-3.34S1329.55,450,1329.55,450"/><rect class="cls-10" x="1313.85" y="431.49" width="45.64" height="20.55" rx="0.74" transform="translate(-6.57 863.12) rotate(-35.7)"/><path class="cls-9" d="M1276.44,307.16s34.15,15.22,64.66-37.74"/><path class="cls-9" d="M1316.85,746.19s-15.91,145.88,12.93,240.55"/><path class="cls-9" d="M1285,1205.37a102.37,102.37,0,0,0,48.62,0"/><path class="cls-9" d="M1378.22,1205.37s15.22,2.38,42.08-9.56"/><path class="cls-9" d="M1373.15,698.45s-1,65.65,57.4,71.62"/><path class="cls-9" d="M1267.11,694.6s7,51.59-37.8,51.59"/><line class="cls-9" x1="1234.21" y1="443.23" x2="1194.8" y2="487.05"/><line class="cls-9" x1="1401.85" y1="482.13" x2="1430.55" y2="504.36"/><path class="cls-9" d="M1350.64,239.93s-12.24-.2-9.54,13.2c3.7-1.27,7.51,2.8,3.7,6.6"/><path class="cls-6" d="M2165.5,270.47s-77.42-5.92-71.42,47.1c14.45,127.8-18.24,276.58-18.24,276.58s-5.14,82.63-15.19,281.13c-9.72,192,9.93,317.6,9.93,317.6h40.07l68.53-507.56,144.91,520.43,34.4-12.87s-6.27-177-39.51-314.56c-33.9-140.31-13.68-231-76-369.27,27.35-191.48,45.59-238.62-3-238.62S2165.5,270.47,2165.5,270.47Z"/><path class="cls-6" d="M2183.07,87.32S2131,90,2131,163.44s26.08,82.8,39.08,82.8c20,0,53.07-13.35,67.76-68.11S2227.14,87.32,2183.07,87.32Z"/><path class="cls-6" d="M2154.09,285l13.36-60.1,53.56-8.62L2218.89,285S2181.47,312.35,2154.09,285Z"/><path class="cls-6" d="M2123.17,281.6s-28.23,5-50.94,126.57S1969.4,609.83,1969.4,609.83l20,24s66.78-57.43,113.52-137.56S2123.17,281.6,2123.17,281.6Z"/><path class="cls-6" d="M2253.94,273s28.4,4.25,55.28,128.8S2419,606.28,2419,606.28l-19.19,25.46s-68.72-57-118.2-138S2253.94,273,2253.94,273Z"/><path class="cls-10" d="M2072,1187.48s-28.17,28.87-61.17,48.67c-28.88,18.15,5.77,43.72,46.19,24.75s56.1-16.5,60.23-29.7-4.9-50-4.9-50S2092.78,1195.72,2072,1187.48Z"/><path class="cls-10" d="M2365,1187.48s28.17,28.87,61.17,48.67c28.87,18.15-5.78,43.72-46.2,24.75s-56.09-16.5-60.22-29.7,4.89-50,4.89-50S2344.27,1195.72,2365,1187.48Z"/><path class="cls-6" d="M1995.79,624.09a283.78,283.78,0,0,0-11,29.94c-4.18,14.45-9.9,31.85-15.07,28.12s5-15.39-.86-28.24c-15.71,7.62-19.12,8.44-36,20.19s-19.59,10.93-19.38,6.52,32.49-25.31,30.4-27.62-40.34,21.56-44.1,17.43,6.24-8.77,15.57-14.14,24.13-13.5,21.92-15.93-36,14.09-39.78,10,34.23-17.9,34.36-20.57-25.14,7.75-26.49,1.87,73.14-26.49,73.14-26.49"/><path class="cls-6" d="M2395.44,624.09a284.91,284.91,0,0,1,11,29.94c4.19,14.45,9.9,31.85,15.07,28.12s-5-15.39.86-28.24c15.71,7.62,19.12,8.44,36,20.19s19.59,10.93,19.38,6.52-32.49-25.31-30.39-27.62,40.33,21.56,44.09,17.43-6.24-8.77-15.56-14.14-24.14-13.5-21.93-15.93,36,14.09,39.78,10-34.23-17.9-34.36-20.57,25.14,7.75,26.49,1.87-73.13-26.49-73.13-26.49"/><path class="cls-4" d="M2075.84,594.15s95.62,44.18,204.22,11l97.71,571.3s-26.81,37.79-94.48,18.9C2231,944.39,2179.88,718.85,2179.88,718.85l-53.33,476.48s-47.06,28.83-83.29-7.4C2027.77,950.49,2075.84,594.15,2075.84,594.15Z"/><path class="cls-7" d="M2218.89,256.51s45.31-14.48,78.25,66.26S2344.33,500,2344.33,500l-41.52,25.64s-30.11-34-47.11-73.28c19.12,74.41,36.78,192,36.78,192s-91.19,49.32-227.94,0l23.75-137.76L2050,482.77s29.3-156,41-185.63,33.74-44.78,68.4-36.14C2168.58,290.9,2197.5,277.91,2218.89,256.51Z"/><path class="cls-10" d="M2220.66,217.65s-7.73-31.29-7.73-72.9c-29-22.27-62.2.84-79-24.37s17.65-63.46,68.5-38.24,42,48.74,42,48.74S2264.68,183.56,2220.66,217.65Z"/><path class="cls-6" d="M2211.51,185.21s5.48-10.56,16.31-6.88c10,3.43,8.27,29.56-9.2,34.62"/><path class="cls-9" d="M2134.74,166.68s13-7.43,23.22,7.38"/><path class="cls-9" d="M2205.29,174.84s-9.52-11.53-24.33-1.28"/><path class="cls-9" d="M2168.53,174.88s-20,23.36-10.6,28a21.7,21.7,0,0,0,5.16,1.85"/><path class="cls-9" d="M2133.79,155.72s9.09-9.73,25.12-3"/><path class="cls-9" d="M2206,164s-6.85-11-24.15-9.16"/><path class="cls-4" d="M2144,170.11a3.76,3.76,0,1,1-3-4.37A3.76,3.76,0,0,1,2144,170.11Z"/><path class="cls-4" d="M2192,174.73a3.77,3.77,0,1,1-3-4.37A3.76,3.76,0,0,1,2192,174.73Z"/><path class="cls-11" d="M2158,214.19s6.08-5.64,17.57-1.45c8.34,3,4.34,7.62-5.55,8.35C2159.62,221.86,2151.41,220.73,2158,214.19Z"/><line class="cls-9" x1="2108.53" y1="321.71" x2="2089.01" y2="499.29"/><line class="cls-9" x1="2246.58" y1="326.9" x2="2255.7" y2="444.64"/><line class="cls-9" x1="2057.68" y1="462.6" x2="2083.71" y2="480"/><line class="cls-9" x1="2295.33" y1="499.29" x2="2334.04" y2="480"/><path class="cls-9" d="M2165.68,245.66s31.59,7.14,51.13-29.41"/><path class="cls-9" d="M2227.7,185.35s-12.24-.2-9.55,13.2c3.71-1.27,7.52,2.8,3.71,6.6"/><path class="cls-4" d="M2136.57,258.79s4.62,26.5,43.47,26.5,66.54-25.51,66.54-25.51-6.83-11-26.49-13.56c-21.39,21.39-38.24,26.76-38.24,26.76s-18.65-12-19.87-23.5C2144.09,251.55,2136.57,258.79,2136.57,258.79Z"/><polyline class="cls-9" points="2174.7 334.06 2181.94 278.12 2191.57 326.9"/><path class="cls-4" d="M2172.22,335.29a2.48,2.48,0,1,0,2.48-2.48A2.48,2.48,0,0,0,2172.22,335.29Z"/><path class="cls-4" d="M2189.09,328.05a2.48,2.48,0,1,0,2.48-2.48A2.48,2.48,0,0,0,2189.09,328.05Z"/><path class="cls-9" d="M2079.93,605.13c109,37.9,196.4,0,196.4,0l-1.43-22c-45.81,5.93-47.23-51.38-47.23-51.38s-40.49,1.78-97,0c-10,57.89-46.95,51.14-46.95,51.14Z"/><path class="cls-9" d="M2070.88,633.87s118.06,42.41,214.1,0"/><path class="cls-6" d="M482.48,662l7-136.24s129.21-171,157.26-317.9l-14.69-14.69s-81.48,179-167,243.1C417,462.94,346.93,446.91,294.84,370.78s-83.51-154.94-83.51-154.94l-20.7,4.67S219.74,401.58,352.92,519l-4.68,173s-26,241.1-26,396v168.3h33.39s24-231.08,70.79-435.44c33.39,252.45,130.9,435.44,130.9,435.44L588,1245.66s-62.78-237.75-62.78-351.29S482.48,662,482.48,662Z"/><path class="cls-6" d="M415.71,288.44s-45.47,2.33-45.47,66.45,24.08,71.18,35.38,72.27c21.81,2.11,45.06-11.65,57.89-59.45S454.18,288.44,415.71,288.44Z"/><path class="cls-6" d="M390.42,461l11.65-52.46L447,400.67V461S414.32,484.87,390.42,461Z"/><path class="cls-7" d="M322.2,1245.24s-24.6,25.2-53.4,42.48c-25.21,15.85,5,38.17,40.32,21.61s49-14.41,52.57-25.93-4.27-43.67-4.27-43.67S340.31,1252.44,322.2,1245.24Z"/><path class="cls-7" d="M588,1245.24s24.59,25.2,53.4,42.48c25.2,15.85-5,38.17-40.33,21.61s-49-14.41-52.57-25.93,1.69-41.09,1.69-41.09S569.93,1252.44,588,1245.24Z"/><path class="cls-6" d="M620.08,219.64a247.73,247.73,0,0,0-10.46-25.8c-5.76-11.79-12.27-26.4-6.73-27s5.76,12.91,17.1,17.76c5.7-14.14,7.43-16.67,11.43-34.15s6.27-18.55,8.72-15.57-6.18,35.41-3.47,35.68S650.12,133,655,133.43s1.11,9.33-1.77,18.27-7.7,22.88-4.85,23.15,15-30.23,19.9-29.75-11.66,31.64-10.17,33.44,11.71-19.75,16-16.74-31.77,60-31.77,60"/><path class="cls-6" d="M212.36,219.42a248.09,248.09,0,0,1,6.51-27.06c3.94-12.53,8.2-27.94,2.64-27.72s-3.78,13.62-14.28,20.1c-7.73-13.13-9.81-15.38-16.37-32.06s-9-17.41-10.94-14.1,11.38,34.1,8.74,34.76-18.89-35.17-23.62-34,.29,9.39,4.47,17.8,11,21.48,8.24,22.17-19.37-27.65-24.1-26.46,16.22,29.55,15,31.55-14.53-17.78-18.35-14.16,41.95,58.93,41.95,58.93"/><path class="cls-4" d="M322.76,784.27l-23.07,271.08s35.29,33.16,105.93,13.71c10.05-103.32,19.53-217.49,19.53-217.49l27.42,212.22S520,1085.93,577,1041.65C549.56,877.18,523.2,748.56,523.2,748.56S429.12,802.07,322.76,784.27Z"/><path class="cls-8" d="M310.49,391.27l-42.1,55s27.63,46.05,68.15,76.44c-13.81,157.5-20.26,268-20.26,268s127.1,34.07,226.57-7.37c-24-167.63-43.29-262.49-43.29-262.49s24.87-31.83,43.29-62L494.1,410.19s-25,20.72-47.12,24.44c-17.5,35.95-51,12.52-51,1.5C362.33,428.8,310.49,391.27,310.49,391.27Z"/><path class="cls-10" d="M455.76,299.15s-17.61-25.78-61.87-15.9c-45.11,15.9-31.59,42.86-22.06,52.39,13.38-13.38,58.68,6.57,75.15-4.7,0,34.81,10.47,55.85,10.47,55.85S487.13,330.51,455.76,299.15Z"/><path class="cls-6" d="M447.8,366.76s5.25-9,14.53-5.26c8.61,3.44,5.87,26.14-9.59,29.77"/><path class="cls-9" d="M374.57,361.39s10-8.41,21.09,2.7"/><path class="cls-9" d="M439.75,361.47s-10-8.41-21.09,2.7"/><path class="cls-9" d="M404.87,366s-13.5,23.19-4.73,25.72a19,19,0,0,0,4.73.78"/><path class="cls-9" d="M374.56,355.28s6.28-4.17,21.11-.88"/><path class="cls-9" d="M439.75,356.23s-6-4-21.1-2.33"/><path class="cls-11" d="M409.69,404.82a53.6,53.6,0,0,1,10.33-1c5.85,0,5.07-7.8-6.63-7.8s-20.86,6.85-18.09,12.23C397.45,412.45,402.09,406.56,409.69,404.82Z"/><path class="cls-9" d="M401,426.41s22.78,6.17,42.94-16.67"/><path class="cls-9" d="M385.11,439.24s5.95,27.89,37.38,27.89,38.41-31,38.41-31"/><path class="cls-9" d="M461.81,366s-10.68-.18-8.33,11.52c3.24-1.11,6.56,2.44,3.24,5.76"/><path class="cls-7" d="M536.28,738.43C445.19,779.31,319,748.56,319,748.56l-2.7,42.2c129.68,45,226.57-7.37,226.57-7.37Z"/><path class="cls-10" d="M1770.76,264.35s-17.86-8-34.19,8.31-23.68.6-39.41,16.33.14,24.18-7.79,36.64-6.26,42.07,21.28,45.71S1804.94,415,1804.94,415s40.24-16.62,37.64-72.2S1820,259.16,1770.76,264.35Z"/><path class="cls-4" d="M1660.89,753.18s-42,211.5-42,390.72-8.58,346.57-8.58,346.57l40.87-1.06,103.33-571.55,153.4,575.52,42-4s-54.89-474.68-72.65-594.15-54.9-429.47-54.9-429.47H1701.25Z"/><path class="cls-6" d="M1736.57,467.57l14.09-63.41,54.28-9.49v72.9S1765.46,496.46,1736.57,467.57Z"/><path class="cls-6" d="M1701.25,465.79s-20-14.79-46.83,74S1619.23,667.35,1642,690.11C1667.39,715.52,1735.4,618.68,1701.25,465.79Z"/><polygon class="cls-6" points="1631.11 674.3 1567.06 493.27 1590.26 488.4 1678.38 620.09 1631.11 674.3"/><path class="cls-6" d="M1815.48,465.79s20.06-14.79,46.83,74,40.86,135.28,8.45,150.78S1781.33,618.68,1815.48,465.79Z"/><polygon class="cls-6" points="1886.35 674.3 1949.67 493.27 1924.9 492.53 1838.35 620.09 1886.35 674.3"/><path class="cls-8" d="M1610.33,1483.71s-29.73,30.46-64.54,51.35c-30.47,19.15,6.09,46.14,48.74,26.12s59.19-17.41,63.54-31.34-5.16-52.79-5.16-52.79S1632.22,1492.41,1610.33,1483.71Z"/><path class="cls-8" d="M1949.94,1483.71s29.72,30.46,64.54,51.35c30.46,19.15-6.09,46.14-48.75,26.12s-59.19-17.41-63.54-31.34,3.16-46.13,3.16-46.13S1928,1492.41,1949.94,1483.71Z"/><path class="cls-6" d="M1587,499.52s12.19-17.19,12.19-23.39c5.6-5.6,0-9.55,0-9.55s5.14-3,0-8.12-23.65-20-30.81-12.89-14.53,21-8.22,34.38,9,16,9,16Z"/><path class="cls-6" d="M1928.33,504.69s-12.19-17.18-12.19-23.39c-5.6-5.6,0-9.55,0-9.55s-5.14-3,0-8.12,23.65-20.05,30.81-12.89,14.53,21,8.22,34.38-9,16-9,16Z"/><path class="cls-7" d="M1738.58,458.51s-66.83-48.55-86.69,74.74c23.37,23.37,31.55,28,31.55,28l-45.58,306.75s120.37,56.09,241.9,5.26c-20.45-139.65-45-313.18-45-313.18l33.3-23.38s-24.59-105.75-63.13-77.12C1765.82,484.17,1738.58,458.51,1738.58,458.51Z"/><path class="cls-6" d="M1767.71,279.84s-48.52-4.95-59.43,71.78,24.93,86.86,38.52,88.79c20.92,3,54.74,1.43,64.62-57.57C1821.08,325.15,1813.74,286.39,1767.71,279.84Z"/><path class="cls-10" d="M1700.11,316.81s33.55,24.93,63.86,6.75,54.2,4.67,63-18.18S1741.49,241.5,1700.11,316.81Z"/><path class="cls-6" d="M1807.09,376.33s9.82-7.82,18.67.39c8.21,7.62-4.75,32-23.76,29.4"/><path class="cls-9" d="M1713.29,361.71s12.06-10.17,25.49,3.27"/><path class="cls-9" d="M1792.08,361.81s-12.06-10.17-25.49,3.27"/><path class="cls-9" d="M1749.91,365s-16.31,28-5.71,31.09a23.06,23.06,0,0,0,5.71.94"/><path class="cls-9" d="M1792.93,345.82s-16.68-2.93-28.31,11.26"/><path class="cls-9" d="M1713.7,345.27s16.78-2.31,27.87,12.31"/><path class="cls-11" d="M1751.17,423.82s-14.06-1.64-10.55-7.94c3.34-6,8.16.1,19.5-1.13C1772.44,413.42,1769.45,427.67,1751.17,423.82Z"/><path class="cls-4" d="M1724.18,365a4,4,0,1,1-4-4A4,4,0,0,1,1724.18,365Z"/><path class="cls-4" d="M1779.33,365.57a4,4,0,1,1-4-4A4,4,0,0,1,1779.33,365.57Z"/><path class="cls-9" d="M1746.8,440.41s37.14,6.83,55.2-26.81"/><line class="cls-9" x1="1690.39" y1="504.69" x2="1685.24" y2="555.74"/><line class="cls-9" x1="1827.04" y1="504.69" x2="1833.86" y2="552.71"/><path class="cls-9" d="M1646.73,857s120.07,48.45,223.28,4.91"/><path class="cls-9" d="M1821.91,379.81s-12.27-4-13.76,10.31c4.14-.12,6.7,5.17,1.67,7.81"/><polygon class="cls-8" points="1763.27 554.74 1711.91 655.49 1756.97 644.77 1754.55 708.09 1804.83 612.78 1758.73 618.74 1763.27 554.74"/><line class="cls-9" x1="1648.45" y1="574.37" x2="1669.74" y2="615.89"/><line class="cls-9" x1="1867.89" y1="576.57" x2="1847.23" y2="609.16"/></g></g></g></svg>