<svg xmlns="http://www.w3.org/2000/svg" xmlns:xlink="http://www.w3.org/1999/xlink" viewBox="0 0 3942 1302"><defs><style>.cls-1{fill:none;}.cls-2{fill:#97499b;}.cls-3{fill:#ed3724;}.cls-4{fill:#476bb2;}.cls-5{fill:#f9a128;}.cls-6{fill:#f6eb34;}.cls-7{fill:#3bc5f3;}.cls-8{fill:#a7cd41;}.cls-9{fill:#81559b;}.cls-10{fill:#fdde84;}.cls-11{fill:#f6ae4f;}.cls-12{fill:#25b367;}.cls-13{fill:#1c8448;}.cls-14{fill:#f26f52;}.cls-15{fill:#f7995b;}.cls-16{fill:#2f5e6c;}.cls-17{fill:#fff;}.cls-18{fill:#183441;}.cls-19{fill:#fabc92;}.cls-20{fill:#f69553;}.cls-21{fill:#933640;}.cls-22{fill:#2b5669;}.cls-23{fill:#8fa89b;}.cls-24{fill:#812064;}.cls-25{fill:#a45425;}.cls-26{fill:#7e455a;}.cls-27{fill:#c57132;}.cls-28{fill:#e7b24a;}.cls-29{fill:#7f421f;}.cls-30{fill:#ecedee;}.cls-31{fill:#2c758f;}.cls-32{fill:#1e2227;}.cls-33{fill:#3f3e42;}.cls-34{fill:#cadee9;}.cls-35{clip-path:url(#clip-path);}.cls-36{fill:#99cee1;}.cls-37{fill:#a8d8eb;}.cls-38{fill:#d6dade;}.cls-39{fill:#0f8abe;}.cls-40{fill:#f5f6f9;}</style><clipPath id="clip-path"><path class="cls-1" d="M1457,463.82s-1.79,30.48,5.37,60.62c0,0-2,6.31,11.47,5.23l3.47-.09s-1.1-13.39,3.92-17.12a15.4,15.4,0,0,1,11.38-3.18s5.5.82,7.94,15.32c0,0,.22,4.31,6.62,4.21s46.56-2.25,46.56-2.25,2.55-21.79,6.12-24.26,13.53-2.41,15-.87,2.74,12.84,5,17.53,1.47,9.8,17.31,9.19,95.31-6.39,95.31-6.39-.69-15.1,2.63-27.12-2-40.24-2-40.24-25.37.06-37.5,28.74c0,0-12-27.45-39.52-27.37S1457,463.82,1457,463.82Z"/></clipPath></defs><title>Asset 3Selected</title><g id="Layer_2" data-name="Layer 2"><g id="Layer_3" data-name="Layer 3"><path class="cls-2" d="M2153.87,189.55c-97,0-175.92,38.42-234.54,114.18-27.8,35.94-44.89,72.92-53.86,95.81h35.39c9-20.63,23.33-48.68,44.32-75.81,52.1-67.35,122.32-101.5,208.69-101.5s156.59,34.15,208.7,101.5c21,27.09,35.34,55.16,44.31,75.81h35.4c-9-22.88-26.06-59.86-53.86-95.81C2329.8,228,2250.89,189.55,2153.87,189.55Z"/><path class="cls-3" d="M2633.49,373.89c-1-3.86-25.41-95.59-94.41-185.19C2472.78,102.62,2352.14,0,2153.87,0S1835,102.62,1768.67,188.7c-69.07,89.7-93.41,181.35-94.41,185.2l-6.67,25.64h33.77l4.53-17.41c.93-3.59,23.64-89,88.67-173.49,61.82-80.27,174.34-176,359.31-176s297.5,95.69,359.31,176c65,84.38,87.74,169.88,88.68,173.48l4.53,17.42h33.77Z"/><path class="cls-4" d="M2153.87,156.87c-107.65,0-195.26,42.68-260.39,126.86-35.59,46-54.88,93-62.91,115.81h34.9c9-22.89,26.06-59.87,53.86-95.81C1978,228,2056.86,189.55,2153.87,189.55S2329.8,228,2388.42,303.73c27.8,35.95,44.89,72.93,53.86,95.81h34.9c-8-22.76-27.32-69.79-62.92-115.81C2349.14,199.55,2261.53,156.87,2153.87,156.87Z"/><path class="cls-5" d="M2513.18,208.64c-61.81-80.27-174.33-176-359.31-176s-297.49,95.69-359.31,176c-65,84.46-87.74,169.9-88.67,173.49l-4.53,17.41h33.77l2.39-9.18c.86-3.34,21.94-82.57,82.94-161.78,57.34-74.46,161.73-163.22,333.41-163.22S2430,154.12,2487.29,228.58c61,79.22,82.07,158.44,82.94,161.78l2.39,9.18h33.77l-4.53-17.42C2600.92,378.52,2578.16,293,2513.18,208.64Z"/><path class="cls-6" d="M2487.29,228.58C2430,154.12,2325.56,65.36,2153.87,65.36s-276.07,88.76-333.41,163.22c-61,79.21-82.08,158.44-82.94,161.78l-2.39,9.18h37.67l-3.65-1c.79-3.07,20.25-76.11,77.2-150.06C1899.21,179.87,1995.48,98,2153.87,98s254.66,81.83,307.53,150.48c56.94,74,76.4,147,77.2,150.06l-3.66,1h37.68l-2.39-9.18C2569.36,387,2548.29,307.8,2487.29,228.58Z"/><path class="cls-7" d="M2153.87,124.19c-118.29,0-214.6,46.95-286.24,139.55-45.19,58.42-65.87,117.64-71.52,135.8h34.46c8-22.77,27.32-69.8,62.91-115.81,65.13-84.18,152.74-126.86,260.39-126.86s195.27,42.68,260.39,126.86c35.6,46,54.89,93,62.92,115.81h34.46c-5.65-18.16-26.33-77.38-71.53-135.8C2368.47,171.14,2272.17,124.19,2153.87,124.19Z"/><path class="cls-8" d="M2461.4,248.52C2408.53,179.87,2312.27,98,2153.87,98s-254.66,81.83-307.52,150.48c-56.95,74-76.41,147-77.2,150.06l3.65,1h23.31c5.65-18.16,26.33-77.38,71.52-135.8,71.64-92.6,167.95-139.55,286.24-139.55s214.6,46.95,286.24,139.55c45.2,58.42,65.88,117.64,71.53,135.8h23.3l3.66-1C2537.8,395.51,2518.34,322.47,2461.4,248.52Z"/><path class="cls-9" d="M2714.12,270.48C2333.59,244.76,2060.4,765,2060.4,765l1170.5,15.07S3067.29,294.34,2714.12,270.48Z"/><path class="cls-10" d="M0,1302S821.75,303.79,1645.46,303.79,3540,1302,3540,1302Z"/><path class="cls-11" d="M2384.76,821.74c-2.75-24.74-10.64-47.89-21.66-70.07-7.78-20.39-22.11-37.84-26.21-60-3.31-17.86,3.77-36.92,17.27-43.49,13.66-6.64,30.47-2.43,42.71,12,14.67,17.25,20.27,38.34,23.61,60.26,1.41,9.29,2.78,18.72,8,26.95,2.36,3.74,5.12,7.23,10.17,6.52s4.93-5.21,6-8.82c2-6.32,1.47-12.81,1.19-19.22-1-24.2,2.59-48,6.29-71.73,3.29-21.06,15.8-33.24,29.64-30.89,16.88,2.86,29.07,23.9,25.31,43.32-3.32,17.14-12.32,32-19.07,47.7-5.58,13-12,25.8-10.61,40.64,0,6.77,1.24,13.68,8.92,14.83,8.49,1.28,11-6.34,14.06-12.43,10.86-23.83,26.09-44.13,47.72-59.28,16.76-11.74,34.58-20.74,55.65-20.62,17.62.09,35.38,12.21,40.28,27,5.05,15.25-2,31.3-17.94,43.19-10.49,7.84-23.43,10.37-34.2,17.35-17.18,4.28-30.92,13.83-42,27.44C2493.81,796.34,2438.85,806.6,2384.76,821.74Z"/><path class="cls-12" d="M3939.39,656.05S3848.87,614.51,3725,509.34c-123.16-104.53-192.79-164.47-262.46-163.28s-139.39,63.51-257.24,163.28C2999,683.93,2547.82,801.88,2547.82,801.88L2548,1156H3942Z"/><path class="cls-13" d="M3525.11,889.7c1.51-1.46,3.32-2.72,4.48-4.42,33.57-49,82.37-44.71,121.17-17.79,30.15,20.91,49.36,51.9,71.14,80.45,3.85,5.06,6.44,11.22,12.19,14.72,11.24,20.07,27.53,36.59,39.52,56.13-102.45,74.69-214.54,108.09-341.8,84-77.48-14.69-151.38-41-226.22-64.25-86.33-26.87-174-43.32-264.73-41.46a29.56,29.56,0,0,1-5.06-.74c34.72-59.23,77.15-111.08,142.32-138.43,64.88-27.24,127.74-27.35,184.57,21,1.91,1.63,4.4,2.57,6.63,3.82,17.85,20.38,39.17,37.18,58.16,56.39,15.29,15.46,33.1,27.11,52.89,35.91,40.39,18,77.19,12.29,103.3-17.62C3501.2,937.34,3513.34,913.53,3525.11,889.7Z"/><path class="cls-14" d="M2156.41,683.91a7.27,7.27,0,0,0,.49,1.71,1.71,1.71,0,0,1,.13.38.47.47,0,0,1-.09.38.71.71,0,0,1-.57.17H2156a.32.32,0,0,1-.14,0,.26.26,0,0,1-.15-.2.76.76,0,0,1,0-.26l.3-1.78a.48.48,0,0,1,.09-.26.18.18,0,0,1,.24,0l0-.08"/><path class="cls-15" d="M2156.52,679.65c.48,3.44-.56,6.89-1.6,10.21a2.86,2.86,0,0,1-.35.82,2,2,0,0,1-1.31.71c-.5.1-1,.11-1.51.23a3.66,3.66,0,0,0-1.93,1.17,1.54,1.54,0,0,1-.36.36.93.93,0,0,1-.91-.06,2.61,2.61,0,0,1-1-1.1c-1.13-2.07-1.09-4.57-.81-6.92a5.75,5.75,0,0,1,.65-2.31,5.26,5.26,0,0,1,1.25-1.33c.75-.62,1.56-1.17,2.37-1.72a5,5,0,0,1,1.32-.71,4.42,4.42,0,0,1,1.62-.09c.39,0,.78.06,1.16.1s1,.17,1.21.6l.18,0"/><path class="cls-16" d="M2156.7,683.56a1.91,1.91,0,0,1-.06.33,2.72,2.72,0,0,1-.15.43,1.43,1.43,0,0,1-1.17.93h-.17a1.18,1.18,0,0,1-.5-.22,1.65,1.65,0,0,1-.41-.55,2.06,2.06,0,0,1-.14-.44l0-.2h0a2.53,2.53,0,0,1,0-.55l0-.23h0a2.74,2.74,0,0,1,.17-.53,1.38,1.38,0,0,1,1.31-.93l.15,0a1.1,1.1,0,0,1,.4.21,1.29,1.29,0,0,1,.28.33,1,1,0,0,1,.1.17,2.49,2.49,0,0,1,.11.29,2.13,2.13,0,0,1,.09.63c0,.1,0,.21,0,.31"/><path class="cls-17" d="M2156.63,683.94a3.35,3.35,0,0,1-.14.38h0a3.35,3.35,0,0,0,.14-.38"/><polyline class="cls-18" points="2154.1 682.94 2150.22 682.94 2150.22 683.15 2154.1 683.15"/><path class="cls-15" d="M2155.6,758.18a31.72,31.72,0,0,1-1,6.9,4.84,4.84,0,0,1-1,2.13,5.34,5.34,0,0,1-3.33,1.28l-5.63.77-4.8.67-3.35.46-1.52.21a45.82,45.82,0,0,0-7.55,1.48c-.55.17-1.08.35-1.61.57a15.11,15.11,0,0,0-3.55,2,7.88,7.88,0,0,0-2,2,11.06,11.06,0,0,0-1,2.25c-.5,1.36-1,2.73-1.48,4.1a13.33,13.33,0,0,1-2.3,4.5c-.57.63-1.47,1.18-2.23.8s-.85-1.48-.78-2.35c.33-4.71,1.11-9.36,1.88-14a5.1,5.1,0,0,1,.85-2.43,3.52,3.52,0,0,1,1.85-1.1,15.17,15.17,0,0,1,3.93-.3,29.48,29.48,0,0,0,4.69-.48l1.41-.28c1.9-.41,3.78-1,5.64-1.51l1-.31c2.39-.73,4.76-1.48,7.13-2.24l1.86-.6a4.34,4.34,0,0,0,1.35-.61c1.32-1,1.06-3.11,1.92-4.54a1.34,1.34,0,0,1,.62-.58,1.58,1.58,0,0,1,.78,0c.44,0,.87.11,1.31.18,2.1.3,4.19.68,6.26,1.12Z"/><path class="cls-19" d="M2155,758.26l.61-.08a31.72,31.72,0,0,1-1,6.9,4.84,4.84,0,0,1-1,2.13,5.34,5.34,0,0,1-3.33,1.28l-5.63.77q.39-2.07.87-4.14a19.94,19.94,0,0,1,3.06-7.77,1.68,1.68,0,0,1,.18-.21C2150.83,757.44,2152.92,757.82,2155,758.26Z"/><path class="cls-15" d="M2141.29,765.85a13,13,0,0,1-.74,2.73,3,3,0,0,1-.73,1.34h0l-3.35.46a3.83,3.83,0,0,0-.78-1.37,20.31,20.31,0,0,0-2.61-2.87l-.35-.28,1-.31c2.39-.73,4.76-1.48,7.13-2.24A4.48,4.48,0,0,1,2141.29,765.85Z"/><path class="cls-15" d="M2152.23,758.13c-.31,1.12-.62,2.24-.94,3.35-.72,2.47-1.49,4.93-2.35,7.35-2,5.5-4.64,10.75-7.07,16-1.42,3.1-3.62,5.78-5.53,8.59q-3,4.49-5.91,9.06c-.84,1.34-1.71,2.68-2.55,4q-.75,1.18-1.44,2.4c-.26.44-.5.89-.74,1.33l0,0c-.1.18-.18.36-.26.54h0c-.93,2.18-.74,4.56-1.23,6.88-1,4.52-1.34,8.24-4.29,11.22-.2.21-.35.49-.64.55a.86.86,0,0,1-.87-.53,3,3,0,0,1-.22-1.31q-.14-6.59-.25-13.18c0-1.13-.36-2.72.57-3.6a22.77,22.77,0,0,0,3.51-4.34l.22-.36c.19-.3.38-.61.55-.93.33-.57.63-1.14.91-1.72l.05-.1c1.37-2.83,2.92-6.77,4.29-9.58,2.13-4.36,4.12-7.13,6.6-11.3,1.13-1.91,1-4.1,1.64-6.23,1.69-5.77,2.33-11.6,4-17.23h0a38.09,38.09,0,0,1,1.33-3.75c.05-.12.1-.25.16-.38l2.41-1c1.93-.76,3.25.24,4.87,1.18a10.6,10.6,0,0,0,2.06,1l.41.14a1.58,1.58,0,0,1,.47.28.92.92,0,0,1,.23.29A1.74,1.74,0,0,1,2152.23,758.13Z"/><path class="cls-15" d="M2152.23,758.13c-.31,1.12-.62,2.24-.94,3.35l-.08-.07a9.43,9.43,0,0,0-5-2.26,17,17,0,0,0-5.87,0,38.09,38.09,0,0,1,1.33-3.75,3.12,3.12,0,0,1,.42-.18,9.71,9.71,0,0,1,5.39-.43,11.5,11.5,0,0,1,1.63.43,15.17,15.17,0,0,1,2.47,1.11c.16.09.32.18.47.28a.92.92,0,0,1,.23.29A1.74,1.74,0,0,1,2152.23,758.13Z"/><path class="cls-19" d="M2155.82,757.45h-.07l0,0Z"/><path class="cls-15" d="M2114.37,714.63a4,4,0,0,1-2-.31c-.36-.16-.69-.37-1-.55a15.48,15.48,0,0,0-2-.81.29.29,0,0,0-.16,0,.27.27,0,0,0-.2.22.7.7,0,0,0,.06.32,3.41,3.41,0,0,0,1.13,1.47c-.9.31-1.91,0-2.84.25a5.68,5.68,0,0,0-2.4,1.52c-.11.09-.22.23-.17.36s.31.15.48.09a8.36,8.36,0,0,1,2.81-.77c-.53.27-1.32.47-1.62.68a2.54,2.54,0,0,0-.72.93c-.27.51-.52,1-.76,1.56a.68.68,0,0,0,.6-.09,3.12,3.12,0,0,0,.45-.44,3.22,3.22,0,0,1,1.42-.9,4.73,4.73,0,0,0-1.28,2.58.24.24,0,0,0,.41.19,1.48,1.48,0,0,1,.38-.33,2,2,0,0,1,.6-.12c.81-.15,1-.79,1.74-1.24s1.9-.38,2.51-.74a8.77,8.77,0,0,0,1.6-.88c.17-.29,1.22-.27,1.54-.36s-.82-.16-.45-.26a.47.47,0,0,0,.26-.14.48.48,0,0,0,.07-.24c0-.29.08-.59.11-.88s0-.46-.2-.48"/><path class="cls-15" d="M2173.32,697.55a13.08,13.08,0,0,1,1.46-2.57,7.56,7.56,0,0,1,1.82-2,23.37,23.37,0,0,0,2.67-1.53c.55.42-.23,1.31-.74,1.73a10.81,10.81,0,0,1,4-.52c.25,0,.57.1.61.35,0,.49-1.69,0-2.69.94a6,6,0,0,1,2.88.36,1.12,1.12,0,0,1,.5.31.35.35,0,0,1,0,.08.26.26,0,0,1-.3.38,4,4,0,0,0-2.44,0,5.78,5.78,0,0,1,1.54.26c.49.12,1.36.4,1.23.79-.54.32-1.73-.09-2.37-.08a7.11,7.11,0,0,1,1.49.79c.08.06.17.14.14.23s-.16.12-.26.11c-1.28,0-2.55.05-3.83.15a7.57,7.57,0,0,0-1.56.25,7.7,7.7,0,0,0-2.59,1.64,7.89,7.89,0,0,1-1.42-1.22.69.69,0,0,0-.28-.2c-.12,0-.26,0-.26.16"/><path class="cls-20" d="M2156.05,679c-.81.92-2.11,1.21-3.07,1.94a5.06,5.06,0,0,0-1.65,2.41,10.56,10.56,0,0,0-.49,2.91,25.12,25.12,0,0,0,0,3.36c.11,1.31.32,2.62.31,3.94a1.18,1.18,0,0,1-.14.67,1.12,1.12,0,0,1-.49.37,9.13,9.13,0,0,1-4.48.77,20.81,20.81,0,0,1,0-8.32,29.14,29.14,0,0,1,1.09-4.1,8.53,8.53,0,0,1,2-3.47,8.11,8.11,0,0,1,1.7-1.13,4.26,4.26,0,0,1,2.11-.64,3.83,3.83,0,0,1,1.16.26,11.44,11.44,0,0,1,1.74.81l-.36.39"/><path class="cls-21" d="M2176.79,702.76c-.27-2.14-1.18-4.38-3.07-5.39a1.42,1.42,0,0,0-.93-.22c-.51.09-.83.59-1.08,1l-1.11,2-.14.25-.27.48c-.32.57-.64,1.14-1,1.71-.68,1.22-1.36,2.44-2,3.66a4,4,0,0,1-2.64-1.21c-3.28-2.93-4.05-7.88-7.13-11a3.89,3.89,0,0,0-1.76-1.15,4.91,4.91,0,0,0-1.71,0l-1.64.18a37.85,37.85,0,0,0-5.41,1,19.25,19.25,0,0,0-3,1.1l-.68.39c-1.52,0-2.77,1.16-3.81,2.28l-1.65,1.74c-.39.41-.78.83-1.18,1.24a46.42,46.42,0,0,1-7,6.5c-.22.16-.44.31-.67.45a40.87,40.87,0,0,1-8,3.82l-1.37.5-.22.08-1.09.4-2.84,1a3.69,3.69,0,0,0-2,1.34,3.2,3.2,0,0,0-.29,1.89,12.28,12.28,0,0,0,.45,2.55,3.3,3.3,0,0,0,1.35,2.11c1,.55,2.23.1,3.24-.42.65-.34,1.29-.7,1.91-1.09.41-.25.81-.51,1.21-.78l.12-.08,1.17-.81c2.48-1.8,4.85-3.78,7.42-5.46.9-.59,1.83-1.14,2.73-1.72.42-.26.83-.53,1.24-.81a49.05,49.05,0,0,0,4.1-3.06c2,2.22,2.79,5.43,3.4,8.28a7.82,7.82,0,0,1,.13,4.18c-.8,2.32-2.81,4-4.76,5.45q-3.35,2.57-6.8,5t-7.15,4.82A130.85,130.85,0,0,0,2108,746c-1.91,1.65-3.72,4.07-3.72,5,0,.15,0,.33.19.38h.05a2.2,2.2,0,0,0,.48,1.25,4,4,0,0,0,1.87,1.2c2.48.88,5.28.56,7.78,1.3a12.83,12.83,0,0,0,4.54,3.18,28.62,28.62,0,0,0,6.38,1.77,35,35,0,0,0,8.21.8,9.67,9.67,0,0,0,3.81-.53,2.45,2.45,0,0,0,2.25-.39c.56-.44.91-1.1,1.48-1.51a4.09,4.09,0,0,1,2.54-.54c4.28.09,8.46,1.22,12.62,2.23a1.5,1.5,0,0,0,1,0,1.43,1.43,0,0,0,.65-.92,7.21,7.21,0,0,0,.36-3.35c2.2-5.6,2.54-11.76,2.46-17.78,0-1,0-2.07,0-3.11v-.18c0-5.28.06-10.6-2.24-15.3-.9-1.83-.59-4-.36-6a68.41,68.41,0,0,0,.52-7.56l.06,0,4.72,5.3a5.19,5.19,0,0,0,1.33,1.19,3.57,3.57,0,0,0,3.14,0,10.41,10.41,0,0,0,2.61-1.92c.78-.71,1.56-1.43,2.33-2.16l.68-.64.37-.36.3-.28,1.35-1.32a3.72,3.72,0,0,0,.87-1.11A3.35,3.35,0,0,0,2176.79,702.76Z"/><path class="cls-22" d="M2122.53,718.27l-1.17.81-.12.08a5,5,0,0,1-2.28-2.85,6,6,0,0,1,.32-4.15l0,0,.22-.08,1.37-.5a4.66,4.66,0,0,0,0,4.68,10.14,10.14,0,0,0,1,1.27A8.74,8.74,0,0,0,2122.53,718.27Z"/><path class="cls-22" d="M2174.12,707.3l-.37.36-.68.64-1-2.63a7.31,7.31,0,0,0-1.09-2.09,2.61,2.61,0,0,0-1.72-1c.31-.57.63-1.14,1-1.71l.27-.48a3.68,3.68,0,0,1,2.05,1.47,7.17,7.17,0,0,1,.75,1.67A13.19,13.19,0,0,1,2174.12,707.3Z"/><path class="cls-23" d="M2121.36,719.08l-.12.08c-.4.27-.8.53-1.21.78a6.5,6.5,0,0,1-1.82-7.41l1.09-.4.22-.08c-.08.23-.21.45-.29.68a3.85,3.85,0,0,0-.21,1,7.54,7.54,0,0,0,.15,2.06,4.46,4.46,0,0,0,1.62,2.91A6.27,6.27,0,0,0,2121.36,719.08Z"/><path class="cls-23" d="M2174.42,707l-.3.28-.37.36a.15.15,0,0,1,0-.07,14.81,14.81,0,0,0-.75-3.34,5.5,5.5,0,0,0-1.48-2.53,6.53,6.53,0,0,0-1-.67,2.07,2.07,0,0,0-.34-.15l.27-.48.14-.25a4.17,4.17,0,0,1,2.43,1.73,7.34,7.34,0,0,1,1.11,3c.05.33.09.66.13,1Z"/><path class="cls-22" d="M2152.31,693.05l-.38.15-.94.38a16.07,16.07,0,0,1-3.76.81.29.29,0,0,1-.16,0,.22.22,0,0,1-.1-.13,1.72,1.72,0,0,1-.07-.21A37.85,37.85,0,0,1,2152.31,693.05Z"/><path class="cls-20" d="M2147.49,703.31a6.33,6.33,0,0,0,3.05,4.65,28.68,28.68,0,0,1-2-15.28c.25-2.11.68-4.2.74-6.32a11.16,11.16,0,0,1,1-4.23,6.69,6.69,0,0,1,1.47-2.26,3.29,3.29,0,0,1,2.46-1"/><path class="cls-24" d="M2154.43,679.11h0a1.4,1.4,0,0,0,1.83-1.79,7.4,7.4,0,0,0-3-3.59,9.31,9.31,0,0,0-11,1.25,4.6,4.6,0,0,0-1.63,3c0,.41.05.83,0,1.24a4.76,4.76,0,0,1-.66,1.88,16.66,16.66,0,0,1-5.09,5.66,22.33,22.33,0,0,1-3.16,1.79c-7.77,3.68-7.08,15.07,1.13,17.6l.41.12a45.33,45.33,0,0,0,17.19,1.67"/><path class="cls-25" d="M2156.62,680.46a11.83,11.83,0,0,0-4.82-1.76,26.54,26.54,0,0,0-5.33-.53,14,14,0,0,0-5.24,1c-.24.1-.57.18-.69,0a.34.34,0,0,1,.08-.39.87.87,0,0,1,.38-.2,19.71,19.71,0,0,1,12-.43,31.74,31.74,0,0,1,3.1,1.1,1.36,1.36,0,0,1,.6.39.67.67,0,0,1-.13.9"/><path class="cls-19" d="M2153.52,687.29s.22.05.44.08a2.89,2.89,0,0,0,.46,0,2.49,2.49,0,0,0,.46,0c.22,0,.44-.06.44,0s-.2.11-.43.15a2.16,2.16,0,0,1-.48,0,2.31,2.31,0,0,1-.47-.09A1,1,0,0,1,2153.52,687.29Z"/><path class="cls-19" d="M2111.68,714.74a1.3,1.3,0,0,1-.34.07l-.35.07-.36,0a1.48,1.48,0,0,1-.36,0,1,1,0,0,1,.33-.14l.36-.09.37,0C2111.51,714.7,2111.68,714.71,2111.68,714.74Z"/><path class="cls-19" d="M2109.45,718.11l-.06,0-.16.09a4.36,4.36,0,0,0-.46.32,6.1,6.1,0,0,0-.61.56s-.31.31-.58.62a6.17,6.17,0,0,1-.55.62,4.71,4.71,0,0,1,.46-.69c.25-.33.54-.64.55-.66a7,7,0,0,1,.67-.55,3.55,3.55,0,0,1,.49-.27.71.71,0,0,1,.18-.07Z"/><path class="cls-19" d="M2108.75,717.46a2.59,2.59,0,0,1-.34.11,1.55,1.55,0,0,0-.32.14,2.1,2.1,0,0,0-.32.16c-.15.09-.28.2-.3.18s.09-.16.23-.27a2.64,2.64,0,0,1,.32-.22,2.38,2.38,0,0,1,.37-.1A.75.75,0,0,1,2108.75,717.46Z"/><path class="cls-19" d="M2113.72,788a.39.39,0,0,1-.07-.16,1.4,1.4,0,0,1-.05-.38,1.34,1.34,0,0,1,0-.2.9.9,0,0,1,0-.18,1.79,1.79,0,0,1,0-.19l.07-.17a1.8,1.8,0,0,1,.21-.33,1.35,1.35,0,0,1,.26-.27c.09-.07.15-.1.15-.09s0,.06-.1.13a2.43,2.43,0,0,0-.22.29,1.64,1.64,0,0,0-.16.33,1.36,1.36,0,0,0-.06.16l-.06.17,0,.17a1.08,1.08,0,0,0,0,.19,2.16,2.16,0,0,0,0,.36A.56.56,0,0,1,2113.72,788Z"/><path class="cls-19" d="M2113.14,787.26a.58.58,0,0,1,0-.33,1.69,1.69,0,0,1,.09-.34,2.28,2.28,0,0,1,.22-.27c.13-.12.28-.19.29-.17s-.11.12-.2.24a2.16,2.16,0,0,0-.17.28,1.47,1.47,0,0,0-.12.28C2113.17,787.1,2113.16,787.26,2113.14,787.26Z"/><path class="cls-19" d="M2112.55,786.48a.29.29,0,0,1-.06-.23.55.55,0,0,1,.07-.24.54.54,0,0,1,.19-.17c.11-.06.23-.07.23-.05s-.1.07-.17.14a2,2,0,0,0-.12.16.89.89,0,0,0-.09.18C2112.56,786.37,2112.57,786.47,2112.55,786.48Z"/><path class="cls-19" d="M2122.23,770.52a.31.31,0,0,1,.18,0,2.44,2.44,0,0,1,.35.12,2.46,2.46,0,0,0,.52.12,2.93,2.93,0,0,0,.54,0c.26,0,.51-.09.52-.07a1.15,1.15,0,0,1-.51.18,2.1,2.1,0,0,1-.57,0l-.19,0a2.31,2.31,0,0,1-.35-.14l-.33-.16Z"/><path class="cls-19" d="M2122,809.11a1.41,1.41,0,0,1,.08-.58,2.93,2.93,0,0,1,.14-.39,1.4,1.4,0,0,1,.1-.17l.12-.17a3.56,3.56,0,0,1,.28-.31,1.34,1.34,0,0,1,.48-.32s-.22.19-.4.4a3.46,3.46,0,0,0-.35.48l-.1.16c0,.1-.11.22-.17.36S2122.07,809.11,2122,809.11Z"/><path class="cls-19" d="M2118.7,829.29s-.06-.11-.08-.23a1.2,1.2,0,0,1,0-.25,1.48,1.48,0,0,1,.06-.25c0-.12.1-.22.12-.21s0,.12,0,.23l0,.24s0,.12,0,.24S2118.72,829.29,2118.7,829.29Z"/><path class="cls-19" d="M2119.36,829.09s-.09-.07-.13-.17a.61.61,0,0,1,0-.21.67.67,0,0,1,.07-.21c0-.09.13-.16.15-.15s0,.1,0,.19a.94.94,0,0,0,0,.18s0,.09,0,.18S2119.38,829.08,2119.36,829.09Z"/><path class="cls-19" d="M2121,824.23s0,0,0-.08v-.22c0-.2,0-.47,0-.81,0-.66,0-1.55.06-2.45s.13-1.79.21-2.47.15-1.16.15-1.21.08-.52.2-1.2c.07-.34.14-.73.22-1.15a4.32,4.32,0,0,0,.09-1.3,2.29,2.29,0,0,0-.5-1.17,3.78,3.78,0,0,0-.85-.74c-.28-.19-.52-.33-.68-.43l-.2-.11-.07,0s0,0,.08,0l.2.1a6.22,6.22,0,0,1,.7.39,3.74,3.74,0,0,1,.88.75,2.25,2.25,0,0,1,.55,1.21,4.52,4.52,0,0,1-.07,1.33l-.2,1.16c-.12.68-.18,1.15-.19,1.2s-.08.51-.17,1.19-.18,1.58-.24,2.47-.1,1.78-.11,2.44c0,.34,0,.61,0,.81v.3Z"/><path class="cls-19" d="M2120.11,828.56l.12-.21c.08-.12.17-.28.26-.45s.16-.34.21-.48.07-.23.08-.24,0-.1.08-.24.08-.33.12-.51.05-.38.06-.52a1.35,1.35,0,0,1,0-.24.71.71,0,0,1,0,.24,4.89,4.89,0,0,1,0,.53,5.26,5.26,0,0,1-.09.53l-.07.26s0,.11-.1.24a3.57,3.57,0,0,1-.24.48,2.79,2.79,0,0,1-.31.44A.75.75,0,0,1,2120.11,828.56Z"/><path class="cls-19" d="M2119.26,829.15a1,1,0,0,1,0-.38,2.9,2.9,0,0,1,.08-.38,2.64,2.64,0,0,1,.16-.36.8.8,0,0,1,.21-.31,1.53,1.53,0,0,1-.11.36c-.06.17-.11.35-.11.36s-.07.18-.13.36A1.33,1.33,0,0,1,2119.26,829.15Z"/><path class="cls-19" d="M2119.84,820.55s-.08-.23-.19-.44a4,4,0,0,0-.26-.4,2.62,2.62,0,0,0-.31-.37c-.17-.17-.37-.3-.36-.32a1.34,1.34,0,0,1,.43.23,2.45,2.45,0,0,1,.37.36,2.91,2.91,0,0,1,.23.46A1.05,1.05,0,0,1,2119.84,820.55Z"/><path class="cls-26" d="M2127.88,806.57q-.75,1.18-1.44,2.4a6.29,6.29,0,0,0-.93-2,4,4,0,0,0-2.74-1.66c.33-.57.63-1.14.91-1.72l.05-.1a2.66,2.66,0,0,1,1.53.12,4.93,4.93,0,0,1,2.23,2.26Q2127.7,806.2,2127.88,806.57Z"/><path class="cls-26" d="M2125.68,810.34c0-.29,0-.57-.07-.83a4.82,4.82,0,0,0-.46-1.5,3.09,3.09,0,0,0-.73-.84,4.1,4.1,0,0,0-2-.91l-.18,0-.22.36a3.48,3.48,0,0,1,1.5.31,3.3,3.3,0,0,1,1.58,2,7.9,7.9,0,0,1,.34,2h0Z"/><path class="cls-14" d="M2127.4,772.08c-.55.17-1.08.35-1.61.57a13.94,13.94,0,0,0-.11-5l1.41-.28.06.17A10.19,10.19,0,0,1,2127.4,772.08Z"/><path class="cls-27" d="M2018,510s6.46,52.6,40,77l-114,31h-37.87L1898,532.62S1973.2,538.46,2018,510Z"/><path class="cls-28" d="M1898,532.62s12.2,61,45.74,85.38H1841S1878.69,596.65,1898,532.62Z"/><polygon class="cls-29" points="1898 532.62 1894.44 618 1887.83 618 1898 532.62"/><g id="Van"><path class="cls-30" d="M1465.65,423.84l2-4.26s-.38-6.88,9.21-10.9,17.43-3.54,26.42-3.79,32.35-1.19,32.35-1.19l57.25-2.09,24.21-.6s22.15-.54,33.33,2c1,.23,2,.44,3,.64,4.86,1,18,4.05,18.88,8.66l2.86,1.58-.89,1.73L1683.1,443l5.16,4.17s2.17-.09,3.2,4.77-18.4,50.87-18.4,50.87L1457.4,461.61v-1.89s1.51-1.27.94-4.56,2.22-5.91,2.22-5.91Z"/><polygon class="cls-31" points="1556.81 526.92 1549.57 526.48 1559.93 499.78 1578.07 498.94 1578.35 503.3 1556.81 526.92"/><path class="cls-32" d="M1579.49,543.71l-13.11.5.4-40.47,15.19-.44,4.71,24S1587.25,535.41,1579.49,543.71Z"/><path class="cls-33" d="M1576.52,523.63c0,10.89-4.33,19.93-9.74,20.55l-.4,0c-5.6.22-10.14-8.65-10.14-19.81s4.54-20.37,10.14-20.58S1576.52,512.48,1576.52,523.63Z"/><ellipse class="cls-34" cx="1566.38" cy="524.02" rx="14.07" ry="7.06" transform="translate(1022.34 2083.55) rotate(-89.27)"/><path class="cls-32" d="M1667.79,536l-13.11.5.4-40.47,15.19-.44,4.71,24S1675.55,527.67,1667.79,536Z"/><path class="cls-33" d="M1664.81,515.89c0,10.89-4.32,19.93-9.73,20.55l-.4,0c-5.6.22-10.14-8.65-10.14-19.81s4.54-20.37,10.14-20.58S1664.81,504.74,1664.81,515.89Z"/><path class="cls-32" d="M1499,546.78l-13.11.5.39-40.47,15.19-.44,4.72,24S1506.8,538.47,1499,546.78Z"/><path class="cls-33" d="M1496.06,526.69c0,10.89-4.32,19.93-9.74,20.56l-.39,0c-5.6.21-10.14-8.66-10.14-19.81s4.54-20.37,10.14-20.59S1496.06,515.54,1496.06,526.69Z"/><ellipse class="cls-34" cx="1485.93" cy="527.08" rx="14.07" ry="7.06" transform="translate(939.85 2006.13) rotate(-89.27)"/><g class="cls-35"><path class="cls-2" d="M1570.73,514.59c-46.36,1.77-84.06,21.56-112.07,58.83a198.24,198.24,0,0,0-25.74,46.76l16.91-.65a180.52,180.52,0,0,1,21.18-37c24.9-33.13,58.45-50.72,99.72-52.29s74.82,13.47,99.72,44.7a163.71,163.71,0,0,1,21.17,35.42l16.91-.65a179.92,179.92,0,0,0-25.73-44.8C1654.79,529.75,1617.08,512.83,1570.73,514.59Z"/><path class="cls-3" d="M1799.9,594c-.48-1.83-12.14-45.21-45.11-86.77-31.68-39.93-89.32-86.77-184.06-83.16s-152.38,54.83-184.06,97.17c-33,44.12-44.64,88.36-45.11,90.21l-3.19,12.38,16.14-.62,2.16-8.4c.45-1.73,11.29-43,42.37-84.51,29.54-39.48,83.3-87.25,171.69-90.62s142.15,40.31,171.69,77.55c31,39.13,41.92,79.57,42.37,81.28l2.16,8.24,16.14-.62Z"/><path class="cls-4" d="M1570.73,499c-51.44,1.95-93.3,23.94-124.42,65.35a214.26,214.26,0,0,0-30.07,56.48l16.68-.63a198.24,198.24,0,0,1,25.74-46.76c28-37.27,65.71-57.06,112.07-58.83s84.06,15.16,112.07,50.29a179.92,179.92,0,0,1,25.73,44.8l16.68-.63a194.74,194.74,0,0,0-30.06-54.19C1664,515.82,1622.17,497,1570.73,499Z"/><path class="cls-5" d="M1742.42,517.18c-29.54-37.24-83.31-80.91-171.69-77.55S1428.58,490.77,1399,530.25c-31.08,41.54-41.92,82.78-42.37,84.51l-2.16,8.4,16.13-.61,1.14-4.43c.42-1.61,10.49-39.86,39.63-78.81,27.4-36.62,77.28-80.94,159.32-84.06s131.91,37.39,159.31,71.92c29.15,36.75,39.22,74.22,39.64,75.8l1.14,4.34,16.13-.61-2.16-8.24C1784.34,596.75,1773.46,556.31,1742.42,517.18Z"/><path class="cls-6" d="M1730,527.17c-27.4-34.53-77.28-75-159.31-71.92s-131.92,47.44-159.32,84.06c-29.14,39-39.21,77.2-39.63,78.81l-1.14,4.43,18-.69-1.74-.39c.38-1.48,9.68-36.74,36.89-73.11,25.26-33.76,71.25-74.61,146.94-77.49s121.68,34.46,146.94,66.3c27.21,34.3,36.51,68.85,36.89,70.3l-1.75.53,18-.69-1.14-4.34C1769.26,601.39,1759.19,563.92,1730,527.17Z"/><path class="cls-7" d="M1570.73,483.36c-56.53,2.15-102.54,26.34-136.77,71.89a226.68,226.68,0,0,0-34.18,66.19l16.46-.63a214.26,214.26,0,0,1,30.07-56.48c31.12-41.41,73-63.4,124.42-65.35s93.3,16.84,124.42,55.88a194.74,194.74,0,0,1,30.06,54.19l16.47-.63a207,207,0,0,0-34.18-63.59C1673.27,501.89,1627.25,481.21,1570.73,483.36Z"/><path class="cls-8" d="M1717.67,537.17c-25.26-31.84-71.26-69.18-146.94-66.3s-121.68,43.73-146.94,77.49c-27.21,36.37-36.51,71.63-36.89,73.11l1.74.39,11.14-.42A226.68,226.68,0,0,1,1434,555.25c34.23-45.55,80.24-69.74,136.77-71.89s102.54,18.53,136.77,61.47a207,207,0,0,1,34.18,63.59l11.13-.42,1.75-.53C1754.18,606,1744.88,571.47,1717.67,537.17Z"/></g><path class="cls-36" d="M1595.66,422.88l11.18,25.17a3.56,3.56,0,0,0,3.4,2.1l37.35-1.43a2.25,2.25,0,0,0,2-3.15L1637.16,419a3.24,3.24,0,0,0-3.11-1.85l-35.79,1.66A3,3,0,0,0,1595.66,422.88Z"/><path class="cls-36" d="M1644.36,417a3,3,0,0,0-2.6,4.11l11.18,25.16a3.55,3.55,0,0,0,3.41,2.1l31.91-1.21-14-31.54Z"/><path class="cls-36" d="M1481.58,424.84l-5.77,22.55a2,2,0,0,0,2.06,2.59l15.37-.59a2.25,2.25,0,0,0,2.06-1.66l5.94-22.55a2,2,0,0,0-2.06-2.6l-15.54.59A2.22,2.22,0,0,0,1481.58,424.84Z"/><path class="cls-36" d="M1506.23,423.9l-5.77,22.55a2,2,0,0,0,2.06,2.59l15.37-.59a2.23,2.23,0,0,0,2.06-1.66l5.94-22.55a2,2,0,0,0-2.05-2.6l-15.55.59A2.22,2.22,0,0,0,1506.23,423.9Z"/><path class="cls-36" d="M1531.35,423l-5.77,22.55a2,2,0,0,0,2.06,2.58l15.37-.58a2.25,2.25,0,0,0,2.06-1.66l5.94-22.55a2,2,0,0,0-2-2.6l-15.55.58A2.24,2.24,0,0,0,1531.35,423Z"/><path class="cls-36" d="M1564,420.05l19.22-.76A3,3,0,0,1,1586,421l8.86,20.17a3.2,3.2,0,0,1-2.83,4.42l-34.26,1.3a3,3,0,0,1-3-3.86l6.18-20.71A3.25,3.25,0,0,1,1564,420.05Z"/><path class="cls-36" d="M1465.65,423.84s-5,14-6.21,26.46l8.51.12a2.68,2.68,0,0,0,2.63-2.07c1.13-5,4-17.47,4.9-22.5a1.7,1.7,0,0,0-1.69-2Z"/><path class="cls-37" d="M1472.26,415.72l2.85-4.2a1.41,1.41,0,0,1,1.12-.63l28.57-.87a1.31,1.31,0,0,1,1.13,2l-2.47,4a1.42,1.42,0,0,1-1.14.67l-29,1.1A1.31,1.31,0,0,1,1472.26,415.72Z"/><path class="cls-37" d="M1510.12,414.28l3.76-4.24a2,2,0,0,1,1.48-.63l37.76-1.23c1.4,0,2.25,1.1,1.49,2l-3.27,4a2,2,0,0,1-1.5.68l-38.26,1.46C1510.14,416.4,1509.29,415.2,1510.12,414.28Z"/><path class="cls-38" d="M1466.36,419.7l209-7.86s1.13,0,1.22.74-1.48,1.33-1.48,1.33l-208.89,7.95a1.15,1.15,0,0,1-1.4-1.17C1464.84,419.29,1466.36,419.7,1466.36,419.7Z"/><path class="cls-31" d="M1457.4,459.72l-2.09,1.16s-1.48,1.6-.42,2.46a3.54,3.54,0,0,0,2.28.77,4.38,4.38,0,0,1,2.09-.41l155.4-5.91s22.56-1.3,36.09,20.92a25.55,25.55,0,0,1,2.32,9.05s.17,2.2,2.14,1.79c0,0,1,.08,1.32-2.1a37.48,37.48,0,0,1,5.55-14,42.45,42.45,0,0,1,17.24-14.4c8.08-3.49,10.7-3.36,14.07-4.18a2.53,2.53,0,0,0,1.4-2.05,1.13,1.13,0,0,0-1.23-1.26s-9,0-19.41,6.6-16.88,14.16-19.29,21.32c0,0-8.06-14-16-17.94s-12.24-6.55-22.44-6.94-32.26.31-32.26.31Z"/><path class="cls-37" d="M1630.34,489.66a1.29,1.29,0,0,1-1.32-1.05c0-.09-1.54-8.13-6.18-7.95s-6.28,6.67-6.3,6.74a1.4,1.4,0,0,1-1.61,1.06,1.29,1.29,0,0,1-1-1.58c.08-.35,2.1-8.65,8.91-8.91s8.75,9.64,8.83,10.06a1.41,1.41,0,0,1-1.09,1.6Z"/><path class="cls-37" d="M1693.18,487.26a1.28,1.28,0,0,1-1.32-1.05c0-.08-1.54-8.12-6.18-7.95s-6.28,6.68-6.3,6.75a1.4,1.4,0,0,1-1.61,1.06,1.3,1.3,0,0,1-1-1.58c.08-.35,2.1-8.65,8.91-8.91s8.75,9.63,8.83,10.06a1.4,1.4,0,0,1-1.09,1.59Z"/><ellipse class="cls-38" cx="1622.77" cy="491.59" rx="9.07" ry="5.85" transform="translate(1087.23 2100.39) rotate(-88.44)"/><path class="cls-31" d="M1622.52,479.94c-4.19.16-7.59,5.34-7.59,11.56s3.4,11.14,7.59,11,7.58-5.33,7.58-11.56S1626.7,479.78,1622.52,479.94Zm0,18.87c-2.83.11-5.12-3.21-5.12-7.4s2.29-7.69,5.12-7.8,5.11,3.21,5.11,7.41S1625.34,498.7,1622.52,498.81Z"/><ellipse class="cls-38" cx="1685.89" cy="489.18" rx="9.07" ry="5.85" transform="translate(1151.03 2161.14) rotate(-88.44)"/><path class="cls-31" d="M1685.63,477.54c-4.19.16-7.58,5.33-7.58,11.56s3.39,11.14,7.58,11,7.58-5.34,7.58-11.56S1689.82,477.38,1685.63,477.54Zm0,18.87c-2.83.11-5.12-3.21-5.12-7.41s2.29-7.68,5.12-7.79,5.12,3.21,5.12,7.4S1688.45,496.3,1685.63,496.41Z"/><path class="cls-39" d="M1601.5,463.78c1,3.79,1.8,7.65,2.44,11.53s1.12,7.79,1.39,11.73c.15,2,.21,3.95.22,5.93a54.11,54.11,0,0,1-.25,6,33.2,33.2,0,0,1-1.07,5.95,12.36,12.36,0,0,1-3,5.5l-.07.07-.07,0a13,13,0,0,1-2.22.88,22.58,22.58,0,0,1-2.23.54,28.68,28.68,0,0,1-4.51.43,35.2,35.2,0,0,1-4.48-.24c-.74-.09-1.47-.23-2.21-.34l-2.17-.46c1.47.1,3,.19,4.42.2a42.54,42.54,0,0,0,4.38-.21,27.83,27.83,0,0,0,4.27-.74,15.78,15.78,0,0,0,3.89-1.47l-.14.11a11.06,11.06,0,0,0,2.35-4.82,35.8,35.8,0,0,0,.91-5.62,93.58,93.58,0,0,0,.13-11.61c-.15-3.88-.44-7.78-.79-11.67S1601.93,467.68,1601.5,463.78Z"/><path class="cls-40" d="M1581.88,516.87a10,10,0,0,0-1.4,5.73c.08,3.72,1,5.58,9.44,5.91s90.29-2.42,90.29-2.42,9.77,1.95,17.5-2.56,2.21-16.62-10.3-11.85l-100.23,3.82S1584.58,514.26,1581.88,516.87Z"/></g></g></g></svg>