<svg xmlns="http://www.w3.org/2000/svg" viewBox="0 0 2782.39 1138.8"><defs><style>.cls-1{fill:#f5a1af;}</style></defs><title>Asset 8Selected</title><g id="Layer_2" data-name="Layer 2"><g id="Layer_4" data-name="Layer 4"><path class="cls-1" d="M2782.39,163.58c0-1,0-3,0-3s-92.07,116.48-150.36,163A660.59,660.59,0,0,1,2419.1,437.91a656.31,656.31,0,0,1-152.26,29.56c-26.27,1.93-52.56,3.37-78.91,1.24-36.17-.2-71.82-5.2-107.18-12.31-14.5-2.91-28.82-6.78-43.22-10.21-42.73-11.28-83.56-27.62-123.37-46.63-54.51-26-106.56-56.64-159.43-85.74-56.53-31.11-113.61-61.07-175.2-81.3-40.74-13.38-82.43-21.68-125.37-22.51-44.7-.86-88.2,6.69-130.94,19.47C1285.9,240.63,1250,255.34,1214.39,271c-2.22,1-4.48,1.84-6.73,2.76-23.12,10.8-46.21,21.69-69.39,32.38-35.12,16.2-70.25,32.39-106.77,45.28-10,3.55-20.07,7.34-30.65,9.19-19.6,6.71-39.85,10.77-60.2,14.15-29.12,4.84-58.5,7.45-88,5.81-50.1-2.78-97.71-14.18-139.81-43.13-1.38-1-2.59-2.16-3.89-3.25-17.42-10.75-31.26-25.37-43.81-41.25-21.5-27.2-37-58.28-55.76-87.27-3.55-5.49-7-11-10.57-16.54-13-15.61-26.71-30.23-43.9-41.51-34.32-22.51-71.9-21.77-105,2.46-20,14.64-36.7,32.85-55,49.3-17.15,15.41-35.09,29.5-58.2,35.1-24.23,5.88-46.92.8-68.67-9.85-31.46-15.4-55.23-39.54-75.79-67.32C172.81,131.1,155,103.65,134,78.56,99.73,37.62,56.68,11.56,4.21,1.21,2.79.93,1.4.41,0,0V1138.8H2782v-662h-.1C2781.94,372.38,2782.37,268,2782.39,163.58Z"/></g></g></svg>