<svg xmlns="http://www.w3.org/2000/svg" viewBox="0 0 2785.39 1503.46"><defs><style>.cls-1{fill:#f5a1af;}.cls-2{fill:#caf8f9;}</style></defs><title>Asset 16Selected</title><g id="Layer_2" data-name="Layer 2"><g id="Layer_6" data-name="Layer 6"><path class="cls-1" d="M2008.71,1029.41C1206,994.5,920.42,847.71,926.19,758.34s597.41-85.18,852.73-177.09,145-143,2-214.47-898.72-98-963.69-98S637.14,234,699.37,176.82,1000.71,42,760,19.55C550.59,0,110.61-.22,0,.05V46C107.59,41.81,522.87,28.29,658.44,65.5c0,0,95.63,23.75,32.06,38.3S458.41,154.35,463,243.2,1009.9,349.67,1009.9,349.67s577,22.22,587.24,72.26-341.72,94-341.72,94S618.75,589.42,451.26,748.74s256.06,377.87,256.06,377.87,405.73,138.89,908.2,159.32c451.55,18.35,1052.68.42,1169.87-3.4V1029.41Z"/><path class="cls-2" d="M1615.52,1285.93c-502.47-20.43-908.2-159.32-908.2-159.32S283.77,908.06,451.26,748.74s804.16-232.85,804.16-232.85,351.93-43.92,341.72-94-587.24-72.26-587.24-72.26S467.6,332.06,463,243.2,626.92,118.35,690.5,103.8s-32.06-38.3-32.06-38.3C522.87,28.29,107.59,41.81,0,46V1503.46H2785.39V1282.53C2668.2,1286.35,2067.07,1304.28,1615.52,1285.93Z"/></g></g></svg>