<svg xmlns="http://www.w3.org/2000/svg" viewBox="0 0 926.44 148.27"><defs><style>.cls-1{fill:#f3c1cc;}</style></defs><title>Asset 6Selected</title><g id="Layer_2" data-name="Layer 2"><g id="Layer_3" data-name="Layer 3"><path class="cls-1" d="M926.37,65.39a32.79,32.79,0,0,0-21.58-33C867.49,18.94,796.34-5,776.82.92c-55.67,16.8-90.38,87.15-154,59.13s-119.48-7.75-125.3-6.92-32.81-39.6-75-35.41S360.1,44.3,331.42,66s-43.87-24.84-96.17-12.87C196.47,62,177.89,89.39,177.89,89.39s-20.9-15-47.24-15c-33.74,0-42.8,25.46-42.8,25.46S82,80.61,38.67,93.41C26.67,97,15,106.35,2,108.38A2.33,2.33,0,0,0,2.33,113H385.2a44,44,0,0,1,22.18,6c17.71,10.33,58.17,30.32,104.56,29.22,62.43-1.47,65.64-28.46,65.64-28.46s16.38,13.4,45.23,8.94c43.23-6.69,47.72-28.63,47.72-28.63s42.17,17.46,84.36,16.32c39.13-1.06,95.65-6.44,132.37-10.31a43.8,43.8,0,0,0,39.11-40.69Z"/></g></g></svg>