<svg xmlns="http://www.w3.org/2000/svg" xmlns:xlink="http://www.w3.org/1999/xlink" viewBox="0 0 2785.39 1389.16"><defs><style>.cls-1{fill:none;}.cls-2{fill:#f5a1af;}.cls-3{fill:#ecedee;}.cls-4{fill:#2c758f;}.cls-5{fill:#1e2227;}.cls-6{fill:#3f3e42;}.cls-7{fill:#cadee9;}.cls-8{fill:#ed3724;}.cls-9{clip-path:url(#clip-path);}.cls-10{fill:#97499b;}.cls-11{fill:#476bb2;}.cls-12{fill:#f9a128;}.cls-13{fill:#f6eb34;}.cls-14{fill:#3bc5f3;}.cls-15{fill:#a7cd41;}.cls-16{fill:#99cee1;}.cls-17{fill:#a8d8eb;}.cls-18{fill:#d6dade;}.cls-19{fill:#8e2d2d;}.cls-20{fill:#0f8abe;}.cls-21{fill:#f5f6f9;}.cls-22{fill:#ea867f;}</style><clipPath id="clip-path"><path class="cls-1" d="M731.54,780.07s-14.37,104.62,2.18,211.65c0,0-8.6,21,38.13,22.68l12,1.06s-.18-46.71,18.13-57.6,34.42-7.86,40.06-6.4c0,0,18.72,5,23.21,56.09,0,0-.37,15,21.69,17.22s161,10.87,161,10.87,14.64-74.27,27.61-81.37,47.28-2.92,51.78,3,6,45.48,12.39,62.58,2.42,34.46,57.14,38.69S1527,1074.61,1527,1074.61s1.7-52.46,16.34-92.66,3.89-139.88,3.89-139.88-87.43-9.93-137,84.31c0,0-33.77-99.65-128.81-110.44S731.54,780.07,731.54,780.07Z"/></clipPath></defs><title>Asset 13Selected</title><g id="Layer_2" data-name="Layer 2"><g id="Layer_6" data-name="Layer 6"><path class="cls-2" d="M2008.71,1029.41C1206,994.5,920.42,847.71,926.19,758.34s597.41-85.18,852.73-177.09,145-143,2-214.47-898.72-98-963.69-98S637.14,234,699.37,176.82,1000.71,42,760,19.55C550.59,0,110.61-.22,0,.05V46C107.59,41.81,522.87,28.29,658.44,65.5c0,0,95.63,23.75,32.06,38.3S458.41,154.35,463,243.2,1009.9,349.67,1009.9,349.67s577,22.22,587.24,72.26-341.72,94-341.72,94S618.75,589.42,451.26,748.74s256.06,377.87,256.06,377.87,405.73,138.89,908.2,159.32c451.55,18.35,1052.68.42,1169.87-3.4V1029.41Z"/><path class="cls-3" d="M772.08,645.38l8.08-13.92s.52-23.9,34.66-34,61-5.27,92-2.52,111.8,8.83,111.8,8.83l197.82,15.72,83.56,7.64s76.47,7,114.29,20.34c3.34,1.18,6.67,2.28,10,3.38,16.48,5.35,60.77,21.2,62.73,37.5l9.43,6.59-3.53,5.62,23.16,98.14,16.63,16.47s7.51.58,9.75,17.78-77.09,168.4-77.09,168.4l-732-228.8.52-6.53s5.55-3.77,4.45-15.37,9.25-19.52,9.25-19.52Z"/><polygon class="cls-4" points="1058.43 1038.13 1033.63 1033.69 1076.48 945.6 1139.21 949.94 1139.01 965.14 1058.43 1038.13"/><path class="cls-5" d="M1132.07,1105.25l-45.31-3.53L1099,962l52.45,4.56,9.79,84.8S1161.05,1079.65,1132.07,1105.25Z"/><path class="cls-6" d="M1127.22,1034.66c-2.93,37.62-20.26,67.13-39.08,67.11-.46,0-.92,0-1.38,0-19.35-1.51-32.6-34-29.6-72.52s21.12-68.57,40.47-67.06S1130.22,996.11,1127.22,1034.66Z"/><ellipse class="cls-7" cx="1092.19" cy="1031.93" rx="48.76" ry="24.48" transform="translate(-21.4 2040.72) rotate(-85.55)"/><path class="cls-5" d="M1438.38,1113.88l-45.3-3.53,12.25-139.69,52.46,4.56,9.79,84.8S1467.37,1088.28,1438.38,1113.88Z"/><path class="cls-6" d="M1433.54,1043.29c-2.93,37.62-20.27,67.13-39.09,67.11-.46,0-.91,0-1.37-.05-19.35-1.51-32.6-34-29.6-72.52s21.12-68.57,40.46-67.06S1436.54,1004.74,1433.54,1043.29Z"/><path class="cls-5" d="M854,1083.6l-45.3-3.53L821,940.38l52.46,4.56,9.79,84.8S883,1058,854,1083.6Z"/><path class="cls-6" d="M849.2,1013c-2.93,37.63-20.27,67.14-39.09,67.12-.46,0-.91,0-1.37-.06-19.35-1.5-32.6-34-29.6-72.52S800.26,939,819.6,940.49,852.2,974.46,849.2,1013Z"/><ellipse class="cls-7" cx="814.17" cy="1010.28" rx="48.76" ry="24.48" transform="matrix(0.08, -1, 1, 0.08, -256.26, 1743.57)"/><path class="cls-8" d="M731.54,780.07s-14.37,104.62,2.18,211.65c0,0-8.6,21,38.13,22.68l12,1.06s-.18-46.71,18.13-57.6,34.42-7.86,40.06-6.4c0,0,18.72,5,23.21,56.09,0,0-.37,15,21.69,17.22s161,10.87,161,10.87,14.64-74.27,27.61-81.37,47.28-2.92,51.78,3,6,45.48,12.39,62.58,2.42,34.46,57.14,38.69S1527,1074.61,1527,1074.61s1.7-52.46,16.34-92.66,3.89-139.88,3.89-139.88-87.43-9.93-137,84.31c0,0-33.77-99.65-128.81-110.44S731.54,780.07,731.54,780.07Z"/><g class="cls-9"><path class="cls-10" d="M1589.51,979.9c-160.19-12.47-295.44,40.82-402,158.39-50.53,55.77-83.51,114.64-101.26,151.27l58.43,4.55c17.44-32.91,44.79-77.37,82.94-119.48,94.69-104.51,215-151.87,357.65-140.76s254.17,76.52,331.55,194.43c31.13,47.43,51.27,95.62,63.42,130.87l58.46,4.55c-11.87-38.94-35.33-102.2-76.62-165.12C1875.07,1066,1749.7,992.38,1589.51,979.9Z"/><path class="cls-8" d="M2357.76,1346c-1.16-6.5-29.66-161.1-132.08-317.93-98.4-150.67-284.41-335.62-611.8-361.11S1074.09,795.36,953.56,929C828,1068.21,776,1216.42,773.86,1222.64l-14.31,41.48,55.76,4.35L825,1240.3c2-5.81,50.47-144,168.72-275.07,112.4-124.6,310.49-268.14,615.93-244.35s478.93,196.24,570.68,336.74c96.45,147.68,123,291.8,124.12,297.86l5.24,29.34,55.76,4.34Z"/><path class="cls-11" d="M1593.71,925.94c-177.77-13.84-327.91,45.38-446.27,176-64.68,71.38-102.6,146.57-118.78,183.13l57.63,4.48c17.75-36.63,50.73-95.5,101.26-151.27,106.52-117.57,241.77-170.86,402-158.39s285.56,86.06,372.61,218.7c41.29,62.92,64.75,126.18,76.62,165.12l57.62,4.49c-10.32-38.62-36.13-118.75-89-199.31C1910.65,1021.53,1771.48,939.78,1593.71,925.94Z"/><path class="cls-12" d="M2180.36,1057.62c-91.75-140.5-265.24-313-570.68-336.74S1106.15,840.63,993.75,965.23C875.5,1096.33,827,1234.49,825,1240.3l-9.72,28.17,55.76,4.34,5.12-14.86c1.86-5.39,46.85-133.51,157.75-256.46,104.26-115.58,288-248.72,571.54-226.65S2049.93,956.9,2135,1087.22c90.55,138.65,115.16,272.18,116.16,277.79l2.76,15.47,55.76,4.34-5.24-29.34C2303.4,1349.42,2276.81,1205.3,2180.36,1057.62Z"/><path class="cls-13" d="M2135,1087.22C2049.93,956.9,1889,796.91,1605.48,774.84s-467.28,111.07-571.54,226.65C923,1124.44,878.05,1252.56,876.19,1258l-5.12,14.86,62.21,4.84-5.92-2.05c1.72-5,43.24-123.07,146.78-237.86,96.11-106.55,265.59-229.3,527.13-208.94s410,167.87,488.45,288c84.53,129.43,107.27,252.54,108.19,257.72l-6.17,1.1,62.22,4.85L2251.2,1365C2250.2,1359.4,2225.59,1225.87,2135,1087.22Z"/><path class="cls-14" d="M1597.91,872c-195.33-15.21-360.39,49.93-490.58,193.62-82.14,90.66-123.91,185.8-135.57,215.05l56.9,4.43c16.18-36.56,54.1-111.75,118.78-183.13,118.36-130.63,268.5-189.85,446.27-176s316.94,95.59,413.66,243c52.86,80.56,78.67,160.69,89,199.31l56.91,4.43c-7-30.7-33.53-131.16-100.65-233.44C1946.23,977.09,1793.25,887.19,1597.91,872Z"/><path class="cls-15" d="M2089.72,1116.81c-78.46-120.14-226.9-267.64-488.45-288s-431,102.39-527.13,208.94C970.6,1152.53,929.08,1270.63,927.36,1275.6l5.92,2.05,38.48,3c11.66-29.25,53.43-124.39,135.57-215.05C1237.52,921.91,1402.58,856.77,1597.91,872s348.32,105.11,454.71,267.22c67.12,102.28,93.66,202.74,100.65,233.44l38.47,3,6.17-1.1C2197,1369.35,2174.25,1246.24,2089.72,1116.81Z"/></g><path class="cls-16" d="M1220.28,694.16,1252,785.61a12.91,12.91,0,0,0,11.18,8.62l129.07,10a7.53,7.53,0,0,0,7.64-10.1l-35.59-96.89a11.73,11.73,0,0,0-10.21-7.66L1230.34,681A9.91,9.91,0,0,0,1220.28,694.16Z"/><path class="cls-16" d="M1389.67,693.42a9.92,9.92,0,0,0-10.06,13.15L1411.36,798a12.89,12.89,0,0,0,11.17,8.62l110.26,8.59L1493,700.61Z"/><path class="cls-16" d="M826.69,655.24l-25.94,75.61a7.37,7.37,0,0,0,6.41,9.75l53.1,4.14a7.39,7.39,0,0,0,7.54-4.91l26.55-75.54a7.38,7.38,0,0,0-6.38-9.81l-53.72-4.21A7.4,7.4,0,0,0,826.69,655.24Z"/><path class="cls-16" d="M911.89,661.87l-25.95,75.61a7.39,7.39,0,0,0,6.41,9.76l53.11,4.13a7.39,7.39,0,0,0,7.54-4.91l26.55-75.54a7.38,7.38,0,0,0-6.39-9.81l-53.71-4.21A7.38,7.38,0,0,0,911.89,661.87Z"/><path class="cls-16" d="M998.69,668.63l-26,75.61a7.38,7.38,0,0,0,6.41,9.75l53.11,4.14a7.39,7.39,0,0,0,7.54-4.91l26.55-75.54a7.38,7.38,0,0,0-6.39-9.81l-53.71-4.21A7.38,7.38,0,0,0,998.69,668.63Z"/><path class="cls-16" d="M1111.8,671.69l66.43,5.07a10.69,10.69,0,0,1,9.3,7.18l25.12,73.26a10.69,10.69,0,0,1-10.94,14.12l-118.42-9.22a10.69,10.69,0,0,1-9.13-14.52L1101,678.47A10.68,10.68,0,0,1,1111.8,671.69Z"/><path class="cls-16" d="M772.08,645.38s-21,46.37-28.51,89l29.3,3.85a8.84,8.84,0,0,0,9.59-6.12c5.26-16.77,18.35-58.79,23-75.8a6.15,6.15,0,0,0-5.28-7.72Z"/><path class="cls-17" d="M797.05,620,808,606.6a4.7,4.7,0,0,1,4-1.71l98.67,8.43a4.69,4.69,0,0,1,3.35,7.5l-9.59,12.73a4.66,4.66,0,0,1-4.11,1.85l-100-7.79A4.68,4.68,0,0,1,797.05,620Z"/><path class="cls-17" d="M927.87,630.15,942,617a6.93,6.93,0,0,1,5.27-1.61l130.42,10.9c4.85.41,7.46,4.7,4.6,7.6l-12.33,12.51a6.88,6.88,0,0,1-5.38,1.76L932.37,637.9C927.38,637.51,924.78,633,927.87,630.15Z"/><path class="cls-18" d="M775.66,631.38,1498,687.93s3.92.43,4,3.07-5.45,4-5.45,4L774.65,638.78s-4.88.22-4.5-4.61S775.66,631.38,775.66,631.38Z"/><path class="cls-19" d="M734,766.07l-7.52,3.19s-5.52,4.91-2.09,8.31a12.69,12.69,0,0,0,7.62,3.6s1.75-1,7.34-.58l537,41.81s78.09,4.54,118.73,86.76c0,0,6.3,16.34,5.58,32.21,0,0,0,7.67,6.86,7,0,0,3.53.69,5.14-6.72s9.47-30.56,22.88-46.1,34.5-34,63.28-42.85,37.74-7.36,49.59-8.81c0,0,5-1.8,5.36-6.53s-3.88-4.86-3.88-4.86-30.91-3.49-68.65,15.05-62,42.17-72.19,65.93c0,0-24-51.51-50.32-68.41s-40.42-27.53-75.46-33S1172,800.3,1172,800.3Z"/><path class="cls-17" d="M1321.83,938.81a4.64,4.64,0,0,1-4.26-4.16c0-.28-3.15-28.7-19.17-29.95-16.29-1.26-23.45,20.57-23.52,20.79a4.65,4.65,0,0,1-8.86-2.83c.38-1.19,9.55-29.06,33.1-27.23,23.75,1.85,27.55,36.8,27.7,38.29a4.64,4.64,0,0,1-4.15,5.08A4,4,0,0,1,1321.83,938.81Z"/><path class="cls-17" d="M1539,955.72a4.66,4.66,0,0,1-4.27-4.16c0-.29-3.14-28.7-19.16-29.95-16.29-1.27-23.46,20.56-23.53,20.78a4.65,4.65,0,1,1-8.86-2.82c.38-1.19,9.56-29.07,33.11-27.23,23.75,1.85,27.55,36.8,27.7,38.28a4.65,4.65,0,0,1-5,5.1Z"/><ellipse class="cls-18" cx="1295.23" cy="942.45" rx="31.42" ry="20.29" transform="translate(255.08 2160.61) rotate(-85.55)"/><path class="cls-19" d="M1297.47,902.11c-14.48-1.12-27.57,15.4-29.24,36.9s8.7,39.86,23.17,41,27.57-15.39,29.24-36.9S1311.94,903.24,1297.47,902.11Zm-5.08,65.21c-9.76-.76-16.76-13.14-15.63-27.64s10-25.65,19.72-24.89,16.76,13.13,15.63,27.64S1302.15,968.08,1292.39,967.32Z"/><ellipse class="cls-18" cx="1513.33" cy="959.43" rx="31.42" ry="20.29" transform="translate(439.32 2393.72) rotate(-85.55)"/><path class="cls-19" d="M1515.57,919.09c-14.47-1.12-27.56,15.4-29.23,36.9s8.7,39.86,23.17,41,27.57-15.4,29.24-36.91S1530.05,920.22,1515.57,919.09Zm-5.07,65.21c-9.76-.76-16.76-13.14-15.63-27.64s10-25.65,19.72-24.89,16.76,13.13,15.63,27.64S1520.26,985.06,1510.5,984.3Z"/><path class="cls-20" d="M1229.42,837.83c.89,6.73,1.58,13.49,2.2,20.25s1.13,13.55,1.52,20.33.69,13.58.87,20.37.17,13.6,0,20.4-.42,13.61-.92,20.4-1.24,13.58-2.42,20.31a115.57,115.57,0,0,1-5,19.88,56.45,56.45,0,0,1-4.34,9.38,28.7,28.7,0,0,1-6.74,8l-.09.06-.07,0a40.71,40.71,0,0,1-7.53,2.17,76,76,0,0,1-7.66,1.11,97.76,97.76,0,0,1-15.4.08l-3.84-.31-3.81-.51-1.91-.25-1.89-.33-3.78-.69c-2.51-.49-5-1.12-7.49-1.67l-7.39-2.08,7.46,1.77c2.51.47,5,1,7.52,1.42l3.78.56,1.89.27,1.91.19,3.8.38,3.81.21a96.54,96.54,0,0,0,15.21-.38,69.82,69.82,0,0,0,7.48-1.23,39.24,39.24,0,0,0,7.14-2.19l-.15.09a28.15,28.15,0,0,0,6.26-7.56,54.92,54.92,0,0,0,4.13-9.1,112.87,112.87,0,0,0,4.81-19.6,303,303,0,0,0,3.45-40.42c.18-6.77.18-13.55.12-20.33s-.21-13.56-.47-20.34C1231.35,864.91,1230.59,851.36,1229.42,837.83Z"/><path class="cls-21" d="M1147.54,1013.44s-5.64,6.4-6.38,19.26,1.91,19.68,30.94,24.19,311.73,27.8,311.73,27.8,33.13,10.67,61-1.84,12.08-56.55-32.31-45l-346.36-27S1157.53,1005.51,1147.54,1013.44Z"/><path class="cls-22" d="M988.46,852c-5.17-8.92-14.66-16.66-23.37-21-28.22-14.2-69.71-17.55-91.69,12.36-13.5,18.37-15.72,44.62-8.71,66.16s24.38,35.27,44.19,41c22.61,6.51,50.82,6.09,69.84-11.3,11-10.1,17.09-26.07,18.47-42.6C998.39,882.3,995.49,864.16,988.46,852Zm-80.75,86.4c-11.76-5.16-23.31-12.25-30-23.24l1.47.17c-.49-.11-.61-.83-.33-1.24a2.41,2.41,0,0,1,1.28-.75A184,184,0,0,0,912.51,899,269.54,269.54,0,0,1,907.71,938.42Zm7.12-58.12a6.46,6.46,0,0,1-.84,2.62,6.54,6.54,0,0,1-2.53,1.88q-19.19,9.9-38.74,19a69,69,0,0,1,9.13-57,22.66,22.66,0,0,1,13.65-10.54,67.39,67.39,0,0,1,23.23-3.46l1.38,1A423,423,0,0,1,914.83,880.3Zm52.67,46.82a64,64,0,0,1-36.1,12.59l2.88-37.26,1.37-.35q15.58,8.32,30.77,17.35c1.74,1,3.73,2.55,3.46,4.56C969.71,925.34,968.58,926.31,967.5,927.12Zm15.25-16.79a216.26,216.26,0,0,1-41.3-25.17c-1.67-1.29-3.4-2.72-4.11-4.71a11.5,11.5,0,0,1-.29-4.75q1.63-20.3,3.25-40.59l1.94-1.68c15.82,1,30,12,37.17,26.13s8,30.89,4.74,46.4A16.06,16.06,0,0,1,982.75,910.33Z"/><path class="cls-22" d="M786.41,922.92a244.24,244.24,0,0,0-17.35-19.67c-2.14-2.25-4.35-4.58-6.46-6.88-9.44-10.26-19.51-22.81-22.64-38.06-2.48-12,1-28.31,11-33.59a15.91,15.91,0,0,1,8.69-1.71A21.3,21.3,0,0,1,771.44,828c5.6,4.65,9.39,11.72,11.71,19.18,2.37,7.62,6.83,15.2,10.09,23-.52-1.26,3.66-9,4.28-10.52,1.67-4,3.91-8,5.27-12.15,2.14-6.49,2.39-13.6,7-18.93,3.52-4.12,9.4-6.29,15.71-5.8,5.84.47,11.95,2.84,19.87,7.67,3.74,2.29,7.74,5.09,9,8.58a18.3,18.3,0,0,1,.68,7,45.63,45.63,0,0,1-9.55,26c-6,7.43-14.23,12.43-23,17.72-7.09,4.28-14.42,8.71-21.12,14.77A79.8,79.8,0,0,0,786.41,922.92Z"/></g></g></svg>