<svg xmlns="http://www.w3.org/2000/svg" viewBox="0 0 288.25 218.01"><defs><style>.cls-1{fill:#eb5886;}.cls-2{fill:#ed3162;}</style></defs><title>Asset 4Selected</title><g id="Layer_2" data-name="Layer 2"><g id="Layer_3" data-name="Layer 3"><path class="cls-1" d="M272.92,45.53H264a1.42,1.42,0,0,0-1.32,1.39v.2A1.38,1.38,0,0,0,264,48.46h.49l1,5.5a1,1,0,0,0-.95,1v.16A.9.9,0,0,0,265,56v2a1.14,1.14,0,0,0,1.21,1h4.23a1,1,0,0,0,1-1V56a1.28,1.28,0,0,0,.61-.91v-.16a1,1,0,0,0-1-1h-.11l1-5.49h1a1.29,1.29,0,0,0,1.2-1.34v-.2A1.33,1.33,0,0,0,272.92,45.53ZM267.46,54,267,48.46h2.37L268.93,54Zm-.74-5.49.45,5.49h-1.41l-1-5.49ZM270.61,54h-1.39l.45-5.49h1.93Z"/><path class="cls-1" d="M260,36.05v0c-.26,0-.51.08-.76.12h0l-.74.13h0c1.2,1.78,2.45,3.43,3.52,4.9l1.16,1.55,2.19-.06a22.8,22.8,0,0,1-3.69-6.94h0A12.35,12.35,0,0,0,260,36.05Z"/><path class="cls-1" d="M267.9,8h2l1.19.09c-.42-3.91-1-6.77-1.72-7.93H268c-.69,1.15-1.29,4-1.71,7.85l.95,0h.7Z"/><path class="cls-1" d="M255,28.29l.08,0L256.2,28l.09,0,1.16-.24.1,0,1.24-.22.11,0,.66-.1a45.17,45.17,0,0,1-.36-5.73c0-1.24,0-2.45.13-3.62A53.27,53.27,0,0,0,254,19.11c-.06.83-.1,1.69-.1,2.55a30.31,30.31,0,0,0,.59,6.77h0A2.42,2.42,0,0,0,255,28.29Z"/><path class="cls-1" d="M265.68,26.71h0c.21,0,.43,0,.65,0l0,0h3.78l.68,0h0l.76,0c.06-1.65.09-3.38.09-5.15q0-2.19-.06-4.26l-1.9-.07h-1.4c-.94,0-1.88,0-2.81.07v-.25h.11c0,1.47-.06,2.89-.06,4.35C265.59,23.27,265.62,25,265.68,26.71Z"/><path class="cls-1" d="M271,35.54c-.43,0-.86-.06-1.28-.07h0l-1.28,0h-1.09c-.36,0-.72,0-1.08.07h0a27.29,27.29,0,0,0,1.53,7.39h1.7A27.69,27.69,0,0,0,271,35.54Z"/><path class="cls-1" d="M277.76,27.4c1.17.17,2.25.37,3.25.58h.05l1.12.24.07,0,.52.12h0a28.71,28.71,0,0,0,.59-6.72c0-.91,0-1.81-.11-2.69-1.52-.35-3.28-.69-5.28-1,.08,1.19.13,2.41.13,3.66A47.8,47.8,0,0,1,277.76,27.4Z"/><path class="cls-1" d="M278,36.23,276.55,36V36a5.19,5.19,0,0,0-.76-.17h0a17.3,17.3,0,0,1-4.15,6.94l2.41,0,1-1.37c1.11-1.51,2.43-3.15,3.69-5.11h0a4.41,4.41,0,0,1-.72-.08Z"/><path class="cls-1" d="M277.58,9.33h-.16a6.72,6.72,0,0,1,1.05.32v0c.93.23,2,.64,2.83.88h0c-1.77-4.41-4.57-7.95-7.9-9.65A18.28,18.28,0,0,0,271,.38c2.2,1.34,4.2,4.44,5.36,8.66h0C276.63,9.13,277.18,9.23,277.58,9.33Z"/><path class="cls-1" d="M254,19.09v0Z"/><path class="cls-1" d="M266.29.34A18.23,18.23,0,0,0,264,.75c-3.13,1.54-5.79,4.61-7.59,8.61a37.49,37.49,0,0,1,4.63-.88C262.35,4.53,264.18,1.6,266.29.34Z"/><path class="cls-1" d="M259.33,18c-.09,1.17-.13,2.38-.13,3.62a45.17,45.17,0,0,0,.36,5.73,56.47,56.47,0,0,1,6.12-.58c-.06-1.64-.09-3.36-.09-5.13,0-1.46,0-2.89.06-4.28a60,60,0,0,0-6.32.63Z"/><path class="cls-1" d="M254.53,28.41h0a29.66,29.66,0,0,1-.59-6.76c0-.86,0-1.71.1-2.54h0v0a56.35,56.35,0,0,0-6.17,2.14,24,24,0,0,0,2.22,8.38c.83-.31,3.28-.89,4.44-1.2Z"/><path class="cls-1" d="M264,.75a18.23,18.23,0,0,1,2.25-.41c-2.11,1.26-3.94,4.19-5.21,8.14a50.74,50.74,0,0,1,5.17-.41c.42-3.87,1-6.7,1.71-7.85h1.38c.7,1.16,1.3,4,1.72,7.93a41.94,41.94,0,0,1,5.33.89h0c-1.27-4.21-3.15-7.35-5.35-8.68a18.23,18.23,0,0,1,2.36.46c3.33,1.7,6.13,5.15,7.9,9.61h0a49.62,49.62,0,0,1,5.44,2C284.24,7.44,279.35.52,268.5,0c-7.76-.36-16.82,4.5-19,12a31.33,31.33,0,0,1,6.95-2.68C258.25,5.36,260.91,2.29,264,.75Z"/><path class="cls-1" d="M258.35,42.06c2.76,2.9,6.71,6.38,11,5.53a11,11,0,0,0,5-2.37c1.3-1.11,2.35-2.47,3.61-3.62s2.79-3.54,3.78-4.66c-.52-.09-2.45-.51-3-.6-1.26,1.87-2.58,3.59-3.69,5.1l-1,1.36h-2.41a18.1,18.1,0,0,0,4.15-6.87c-1.56-.19-3.17-.31-4.77-.39a27.69,27.69,0,0,1-1.52,7.37h-1.7a27.39,27.39,0,0,1-1.53-7.39c-1.62.07-3.19.19-4.66.37a25.76,25.76,0,0,0,3.69,6.89l-2.19,0L262,41.24c-1.07-1.47-2.32-3.11-3.52-4.9-.55.09-3.2,1.09-3.69,1.18A27.82,27.82,0,0,0,258.35,42.06Z"/><path class="cls-1" d="M271.62,26.82a61.48,61.48,0,0,1,6.14.58,47.8,47.8,0,0,0,.34-5.75c0-1.25-.05-2.47-.13-3.66-1.9-.27-4-.48-6.32-.58q.06,2.07.06,4.26C271.71,23.44,271.68,25.17,271.62,26.82Z"/><path class="cls-1" d="M283.36,21.65a28.71,28.71,0,0,1-.59,6.72h0c1,.24,2.36,1,3.16,1.24a23.66,23.66,0,0,0,2.32-8.9,46.66,46.66,0,0,0-5-1.75C283.32,19.84,283.36,20.74,283.36,21.65Z"/><path class="cls-1" d="M268.41,17.15h0s.08.09.13.09.36.05.54.05.27,0,.4,0h.26l1.9.07c-.1-3.44-.3-6.59-.59-9.25l-1.19-.09H267.2l-1,0c-.29,2.67-.42,5.85-.65,9.32h0C266.47,17.35,267.46,17.15,268.41,17.15Z"/><path class="cls-1" d="M259.33,18h0a41.18,41.18,0,0,1,1.75-9.54,41.18,41.18,0,0,0-4.63.88A29.46,29.46,0,0,0,254,19.09v0h0A53.27,53.27,0,0,1,259.33,18Z"/><path class="cls-1" d="M278,18c2,.28,3.76.67,5.28,1a28.74,28.74,0,0,0-2-8.48h0c-.85-.24-1.9-.65-2.83-.88h0a6.72,6.72,0,0,0-1.05-.32h.08c-.4-.1-.87-.2-1.1-.29h0C276.4,11.66,277.73,14.7,278,18Z"/><path class="cls-1" d="M270.14,26.77H267l-.61,0s0-.05,0-.05c-.22,0-.44,0-.65,0h0c.1,0,.31,6.23.59,8.73h0c.36,0,.72,0,1.08,0h1.09l1.28,0h0l1.28,0h0c.29-2.5.49-5.45.6-8.68l-.76,0h0Z"/><path class="cls-1" d="M282.77,28.37h0l-.52-.12-.07,0L281.06,28H281c-1-.21-2.08-.47-3.25-.64a34.17,34.17,0,0,1-2,8.45h0a5.19,5.19,0,0,1,.76.17v0l1.49.22v0a4.43,4.43,0,0,0,.72.09h0a32,32,0,0,0,3.52-6.43,12.18,12.18,0,0,0,.48-1.48Z"/><path class="cls-1" d="M259.17,36.22h0l.76-.11v-.05a12.35,12.35,0,0,1,1.65-.26h0a38.28,38.28,0,0,1-2.05-8.46l-.66.13a.45.45,0,0,0-.11,0l-1.24.23-.1,0-1.16.24-.09,0-1.08.26s-.05,0-.08,0a2.42,2.42,0,0,1-.51.14h0c.16,0,.36,1.31.61,1.93a32.66,32.66,0,0,0,3.29,6h0Z"/><path class="cls-2" d="M145.25,78A72.35,72.35,0,0,0,72.91,5.63c28.63,0,51.85,32.42,51.85,72.37,0,32.06-21.14,76.4-39.31,92.63H78.2c7.66-16.23,16-60.57,16-92.63,0-39.95-9.71-72.34-22.43-72.34h0C31.42,5.64,0,38,0,78c0,32.26,29.52,76.9,55.08,92.9a4.64,4.64,0,0,0-3,4.23v.71c0,2.5,2.84,4.46,5.34,4.46h1.78l3.38,19.95a3.89,3.89,0,0,0-3.48,3.68v.58a3.24,3.24,0,0,0,1.75,3.28v7c0,2.09,2.4,3.23,4.5,3.23h15.2c2.1,0,3.11-1.14,3.11-3.23v-7a3.25,3.25,0,0,0,1.76-3.28v-.58c0-2-.69-4.32-2.72-4.32h-.38l3.59-19.31h3.66c2.5,0,3.74-2,3.74-4.46v-.71a4.2,4.2,0,0,0-3.37-4.46C115.29,154.45,145.25,110.08,145.25,78ZM69.94,199.59,68.3,180.28h8.52l-1.63,19.31ZM21.06,78c0-39.95,23.22-72.35,51.85-72.35C60.83,5.65,51.05,38.06,51.05,78c0,32.06,8.84,76.39,16.54,92.62H60.28C42,154.4,21.06,110.06,21.06,78Zm46.2,102.28,1.63,19.31H63.81l-3.59-19.31Zm14,19.31h-5l1.64-19.31h6.94Z"/></g></g></svg>