<svg xmlns="http://www.w3.org/2000/svg" xmlns:xlink="http://www.w3.org/1999/xlink" viewBox="0 0 1642.2 797.75"><defs><style>.cls-1{fill:none;}.cls-2{fill:#ecedee;}.cls-3{fill:#2c758f;}.cls-4{fill:#1e2227;}.cls-5{fill:#3f3e42;}.cls-6{fill:#cadee9;}.cls-7{fill:#ed3724;}.cls-8{clip-path:url(#clip-path);}.cls-9{fill:#97499b;}.cls-10{fill:#476bb2;}.cls-11{fill:#f9a128;}.cls-12{fill:#f6eb34;}.cls-13{fill:#3bc5f3;}.cls-14{fill:#a7cd41;}.cls-15{fill:#99cee1;}.cls-16{fill:#a8d8eb;}.cls-17{fill:#d6dade;}.cls-18{fill:#8e2d2d;}.cls-19{fill:#0f8abe;}.cls-20{fill:#f5f6f9;}.cls-21{fill:#ea867f;}</style><clipPath id="clip-path"><path class="cls-1" d="M8.26,188.66S-6.11,293.28,10.44,400.31c0,0-8.59,21,38.13,22.67l12,1.06s-.18-46.71,18.12-57.59,34.42-7.87,40.06-6.41c0,0,18.72,5,23.21,56.1,0,0-.37,15,21.69,17.22s161,10.87,161,10.87S339.3,370,352.26,362.85s47.28-2.92,51.78,3,6,45.47,12.39,62.57,2.42,34.47,57.14,38.7S803.7,483.19,803.7,483.19s1.69-52.46,16.34-92.66,3.88-139.88,3.88-139.88S736.5,240.72,687,335c0,0-33.77-99.65-128.81-110.43S8.26,188.66,8.26,188.66Z"/></clipPath></defs><title>Asset 15Selected</title><g id="Layer_2" data-name="Layer 2"><g id="Layer_6" data-name="Layer 6"><path class="cls-2" d="M48.81,54,56.89,40s.52-23.9,34.65-33.94,61-5.28,92-2.52,111.8,8.83,111.8,8.83L493.2,28.13l83.56,7.64s76.47,7,114.29,20.33c3.34,1.19,6.67,2.29,10.05,3.38,16.47,5.36,60.77,21.21,62.73,37.5l9.42,6.59-3.53,5.62,23.16,98.14,16.64,16.47s7.5.59,9.74,17.79S742.17,410,742.17,410l-732-228.81.52-6.53s5.55-3.76,4.45-15.36,9.25-19.53,9.25-19.53Z"/><polygon class="cls-3" points="335.15 446.71 310.35 442.27 353.2 354.19 415.93 358.52 415.74 373.72 335.15 446.71"/><path class="cls-4" d="M408.79,513.83l-45.31-3.53,12.26-139.69,52.46,4.57L438,460S437.77,488.23,408.79,513.83Z"/><path class="cls-5" d="M403.94,443.24c-2.92,37.63-20.26,67.14-39.08,67.12q-.69,0-1.38-.06c-19.34-1.5-32.6-34-29.59-72.51s21.11-68.57,40.46-67.07S407,404.7,403.94,443.24Z"/><ellipse class="cls-6" cx="368.92" cy="440.51" rx="48.76" ry="24.48" transform="translate(-98.91 774.12) rotate(-85.55)"/><path class="cls-4" d="M715.11,522.46l-45.31-3.53,12.25-139.69,52.46,4.57,9.79,84.79S744.09,496.86,715.11,522.46Z"/><path class="cls-5" d="M710.26,451.87C707.33,489.5,690,519,671.18,519q-.69,0-1.38-.06c-19.35-1.5-32.6-34-29.6-72.51s21.12-68.57,40.47-67.07S713.26,413.33,710.26,451.87Z"/><path class="cls-4" d="M130.77,492.19l-45.31-3.53L97.72,349l52.45,4.57,9.79,84.8S159.75,466.59,130.77,492.19Z"/><path class="cls-5" d="M125.92,421.59c-2.93,37.63-20.26,67.14-39.08,67.12-.46,0-.92,0-1.38,0-19.35-1.51-32.6-34-29.6-72.52S77,347.57,96.33,349.07,128.92,383.05,125.92,421.59Z"/><ellipse class="cls-6" cx="90.89" cy="418.87" rx="48.76" ry="24.48" transform="matrix(0.08, -1, 1, 0.08, -333.77, 476.97)"/><path class="cls-7" d="M8.26,188.66S-6.11,293.28,10.44,400.31c0,0-8.59,21,38.13,22.67l12,1.06s-.18-46.71,18.12-57.59,34.42-7.87,40.06-6.41c0,0,18.72,5,23.21,56.1,0,0-.37,15,21.69,17.22s161,10.87,161,10.87S339.3,370,352.26,362.85s47.28-2.92,51.78,3,6,45.47,12.39,62.57,2.42,34.47,57.14,38.7S803.7,483.19,803.7,483.19s1.69-52.46,16.34-92.66,3.88-139.88,3.88-139.88S736.5,240.72,687,335c0,0-33.77-99.65-128.81-110.43S8.26,188.66,8.26,188.66Z"/><g class="cls-8"><path class="cls-9" d="M866.23,388.49C706,376,570.8,429.31,464.27,546.87,413.74,602.64,380.76,661.51,363,698.15l58.43,4.55c17.44-32.91,44.79-77.37,82.94-119.48,94.7-104.51,215-151.87,357.65-140.77S1116.21,519,1193.58,636.88c31.13,47.43,51.27,95.63,63.42,130.87l58.46,4.56c-11.87-38.94-35.33-102.2-76.62-165.13C1151.79,474.54,1026.43,401,866.23,388.49Z"/><path class="cls-7" d="M1634.48,754.54c-1.16-6.51-29.66-161.11-132.08-317.93C1404,285.94,1218,101,890.6,75.5S350.82,203.94,230.28,337.56C104.69,476.8,52.72,625,50.58,631.23L36.27,672.71,92,677.05l9.72-28.17c2-5.8,50.47-144,168.72-275.06C382.87,249.22,581,105.68,886.4,129.46s478.93,196.25,570.68,336.74c96.45,147.69,123,291.8,124.12,297.86l5.24,29.34,55.76,4.35Z"/><path class="cls-10" d="M870.43,334.53c-177.76-13.85-327.91,45.37-446.27,176C359.48,581.92,321.57,657.1,305.38,693.66L363,698.15c17.75-36.64,50.73-95.51,101.26-151.28C570.8,429.31,706,376,866.23,388.49s285.56,86.05,372.61,218.69c41.29,62.93,64.75,126.19,76.62,165.13l57.63,4.48c-10.32-38.61-36.13-118.75-89-199.31C1187.37,430.11,1048.2,348.37,870.43,334.53Z"/><path class="cls-11" d="M1457.08,466.2c-91.75-140.49-265.24-313-570.68-336.74S382.87,249.22,270.47,373.82C152.22,504.91,103.75,643.08,101.75,648.88L92,677.05l55.76,4.34,5.13-14.85c1.85-5.4,46.84-133.52,157.75-256.47,104.25-115.57,288-248.72,571.53-226.64s444.45,182.05,529.57,312.37c90.54,138.65,115.15,272.18,116.15,277.8l2.77,15.46,55.75,4.34-5.24-29.34C1580.12,758,1553.53,613.89,1457.08,466.2Z"/><path class="cls-12" d="M1411.77,495.8c-85.12-130.32-246.08-290.3-529.57-312.37S414.92,294.5,310.67,410.07C199.76,533,154.77,661.14,152.92,666.54l-5.13,14.85L210,686.24l-5.92-2c1.72-5,43.24-123.08,146.78-237.86C447,339.77,616.45,217,878,237.39s410,167.86,488.45,288c84.52,129.43,107.26,252.54,108.19,257.71l-6.18,1.11,62.23,4.84-2.77-15.46C1526.92,768,1502.31,634.45,1411.77,495.8Z"/><path class="cls-13" d="M874.64,280.56C679.3,265.35,514.24,330.5,384.05,474.19c-82.14,90.65-123.91,185.79-135.57,215l56.9,4.43c16.19-36.56,54.1-111.74,118.78-183.13,118.36-130.63,268.51-189.85,446.27-176s316.94,95.58,413.66,243c52.87,80.56,78.68,160.7,89,199.31l56.9,4.43c-7-30.7-33.53-131.16-100.65-233.43C1223,385.68,1070,295.77,874.64,280.56Z"/><path class="cls-14" d="M1366.45,525.4C1288,405.25,1139.55,257.75,878,237.39S447,339.77,350.86,446.33C247.32,561.11,205.8,679.22,204.08,684.19l5.92,2,38.48,3c11.66-29.25,53.43-124.39,135.57-215C514.24,330.5,679.3,265.35,874.64,280.56S1223,385.68,1329.34,547.79C1396.46,650.06,1423,750.52,1430,781.22l38.47,3,6.18-1.11C1473.71,777.94,1451,654.83,1366.45,525.4Z"/></g><path class="cls-15" d="M497,102.75l31.75,91.44a12.88,12.88,0,0,0,11.17,8.62L669,212.86a7.53,7.53,0,0,0,7.65-10.1l-35.6-96.89a11.73,11.73,0,0,0-10.2-7.66L507.06,89.6A9.92,9.92,0,0,0,497,102.75Z"/><path class="cls-15" d="M666.39,102a9.91,9.91,0,0,0-10.06,13.14l31.75,91.45a12.91,12.91,0,0,0,11.18,8.62l110.26,8.58-39.8-114.61Z"/><path class="cls-15" d="M103.42,63.82,77.47,139.43a7.39,7.39,0,0,0,6.41,9.76L137,153.32a7.36,7.36,0,0,0,7.53-4.91l26.56-75.54a7.39,7.39,0,0,0-6.39-9.81L111,58.86A7.37,7.37,0,0,0,103.42,63.82Z"/><path class="cls-15" d="M188.61,70.45l-26,75.61a7.39,7.39,0,0,0,6.41,9.76L222.18,160a7.38,7.38,0,0,0,7.54-4.92l26.55-75.53a7.38,7.38,0,0,0-6.39-9.81l-53.71-4.21A7.4,7.4,0,0,0,188.61,70.45Z"/><path class="cls-15" d="M275.41,77.21l-25.94,75.61a7.38,7.38,0,0,0,6.41,9.76l53.1,4.13a7.38,7.38,0,0,0,7.54-4.91l26.55-75.54a7.37,7.37,0,0,0-6.38-9.8L283,72.25A7.4,7.4,0,0,0,275.41,77.21Z"/><path class="cls-15" d="M388.52,80.28,455,85.34a10.68,10.68,0,0,1,9.3,7.19l25.12,73.26a10.69,10.69,0,0,1-10.94,14.12L360,170.69a10.69,10.69,0,0,1-9.13-14.53l26.86-69.1A10.68,10.68,0,0,1,388.52,80.28Z"/><path class="cls-15" d="M48.81,54s-21,46.37-28.52,89l29.3,3.84a8.83,8.83,0,0,0,9.59-6.12c5.26-16.77,18.35-58.78,23-75.79a6.16,6.16,0,0,0-5.28-7.73Z"/><path class="cls-16" d="M73.77,28.55,84.71,15.18a4.69,4.69,0,0,1,4-1.7l98.67,8.43a4.69,4.69,0,0,1,3.35,7.49l-9.59,12.73A4.7,4.7,0,0,1,177.06,44L77,36.2A4.69,4.69,0,0,1,73.77,28.55Z"/><path class="cls-16" d="M204.59,38.74,218.7,25.61A7,7,0,0,1,224,24l130.42,10.9c4.86.4,7.46,4.69,4.6,7.59L346.66,55a6.84,6.84,0,0,1-5.38,1.75L209.09,46.48C204.1,46.09,201.5,41.62,204.59,38.74Z"/><path class="cls-17" d="M52.38,40l722.3,56.56s3.92.42,4,3.06-5.45,4-5.45,4L51.38,47.37s-4.88.22-4.51-4.62S52.38,40,52.38,40Z"/><path class="cls-18" d="M10.73,174.65l-7.52,3.19s-5.51,4.92-2.09,8.32a12.64,12.64,0,0,0,7.62,3.59s1.75-1,7.34-.57l537,41.81s78.08,4.53,118.72,86.76c0,0,6.3,16.33,5.58,32.2,0,0,0,7.68,6.86,7.05,0,0,3.54.7,5.14-6.72s9.48-30.55,22.89-46.09,34.49-34,63.27-42.85,37.74-7.36,49.6-8.82c0,0,5-1.79,5.35-6.53s-3.88-4.85-3.88-4.85-30.9-3.5-68.65,15-62,42.17-72.19,65.94c0,0-24-51.51-50.31-68.41S595,226.17,560,220.73s-111.23-11.85-111.23-11.85Z"/><path class="cls-16" d="M598.55,347.4a4.64,4.64,0,0,1-4.26-4.16c0-.29-3.15-28.7-19.17-29.95-16.28-1.27-23.45,20.56-23.52,20.78a4.65,4.65,0,1,1-8.86-2.83c.38-1.19,9.56-29.06,33.1-27.22,23.75,1.84,27.55,36.79,27.7,38.28a4.65,4.65,0,0,1-4.15,5.09A4.73,4.73,0,0,1,598.55,347.4Z"/><path class="cls-16" d="M815.71,364.31a4.65,4.65,0,0,1-4.26-4.16c0-.29-3.15-28.71-19.17-29.95C776,328.93,768.83,350.76,768.76,351a4.65,4.65,0,1,1-8.86-2.83c.38-1.19,9.55-29.06,33.1-27.23,23.75,1.85,27.55,36.8,27.7,38.29a4.65,4.65,0,0,1-4.15,5.09A4.74,4.74,0,0,1,815.71,364.31Z"/><ellipse class="cls-17" cx="571.95" cy="351.04" rx="31.42" ry="20.29" transform="translate(177.57 894.01) rotate(-85.55)"/><path class="cls-18" d="M574.19,310.7c-14.47-1.13-27.56,15.39-29.24,36.9s8.7,39.85,23.18,41,27.56-15.4,29.24-36.9S588.66,311.82,574.19,310.7Zm-5.08,65.2c-9.76-.76-16.76-13.13-15.63-27.64s10-25.65,19.72-24.89S590,336.51,588.84,351,578.88,376.66,569.11,375.9Z"/><ellipse class="cls-17" cx="790.05" cy="368.02" rx="31.42" ry="20.29" transform="translate(361.82 1127.12) rotate(-85.55)"/><path class="cls-18" d="M792.3,327.68c-14.48-1.13-27.57,15.39-29.24,36.9s8.7,39.85,23.17,41,27.57-15.39,29.24-36.9S806.77,328.81,792.3,327.68Zm-5.08,65.21c-9.76-.76-16.76-13.14-15.63-27.65s10-25.65,19.72-24.89,16.76,13.14,15.63,27.65S797,393.65,787.22,392.89Z"/><path class="cls-19" d="M506.14,246.41c.9,6.74,1.58,13.5,2.21,20.26s1.12,13.54,1.51,20.33.69,13.57.88,20.37.17,13.6,0,20.4-.41,13.6-.92,20.4a204.31,204.31,0,0,1-2.42,20.3,115.34,115.34,0,0,1-5,19.88,56.47,56.47,0,0,1-4.33,9.38,28.62,28.62,0,0,1-6.75,8l-.08.07-.07,0a40.35,40.35,0,0,1-7.53,2.16,71.38,71.38,0,0,1-7.66,1.11,99.11,99.11,0,0,1-15.41.09l-3.84-.32-3.81-.5-1.91-.26c-.63-.09-1.26-.22-1.89-.33l-3.78-.68c-2.51-.49-5-1.12-7.49-1.67l-7.39-2.08,7.46,1.76c2.51.47,5,1,7.52,1.43l3.79.55c.63.09,1.25.2,1.89.27l1.9.2,3.8.37,3.81.22a97.73,97.73,0,0,0,15.21-.38,74.28,74.28,0,0,0,7.48-1.23,39.6,39.6,0,0,0,7.15-2.2l-.16.1a28.12,28.12,0,0,0,6.26-7.56,54.69,54.69,0,0,0,4.14-9.11,114.6,114.6,0,0,0,4.81-19.59A306.7,306.7,0,0,0,509,327.73c.18-6.78.17-13.55.12-20.33s-.22-13.57-.48-20.34C508.07,273.5,507.31,259.94,506.14,246.41Z"/><path class="cls-20" d="M424.26,422s-5.64,6.4-6.37,19.25,1.9,19.68,30.93,24.19,311.73,27.8,311.73,27.8,33.14,10.67,61-1.84,12.09-56.55-32.31-45.05l-346.36-27S434.26,414.1,424.26,422Z"/><path class="cls-21" d="M265.18,260.61c-5.16-8.93-14.66-16.66-23.37-21-28.22-14.19-69.71-17.55-91.69,12.36-13.5,18.37-15.71,44.62-8.7,66.16s24.37,35.28,44.18,41c22.62,6.51,50.82,6.1,69.84-11.3,11-10.09,17.09-26.07,18.47-42.6C275.11,290.89,272.21,272.74,265.18,260.61ZM184.43,347c-11.76-5.17-23.31-12.26-30-23.24l1.47.16c-.49-.11-.61-.82-.32-1.23a2.3,2.3,0,0,1,1.27-.76,184.71,184.71,0,0,0,32.34-14.37A268.35,268.35,0,0,1,184.43,347Zm7.13-58.12a6.53,6.53,0,0,1-.85,2.61,6.39,6.39,0,0,1-2.52,1.88q-19.19,9.9-38.75,19.05a69,69,0,0,1,9.13-57,22.63,22.63,0,0,1,13.65-10.55,67.66,67.66,0,0,1,23.24-3.46l1.37,1A423,423,0,0,1,191.56,288.89Zm52.67,46.81a63.94,63.94,0,0,1-36.11,12.59L211,311l1.37-.35Q228,319,243.14,328c1.75,1,3.73,2.55,3.47,4.56C246.43,333.93,245.3,334.9,244.23,335.7Zm15.24-16.78a216.26,216.26,0,0,1-41.3-25.17c-1.67-1.3-3.4-2.72-4.11-4.71a11.53,11.53,0,0,1-.28-4.76Q215.4,264,217,243.7L219,242c15.81,1,30,12,37.16,26.14s8,30.88,4.74,46.4A15.83,15.83,0,0,1,259.47,318.92Z"/><path class="cls-21" d="M63.13,331.51a242.44,242.44,0,0,0-17.34-19.67c-2.14-2.26-4.35-4.59-6.46-6.88-9.45-10.27-19.52-22.82-22.65-38.06-2.48-12,1-28.31,11-33.6a15.78,15.78,0,0,1,8.68-1.7,21.2,21.2,0,0,1,11.79,4.94c5.6,4.65,9.39,11.71,11.71,19.17,2.38,7.62,6.84,15.21,10.1,23-.53-1.27,3.65-9.06,4.27-10.53,1.67-4,3.91-8,5.28-12.14,2.14-6.5,2.38-13.6,6.94-18.94,3.53-4.12,9.4-6.29,15.71-5.8,5.84.48,12,2.84,19.88,7.68,3.74,2.28,7.73,5.09,9,8.58a18.24,18.24,0,0,1,.68,7,45.66,45.66,0,0,1-9.55,26C116.26,288,108,293,99.22,298.28,92.13,302.56,84.8,307,78.1,313.05A79.38,79.38,0,0,0,63.13,331.51Z"/></g></g></svg>