<svg xmlns="http://www.w3.org/2000/svg" xmlns:xlink="http://www.w3.org/1999/xlink" viewBox="0 0 2785.39 2339.57"><defs><style>.cls-1{fill:none;}.cls-2{fill:#fce8b6;}.cls-3{fill:#f5a1af;}.cls-4{fill:#caf8f9;}.cls-5{fill:#ecedee;}.cls-6{fill:#2c758f;}.cls-7{fill:#1e2227;}.cls-8{fill:#3f3e42;}.cls-9{fill:#cadee9;}.cls-10{fill:#ed3724;}.cls-11{clip-path:url(#clip-path);}.cls-12{fill:#97499b;}.cls-13{fill:#476bb2;}.cls-14{fill:#f9a128;}.cls-15{fill:#f6eb34;}.cls-16{fill:#3bc5f3;}.cls-17{fill:#a7cd41;}.cls-18{fill:#99cee1;}.cls-19{fill:#a8d8eb;}.cls-20{fill:#d6dade;}.cls-21{fill:#8e2d2d;}.cls-22{fill:#0f8abe;}.cls-23{fill:#f5f6f9;}.cls-24{fill:#ea867f;}</style><clipPath id="clip-path"><path class="cls-1" d="M731.54,1616.19s-14.37,104.62,2.18,211.64c0,0-8.6,21,38.13,22.68l12,1.06s-.18-46.71,18.13-57.59,34.42-7.87,40.06-6.41c0,0,18.72,5,23.21,56.09,0,0-.37,15,21.69,17.23s161,10.87,161,10.87,14.64-74.28,27.61-81.38,47.28-2.92,51.78,3,6,45.47,12.39,62.57,2.42,34.46,57.14,38.69S1527,1910.72,1527,1910.72s1.7-52.46,16.34-92.66,3.89-139.88,3.89-139.88-87.43-9.93-137,84.31c0,0-33.77-99.65-128.81-110.44S731.54,1616.19,731.54,1616.19Z"/></clipPath></defs><title>Asset 58</title><g id="Layer_2" data-name="Layer 2"><g id="Layer_6" data-name="Layer 6"><rect class="cls-2" x="0.39" y="792.9" width="2782" height="1514.5"/><path class="cls-2" d="M760,921.5c240.67,22.46,1.56,100.08-60.67,157.27s52.94,91.92,117.9,91.92,820.72,26.55,963.69,98,253.28,122.55-2,214.47S932,1570.92,926.19,1660.29s279.8,236.16,1082.52,271.07h774.08l2.6-424.67V1381.57L2782.79,0c-2.44,473.56-299.19,496.61-453,496.61-186.53,0-224.68-121.5-442.4-137.79s-358.28,253.23-629.65,257.31-178-130.72-436.32-212.42S471,465,254.52,387.37,0,101.41,0,101.41V902C110.61,901.73,550.59,901.94,760,921.5Z"/><path class="cls-3" d="M2008.71,1865.52C1206,1830.62,920.42,1683.83,926.19,1594.46s597.41-85.18,852.73-177.1,145-143,2-214.47-898.72-98-963.69-98-180.13-34.72-117.9-91.91S1000.71,878.13,760,855.66C550.59,836.1,110.61,835.89,0,836.16v46c107.59-4.24,522.87-17.76,658.44,19.46,0,0,95.63,23.74,32.06,38.29S458.41,990.47,463,1079.32s546.89,106.47,546.89,106.47,577,22.21,587.24,72.25-341.72,94-341.72,94-636.67,73.53-804.16,232.85,256.06,377.87,256.06,377.87,405.73,138.9,908.2,159.32c451.55,18.36,1052.68.42,1169.87-3.4V1865.52Z"/><path class="cls-4" d="M1615.52,2122c-502.47-20.42-908.2-159.32-908.2-159.32s-423.55-218.55-256.06-377.87S1255.42,1352,1255.42,1352s351.93-43.92,341.72-94-587.24-72.25-587.24-72.25S467.6,1168.17,463,1079.32,626.92,954.47,690.5,939.91s-32.06-38.29-32.06-38.29C522.87,864.4,107.59,877.92,0,882.16V2339.57H2785.39V2118.64C2668.2,2122.46,2067.07,2140.4,1615.52,2122Z"/><path class="cls-5" d="M772.08,1481.49l8.08-13.92s.52-23.9,34.66-33.94,61-5.28,92-2.53,111.8,8.83,111.8,8.83l197.82,15.72,83.56,7.64s76.47,7,114.29,20.34c3.34,1.18,6.67,2.29,10,3.38,16.48,5.35,60.77,21.21,62.73,37.5l9.43,6.59-3.53,5.62,23.16,98.14,16.63,16.47s7.51.59,9.75,17.79-77.09,168.4-77.09,168.4l-732-228.81.52-6.53s5.55-3.76,4.45-15.36,9.25-19.53,9.25-19.53Z"/><polygon class="cls-6" points="1058.43 1874.24 1033.63 1869.8 1076.48 1781.72 1139.21 1786.05 1139.01 1801.25 1058.43 1874.24"/><path class="cls-7" d="M1132.07,1941.36l-45.31-3.53L1099,1798.14l52.45,4.56,9.79,84.8S1161.05,1915.76,1132.07,1941.36Z"/><path class="cls-8" d="M1127.22,1870.77c-2.93,37.63-20.26,67.14-39.08,67.12q-.69,0-1.38-.06c-19.35-1.5-32.6-34-29.6-72.52s21.12-68.57,40.47-67.06S1130.22,1832.22,1127.22,1870.77Z"/><ellipse class="cls-9" cx="1092.19" cy="1868.04" rx="48.76" ry="24.48" transform="translate(-854.99 2811.93) rotate(-85.55)"/><path class="cls-7" d="M1438.38,1950l-45.3-3.53,12.25-139.69,52.46,4.56,9.79,84.8S1467.37,1924.39,1438.38,1950Z"/><path class="cls-8" d="M1433.54,1879.4c-2.93,37.63-20.27,67.14-39.09,67.12-.46,0-.91,0-1.37-.06-19.35-1.5-32.6-34-29.6-72.52s21.12-68.57,40.46-67.06S1436.54,1840.85,1433.54,1879.4Z"/><path class="cls-7" d="M854,1919.71l-45.3-3.52L821,1776.49l52.46,4.57,9.79,84.79S883,1894.11,854,1919.71Z"/><path class="cls-8" d="M849.2,1849.12c-2.93,37.63-20.27,67.14-39.09,67.12-.46,0-.91,0-1.37,0-19.35-1.51-32.6-34-29.6-72.52s21.12-68.57,40.46-67.07S852.2,1810.58,849.2,1849.12Z"/><ellipse class="cls-9" cx="814.17" cy="1846.39" rx="48.76" ry="24.48" transform="translate(-1089.85 2514.78) rotate(-85.55)"/><path class="cls-10" d="M731.54,1616.19s-14.37,104.62,2.18,211.64c0,0-8.6,21,38.13,22.68l12,1.06s-.18-46.71,18.13-57.59,34.42-7.87,40.06-6.41c0,0,18.72,5,23.21,56.09,0,0-.37,15,21.69,17.23s161,10.87,161,10.87,14.64-74.28,27.61-81.38,47.28-2.92,51.78,3,6,45.47,12.39,62.57,2.42,34.46,57.14,38.69S1527,1910.72,1527,1910.72s1.7-52.46,16.34-92.66,3.89-139.88,3.89-139.88-87.43-9.93-137,84.31c0,0-33.77-99.65-128.81-110.44S731.54,1616.19,731.54,1616.19Z"/><g class="cls-11"><path class="cls-12" d="M1589.51,1816c-160.19-12.47-295.44,40.82-402,158.38C1137,2030.17,1104,2089,1086.29,2125.68l58.43,4.55c17.44-32.91,44.79-77.38,82.94-119.48,94.69-104.51,215-151.87,357.65-140.77s254.17,76.52,331.55,194.43c31.13,47.43,51.27,95.62,63.42,130.87l58.46,4.55c-11.87-38.93-35.33-102.19-76.62-165.12C1875.07,1902.07,1749.7,1828.49,1589.51,1816Z"/><path class="cls-10" d="M2357.76,2182.06c-1.16-6.5-29.66-161.1-132.08-317.93-98.4-150.66-284.41-335.62-611.8-361.11s-539.79,128.45-660.32,262.07C828,1904.33,776,2052.53,773.86,2058.76l-14.31,41.48,55.76,4.34,9.72-28.17c2-5.8,50.47-144,168.72-275.06,112.4-124.6,310.49-268.14,615.93-244.36s478.93,196.25,570.68,336.74c96.45,147.69,123,291.8,124.12,297.86l5.24,29.34,55.76,4.34Z"/><path class="cls-13" d="M1593.71,1762.05c-177.77-13.84-327.91,45.38-446.27,176-64.68,71.39-102.6,146.57-118.78,183.13l57.63,4.49C1104,2089,1137,2030.17,1187.55,1974.4c106.52-117.56,241.77-170.85,402-158.38s285.56,86,372.61,218.69c41.29,62.93,64.75,126.19,76.62,165.12l57.62,4.49c-10.32-38.61-36.13-118.75-89-199.31C1910.65,1857.64,1771.48,1775.89,1593.71,1762.05Z"/><path class="cls-14" d="M2180.36,1893.73c-91.75-140.49-265.24-313-570.68-336.74s-503.53,119.76-615.93,244.36C875.5,1932.44,827,2070.61,825,2076.41l-9.72,28.17,55.76,4.34,5.12-14.85c1.86-5.4,46.85-133.52,157.75-256.47C1138.2,1722,1322,1588.88,1605.48,1611S2049.93,1793,2135,1923.33c90.55,138.65,115.16,272.18,116.16,277.8l2.76,15.46,55.76,4.34-5.24-29.34C2303.4,2185.53,2276.81,2041.42,2180.36,1893.73Z"/><path class="cls-15" d="M2135,1923.33C2049.93,1793,1889,1633,1605.48,1611S1138.2,1722,1033.94,1837.6c-110.9,123-155.89,251.07-157.75,256.47l-5.12,14.85,62.21,4.84-5.92-2c1.72-5,43.24-123.08,146.78-237.86,96.11-106.56,265.59-229.31,527.13-208.94s410,167.86,488.45,288c84.53,129.42,107.27,252.53,108.19,257.71l-6.17,1.11,62.22,4.84-2.76-15.46C2250.2,2195.51,2225.59,2062,2135,1923.33Z"/><path class="cls-16" d="M1597.91,1708.09c-195.33-15.21-360.39,49.94-490.58,193.62-82.14,90.66-123.91,185.8-135.57,215.05l56.9,4.43c16.18-36.56,54.1-111.74,118.78-183.13,118.36-130.63,268.5-189.85,446.27-176s316.94,95.59,413.66,243c52.86,80.56,78.67,160.7,89,199.31l56.91,4.43c-7-30.7-33.53-131.16-100.65-233.44C1946.23,1813.21,1793.25,1723.3,1597.91,1708.09Z"/><path class="cls-17" d="M2089.72,1952.93c-78.46-120.15-226.9-267.65-488.45-288s-431,102.38-527.13,208.94c-103.54,114.78-145.06,232.89-146.78,237.86l5.92,2,38.48,3c11.66-29.25,53.43-124.39,135.57-215.05,130.19-143.68,295.25-208.83,490.58-193.62s348.32,105.12,454.71,267.22c67.12,102.28,93.66,202.74,100.65,233.44l38.47,3,6.17-1.11C2197,2205.46,2174.25,2082.35,2089.72,1952.93Z"/></g><path class="cls-18" d="M1220.28,1530.28l31.75,91.44a12.89,12.89,0,0,0,11.18,8.62l129.07,10.05a7.53,7.53,0,0,0,7.64-10.1l-35.59-96.89a11.73,11.73,0,0,0-10.21-7.66l-123.78-8.61A9.92,9.92,0,0,0,1220.28,1530.28Z"/><path class="cls-18" d="M1389.67,1529.53a9.92,9.92,0,0,0-10.06,13.15l31.75,91.44a12.88,12.88,0,0,0,11.17,8.62l110.26,8.59L1493,1536.72Z"/><path class="cls-18" d="M826.69,1491.35,800.75,1567a7.38,7.38,0,0,0,6.41,9.76l53.1,4.13a7.39,7.39,0,0,0,7.54-4.91l26.55-75.54a7.38,7.38,0,0,0-6.38-9.81l-53.72-4.21A7.4,7.4,0,0,0,826.69,1491.35Z"/><path class="cls-18" d="M911.89,1498l-25.95,75.61a7.39,7.39,0,0,0,6.41,9.76l53.11,4.13a7.38,7.38,0,0,0,7.54-4.91L979.55,1507a7.37,7.37,0,0,0-6.39-9.8L919.45,1493A7.38,7.38,0,0,0,911.89,1498Z"/><path class="cls-18" d="M998.69,1504.74l-26,75.61a7.39,7.39,0,0,0,6.41,9.76l53.11,4.13a7.38,7.38,0,0,0,7.54-4.91l26.55-75.54A7.38,7.38,0,0,0,1060,1504l-53.71-4.2A7.37,7.37,0,0,0,998.69,1504.74Z"/><path class="cls-18" d="M1111.8,1507.8l66.43,5.07a10.68,10.68,0,0,1,9.3,7.19l25.12,73.25a10.7,10.7,0,0,1-10.94,14.13l-118.42-9.22a10.69,10.69,0,0,1-9.13-14.53l26.87-69.1A10.69,10.69,0,0,1,1111.8,1507.8Z"/><path class="cls-18" d="M772.08,1481.49s-21,46.37-28.51,89l29.3,3.85a8.83,8.83,0,0,0,9.59-6.12c5.26-16.77,18.35-58.79,23-75.8a6.15,6.15,0,0,0-5.28-7.72Z"/><path class="cls-19" d="M797.05,1456.08,808,1442.71a4.66,4.66,0,0,1,4-1.7l98.67,8.43a4.68,4.68,0,0,1,3.35,7.49l-9.59,12.73a4.7,4.7,0,0,1-4.11,1.86l-100-7.79A4.69,4.69,0,0,1,797.05,1456.08Z"/><path class="cls-19" d="M927.87,1466.27,942,1453.14a7,7,0,0,1,5.27-1.6l130.42,10.9c4.85.4,7.46,4.69,4.6,7.59l-12.33,12.52a6.88,6.88,0,0,1-5.38,1.75L932.37,1474C927.38,1473.62,924.78,1469.15,927.87,1466.27Z"/><path class="cls-20" d="M775.66,1467.49,1498,1524s3.92.43,4,3.07-5.45,4-5.45,4l-721.88-56.2s-4.88.21-4.5-4.62S775.66,1467.49,775.66,1467.49Z"/><path class="cls-21" d="M734,1602.18l-7.52,3.19s-5.52,4.91-2.09,8.32a12.64,12.64,0,0,0,7.62,3.59s1.75-1,7.34-.57l537,41.81s78.09,4.53,118.73,86.76c0,0,6.3,16.33,5.58,32.2,0,0,0,7.67,6.86,7,0,0,3.53.7,5.14-6.72s9.47-30.55,22.88-46.09,34.5-34,63.28-42.85,37.74-7.36,49.59-8.82c0,0,5-1.79,5.36-6.53s-3.88-4.86-3.88-4.86-30.91-3.49-68.65,15-62,42.17-72.19,65.94c0,0-24-51.51-50.32-68.41s-40.42-27.54-75.46-33S1172,1636.41,1172,1636.41Z"/><path class="cls-19" d="M1321.83,1774.93a4.64,4.64,0,0,1-4.26-4.16c0-.29-3.15-28.71-19.17-30-16.29-1.27-23.45,20.56-23.52,20.78a4.65,4.65,0,1,1-8.86-2.83c.38-1.19,9.55-29.06,33.1-27.23,23.75,1.85,27.55,36.8,27.7,38.29a4.65,4.65,0,0,1-4.15,5.09A4.74,4.74,0,0,1,1321.83,1774.93Z"/><path class="cls-19" d="M1539,1791.84a4.68,4.68,0,0,1-4.27-4.17c0-.28-3.14-28.7-19.16-30-16.29-1.26-23.46,20.57-23.53,20.79a4.65,4.65,0,0,1-8.86-2.83c.38-1.19,9.56-29.06,33.11-27.23,23.75,1.85,27.55,36.8,27.7,38.29a4.65,4.65,0,0,1-4.16,5.09A5.77,5.77,0,0,1,1539,1791.84Z"/><ellipse class="cls-20" cx="1295.23" cy="1778.56" rx="31.42" ry="20.29" transform="translate(-578.51 2931.82) rotate(-85.55)"/><path class="cls-21" d="M1297.47,1738.23c-14.48-1.13-27.57,15.39-29.24,36.9s8.7,39.85,23.17,41,27.57-15.4,29.24-36.9S1311.94,1739.35,1297.47,1738.23Zm-5.08,65.2c-9.76-.76-16.76-13.13-15.63-27.64s10-25.65,19.72-24.89,16.76,13.14,15.63,27.64S1302.15,1804.19,1292.39,1803.43Z"/><ellipse class="cls-20" cx="1513.33" cy="1795.55" rx="31.42" ry="20.29" transform="translate(-394.27 3164.93) rotate(-85.55)"/><path class="cls-21" d="M1515.57,1755.21c-14.47-1.13-27.56,15.39-29.23,36.9s8.7,39.85,23.17,41,27.57-15.4,29.24-36.9S1530.05,1756.33,1515.57,1755.21Zm-5.07,65.2c-9.76-.76-16.76-13.13-15.63-27.64s10-25.65,19.72-24.89,16.76,13.14,15.63,27.64S1520.26,1821.17,1510.5,1820.41Z"/><path class="cls-22" d="M1229.42,1673.94c.89,6.73,1.58,13.49,2.2,20.26s1.13,13.54,1.52,20.32.69,13.58.87,20.38.17,13.6,0,20.4-.42,13.6-.92,20.39-1.24,13.58-2.42,20.31a115.34,115.34,0,0,1-5,19.88,56.08,56.08,0,0,1-4.34,9.38,28.42,28.42,0,0,1-6.74,8l-.09.07-.07,0a39.92,39.92,0,0,1-7.53,2.16,73.21,73.21,0,0,1-7.66,1.11,97.76,97.76,0,0,1-15.4.08l-3.84-.31-3.81-.5-1.91-.26c-.63-.09-1.26-.22-1.89-.33l-3.78-.68c-2.51-.49-5-1.12-7.49-1.67l-7.39-2.08,7.46,1.76c2.51.47,5,1,7.52,1.42l3.78.56c.63.09,1.26.2,1.89.27l1.91.19,3.8.38,3.81.22a97.76,97.76,0,0,0,15.21-.38,72.45,72.45,0,0,0,7.48-1.24,38.47,38.47,0,0,0,7.14-2.19l-.15.1a28.31,28.31,0,0,0,6.26-7.56,55.39,55.39,0,0,0,4.13-9.11,113,113,0,0,0,4.81-19.59,303.33,303.33,0,0,0,3.45-40.42c.18-6.78.18-13.56.12-20.34s-.21-13.56-.47-20.34C1231.35,1701,1230.59,1687.47,1229.42,1673.94Z"/><path class="cls-23" d="M1147.54,1849.56s-5.64,6.4-6.38,19.25,1.91,19.68,30.94,24.19,311.73,27.8,311.73,27.8,33.13,10.67,61-1.84,12.08-56.55-32.31-45l-346.36-27S1157.53,1841.62,1147.54,1849.56Z"/><path class="cls-24" d="M988.46,1688.14c-5.17-8.93-14.66-16.66-23.37-21-28.22-14.19-69.71-17.55-91.69,12.36-13.5,18.37-15.72,44.62-8.71,66.16s24.38,35.27,44.19,41c22.61,6.51,50.82,6.1,69.84-11.3,11-10.09,17.09-26.07,18.47-42.6C998.39,1718.42,995.49,1700.27,988.46,1688.14Zm-80.75,86.39c-11.76-5.16-23.31-12.25-30-23.23l1.47.16c-.49-.11-.61-.82-.33-1.24a2.41,2.41,0,0,1,1.28-.75,184.71,184.71,0,0,0,32.34-14.37A269.41,269.41,0,0,1,907.71,1774.53Zm7.12-58.12a4.83,4.83,0,0,1-3.37,4.5q-19.19,9.9-38.74,19a69,69,0,0,1,9.13-57,22.63,22.63,0,0,1,13.65-10.55,67.39,67.39,0,0,1,23.23-3.46l1.38,1A422.56,422.56,0,0,1,914.83,1716.41Zm52.67,46.82a64,64,0,0,1-36.1,12.59l2.88-37.26,1.37-.35q15.58,8.32,30.77,17.36c1.74,1,3.73,2.55,3.46,4.56C969.71,1761.46,968.58,1762.43,967.5,1763.23Zm15.25-16.78a217.28,217.28,0,0,1-41.3-25.17c-1.67-1.3-3.4-2.72-4.11-4.72a11.48,11.48,0,0,1-.29-4.75q1.63-20.3,3.25-40.58l1.94-1.69c15.82,1,30,12,37.17,26.13s8,30.89,4.74,46.41A16.17,16.17,0,0,1,982.75,1746.45Z"/><path class="cls-24" d="M786.41,1759a240.85,240.85,0,0,0-17.35-19.67c-2.14-2.26-4.35-4.59-6.46-6.88-9.44-10.27-19.51-22.82-22.64-38.07-2.48-12,1-28.3,11-33.59a15.91,15.91,0,0,1,8.69-1.71,21.31,21.31,0,0,1,11.79,5c5.6,4.65,9.39,11.71,11.71,19.17,2.37,7.62,6.83,15.21,10.09,23-.52-1.27,3.66-9.06,4.28-10.53,1.67-4,3.91-8,5.27-12.15,2.14-6.49,2.39-13.6,7-18.93,3.52-4.12,9.4-6.29,15.71-5.8,5.84.47,11.95,2.84,19.87,7.68,3.74,2.28,7.74,5.08,9,8.58a18.24,18.24,0,0,1,.68,6.95,45.63,45.63,0,0,1-9.55,26c-6,7.43-14.23,12.43-23,17.72-7.09,4.29-14.42,8.71-21.12,14.78A79.38,79.38,0,0,0,786.41,1759Z"/></g></g></svg>